<?xml version="1.0" encoding="UTF-8"?>
<svg width="170px" height="190px" viewBox="0 0 170 190" version="1.1" xmlns="http://www.w3.org/2000/svg" xmlns:xlink="http://www.w3.org/1999/xlink">
    <!-- Generator: Sketch 46.2 (44496) - http://www.bohemiancoding.com/sketch -->
    <title>django-mailer</title>
    <desc>Created with Sketch.</desc>
    <defs>
        <path d="M86.5,1.18504542 L158,42.4655897 L158,42.4655897 C161.094011,44.2519176 163,47.5531878 163,51.1258437 L163,133.686932 L163,133.686932 C163,137.259588 161.094011,140.560858 158,142.347186 L86.5,183.62773 L86.5,183.62773 C83.4059892,185.414058 79.5940108,185.414058 76.5,183.62773 L5,142.347186 L5,142.347186 C1.90598923,140.560858 6.08336567e-14,137.259588 6.03961325e-14,133.686932 L-3.48732631e-16,51.1258437 L3.55271368e-15,51.1258437 C-1.64454429e-15,47.5531878 1.90598923,44.2519176 5,42.4655897 L76.5,1.18504542 L76.5,1.18504542 C79.5940108,-0.601282526 83.4059892,-0.601282526 86.5,1.18504542 Z" id="path-1"></path>
    </defs>
    <g id="Page-2" stroke="none" stroke-width="1" fill="none" fill-rule="evenodd">
        <g id="django-mailer">
            <g transform="translate(4.000000, 3.000000)">
                <g id="Polygon-Copy">
                    <use fill="#E6E6E6" fill-rule="evenodd" xlink:href="#path-1"></use>
                    <path stroke="#9E9E9E" stroke-width="15" d="M82.75,7.68023595 C81.9764973,7.23365396 81.0235027,7.23365396 80.25,7.68023595 L8.75,48.9607802 C7.97649731,49.4073622 7.5,50.2326797 7.5,51.1258437 L7.5,133.686932 C7.5,134.580096 7.97649731,135.405414 8.75,135.851996 L80.25,177.13254 C81.0235027,177.579122 81.9764973,177.579122 82.75,177.13254 L154.25,135.851996 C155.023503,135.405414 155.5,134.580096 155.5,133.686932 L155.5,51.1258437 C155.5,50.2326797 155.023503,49.4073622 154.25,48.9607802 L82.75,7.68023595 Z"></path>
                </g>
                <path d="M118.363636,118.272727 L118.363636,81.1818182 C117.333328,82.3409149 116.222544,83.4034043 115.03125,84.3693182 C106.402419,91.0019271 99.544533,96.4431606 94.4573864,100.693182 C92.8153327,102.077658 91.4791718,103.156246 90.4488636,103.928977 C89.4185555,104.701708 88.0260504,105.482477 86.2713068,106.271307 C84.5165632,107.060137 82.866485,107.454545 81.3210227,107.454545 L81.2244318,107.454545 C79.6789695,107.454545 78.0288913,107.060137 76.2741477,106.271307 C74.5194041,105.482477 73.1268991,104.701708 72.0965909,103.928977 C71.0662827,103.156246 69.7301218,102.077658 68.0880682,100.693182 C63.0009215,96.4431606 56.1430356,91.0019271 47.5142045,84.3693182 C46.3229107,83.4034043 45.2121264,82.3409149 44.1818182,81.1818182 L44.1818182,118.272727 C44.1818182,118.69129 44.3347523,119.053502 44.640625,119.359375 C44.9464977,119.665248 45.30871,119.818182 45.7272727,119.818182 L116.818182,119.818182 C117.236745,119.818182 117.598957,119.665248 117.90483,119.359375 C118.210702,119.053502 118.363636,118.69129 118.363636,118.272727 Z M118.363636,67.5142045 L118.363636,66.3309659 C118.363636,66.1860788 118.355587,65.9768006 118.339489,65.703125 C118.32339,65.4294494 118.275095,65.2282203 118.194602,65.0994318 C118.114109,64.9706433 118.025569,64.8257584 117.928977,64.6647727 C117.832386,64.5037871 117.687501,64.3830496 117.494318,64.3025568 C117.301135,64.222064 117.075759,64.1818182 116.818182,64.1818182 L45.7272727,64.1818182 C45.30871,64.1818182 44.9464977,64.3347523 44.640625,64.640625 C44.3347523,64.9464977 44.1818182,65.30871 44.1818182,65.7272727 C44.1818182,71.1363907 46.5482718,75.7083147 51.28125,79.4431818 C57.4952962,84.3371457 63.9507241,89.4403143 70.6477273,94.7528409 C70.8409101,94.9138266 71.4043514,95.3887271 72.3380682,96.1775568 C73.271785,96.9663865 74.0123079,97.5700737 74.5596591,97.9886364 C75.1070103,98.4071991 75.8233857,98.9142963 76.7088068,99.5099432 C77.5942279,100.10559 78.4071933,100.548294 79.1477273,100.838068 C79.8882613,101.127842 80.5804892,101.272727 81.2244318,101.272727 L81.3210227,101.272727 C81.9649653,101.272727 82.6571933,101.127842 83.3977273,100.838068 C84.1382613,100.548294 84.9512266,100.10559 85.8366477,99.5099432 C86.7220688,98.9142963 87.4384442,98.4071991 87.9857955,97.9886364 C88.5331467,97.5700737 89.2736696,96.9663865 90.2073864,96.1775568 C91.1411032,95.3887271 91.7045445,94.9138266 91.8977273,94.7528409 C98.5947305,89.4403143 105.050158,84.3371457 111.264205,79.4431818 C113.00285,78.0587052 114.620731,76.1993488 116.117898,73.8650568 C117.615064,71.5307648 118.363636,69.4138353 118.363636,67.5142045 Z M124.545455,65.7272727 L124.545455,118.272727 C124.545455,120.397738 123.788833,122.216848 122.275568,123.730114 C120.762303,125.243379 118.943192,126 116.818182,126 L45.7272727,126 C43.6022621,126 41.7831515,125.243379 40.2698864,123.730114 C38.7566212,122.216848 38,120.397738 38,118.272727 L38,65.7272727 C38,63.6022621 38.7566212,61.7831515 40.2698864,60.2698864 C41.7831515,58.7566212 43.6022621,58 45.7272727,58 L116.818182,58 C118.943192,58 120.762303,58.7566212 122.275568,60.2698864 C123.788833,61.7831515 124.545455,63.6022621 124.545455,65.7272727 Z" fill="#9E9E9E"></path>
            </g>
        </g>
    </g>
</svg>