<?xml version="1.0" encoding="UTF-8"?>
<svg width="170px" height="186px" viewBox="0 0 170 186" version="1.1" xmlns="http://www.w3.org/2000/svg" xmlns:xlink="http://www.w3.org/1999/xlink">
    <!-- Generator: Sketch 48.2 (47327) - http://www.bohemiancoding.com/sketch -->
    <title>django-user-accounts</title>
    <desc>Created with Sketch.</desc>
    <defs>
        <path d="M92.3173204,4.08909079 L162.31732,43.2067379 C167.060996,45.8576154 170,50.8667748 170,56.3008901 L170,133.69911 C170,139.133225 167.060996,144.142385 162.31732,146.793262 L92.3173204,185.910909 C87.7700345,188.45204 82.2299655,188.45204 77.6826796,185.910909 L7.68267964,146.793262 C2.93900409,144.142385 6.75015599e-14,139.133225 6.75015599e-14,133.69911 L6.03961325e-14,56.3008901 C5.5067062e-14,50.8667748 2.93900409,45.8576154 7.68267964,43.2067379 L77.6826796,4.08909079 C82.2299655,1.54796043 87.7700345,1.54796043 92.3173204,4.08909079 Z" id="path-1"></path>
    </defs>
    <g id="Hexagons" stroke="none" stroke-width="1" fill="none" fill-rule="evenodd" transform="translate(-674.000000, -37.000000)">
        <g id="django-user-accounts" transform="translate(674.000000, 35.000000)">
            <g>
                <g id="Badge">
                    <use fill="#FFD5C8" fill-rule="evenodd" xlink:href="#path-1"></use>
                    <path stroke="#FF5722" stroke-width="15" d="M88.6586602,10.6361669 C86.3850172,9.36560173 83.6149828,9.36560173 81.3413398,10.6361669 L11.3413398,49.753814 C8.96950205,51.0792527 7.5,53.5838324 7.5,56.3008901 L7.5,133.69911 C7.5,136.416168 8.96950205,138.920747 11.3413398,140.246186 L81.3413398,179.363833 C83.6149828,180.634398 86.3850172,180.634398 88.6586602,179.363833 L158.65866,140.246186 C161.030498,138.920747 162.5,136.416168 162.5,133.69911 L162.5,56.3008901 C162.5,53.5838324 161.030498,51.0792527 158.65866,49.753814 L88.6586602,10.6361669 Z"></path>
                </g>
                <path d="M86,53 C90.7031258,53 95.0781242,54.1757821 99.125,56.5273438 C103.171876,58.8789054 106.371095,62.0781242 108.722656,66.125 C111.074218,70.1718758 112.25,74.5468742 112.25,79.25 C112.25,83.9531258 111.074218,88.3281242 108.722656,92.375 C106.371095,96.4218758 103.171876,99.6210946 99.125,101.972656 C95.0781242,104.324218 90.7031258,105.5 86,105.5 C81.2968742,105.5 76.9218758,104.324218 72.875,101.972656 C68.8281242,99.6210946 65.6289054,96.4218758 63.2773438,92.375 C60.9257821,88.3281242 59.75,83.9531258 59.75,79.25 C59.75,74.5468742 60.9257821,70.1718758 63.2773438,66.125 C65.6289054,62.0781242 68.8281242,58.8789054 72.875,56.5273438 C76.9218758,54.1757821 81.2968742,53 86,53 Z M116.023438,107.796875 C119.523437,108.671874 122.39453,110.531251 124.636719,113.375 C126.878907,116.218749 128,119.445312 128,123.054688 L128,129.125 C128,131.312499 127.234374,133.171876 125.703125,134.703125 C124.171876,136.234374 122.312499,137 120.125,137 L51.875,137 C49.6875008,137 47.8281242,136.234374 46.296875,134.703125 C44.7656258,133.171876 44,131.312499 44,129.125 L44,123.054688 C44,119.445312 45.1210929,116.218749 47.3632812,113.375 C49.6054696,110.531251 52.4765633,108.671874 55.9765625,107.796875 L67.625,104.84375 C72.7656242,108.562501 78.5625008,110.531251 85.015625,110.75 C92.1249992,110.968749 98.5781258,108.999999 104.375,104.84375 L116.023438,107.796875 Z" id="Icon" fill="#FF5722"></path>
            </g>
        </g>
    </g>
</svg>