<?xml version="1.0" encoding="UTF-8"?>
<svg width="169px" height="190px" viewBox="0 0 169 190" version="1.1" xmlns="http://www.w3.org/2000/svg" xmlns:xlink="http://www.w3.org/1999/xlink">
    <!-- Generator: Sketch 48.2 (47327) - http://www.bohemiancoding.com/sketch -->
    <title>django-user-accounts</title>
    <desc>Created with Sketch.</desc>
    <defs>
        <polygon id="path-1" points="69.2820323 0 138.564065 40 138.564065 120 69.2820323 160 9.05941988e-14 120 4.61852778e-14 40"></polygon>
    </defs>
    <g id="Hexagons" stroke="none" stroke-width="1" fill="none" fill-rule="evenodd" transform="translate(-676.000000, -35.000000)">
        <g id="django-user-accounts" transform="translate(691.000000, 50.000000)">
            <g id="Polygon-Copy-3" stroke-linejoin="round">
                <use fill="#FFD5C8" fill-rule="evenodd" xlink:href="#path-1"></use>
                <path stroke="#FF5722" stroke-width="15" d="M69.2820323,-8.66025404 L146.064065,35.669873 L146.064065,124.330127 L69.2820323,168.660254 L-7.5,124.330127 L-7.5,35.669873 L69.2820323,-8.66025404 Z"></path>
            </g>
            <path d="M69,38 C73.7031258,38 78.0781242,39.1757821 82.125,41.5273438 C86.1718758,43.8789054 89.3710946,47.0781242 91.7226562,51.125 C94.0742179,55.1718758 95.25,59.5468742 95.25,64.25 C95.25,68.9531258 94.0742179,73.3281242 91.7226562,77.375 C89.3710946,81.4218758 86.1718758,84.6210946 82.125,86.9726562 C78.0781242,89.3242179 73.7031258,90.5 69,90.5 C64.2968742,90.5 59.9218758,89.3242179 55.875,86.9726562 C51.8281242,84.6210946 48.6289054,81.4218758 46.2773438,77.375 C43.9257821,73.3281242 42.75,68.9531258 42.75,64.25 C42.75,59.5468742 43.9257821,55.1718758 46.2773438,51.125 C48.6289054,47.0781242 51.8281242,43.8789054 55.875,41.5273438 C59.9218758,39.1757821 64.2968742,38 69,38 Z M99.0234375,92.796875 C102.523437,93.6718742 105.39453,95.5312508 107.636719,98.375 C109.878907,101.218749 111,104.445312 111,108.054688 L111,114.125 C111,116.312499 110.234374,118.171876 108.703125,119.703125 C107.171876,121.234374 105.312499,122 103.125,122 L34.875,122 C32.6875008,122 30.8281242,121.234374 29.296875,119.703125 C27.7656258,118.171876 27,116.312499 27,114.125 L27,108.054688 C27,104.445312 28.1210929,101.218749 30.3632812,98.375 C32.6054696,95.5312508 35.4765633,93.6718742 38.9765625,92.796875 L50.625,89.84375 C55.7656242,93.5625008 61.5625008,95.5312508 68.015625,95.75 C75.1249992,95.9687492 81.5781258,93.9999992 87.375,89.84375 L99.0234375,92.796875 Z" fill="#FF5722"></path>
        </g>
    </g>
</svg>