<?xml version="1.0" encoding="UTF-8"?>
<svg width="170px" height="186px" viewBox="0 0 170 186" version="1.1" xmlns="http://www.w3.org/2000/svg" xmlns:xlink="http://www.w3.org/1999/xlink">
    <!-- Generator: Sketch 48.2 (47327) - http://www.bohemiancoding.com/sketch -->
    <title>django-mailer</title>
    <desc>Created with Sketch.</desc>
    <defs>
        <path d="M92.3173204,4.08909079 L162.31732,43.2067379 C167.060996,45.8576154 170,50.8667748 170,56.3008901 L170,133.69911 C170,139.133225 167.060996,144.142385 162.31732,146.793262 L92.3173204,185.910909 C87.7700345,188.45204 82.2299655,188.45204 77.6826796,185.910909 L7.68267964,146.793262 C2.93900409,144.142385 -3.55271368e-15,139.133225 -3.55271368e-15,133.69911 L-1.0658141e-14,56.3008901 C-1.59872116e-14,50.8667748 2.93900409,45.8576154 7.68267964,43.2067379 L77.6826796,4.08909079 C82.2299655,1.54796043 87.7700345,1.54796043 92.3173204,4.08909079 Z" id="path-1"></path>
    </defs>
    <g id="Hexagons" stroke="none" stroke-width="1" fill="none" fill-rule="evenodd" transform="translate(-254.000000, -37.000000)">
        <g id="django-mailer" transform="translate(254.000000, 35.000000)">
            <g>
                <g id="Badge">
                    <use fill="#E6E6E6" fill-rule="evenodd" xlink:href="#path-1"></use>
                    <path stroke="#9E9E9E" stroke-width="15" d="M88.6586602,10.6361669 C86.3850172,9.36560173 83.6149828,9.36560173 81.3413398,10.6361669 L11.3413398,49.753814 C8.96950205,51.0792527 7.5,53.5838324 7.5,56.3008901 L7.5,133.69911 C7.5,136.416168 8.96950205,138.920747 11.3413398,140.246186 L81.3413398,179.363833 C83.6149828,180.634398 86.3850172,180.634398 88.6586602,179.363833 L158.65866,140.246186 C161.030498,138.920747 162.5,136.416168 162.5,133.69911 L162.5,56.3008901 C162.5,53.5838324 161.030498,51.0792527 158.65866,49.753814 L88.6586602,10.6361669 Z"></path>
                </g>
                <path d="M125.625,58 C128.229166,58 130.442709,58.9114572 132.265625,60.7343685 C134.088541,62.5572798 135,64.7708182 135,67.3749776 L135,123.624844 C135,126.229003 134.088541,128.442541 132.265625,130.265453 C130.442709,132.088364 128.229166,132.999821 125.625,132.999821 L44.375,132.999821 C41.7708343,132.999821 39.5572907,132.088364 37.734375,130.265453 C35.9114593,128.442541 35,126.229003 35,123.624844 L35,67.3749776 C35,64.7708182 35.9114593,62.5572798 37.734375,60.7343685 C39.5572907,58.9114572 41.7708343,58 44.375,58 L125.625,58 Z M125.624784,67.3749776 L44.3749776,67.3749776 L44.3749776,75.3827711 C48.9322575,79.0285967 57.721299,85.9296209 70.7421023,96.0858467 L72.4999106,97.648343 C75.1040701,99.8618784 77.1873994,101.424375 78.7498957,102.335832 C81.2238491,104.028537 83.3071755,104.874888 84.9998808,104.874888 C86.6925861,104.874888 88.7759125,104.028537 91.2498659,102.335832 C92.8123622,101.424375 94.8956915,99.8618784 97.499851,97.648343 L99.2576593,96.0858467 C112.278463,86.0598299 121.067504,79.1588027 125.624784,75.3827711 L125.624784,67.3749776 Z M44.3749776,123.624844 L125.624784,123.624844 L125.624784,87.2968052 L102.968588,105.265512 C99.7133864,107.999881 97.0441239,109.953001 94.9607945,111.124873 C91.4451779,113.208203 88.1248733,114.249866 84.9998808,114.249866 C81.8748882,114.249866 78.4894806,113.208203 74.843655,111.124873 C72.8905347,109.953001 70.2212692,107.999881 66.8358616,105.265512 L44.3749776,87.2968052 L44.3749776,123.624844 Z" id="Icon" fill="#9E9E9E"></path>
            </g>
        </g>
    </g>
</svg>