<?xml version="1.0" encoding="UTF-8"?>
<svg width="170px" height="186px" viewBox="0 0 170 186" version="1.1" xmlns="http://www.w3.org/2000/svg" xmlns:xlink="http://www.w3.org/1999/xlink">
    <!-- Generator: Sketch 48.2 (47327) - http://www.bohemiancoding.com/sketch -->
    <title>django-user-accounts</title>
    <desc>Created with Sketch.</desc>
    <defs>
        <path d="M92.3173204,4.08909079 L162.31732,43.2067379 C167.060996,45.8576154 170,50.8667748 170,56.3008901 L170,133.69911 C170,139.133225 167.060996,144.142385 162.31732,146.793262 L92.3173204,185.910909 C87.7700345,188.45204 82.2299655,188.45204 77.6826796,185.910909 L7.68267964,146.793262 C2.93900409,144.142385 6.75015599e-14,139.133225 6.75015599e-14,133.69911 L6.03961325e-14,56.3008901 C5.5067062e-14,50.8667748 2.93900409,45.8576154 7.68267964,43.2067379 L77.6826796,4.08909079 C82.2299655,1.54796043 87.7700345,1.54796043 92.3173204,4.08909079 Z" id="path-1"></path>
    </defs>
    <g id="Hexagons" stroke="none" stroke-width="1" fill="none" fill-rule="evenodd" transform="translate(-674.000000, -37.000000)">
        <g id="django-user-accounts" transform="translate(674.000000, 35.000000)">
            <g>
                <g id="Badge">
                    <use fill="#FFD5C8" fill-rule="evenodd" xlink:href="#path-1"></use>
                    <path stroke="#FF5722" stroke-width="15" d="M88.6586602,10.6361669 C86.3850172,9.36560173 83.6149828,9.36560173 81.3413398,10.6361669 L11.3413398,49.753814 C8.96950205,51.0792527 7.5,53.5838324 7.5,56.3008901 L7.5,133.69911 C7.5,136.416168 8.96950205,138.920747 11.3413398,140.246186 L81.3413398,179.363833 C83.6149828,180.634398 86.3850172,180.634398 88.6586602,179.363833 L158.65866,140.246186 C161.030498,138.920747 162.5,136.416168 162.5,133.69911 L162.5,56.3008901 C162.5,53.5838324 161.030498,51.0792527 158.65866,49.753814 L88.6586602,10.6361669 Z"></path>
                </g>
                <path d="M85,53 C89.7031258,53 94.0781242,54.1757821 98.125,56.5273438 C102.171876,58.8789054 105.371095,62.0781242 107.722656,66.125 C110.074218,70.1718758 111.25,74.5468742 111.25,79.25 C111.25,83.9531258 110.074218,88.3281242 107.722656,92.375 C105.371095,96.4218758 102.171876,99.6210946 98.125,101.972656 C94.0781242,104.324218 89.7031258,105.5 85,105.5 C80.2968742,105.5 75.9218758,104.324218 71.875,101.972656 C67.8281242,99.6210946 64.6289054,96.4218758 62.2773438,92.375 C59.9257821,88.3281242 58.75,83.9531258 58.75,79.25 C58.75,74.5468742 59.9257821,70.1718758 62.2773438,66.125 C64.6289054,62.0781242 67.8281242,58.8789054 71.875,56.5273438 C75.9218758,54.1757821 80.2968742,53 85,53 Z M115.023438,107.796875 C118.523437,108.671874 121.39453,110.531251 123.636719,113.375 C125.878907,116.218749 127,119.445312 127,123.054688 L127,129.125 C127,131.312499 126.234374,133.171876 124.703125,134.703125 C123.171876,136.234374 121.312499,137 119.125,137 L50.875,137 C48.6875008,137 46.8281242,136.234374 45.296875,134.703125 C43.7656258,133.171876 43,131.312499 43,129.125 L43,123.054688 C43,119.445312 44.1210929,116.218749 46.3632812,113.375 C48.6054696,110.531251 51.4765633,108.671874 54.9765625,107.796875 L66.625,104.84375 C71.7656242,108.562501 77.5625008,110.531251 84.015625,110.75 C91.1249992,110.968749 97.5781258,108.999999 103.375,104.84375 L115.023438,107.796875 Z" id="Icon" fill="#FF5722"></path>
            </g>
        </g>
    </g>
</svg>