<?xml version="1.0" encoding="UTF-8"?>
<svg width="170px" height="186px" viewBox="0 0 170 186" version="1.1" xmlns="http://www.w3.org/2000/svg" xmlns:xlink="http://www.w3.org/1999/xlink">
    <!-- Generator: Sketch 48.2 (47327) - http://www.bohemiancoding.com/sketch -->
    <title>django-mailer</title>
    <desc>Created with Sketch.</desc>
    <defs>
        <path d="M92.3173204,4.08909079 L162.31732,43.2067379 C167.060996,45.8576154 170,50.8667748 170,56.3008901 L170,133.69911 C170,139.133225 167.060996,144.142385 162.31732,146.793262 L92.3173204,185.910909 C87.7700345,188.45204 82.2299655,188.45204 77.6826796,185.910909 L7.68267964,146.793262 C2.93900409,144.142385 -3.55271368e-15,139.133225 -3.55271368e-15,133.69911 L-1.0658141e-14,56.3008901 C-1.59872116e-14,50.8667748 2.93900409,45.8576154 7.68267964,43.2067379 L77.6826796,4.08909079 C82.2299655,1.54796043 87.7700345,1.54796043 92.3173204,4.08909079 Z" id="path-1"></path>
    </defs>
    <g id="Hexagons" stroke="none" stroke-width="1" fill="none" fill-rule="evenodd" transform="translate(-254.000000, -37.000000)">
        <g id="django-mailer" transform="translate(254.000000, 35.000000)">
            <g>
                <g id="Badge">
                    <use fill="#E6E6E6" fill-rule="evenodd" xlink:href="#path-1"></use>
                    <path stroke="#9E9E9E" stroke-width="15" d="M88.6586602,10.6361669 C86.3850172,9.36560173 83.6149828,9.36560173 81.3413398,10.6361669 L11.3413398,49.753814 C8.96950205,51.0792527 7.5,53.5838324 7.5,56.3008901 L7.5,133.69911 C7.5,136.416168 8.96950205,138.920747 11.3413398,140.246186 L81.3413398,179.363833 C83.6149828,180.634398 86.3850172,180.634398 88.6586602,179.363833 L158.65866,140.246186 C161.030498,138.920747 162.5,136.416168 162.5,133.69911 L162.5,56.3008901 C162.5,53.5838324 161.030498,51.0792527 158.65866,49.753814 L88.6586602,10.6361669 Z"></path>
                </g>
                <path d="M127.625,58 C130.229166,58 132.442709,58.9114572 134.265625,60.7343685 C136.088541,62.5572798 137,64.7708182 137,67.3749776 L137,123.624844 C137,126.229003 136.088541,128.442541 134.265625,130.265453 C132.442709,132.088364 130.229166,132.999821 127.625,132.999821 L46.375,132.999821 C43.7708343,132.999821 41.5572907,132.088364 39.734375,130.265453 C37.9114593,128.442541 37,126.229003 37,123.624844 L37,67.3749776 C37,64.7708182 37.9114593,62.5572798 39.734375,60.7343685 C41.5572907,58.9114572 43.7708343,58 46.375,58 L127.625,58 Z M127.624784,67.3749776 L46.3749776,67.3749776 L46.3749776,75.3827711 C50.9322575,79.0285967 59.721299,85.9296209 72.7421023,96.0858467 L74.4999106,97.648343 C77.1040701,99.8618784 79.1873994,101.424375 80.7498957,102.335832 C83.2238491,104.028537 85.3071755,104.874888 86.9998808,104.874888 C88.6925861,104.874888 90.7759125,104.028537 93.2498659,102.335832 C94.8123622,101.424375 96.8956915,99.8618784 99.499851,97.648343 L101.257659,96.0858467 C114.278463,86.0598299 123.067504,79.1588027 127.624784,75.3827711 L127.624784,67.3749776 Z M46.3749776,123.624844 L127.624784,123.624844 L127.624784,87.2968052 L104.968588,105.265512 C101.713386,107.999881 99.0441239,109.953001 96.9607945,111.124873 C93.4451779,113.208203 90.1248733,114.249866 86.9998808,114.249866 C83.8748882,114.249866 80.4894806,113.208203 76.843655,111.124873 C74.8905347,109.953001 72.2212692,107.999881 68.8358616,105.265512 L46.3749776,87.2968052 L46.3749776,123.624844 Z" id="Icon" fill="#9E9E9E"></path>
            </g>
        </g>
    </g>
</svg>