<?xml version="1.0" encoding="UTF-8"?>
<svg width="169px" height="190px" viewBox="0 0 169 190" version="1.1" xmlns="http://www.w3.org/2000/svg" xmlns:xlink="http://www.w3.org/1999/xlink">
    <!-- Generator: Sketch 46.2 (44496) - http://www.bohemiancoding.com/sketch -->
    <title>django-user-accounts</title>
    <desc>Created with Sketch.</desc>
    <defs>
        <path d="M86.5,2.88675135 L158,44.1672956 L158,44.1672956 C161.094011,45.9536235 163,49.2548937 163,52.8275496 L163,135.388638 L163,135.388638 C163,138.961294 161.094011,142.262564 158,144.048892 L86.5,185.329436 L86.5,185.329436 C83.4059892,187.115764 79.5940108,187.115764 76.5,185.329436 L5,144.048892 L5,144.048892 C1.90598923,142.262564 1.27897692e-13,138.961294 1.17239551e-13,135.388638 L5.15143483e-14,52.8275496 L6.03961325e-14,52.8275496 C6.39488462e-14,49.2548937 1.90598923,45.9536235 5,44.1672956 L76.5,2.88675135 L76.5,2.88675135 C79.5940108,1.1004234 83.4059892,1.1004234 86.5,2.88675135 Z" id="path-1"></path>
    </defs>
    <g id="Page-2" stroke="none" stroke-width="1" fill="none" fill-rule="evenodd">
        <g id="django-user-accounts">
            <g transform="translate(3.000000, 1.000000)">
                <g id="Polygon-Copy-3">
                    <use fill="#FFD5C8" fill-rule="evenodd" xlink:href="#path-1"></use>
                    <path stroke="#FF5722" stroke-width="15" d="M82.75,9.38194187 C81.9764973,8.93535989 81.0235027,8.93535989 80.25,9.38194187 L8.75,50.6624861 C7.97649731,51.1090681 7.5,51.9343857 7.5,52.8275496 L7.5,135.388638 C7.5,136.281802 7.97649731,137.10712 8.75,137.553702 L80.25,178.834246 C81.0235027,179.280828 81.9764973,179.280828 82.75,178.834246 L154.25,137.553702 C155.023503,137.10712 155.5,136.281802 155.5,135.388638 L155.5,52.8275496 C155.5,51.9343857 155.023503,51.1090681 154.25,50.6624861 L82.75,9.38194187 Z"></path>
                </g>
                <path d="M112.5,119.060547 C112.5,122.608742 111.482758,125.652331 109.448242,128.191406 C107.413727,130.730481 104.964207,132 102.099609,132 L60.4003906,132 C57.535793,132 55.0862732,130.730481 53.0517578,128.191406 C51.0172424,125.652331 50,122.608742 50,119.060547 C50,116.293606 50.138345,113.681327 50.4150391,111.223633 C50.6917332,108.765938 51.2044233,106.292005 51.953125,103.801758 C52.7018267,101.311511 53.6539656,99.1793708 54.8095703,97.4052734 C55.965175,95.631176 57.4951077,94.1826228 59.3994141,93.0595703 C61.3037205,91.9365178 63.4928262,91.375 65.9667969,91.375 C70.2311411,95.5416875 75.3254912,97.625 81.25,97.625 C87.1745088,97.625 92.2688589,95.5416875 96.5332031,91.375 C99.0071738,91.375 101.19628,91.9365178 103.100586,93.0595703 C105.004892,94.1826228 106.534825,95.631176 107.69043,97.4052734 C108.846034,99.1793708 109.798173,101.311511 110.546875,103.801758 C111.295577,106.292005 111.808267,108.765938 112.084961,111.223633 C112.361655,113.681327 112.5,116.293606 112.5,119.060547 Z M100,75.75 C100,80.9258071 98.1689636,85.3447083 94.5068359,89.0068359 C90.8447083,92.6689636 86.4258071,94.5 81.25,94.5 C76.0741929,94.5 71.6552917,92.6689636 67.9931641,89.0068359 C64.3310364,85.3447083 62.5,80.9258071 62.5,75.75 C62.5,70.5741929 64.3310364,66.1552917 67.9931641,62.4931641 C71.6552917,58.8310364 76.0741929,57 81.25,57 C86.4258071,57 90.8447083,58.8310364 94.5068359,62.4931641 C98.1689636,66.1552917 100,70.5741929 100,75.75 Z" fill="#FF5722"></path>
            </g>
        </g>
    </g>
</svg>