<?xml version="1.0" encoding="UTF-8"?>
<svg width="169px" height="190px" viewBox="0 0 169 190" version="1.1" xmlns="http://www.w3.org/2000/svg" xmlns:xlink="http://www.w3.org/1999/xlink">
    <!-- Generator: Sketch 48.2 (47327) - http://www.bohemiancoding.com/sketch -->
    <title>django-mailer</title>
    <desc>Created with Sketch.</desc>
    <defs>
        <polygon id="path-1" points="69.2820323 0 138.564065 40 138.564065 120 69.2820323 160 3.19744231e-14 120 -1.24344979e-14 40"></polygon>
    </defs>
    <g id="Hexagons" stroke="none" stroke-width="1" fill="none" fill-rule="evenodd" transform="translate(-256.000000, -35.000000)">
        <g id="django-mailer" transform="translate(271.000000, 50.000000)">
            <g id="Polygon-Copy" stroke-linejoin="round">
                <use fill="#E6E6E6" fill-rule="evenodd" xlink:href="#path-1"></use>
                <path stroke="#9E9E9E" stroke-width="15" d="M69.2820323,-8.66025404 L146.064065,35.669873 L146.064065,124.330127 L69.2820323,168.660254 L-7.5,124.330127 L-7.5,35.669873 L69.2820323,-8.66025404 Z"></path>
            </g>
            <path d="M110.625,43 C113.229166,43 115.442709,43.9114572 117.265625,45.7343685 C119.088541,47.5572798 120,49.7708182 120,52.3749776 L120,108.624844 C120,111.229003 119.088541,113.442541 117.265625,115.265453 C115.442709,117.088364 113.229166,117.999821 110.625,117.999821 L29.375,117.999821 C26.7708343,117.999821 24.5572907,117.088364 22.734375,115.265453 C20.9114593,113.442541 20,111.229003 20,108.624844 L20,52.3749776 C20,49.7708182 20.9114593,47.5572798 22.734375,45.7343685 C24.5572907,43.9114572 26.7708343,43 29.375,43 L110.625,43 Z M110.624784,52.3749776 L29.3749776,52.3749776 L29.3749776,60.3827711 C33.9322575,64.0285967 42.721299,70.9296209 55.7421023,81.0858467 L57.4999106,82.648343 C60.1040701,84.8618784 62.1873994,86.4243746 63.7498957,87.3358318 C66.2238491,89.0285371 68.3071755,89.8748882 69.9998808,89.8748882 C71.6925861,89.8748882 73.7759125,89.0285371 76.2498659,87.3358318 C77.8123622,86.4243746 79.8956915,84.8618784 82.499851,82.648343 L84.2576593,81.0858467 C97.2784626,71.0598299 106.067504,64.1588027 110.624784,60.3827711 L110.624784,52.3749776 Z M29.3749776,108.624844 L110.624784,108.624844 L110.624784,72.2968052 L87.9685879,90.2655123 C84.7133864,92.9998808 82.0441239,94.9530011 79.9607945,96.1248733 C76.4451779,98.2082027 73.1248733,99.2498659 69.9998808,99.2498659 C66.8748882,99.2498659 63.4894806,98.2082027 59.843655,96.1248733 C57.8905347,94.9530011 55.2212692,92.9998808 51.8358616,90.2655123 L29.3749776,72.2968052 L29.3749776,108.624844 Z" fill="#9E9E9E"></path>
        </g>
    </g>
</svg>