<?xml version="1.0" encoding="UTF-8"?>
<svg width="170px" height="190px" viewBox="0 0 170 190" version="1.1" xmlns="http://www.w3.org/2000/svg" xmlns:xlink="http://www.w3.org/1999/xlink">
    <!-- Generator: Sketch 46.2 (44496) - http://www.bohemiancoding.com/sketch -->
    <title>pinax-news</title>
    <desc>Created with Sketch.</desc>
    <defs>
        <path d="M86.5,2.88675135 L158,44.1672956 L158,44.1672956 C161.094011,45.9536235 163,49.2548937 163,52.8275496 L163,135.388638 L163,135.388638 C163,138.961294 161.094011,142.262564 158,144.048892 L86.5,185.329436 L86.5,185.329436 C83.4059892,187.115764 79.5940108,187.115764 76.5,185.329436 L5,144.048892 L5,144.048892 C1.90598923,142.262564 7.10542736e-14,138.961294 6.03961325e-14,135.388638 L-5.32907052e-15,52.8275496 L3.55271368e-15,52.8275496 C7.10542736e-15,49.2548937 1.90598923,45.9536235 5,44.1672956 L76.5,2.88675135 L76.5,2.88675135 C79.5940108,1.1004234 83.4059892,1.1004234 86.5,2.88675135 Z" id="path-1"></path>
    </defs>
    <g id="Page-2" stroke="none" stroke-width="1" fill="none" fill-rule="evenodd">
        <g id="pinax-news">
            <g transform="translate(4.000000, 1.000000)">
                <g id="Polygon-Copy-15">
                    <use fill="#D8CDEC" fill-rule="evenodd" xlink:href="#path-1"></use>
                    <path stroke="#673AB7" stroke-width="15" d="M82.75,9.38194187 C81.9764973,8.93535989 81.0235027,8.93535989 80.25,9.38194187 L8.75,50.6624861 C7.97649731,51.1090681 7.5,51.9343857 7.5,52.8275496 L7.5,135.388638 C7.5,136.281802 7.97649731,137.10712 8.75,137.553702 L80.25,178.834246 C81.0235027,179.280828 81.9764973,179.280828 82.75,178.834246 L154.25,137.553702 C155.023503,137.10712 155.5,136.281802 155.5,135.388638 L155.5,52.8275496 C155.5,51.9343857 155.023503,51.1090681 154.25,50.6624861 L82.75,9.38194187 Z"></path>
                </g>
                <path d="M81.4545455,78.5454545 L62.9090909,78.5454545 L62.9090909,97.0909091 L81.4545455,97.0909091 L81.4545455,78.5454545 Z M87.6363636,109.454545 L87.6363636,115.636364 L56.7272727,115.636364 L56.7272727,109.454545 L87.6363636,109.454545 Z M87.6363636,72.3636364 L87.6363636,103.272727 L56.7272727,103.272727 L56.7272727,72.3636364 L87.6363636,72.3636364 Z M118.545455,109.454545 L118.545455,115.636364 L93.8181818,115.636364 L93.8181818,109.454545 L118.545455,109.454545 Z M118.545455,97.0909091 L118.545455,103.272727 L93.8181818,103.272727 L93.8181818,97.0909091 L118.545455,97.0909091 Z M118.545455,84.7272727 L118.545455,90.9090909 L93.8181818,90.9090909 L93.8181818,84.7272727 L118.545455,84.7272727 Z M118.545455,72.3636364 L118.545455,78.5454545 L93.8181818,78.5454545 L93.8181818,72.3636364 L118.545455,72.3636364 Z M44.3636364,118.727273 L44.3636364,72.3636364 L38.1818182,72.3636364 L38.1818182,118.727273 C38.1818182,119.564398 38.4876863,120.288823 39.0994318,120.900568 C39.7111773,121.512314 40.4356019,121.818182 41.2727273,121.818182 C42.1098527,121.818182 42.8342772,121.512314 43.4460227,120.900568 C44.0577682,120.288823 44.3636364,119.564398 44.3636364,118.727273 Z M124.727273,118.727273 L124.727273,66.1818182 L50.5454545,66.1818182 L50.5454545,118.727273 C50.5454545,119.789778 50.368373,120.820071 50.0142045,121.818182 L121.636364,121.818182 C122.473489,121.818182 123.197914,121.512314 123.809659,120.900568 C124.421405,120.288823 124.727273,119.564398 124.727273,118.727273 Z M130.909091,60 L130.909091,118.727273 C130.909091,121.303043 130.007585,123.492415 128.204545,125.295455 C126.401506,127.098494 124.212134,128 121.636364,128 L41.2727273,128 C38.6969568,128 36.5075848,127.098494 34.7045455,125.295455 C32.9015061,123.492415 32,121.303043 32,118.727273 L32,66.1818182 L44.3636364,66.1818182 L44.3636364,60 L130.909091,60 Z" fill="#673AB7"></path>
            </g>
        </g>
    </g>
</svg>