<?xml version="1.0" encoding="UTF-8"?>
<svg width="170px" height="186px" viewBox="0 0 170 186" version="1.1" xmlns="http://www.w3.org/2000/svg" xmlns:xlink="http://www.w3.org/1999/xlink">
    <!-- Generator: Sketch 48.2 (47327) - http://www.bohemiancoding.com/sketch -->
    <title>pinax-types</title>
    <desc>Created with Sketch.</desc>
    <defs>
        <path d="M92.3173204,4.08909079 L162.31732,43.2067379 C167.060996,45.8576154 170,50.8667748 170,56.3008901 L170,133.69911 C170,139.133225 167.060996,144.142385 162.31732,146.793262 L92.3173204,185.910909 C87.7700345,188.45204 82.2299655,188.45204 77.6826796,185.910909 L7.68267964,146.793262 C2.93900409,144.142385 -3.55271368e-15,139.133225 -3.55271368e-15,133.69911 L-1.0658141e-14,56.3008901 C-1.59872116e-14,50.8667748 2.93900409,45.8576154 7.68267964,43.2067379 L77.6826796,4.08909079 C82.2299655,1.54796043 87.7700345,1.54796043 92.3173204,4.08909079 Z" id="path-1"></path>
    </defs>
    <g id="Hexagons" stroke="none" stroke-width="1" fill="none" fill-rule="evenodd" transform="translate(-44.000000, -877.000000)">
        <g id="pinax-types" transform="translate(44.000000, 875.000000)">
            <g>
                <g id="Badge">
                    <use fill="#FAF8B6" fill-rule="evenodd" xlink:href="#path-1"></use>
                    <path stroke="#009688" stroke-width="15" d="M88.6586602,10.6361669 C86.3850172,9.36560173 83.6149828,9.36560173 81.3413398,10.6361669 L11.3413398,49.753814 C8.96950205,51.0792527 7.5,53.5838324 7.5,56.3008901 L7.5,133.69911 C7.5,136.416168 8.96950205,138.920747 11.3413398,140.246186 L81.3413398,179.363833 C83.6149828,180.634398 86.3850172,180.634398 88.6586602,179.363833 L158.65866,140.246186 C161.030498,138.920747 162.5,136.416168 162.5,133.69911 L162.5,56.3008901 C162.5,53.5838324 161.030498,51.0792527 158.65866,49.753814 L88.6586602,10.6361669 Z"></path>
                </g>
                <path d="M69.1542969,75.859375 C69.1542969,76.940105 68.7760425,77.8587231 68.0195312,78.6152344 C67.26302,79.3717456 66.3444019,79.75 65.2636719,79.75 L48.890625,79.75 C47.809895,79.75 46.8912769,79.3717456 46.1347656,78.6152344 C45.3782544,77.8587231 45,76.940105 45,75.859375 L45,62.890625 C45,61.809895 45.3782544,60.8912769 46.1347656,60.1347656 C46.8912769,59.3782544 47.809895,59 48.890625,59 L65.2636719,59 C66.3444019,59 67.26302,59.3782544 68.0195312,60.1347656 C68.7760425,60.8912769 69.1542969,61.809895 69.1542969,62.890625 L69.1542969,75.859375 Z M98.6582031,101.796875 C98.6582031,102.877605 98.2799487,103.796223 97.5234375,104.552734 C96.7669263,105.309246 95.8483081,105.6875 94.7675781,105.6875 L78.2324219,105.6875 C77.1516919,105.6875 76.2330737,105.309246 75.4765625,104.552734 C74.7200513,103.796223 74.3417969,102.877605 74.3417969,101.796875 L74.3417969,88.828125 C74.3417969,87.747395 74.7200513,86.8287769 75.4765625,86.0722656 C76.2330737,85.3157544 77.1516919,84.9375 78.2324219,84.9375 L94.7675781,84.9375 C95.8483081,84.9375 96.7669263,85.3157544 97.5234375,86.0722656 C98.2799487,86.8287769 98.6582031,87.747395 98.6582031,88.828125 L98.6582031,101.796875 Z M103.845703,62.890625 C103.845703,61.809895 104.223958,60.8912769 104.980469,60.1347656 C105.73698,59.3782544 106.655598,59 107.736328,59 L124.109375,59 C125.190105,59 126.108723,59.3782544 126.865234,60.1347656 C127.621746,60.8912769 128,61.809895 128,62.890625 L128,75.859375 C128,76.940105 127.621746,77.8587231 126.865234,78.6152344 C126.108723,79.3717456 125.190105,79.75 124.109375,79.75 L107.736328,79.75 C106.655598,79.75 105.73698,79.3717456 104.980469,78.6152344 C104.223958,77.8587231 103.845703,76.940105 103.845703,75.859375 L103.845703,62.890625 Z M98.6582031,75.859375 C98.6582031,76.940105 98.2799487,77.8587231 97.5234375,78.6152344 C96.7669263,79.3717456 95.8483081,79.75 94.7675781,79.75 L78.2324219,79.75 C77.1516919,79.75 76.2330737,79.3717456 75.4765625,78.6152344 C74.7200513,77.8587231 74.3417969,76.940105 74.3417969,75.859375 L74.3417969,62.890625 C74.3417969,61.809895 74.7200513,60.8912769 75.4765625,60.1347656 C76.2330737,59.3782544 77.1516919,59 78.2324219,59 L94.7675781,59 C95.8483081,59 96.7669263,59.3782544 97.5234375,60.1347656 C98.2799487,60.8912769 98.6582031,61.809895 98.6582031,62.890625 L98.6582031,75.859375 Z M65.2636719,84.9375 C66.3444019,84.9375 67.26302,85.3157544 68.0195312,86.0722656 C68.7760425,86.8287769 69.1542969,87.747395 69.1542969,88.828125 L69.1542969,101.796875 C69.1542969,102.877605 68.7760425,103.796223 68.0195312,104.552734 C67.26302,105.309246 66.3444019,105.6875 65.2636719,105.6875 L48.890625,105.6875 C47.809895,105.6875 46.8912769,105.309246 46.1347656,104.552734 C45.3782544,103.796223 45,102.877605 45,101.796875 L45,88.828125 C45,87.747395 45.3782544,86.8287769 46.1347656,86.0722656 C46.8912769,85.3157544 47.809895,84.9375 48.890625,84.9375 L65.2636719,84.9375 Z M45,114.765625 C45,113.684895 45.3782544,112.766277 46.1347656,112.009766 C46.8912769,111.253254 47.809895,110.875 48.890625,110.875 L65.2636719,110.875 C66.3444019,110.875 67.26302,111.253254 68.0195312,112.009766 C68.7760425,112.766277 69.1542969,113.684895 69.1542969,114.765625 L69.1542969,127.734375 C69.1542969,128.815105 68.7760425,129.733723 68.0195312,130.490234 C67.26302,131.246746 66.3444019,131.625 65.2636719,131.625 L48.890625,131.625 C47.809895,131.625 46.8912769,131.246746 46.1347656,130.490234 C45.3782544,129.733723 45,128.815105 45,127.734375 L45,114.765625 Z M107.736328,105.6875 C106.655598,105.6875 105.73698,105.309246 104.980469,104.552734 C104.223958,103.796223 103.845703,102.877605 103.845703,101.796875 L103.845703,88.828125 C103.845703,87.747395 104.223958,86.8287769 104.980469,86.0722656 C105.73698,85.3157544 106.655598,84.9375 107.736328,84.9375 L124.109375,84.9375 C125.190105,84.9375 126.108723,85.3157544 126.865234,86.0722656 C127.621746,86.8287769 128,87.747395 128,88.828125 L128,101.796875 C128,102.877605 127.621746,103.796223 126.865234,104.552734 C126.108723,105.309246 125.190105,105.6875 124.109375,105.6875 L107.736328,105.6875 Z M107.736328,131.625 C106.655598,131.625 105.73698,131.246746 104.980469,130.490234 C104.223958,129.733723 103.845703,128.815105 103.845703,127.734375 L103.845703,114.765625 C103.845703,113.684895 104.223958,112.766277 104.980469,112.009766 C105.73698,111.253254 106.655598,110.875 107.736328,110.875 L124.109375,110.875 C125.190105,110.875 126.108723,111.253254 126.865234,112.009766 C127.621746,112.766277 128,113.684895 128,114.765625 L128,127.734375 C128,128.815105 127.621746,129.733723 126.865234,130.490234 C126.108723,131.246746 125.190105,131.625 124.109375,131.625 L107.736328,131.625 Z M74.3417969,114.765625 C74.3417969,113.684895 74.7200513,112.766277 75.4765625,112.009766 C76.2330737,111.253254 77.1516919,110.875 78.2324219,110.875 L94.7675781,110.875 C95.8483081,110.875 96.7669263,111.253254 97.5234375,112.009766 C98.2799487,112.766277 98.6582031,113.684895 98.6582031,114.765625 L98.6582031,127.734375 C98.6582031,128.815105 98.2799487,129.733723 97.5234375,130.490234 C96.7669263,131.246746 95.8483081,131.625 94.7675781,131.625 L78.2324219,131.625 C77.1516919,131.625 76.2330737,131.246746 75.4765625,130.490234 C74.7200513,129.733723 74.3417969,128.815105 74.3417969,127.734375 L74.3417969,114.765625 Z" id="Icon" fill="#009688"></path>
            </g>
        </g>
    </g>
</svg>