<?xml version="1.0" encoding="UTF-8"?>
<svg width="170px" height="186px" viewBox="0 0 170 186" version="1.1" xmlns="http://www.w3.org/2000/svg" xmlns:xlink="http://www.w3.org/1999/xlink">
    <!-- Generator: Sketch 48.2 (47327) - http://www.bohemiancoding.com/sketch -->
    <title>pinax-documents</title>
    <desc>Created with Sketch.</desc>
    <defs>
        <path d="M92.3173204,4.08909079 L162.31732,43.2067379 C167.060996,45.8576154 170,50.8667748 170,56.3008901 L170,133.69911 C170,139.133225 167.060996,144.142385 162.31732,146.793262 L92.3173204,185.910909 C87.7700345,188.45204 82.2299655,188.45204 77.6826796,185.910909 L7.68267964,146.793262 C2.93900409,144.142385 6.75015599e-14,139.133225 6.75015599e-14,133.69911 L6.03961325e-14,56.3008901 C5.5067062e-14,50.8667748 2.93900409,45.8576154 7.68267964,43.2067379 L77.6826796,4.08909079 C82.2299655,1.54796043 87.7700345,1.54796043 92.3173204,4.08909079 Z" id="path-1"></path>
    </defs>
    <g id="Hexagons" stroke="none" stroke-width="1" fill="none" fill-rule="evenodd" transform="translate(-674.000000, -247.000000)">
        <g id="pinax-documents" transform="translate(674.000000, 245.000000)">
            <g>
                <g id="Badge">
                    <use fill="#BEE4E1" fill-rule="evenodd" xlink:href="#path-1"></use>
                    <path stroke="#009688" stroke-width="15" d="M88.6586602,10.6361669 C86.3850172,9.36560173 83.6149828,9.36560173 81.3413398,10.6361669 L11.3413398,49.753814 C8.96950205,51.0792527 7.5,53.5838324 7.5,56.3008901 L7.5,133.69911 C7.5,136.416168 8.96950205,138.920747 11.3413398,140.246186 L81.3413398,179.363833 C83.6149828,180.634398 86.3850172,180.634398 88.6586602,179.363833 L158.65866,140.246186 C161.030498,138.920747 162.5,136.416168 162.5,133.69911 L162.5,56.3008901 C162.5,53.5838324 161.030498,51.0792527 158.65866,49.753814 L88.6586602,10.6361669 Z"></path>
                </g>
                <path d="M105.249866,93.4373845 L105.249866,98.9061215 C105.249866,99.5571606 105.022001,100.110547 104.566274,100.566274 C104.110547,101.022001 103.557161,101.249866 102.906121,101.249866 L70.0936997,101.249866 C69.4426606,101.249866 68.8892745,101.022001 68.4335474,100.566274 C67.9778203,100.110547 67.7499553,99.5571606 67.7499553,98.9061215 L67.7499553,93.4373845 C67.7499553,92.7863454 67.9778203,92.2329593 68.4335474,91.7772322 C68.8892745,91.3215051 69.4426606,91.0936401 70.0936997,91.0936401 L102.906121,91.0936401 C103.557161,91.0936401 104.110547,91.3215051 104.566274,91.7772322 C105.022001,92.2329593 105.249866,92.7863454 105.249866,93.4373845 Z M70.0936997,107.499851 L102.906121,107.499851 C103.557161,107.499851 104.110547,107.727716 104.566274,108.183443 C105.022001,108.63917 105.249866,109.192556 105.249866,109.843595 L105.249866,115.312332 C105.249866,115.963371 105.022001,116.516758 104.566274,116.972485 C104.110547,117.428212 103.557161,117.656077 102.906121,117.656077 L70.0936997,117.656077 C69.4426606,117.656077 68.8892745,117.428212 68.4335474,116.972485 C67.9778203,116.516758 67.7499553,115.963371 67.7499553,115.312332 L67.7499553,109.843595 C67.7499553,109.192556 67.9778203,108.63917 68.4335474,108.183443 C68.8892745,107.727716 69.4426606,107.499851 70.0936997,107.499851 Z M124,70.7811885 L124,135.624784 C124,138.228943 123.088541,140.442482 121.265625,142.265393 C119.442709,144.088304 117.229166,144.999762 114.625,144.999762 L58.375,144.999762 C55.7708343,144.999762 53.5572907,144.088304 51.734375,142.265393 C49.9114593,140.442482 49,138.228943 49,135.624784 L49,54.3749776 C49,51.7708182 49.9114593,49.5572798 51.734375,47.7343685 C53.5572907,45.9114572 55.7708343,45 58.375,45 L98.21875,45 C100.822916,45 103.036459,45.9114572 104.859375,47.7343685 L121.265625,64.1405794 C123.088541,65.9634907 124,68.1770291 124,70.7811885 Z M98.9998808,55.1562258 L98.9998808,69.9999404 L113.843595,69.9999404 L98.9998808,55.1562258 Z M114.624844,135.624784 L114.624844,79.374918 L94.312392,79.374918 C93.0103107,79.374918 91.9035445,78.919191 90.9920874,78.0077338 C90.0806302,77.0962766 89.6249031,75.9895104 89.6249031,74.6874292 L89.6249031,54.3749776 L58.3749776,54.3749776 L58.3749776,135.624784 L114.624844,135.624784 Z" id="Icon" fill="#009688"></path>
            </g>
        </g>
    </g>
</svg>