<?xml version="1.0" encoding="UTF-8"?>
<svg width="170px" height="186px" viewBox="0 0 170 186" version="1.1" xmlns="http://www.w3.org/2000/svg" xmlns:xlink="http://www.w3.org/1999/xlink">
    <!-- Generator: Sketch 48.2 (47327) - http://www.bohemiancoding.com/sketch -->
    <title>pinax-cohorts</title>
    <desc>Created with Sketch.</desc>
    <defs>
        <path d="M92.3173204,4.08909079 L162.31732,43.2067379 C167.060996,45.8576154 170,50.8667748 170,56.3008901 L170,133.69911 C170,139.133225 167.060996,144.142385 162.31732,146.793262 L92.3173204,185.910909 C87.7700345,188.45204 82.2299655,188.45204 77.6826796,185.910909 L7.68267964,146.793262 C2.93900409,144.142385 -3.55271368e-15,139.133225 -3.55271368e-15,133.69911 L-1.0658141e-14,56.3008901 C-1.59872116e-14,50.8667748 2.93900409,45.8576154 7.68267964,43.2067379 L77.6826796,4.08909079 C82.2299655,1.54796043 87.7700345,1.54796043 92.3173204,4.08909079 Z" id="path-1"></path>
    </defs>
    <g id="Hexagons" stroke="none" stroke-width="1" fill="none" fill-rule="evenodd" transform="translate(-464.000000, -667.000000)">
        <g id="pinax-cohorts" transform="translate(464.000000, 665.000000)">
            <g>
                <g id="Badge">
                    <use fill="#D7DEE1" fill-rule="evenodd" xlink:href="#path-1"></use>
                    <path stroke="#607D8B" stroke-width="15" d="M88.6586602,10.6361669 C86.3850172,9.36560173 83.6149828,9.36560173 81.3413398,10.6361669 L11.3413398,49.753814 C8.96950205,51.0792527 7.5,53.5838324 7.5,56.3008901 L7.5,133.69911 C7.5,136.416168 8.96950205,138.920747 11.3413398,140.246186 L81.3413398,179.363833 C83.6149828,180.634398 86.3850172,180.634398 88.6586602,179.363833 L158.65866,140.246186 C161.030498,138.920747 162.5,136.416168 162.5,133.69911 L162.5,56.3008901 C162.5,53.5838324 161.030498,51.0792527 158.65866,49.753814 L88.6586602,10.6361669 Z"></path>
                </g>
                <g id="Icon" transform="translate(32.000000, 38.000000)" fill="#8F7483">
                    <path d="M96,32 C98.25,32 100.145834,32.7828782 101.6875,34.3486328 C103.229166,35.9143874 104,37.8398438 104,40.125 C104,42.4101562 103.229166,44.3356126 101.6875,45.9013672 C100.145834,47.4671218 98.25,48.25 96,48.25 C93.75,48.25 91.854166,47.4671218 90.3125,45.9013672 C88.770834,44.3356126 88,42.4101562 88,40.125 C88,37.8398438 88.770834,35.9143874 90.3125,34.3486328 C91.854166,32.7828782 93.75,32 96,32 Z M102,50.28125 C103.666666,50.28125 105.083334,50.8736986 106.25,52.0585938 C107.416666,53.2434889 108,54.6822923 108,56.375 L108,73.640625 C108,74.4869798 107.708334,75.2063796 107.125,75.7988281 C106.541666,76.3912767 105.833334,76.6875 105,76.6875 L103,76.6875 L103,93.953125 C103,94.7994798 102.708334,95.5188796 102.125,96.1113281 C101.541666,96.7037767 100.833334,97 100,97 L92,97 C91.166666,97 90.458334,96.7037767 89.875,96.1113281 C89.291666,95.5188796 89,94.7994798 89,93.953125 L89,76.6875 L87,76.6875 C86.166666,76.6875 85.458334,76.3912767 84.875,75.7988281 C84.291666,75.2063796 84,74.4869798 84,73.640625 L84,56.375 C84,54.6822923 84.583334,53.2434889 85.75,52.0585938 C86.916666,50.8736986 88.333334,50.28125 90,50.28125 L91.375,50.28125 C92.875,50.9583327 94.416666,51.296875 96,51.296875 C97.583334,51.296875 99.125,50.9583327 100.625,50.28125 L102,50.28125 Z" id="pinax-referrals-copy-12"></path>
                    <path d="M54,43 C56.25,43 58.145834,43.7828782 59.6875,45.3486328 C61.229166,46.9143874 62,48.8398438 62,51.125 C62,53.4101562 61.229166,55.3356126 59.6875,56.9013672 C58.145834,58.4671218 56.25,59.25 54,59.25 C51.75,59.25 49.854166,58.4671218 48.3125,56.9013672 C46.770834,55.3356126 46,53.4101562 46,51.125 C46,48.8398438 46.770834,46.9143874 48.3125,45.3486328 C49.854166,43.7828782 51.75,43 54,43 Z M60,61.28125 C61.666666,61.28125 63.083334,61.8736986 64.25,63.0585938 C65.416666,64.2434889 66,65.6822923 66,67.375 L66,84.640625 C66,85.4869798 65.708334,86.2063796 65.125,86.7988281 C64.541666,87.3912767 63.833334,87.6875 63,87.6875 L61,87.6875 L61,104.953125 C61,105.79948 60.708334,106.51888 60.125,107.111328 C59.541666,107.703777 58.833334,108 58,108 L50,108 C49.166666,108 48.458334,107.703777 47.875,107.111328 C47.291666,106.51888 47,105.79948 47,104.953125 L47,87.6875 L45,87.6875 C44.166666,87.6875 43.458334,87.3912767 42.875,86.7988281 C42.291666,86.2063796 42,85.4869798 42,84.640625 L42,67.375 C42,65.6822923 42.583334,64.2434889 43.75,63.0585938 C44.916666,61.8736986 46.333334,61.28125 48,61.28125 L49.375,61.28125 C50.875,61.9583327 52.416666,62.296875 54,62.296875 C55.583334,62.296875 57.125,61.9583327 58.625,61.28125 L60,61.28125 Z" id="pinax-referrals-copy-13"></path>
                    <path d="M33,16 C34.6875,16 36.1093755,16.5901698 37.265625,17.7705078 C38.4218745,18.9508459 39,20.4023437 39,22.125 C39,23.8476562 38.4218745,25.2991541 37.265625,26.4794922 C36.1093755,27.6598302 34.6875,28.25 33,28.25 C31.3125,28.25 29.8906245,27.6598302 28.734375,26.4794922 C27.5781255,25.2991541 27,23.8476562 27,22.125 C27,20.4023437 27.5781255,18.9508459 28.734375,17.7705078 C29.8906245,16.5901698 31.3125,16 33,16 Z M37.5,29.78125 C38.7499995,29.78125 39.8125005,30.2278651 40.6875,31.1210938 C41.5624995,32.0143224 42,33.0989588 42,34.375 L42,47.390625 C42,48.0286463 41.7812505,48.5709631 41.34375,49.0175781 C40.9062495,49.4641932 40.3750005,49.6875 39.75,49.6875 L38.25,49.6875 L38.25,62.703125 C38.25,63.3411463 38.0312505,63.8834631 37.59375,64.3300781 C37.1562495,64.7766932 36.6250005,65 36,65 L30,65 C29.3749995,65 28.8437505,64.7766932 28.40625,64.3300781 C27.9687495,63.8834631 27.75,63.3411463 27.75,62.703125 L27.75,49.6875 L26.25,49.6875 C25.6249995,49.6875 25.0937505,49.4641932 24.65625,49.0175781 C24.2187495,48.5709631 24,48.0286463 24,47.390625 L24,34.375 C24,33.0989588 24.4375005,32.0143224 25.3125,31.1210938 C26.1874995,30.2278651 27.2500005,29.78125 28.5,29.78125 L29.53125,29.78125 C30.65625,30.2916662 31.8124995,30.546875 33,30.546875 C34.1875005,30.546875 35.34375,30.2916662 36.46875,29.78125 L37.5,29.78125 Z" id="pinax-referrals-copy-14"></path>
                    <path d="M75,19 C76.6875,19 78.1093755,19.5901698 79.265625,20.7705078 C80.4218745,21.9508459 81,23.4023437 81,25.125 C81,26.8476562 80.4218745,28.2991541 79.265625,29.4794922 C78.1093755,30.6598302 76.6875,31.25 75,31.25 C73.3125,31.25 71.8906245,30.6598302 70.734375,29.4794922 C69.5781255,28.2991541 69,26.8476562 69,25.125 C69,23.4023437 69.5781255,21.9508459 70.734375,20.7705078 C71.8906245,19.5901698 73.3125,19 75,19 Z M79.5,32.78125 C80.7499995,32.78125 81.8125005,33.2278651 82.6875,34.1210938 C83.5624995,35.0143224 84,36.0989588 84,37.375 L84,50.390625 C84,51.0286463 83.7812505,51.5709631 83.34375,52.0175781 C82.9062495,52.4641932 82.3750005,52.6875 81.75,52.6875 L80.25,52.6875 L80.25,65.703125 C80.25,66.3411463 80.0312505,66.8834631 79.59375,67.3300781 C79.1562495,67.7766932 78.6250005,68 78,68 L72,68 C71.3749995,68 70.8437505,67.7766932 70.40625,67.3300781 C69.9687495,66.8834631 69.75,66.3411463 69.75,65.703125 L69.75,52.6875 L68.25,52.6875 C67.6249995,52.6875 67.0937505,52.4641932 66.65625,52.0175781 C66.2187495,51.5709631 66,51.0286463 66,50.390625 L66,37.375 C66,36.0989588 66.4375005,35.0143224 67.3125,34.1210938 C68.1874995,33.2278651 69.2500005,32.78125 70.5,32.78125 L71.53125,32.78125 C72.65625,33.2916662 73.8124995,33.546875 75,33.546875 C76.1875005,33.546875 77.34375,33.2916662 78.46875,32.78125 L79.5,32.78125 Z" id="pinax-referrals-copy-15"></path>
                    <path d="M12,32 C14.25,32 16.145834,32.7828782 17.6875,34.3486328 C19.229166,35.9143874 20,37.8398438 20,40.125 C20,42.4101562 19.229166,44.3356126 17.6875,45.9013672 C16.145834,47.4671218 14.25,48.25 12,48.25 C9.75,48.25 7.85416603,47.4671218 6.3125,45.9013672 C4.77083397,44.3356126 4,42.4101562 4,40.125 C4,37.8398438 4.77083397,35.9143874 6.3125,34.3486328 C7.85416603,32.7828782 9.75,32 12,32 Z M18,50.28125 C19.666666,50.28125 21.083334,50.8736986 22.25,52.0585938 C23.416666,53.2434889 24,54.6822923 24,56.375 L24,73.640625 C24,74.4869798 23.708334,75.2063796 23.125,75.7988281 C22.541666,76.3912767 21.833334,76.6875 21,76.6875 L19,76.6875 L19,93.953125 C19,94.7994798 18.708334,95.5188796 18.125,96.1113281 C17.541666,96.7037767 16.833334,97 16,97 L8,97 C7.16666603,97 6.45833397,96.7037767 5.875,96.1113281 C5.29166603,95.5188796 5,94.7994798 5,93.953125 L5,76.6875 L3,76.6875 C2.16666603,76.6875 1.45833397,76.3912767 0.875,75.7988281 C0.291666031,75.2063796 0,74.4869798 0,73.640625 L0,56.375 C0,54.6822923 0.583333969,53.2434889 1.75,52.0585938 C2.91666603,50.8736986 4.33333397,50.28125 6,50.28125 L7.375,50.28125 C8.875,50.9583327 10.416666,51.296875 12,51.296875 C13.583334,51.296875 15.125,50.9583327 16.625,50.28125 L18,50.28125 Z" id="pinax-referrals-copy-16"></path>
                    <path d="M54,0 C55.3125,0 56.4184031,0.457682669 57.3177083,1.37304688 C58.2170135,2.28841108 58.6666667,3.4140625 58.6666667,4.75 C58.6666667,6.0859375 58.2170135,7.21158892 57.3177083,8.12695312 C56.4184031,9.04231733 55.3125,9.5 54,9.5 C52.6875,9.5 51.5815969,9.04231733 50.6822917,8.12695312 C49.7829865,7.21158892 49.3333333,6.0859375 49.3333333,4.75 C49.3333333,3.4140625 49.7829865,2.28841108 50.6822917,1.37304688 C51.5815969,0.457682669 52.6875,0 54,0 Z M57.5,10.6875 C58.4722219,10.6875 59.2986115,11.0338545 59.9791667,11.7265625 C60.6597219,12.4192705 61,13.260417 61,14.25 L61,24.34375 C61,24.838542 60.8298615,25.2591142 60.4895833,25.6054688 C60.1493052,25.9518233 59.7361115,26.125 59.25,26.125 L58.0833333,26.125 L58.0833333,36.21875 C58.0833333,36.713542 57.9131948,37.1341142 57.5729167,37.4804688 C57.2326385,37.8268233 56.8194448,38 56.3333333,38 L51.6666667,38 C51.1805552,38 50.7673615,37.8268233 50.4270833,37.4804688 C50.0868052,37.1341142 49.9166667,36.713542 49.9166667,36.21875 L49.9166667,26.125 L48.75,26.125 C48.2638885,26.125 47.8506948,25.9518233 47.5104167,25.6054688 C47.1701385,25.2591142 47,24.838542 47,24.34375 L47,14.25 C47,13.260417 47.3402781,12.4192705 48.0208333,11.7265625 C48.7013885,11.0338545 49.5277781,10.6875 50.5,10.6875 L51.3020833,10.6875 C52.1770833,11.083333 53.0763885,11.28125 54,11.28125 C54.9236115,11.28125 55.8229167,11.083333 56.6979167,10.6875 L57.5,10.6875 Z" id="pinax-referrals-copy-17"></path>
                </g>
            </g>
        </g>
    </g>
</svg>