<?xml version="1.0" encoding="UTF-8"?>
<svg width="170px" height="186px" viewBox="0 0 170 186" version="1.1" xmlns="http://www.w3.org/2000/svg" xmlns:xlink="http://www.w3.org/1999/xlink">
    <!-- Generator: Sketch 48.2 (47327) - http://www.bohemiancoding.com/sketch -->
    <title>pinax-images</title>
    <desc>Created with Sketch.</desc>
    <defs>
        <path d="M92.3173204,4.08909079 L162.31732,43.2067379 C167.060996,45.8576154 170,50.8667748 170,56.3008901 L170,133.69911 C170,139.133225 167.060996,144.142385 162.31732,146.793262 L92.3173204,185.910909 C87.7700345,188.45204 82.2299655,188.45204 77.6826796,185.910909 L7.68267964,146.793262 C2.93900409,144.142385 6.75015599e-14,139.133225 6.75015599e-14,133.69911 L6.03961325e-14,56.3008901 C5.5067062e-14,50.8667748 2.93900409,45.8576154 7.68267964,43.2067379 L77.6826796,4.08909079 C82.2299655,1.54796043 87.7700345,1.54796043 92.3173204,4.08909079 Z" id="path-1"></path>
    </defs>
    <g id="Hexagons" stroke="none" stroke-width="1" fill="none" fill-rule="evenodd" transform="translate(-1094.000000, -247.000000)">
        <g id="pinax-images" transform="translate(1094.000000, 245.000000)">
            <g>
                <g id="Badge">
                    <use fill="#BEE9FC" fill-rule="evenodd" xlink:href="#path-1"></use>
                    <path stroke="#03A9F4" stroke-width="15" d="M88.6586602,10.6361669 C86.3850172,9.36560173 83.6149828,9.36560173 81.3413398,10.6361669 L11.3413398,49.753814 C8.96950205,51.0792527 7.5,53.5838324 7.5,56.3008901 L7.5,133.69911 C7.5,136.416168 8.96950205,138.920747 11.3413398,140.246186 L81.3413398,179.363833 C83.6149828,180.634398 86.3850172,180.634398 88.6586602,179.363833 L158.65866,140.246186 C161.030498,138.920747 162.5,136.416168 162.5,133.69911 L162.5,56.3008901 C162.5,53.5838324 161.030498,51.0792527 158.65866,49.753814 L88.6586602,10.6361669 Z"></path>
                </g>
                <path d="M126.625,58 C129.229166,58 131.442709,58.9114572 133.265625,60.7343685 C135.088541,62.5572798 136,64.7708182 136,67.3749776 L136,123.624844 C136,126.229003 135.088541,128.442541 133.265625,130.265453 C131.442709,132.088364 129.229166,132.999821 126.625,132.999821 L45.375,132.999821 C42.7708343,132.999821 40.5572907,132.088364 38.734375,130.265453 C36.9114593,128.442541 36,126.229003 36,123.624844 L36,67.3749776 C36,64.7708182 36.9114593,62.5572798 38.734375,60.7343685 C40.5572907,58.9114572 42.7708343,58 45.375,58 L126.625,58 Z M125.452912,123.624844 C125.713327,123.624844 125.973745,123.494635 126.23416,123.234219 C126.494575,122.973804 126.624784,122.713386 126.624784,122.452971 L126.624784,68.5468499 C126.624784,68.2864348 126.494575,68.0260168 126.23416,67.7656017 C125.973745,67.5051867 125.713327,67.3749776 125.452912,67.3749776 L46.5468499,67.3749776 C46.2864348,67.3749776 46.0260168,67.5051867 45.7656017,67.7656017 C45.5051867,68.0260168 45.3749776,68.2864348 45.3749776,68.5468499 L45.3749776,122.452971 C45.3749776,122.713386 45.5051867,122.973804 45.7656017,123.234219 C46.0260168,123.494635 46.2864348,123.624844 46.5468499,123.624844 L125.452912,123.624844 Z M60.9999404,75.187459 C63.2134758,75.187459 65.0689401,75.9361542 66.5663334,77.4335474 C68.0637266,78.9309407 68.8124218,80.786405 68.8124218,82.9999404 C68.8124218,85.2134758 68.0637266,87.0689401 66.5663334,88.5663334 C65.0689401,90.0637266 63.2134758,90.8124218 60.9999404,90.8124218 C58.786405,90.8124218 56.9309407,90.0637266 55.4335474,88.5663334 C53.9361542,87.0689401 53.187459,85.2134758 53.187459,82.9999404 C53.187459,80.786405 53.9361542,78.9309407 55.4335474,77.4335474 C56.9309407,75.9361542 58.786405,75.187459 60.9999404,75.187459 Z M54.7499553,114.249866 L54.7499553,104.874888 L62.5624367,97.0624069 C62.9530607,96.6717828 63.4738938,96.4764708 64.1249329,96.4764708 C64.7759721,96.4764708 65.2968052,96.6717828 65.6874292,97.0624069 L73.4999106,104.874888 L96.9373547,81.4374441 C97.3279788,81.0468201 97.8488119,80.851508 98.499851,80.851508 C99.1508901,80.851508 99.6717232,81.0468201 100.062347,81.4374441 L117.249806,98.6249031 L117.249806,114.249866 L54.7499553,114.249866 Z" id="Icon" fill="#03A9F4"></path>
            </g>
        </g>
    </g>
</svg>