<?xml version="1.0" encoding="UTF-8"?>
<svg width="170px" height="186px" viewBox="0 0 170 186" version="1.1" xmlns="http://www.w3.org/2000/svg" xmlns:xlink="http://www.w3.org/1999/xlink">
    <!-- Generator: Sketch 48.2 (47327) - http://www.bohemiancoding.com/sketch -->
    <title>pinax-teams</title>
    <desc>Created with Sketch.</desc>
    <defs>
        <path d="M92.3173204,4.08909079 L162.31732,43.2067379 C167.060996,45.8576154 170,50.8667748 170,56.3008901 L170,133.69911 C170,139.133225 167.060996,144.142385 162.31732,146.793262 L92.3173204,185.910909 C87.7700345,188.45204 82.2299655,188.45204 77.6826796,185.910909 L7.68267964,146.793262 C2.93900409,144.142385 -3.55271368e-15,139.133225 -3.55271368e-15,133.69911 L-1.0658141e-14,56.3008901 C-1.59872116e-14,50.8667748 2.93900409,45.8576154 7.68267964,43.2067379 L77.6826796,4.08909079 C82.2299655,1.54796043 87.7700345,1.54796043 92.3173204,4.08909079 Z" id="path-1"></path>
    </defs>
    <g id="Hexagons" stroke="none" stroke-width="1" fill="none" fill-rule="evenodd" transform="translate(-464.000000, -37.000000)">
        <g id="pinax-teams" transform="translate(464.000000, 35.000000)">
            <g>
                <g id="Badge">
                    <use fill="#DDD4D1" fill-rule="evenodd" xlink:href="#path-1"></use>
                    <path stroke="#795548" stroke-width="15" d="M88.6586602,10.6361669 C86.3850172,9.36560173 83.6149828,9.36560173 81.3413398,10.6361669 L11.3413398,49.753814 C8.96950205,51.0792527 7.5,53.5838324 7.5,56.3008901 L7.5,133.69911 C7.5,136.416168 8.96950205,138.920747 11.3413398,140.246186 L81.3413398,179.363833 C83.6149828,180.634398 86.3850172,180.634398 88.6586602,179.363833 L158.65866,140.246186 C161.030498,138.920747 162.5,136.416168 162.5,133.69911 L162.5,56.3008901 C162.5,53.5838324 161.030498,51.0792527 158.65866,49.753814 L88.6586602,10.6361669 Z"></path>
                </g>
                <path d="M86.5,63 C89.7322908,63 92.6859375,63.7802092 95.3609375,65.340625 C98.0359375,66.9010408 100.153647,69.01875 101.714062,71.69375 C103.274478,74.36875 104.054687,77.3223967 104.054687,80.5546875 C104.054687,83.7869783 103.274478,86.740625 101.714062,89.415625 C100.153647,92.090625 98.0359375,94.2083342 95.3609375,95.76875 C92.6859375,97.3291658 89.7322908,98.109375 86.5,98.109375 C83.2677092,98.109375 80.3140625,97.3291658 77.6390625,95.76875 C74.9640625,94.2083342 72.8463533,92.090625 71.2859375,89.415625 C69.7255217,86.740625 68.9453125,83.7869783 68.9453125,80.5546875 C68.9453125,77.3223967 69.7255217,74.36875 71.2859375,71.69375 C72.8463533,69.01875 74.9640625,66.9010408 77.6390625,65.340625 C80.3140625,63.7802092 83.2677092,63 86.5,63 Z M105.392187,99.2796875 C108.178647,99.9484375 110.407812,101.369531 112.079687,103.542969 C113.751562,105.716406 114.5875,108.196353 114.5875,110.982812 L114.5875,121.18125 C114.5875,122.853125 114.002344,124.274219 112.832031,125.444531 C111.661719,126.614844 110.240625,127.2 108.56875,127.2 L64.43125,127.2 C62.759375,127.2 61.3382812,126.614844 60.1679688,125.444531 C58.9976562,124.274219 58.4125,122.853125 58.4125,121.18125 L58.4125,110.982812 C58.4125,108.196353 59.2484375,105.716406 60.9203125,103.542969 C62.5921875,101.369531 64.8213533,99.9484375 67.6078125,99.2796875 L74.2953125,97.6078125 C77.6390625,100.059897 81.484375,101.397397 85.83125,101.620312 C90.5125,101.843228 94.8036467,100.505728 98.7046875,97.6078125 L105.392187,99.2796875 Z M121.275,102.45625 C118.042709,102.45625 115.284115,101.313803 112.999219,99.0289063 C110.714322,96.7440096 109.571875,93.9854158 109.571875,90.753125 C109.571875,87.5208342 110.714322,84.7622404 112.999219,82.4773438 C115.284115,80.1924471 118.042709,79.05 121.275,79.05 C124.507291,79.05 127.265885,80.1924471 129.550781,82.4773438 C131.835678,84.7622404 132.978125,87.5208342 132.978125,90.753125 C132.978125,93.9854158 131.835678,96.7440096 129.550781,99.0289063 C127.265885,101.313803 124.507291,102.45625 121.275,102.45625 Z M51.725,102.45625 C48.4927092,102.45625 45.7341154,101.313803 43.4492188,99.0289063 C41.1643221,96.7440096 40.021875,93.9854158 40.021875,90.753125 C40.021875,87.5208342 41.1643221,84.7622404 43.4492188,82.4773438 C45.7341154,80.1924471 48.4927092,79.05 51.725,79.05 C54.9572908,79.05 57.7158846,80.1924471 60.0007812,82.4773438 C62.2856779,84.7622404 63.428125,87.5208342 63.428125,90.753125 C63.428125,93.9854158 62.2856779,96.7440096 60.0007812,99.0289063 C57.7158846,101.313803 54.9572908,102.45625 51.725,102.45625 Z M55.7375,110.982812 L55.7375,121.85 L37.0125,121.85 C35.8979158,121.85 34.9505217,121.459897 34.1703125,120.679688 C33.3901033,119.899478 33,118.952084 33,117.8375 L33,110.982812 C33,109.199478 33.5572908,107.583334 34.671875,106.134375 C35.7864592,104.685416 37.2354158,103.738022 39.01875,103.292187 L43.5328125,102.121875 C45.5390625,103.570834 47.8239592,104.434635 50.3875,104.713281 C52.9510408,104.991928 55.4588533,104.573959 57.9109375,103.459375 C56.4619783,105.8 55.7375,108.307812 55.7375,110.982812 Z M133.98125,103.292187 C135.764584,103.738022 137.213541,104.685416 138.328125,106.134375 C139.442709,107.583334 140,109.199478 140,110.982812 L140,117.8375 C140,118.952084 139.609897,119.899478 138.829688,120.679688 C138.049478,121.459897 137.102084,121.85 135.9875,121.85 L117.2625,121.85 L117.2625,110.982812 C117.2625,108.307812 116.538022,105.744272 115.089062,103.292187 C117.318228,104.406772 119.658853,104.908334 122.110937,104.796875 C124.785937,104.685416 127.238022,103.79375 129.467188,102.121875 L133.98125,103.292187 Z" id="Icon" fill="#795548"></path>
            </g>
        </g>
    </g>
</svg>