<?xml version="1.0" encoding="UTF-8"?>
<svg width="169px" height="190px" viewBox="0 0 169 190" version="1.1" xmlns="http://www.w3.org/2000/svg" xmlns:xlink="http://www.w3.org/1999/xlink">
    <!-- Generator: Sketch 48.2 (47327) - http://www.bohemiancoding.com/sketch -->
    <title>pinax-notifications</title>
    <desc>Created with Sketch.</desc>
    <defs>
        <polygon id="path-1" points="69.2820323 0 138.564065 40 138.564065 120 69.2820323 160 9.05941988e-14 120 4.61852778e-14 40"></polygon>
    </defs>
    <g id="Hexagons" stroke="none" stroke-width="1" fill="none" fill-rule="evenodd" transform="translate(-676.000000, -455.000000)">
        <g id="pinax-notifications" transform="translate(691.000000, 470.000000)">
            <g id="Polygon-Copy-14" stroke-linejoin="round">
                <use fill="#E6C8EB" fill-rule="evenodd" xlink:href="#path-1"></use>
                <path stroke="#9C27B0" stroke-width="15" d="M69.2820323,-8.66025404 L146.064065,35.669873 L146.064065,124.330127 L69.2820323,168.660254 L-7.5,124.330127 L-7.5,35.669873 L69.2820323,-8.66025404 Z"></path>
            </g>
            <path d="M110.765625,101.484205 C112.588541,103.437325 113.5,105.683413 113.5,108.22247 C113.5,110.761526 112.621094,112.942512 110.863281,114.765423 C109.105469,116.588334 106.859375,117.499791 104.125,117.499791 L82.25,117.499791 C82.25,121.015408 81.0455719,123.977642 78.6367188,126.386489 C76.2278656,128.795336 73.265625,129.999762 69.75,129.999762 C66.234375,129.999762 63.2721344,128.795336 60.8632812,126.386489 C58.4544281,123.977642 57.25,121.015408 57.25,117.499791 L35.375,117.499791 C32.640625,117.499791 30.3945312,116.588334 28.6367188,114.765423 C26.8789062,112.942512 26,110.761526 26,108.22247 C26,105.683413 26.9765625,103.437325 28.9296875,101.484205 C30.8828125,99.5310842 32.3151032,97.7732759 33.2265625,96.2107796 C34.7890625,93.7368262 36.0260407,90.6769397 36.9375,87.031114 C37.9791657,82.6040403 38.5,77.1353033 38.5,70.6249031 C38.5,65.5467902 39.6393219,60.7941984 41.9179688,56.3671246 C44.1966156,51.9400509 47.3216156,48.2616752 51.2929688,45.3319947 C55.2643219,42.4023142 59.7239593,40.5468499 64.671875,39.7656017 C63.890625,38.7239385 63.5,37.5520663 63.5,36.2499851 C63.5,34.5572798 64.1184906,33.0924396 65.3554688,31.8554643 C66.5924469,30.6184891 68.0572907,30 69.75,30 C71.4427093,30 72.9075531,30.6184891 74.1445312,31.8554643 C75.3815094,33.0924396 76,34.5572798 76,36.2499851 C76,37.5520663 75.609375,38.7239385 74.828125,39.7656017 C79.7760407,40.5468499 84.2356781,42.4023142 88.2070312,45.3319947 C92.1783844,48.2616752 95.3033844,51.9400509 97.5820312,56.3671246 C99.8606781,60.7941984 101,65.5467902 101,70.6249031 C101,77.1353033 101.520834,82.6040403 102.5625,87.031114 C103.473959,90.6769397 104.710938,93.7368262 106.273438,96.2107796 C107.184897,97.7732759 108.682291,99.5310842 110.765625,101.484205 Z M69.7498957,122.18728 C68.4478145,122.18728 67.3410483,121.731553 66.4295911,120.820096 C65.518134,119.908639 65.0624069,118.801873 65.0624069,117.499791 L61.9374143,117.499791 C61.9374143,119.713327 62.6861095,121.568791 64.1835027,123.066184 C65.680896,124.563578 67.5363603,125.312273 69.7498957,125.312273 C70.1405198,125.312273 70.4985908,125.149514 70.8241119,124.823993 C71.1496329,124.498472 71.312392,124.140401 71.312392,123.749776 C71.312392,123.359152 71.1496329,123.001081 70.8241119,122.67556 C70.4985908,122.350039 70.1405198,122.18728 69.7498957,122.18728 Z" fill="#9C27B0"></path>
        </g>
    </g>
</svg>