<?xml version="1.0" encoding="UTF-8"?>
<svg width="170px" height="186px" viewBox="0 0 170 186" version="1.1" xmlns="http://www.w3.org/2000/svg" xmlns:xlink="http://www.w3.org/1999/xlink">
    <!-- Generator: Sketch 48.2 (47327) - http://www.bohemiancoding.com/sketch -->
    <title>pinax-likes</title>
    <desc>Created with Sketch.</desc>
    <defs>
        <path d="M92.3173204,4.08909079 L162.31732,43.2067379 C167.060996,45.8576154 170,50.8667748 170,56.3008901 L170,133.69911 C170,139.133225 167.060996,144.142385 162.31732,146.793262 L92.3173204,185.910909 C87.7700345,188.45204 82.2299655,188.45204 77.6826796,185.910909 L7.68267964,146.793262 C2.93900409,144.142385 -3.55271368e-15,139.133225 -3.55271368e-15,133.69911 L-1.0658141e-14,56.3008901 C-1.59872116e-14,50.8667748 2.93900409,45.8576154 7.68267964,43.2067379 L77.6826796,4.08909079 C82.2299655,1.54796043 87.7700345,1.54796043 92.3173204,4.08909079 Z" id="path-1"></path>
    </defs>
    <g id="Hexagons" stroke="none" stroke-width="1" fill="none" fill-rule="evenodd" transform="translate(-44.000000, -457.000000)">
        <g id="pinax-likes" transform="translate(44.000000, 455.000000)">
            <g>
                <g id="Badge">
                    <use fill="#C6E4FB" fill-rule="evenodd" xlink:href="#path-1"></use>
                    <path stroke="#2196F3" stroke-width="15" d="M88.6586602,10.6361669 C86.3850172,9.36560173 83.6149828,9.36560173 81.3413398,10.6361669 L11.3413398,49.753814 C8.96950205,51.0792527 7.5,53.5838324 7.5,56.3008901 L7.5,133.69911 C7.5,136.416168 8.96950205,138.920747 11.3413398,140.246186 L81.3413398,179.363833 C83.6149828,180.634398 86.3850172,180.634398 88.6586602,179.363833 L158.65866,140.246186 C161.030498,138.920747 162.5,136.416168 162.5,133.69911 L162.5,56.3008901 C162.5,53.5838324 161.030498,51.0792527 158.65866,49.753814 L88.6586602,10.6361669 Z"></path>
                </g>
                <path d="M61.265625,84.1875 C62.3723967,84.1875 63.3131502,84.5748689 64.0878906,85.3496094 C64.8626311,86.1243498 65.25,87.0651033 65.25,88.171875 L65.25,128.015625 C65.25,129.122397 64.8626311,130.06315 64.0878906,130.837891 C63.3131502,131.612631 62.3723967,132 61.265625,132 L47.984375,132 C46.8776033,132 45.9368498,131.612631 45.1621094,130.837891 C44.3873689,130.06315 44,129.122397 44,128.015625 L44,88.171875 C44,87.0651033 44.3873689,86.1243498 45.1621094,85.3496094 C45.9368498,84.5748689 46.8776033,84.1875 47.984375,84.1875 L61.265625,84.1875 Z M54.625,125.359375 C55.7317717,125.359375 56.6725252,124.972006 57.4472656,124.197266 C58.2220061,123.422525 58.609375,122.481772 58.609375,121.375 C58.609375,120.268228 58.2220061,119.327475 57.4472656,118.552734 C56.6725252,117.777994 55.7317717,117.390625 54.625,117.390625 C53.5182283,117.390625 52.5774748,117.777994 51.8027344,118.552734 C51.0279939,119.327475 50.640625,120.268228 50.640625,121.375 C50.640625,122.481772 51.0279939,123.422525 51.8027344,124.197266 C52.5774748,124.972006 53.5182283,125.359375 54.625,125.359375 Z M107.75,60.4472656 C107.75,62.4394531 107.417969,64.4316406 106.753906,66.4238281 C106.311197,67.5305998 105.536459,69.0800781 104.429687,71.0722656 C103.21224,73.3964844 102.492838,75.1119783 102.271484,76.21875 L119.039062,76.21875 C121.80599,76.21875 124.157877,77.1871736 126.094727,79.1240234 C128.031576,81.0608732 129,83.3020842 129,85.8476562 C129,87.3971346 128.695639,88.8912752 128.086914,90.3300781 C127.478189,91.7688811 126.731119,92.9863281 125.845703,93.9824219 L125.679687,93.9824219 C126.565103,96.0852873 126.897135,98.3541658 126.675781,100.789062 C126.454428,103.223959 125.62435,105.382162 124.185547,107.263672 C124.849609,109.366537 124.904947,111.580078 124.351562,113.904297 C123.798178,116.228516 122.857422,118.165365 121.529297,119.714844 C122.193359,122.592447 121.80599,125.082681 120.367187,127.185547 C118.928385,129.288412 116.272135,130.671875 112.398437,131.335938 C110.074219,131.778647 106.477213,132 101.607422,132 L101.109375,132 C97.5677092,132 93.9153654,131.391275 90.1523437,130.173828 C87.9388029,129.509766 84.9228516,128.319986 81.1044922,126.604492 C77.2861328,124.888998 74.4361971,124.03125 72.5546875,124.03125 C72.0013029,124.03125 71.5309236,123.837564 71.1435547,123.450195 C70.7561857,123.062826 70.5625,122.592447 70.5625,122.039062 L70.5625,86.5117188 C70.5625,85.9583342 70.7838533,85.515625 71.2265625,85.1835938 C73.4401033,82.859375 76.1516936,79.3730469 79.3613281,74.7246094 C82.0175781,70.8509123 84.2311189,68.0839844 86.0019531,66.4238281 C87.1087248,65.3170564 87.9941406,63.8229158 88.6582031,61.9414062 C89.1009123,60.8346346 89.5989592,59.0638029 90.1523437,56.6289062 L90.1523437,56.4628906 C90.8164062,53.9173186 91.4251311,51.9804688 91.9785156,50.6523438 C93.0852873,48.2174471 94.3580721,47 95.796875,47 C98.7851562,47 101.275391,47.7194002 103.267578,49.1582031 C106.255859,51.3717439 107.75,55.1347656 107.75,60.4472656 Z" id="Icon" fill="#2196F3"></path>
            </g>
        </g>
    </g>
</svg>