<?xml version="1.0" encoding="UTF-8"?>
<svg width="169px" height="190px" viewBox="0 0 169 190" version="1.1" xmlns="http://www.w3.org/2000/svg" xmlns:xlink="http://www.w3.org/1999/xlink">
    <!-- Generator: Sketch 48.2 (47327) - http://www.bohemiancoding.com/sketch -->
    <title>pinax-ratings</title>
    <desc>Created with Sketch.</desc>
    <defs>
        <polygon id="path-1" points="69.2820323 0 138.564065 40 138.564065 120 69.2820323 160 3.19744231e-14 120 -1.24344979e-14 40"></polygon>
    </defs>
    <g id="Hexagons" stroke="none" stroke-width="1" fill="none" fill-rule="evenodd" transform="translate(-46.000000, -665.000000)">
        <g id="pinax-ratings" transform="translate(61.000000, 680.000000)">
            <g id="Polygon-Copy-23" stroke-linejoin="round">
                <use fill="#607D8B" fill-rule="evenodd" xlink:href="#path-1"></use>
                <path stroke="#FFEB3B" stroke-width="15" d="M69.2820323,-8.66025404 L146.064065,35.669873 L146.064065,124.330127 L69.2820323,168.660254 L-7.5,124.330127 L-7.5,35.669873 L69.2820323,-8.66025404 Z"></path>
            </g>
            <path d="M64.2022701,41.8828131 C64.8428951,40.6015631 65.7771391,39.7473973 67.0050044,39.3203131 C68.2328698,38.893229 69.4607328,38.893229 70.6885982,39.3203131 C71.9164636,39.7473973 72.8507075,40.6015631 73.4913325,41.8828131 L83.9014887,63.0234379 L107.284301,66.3867192 C108.672323,66.60026 109.766723,67.240885 110.567504,68.3085941 C111.368285,69.3763033 111.741982,70.5507816 111.688598,71.8320316 C111.635213,73.1132816 111.128051,74.2343753 110.167113,75.1953128 L93.1905511,91.6914065 L97.1944573,115.074219 C97.4079982,116.355469 97.1677638,117.556641 96.4737542,118.677734 C95.7797446,119.798828 94.7921136,120.519531 93.5108636,120.839844 C92.2296136,121.160156 91.0017482,121 89.8272699,120.359375 L68.8468013,109.46875 L47.8663327,120.359375 C46.6918544,121 45.463989,121.160156 44.182739,120.839844 C42.901489,120.519531 41.913858,119.798828 41.2198484,118.677734 C40.5258388,117.556641 40.2856044,116.355469 40.4991453,115.074219 L44.5030515,91.6914065 L27.5264891,75.1953128 C26.5655516,74.2343753 26.0583894,73.1132816 26.0050047,71.8320316 C25.9516201,70.5507816 26.3253172,69.3763033 27.1260985,68.3085941 C27.9268797,67.240885 29.02128,66.60026 30.4093016,66.3867192 L53.7921139,63.0234379 L64.2022701,41.8828131 Z" fill="#FFEB3B"></path>
        </g>
    </g>
</svg>