<?xml version="1.0" encoding="UTF-8"?>
<svg width="170px" height="186px" viewBox="0 0 170 186" version="1.1" xmlns="http://www.w3.org/2000/svg" xmlns:xlink="http://www.w3.org/1999/xlink">
    <!-- Generator: Sketch 48.2 (47327) - http://www.bohemiancoding.com/sketch -->
    <title>pinax-teams</title>
    <desc>Created with Sketch.</desc>
    <defs>
        <path d="M92.3173204,4.08909079 L162.31732,43.2067379 C167.060996,45.8576154 170,50.8667748 170,56.3008901 L170,133.69911 C170,139.133225 167.060996,144.142385 162.31732,146.793262 L92.3173204,185.910909 C87.7700345,188.45204 82.2299655,188.45204 77.6826796,185.910909 L7.68267964,146.793262 C2.93900409,144.142385 -3.55271368e-15,139.133225 -3.55271368e-15,133.69911 L-1.0658141e-14,56.3008901 C-1.59872116e-14,50.8667748 2.93900409,45.8576154 7.68267964,43.2067379 L77.6826796,4.08909079 C82.2299655,1.54796043 87.7700345,1.54796043 92.3173204,4.08909079 Z" id="path-1"></path>
    </defs>
    <g id="Hexagons" stroke="none" stroke-width="1" fill="none" fill-rule="evenodd" transform="translate(-464.000000, -37.000000)">
        <g id="pinax-teams" transform="translate(464.000000, 35.000000)">
            <g>
                <g id="Badge">
                    <use fill="#DDD4D1" fill-rule="evenodd" xlink:href="#path-1"></use>
                    <path stroke="#795548" stroke-width="15" d="M88.6586602,10.6361669 C86.3850172,9.36560173 83.6149828,9.36560173 81.3413398,10.6361669 L11.3413398,49.753814 C8.96950205,51.0792527 7.5,53.5838324 7.5,56.3008901 L7.5,133.69911 C7.5,136.416168 8.96950205,138.920747 11.3413398,140.246186 L81.3413398,179.363833 C83.6149828,180.634398 86.3850172,180.634398 88.6586602,179.363833 L158.65866,140.246186 C161.030498,138.920747 162.5,136.416168 162.5,133.69911 L162.5,56.3008901 C162.5,53.5838324 161.030498,51.0792527 158.65866,49.753814 L88.6586602,10.6361669 Z"></path>
                </g>
                <path d="M85.5,63 C88.7322908,63 91.6859375,63.7802092 94.3609375,65.340625 C97.0359375,66.9010408 99.1536467,69.01875 100.714062,71.69375 C102.274478,74.36875 103.054687,77.3223967 103.054687,80.5546875 C103.054687,83.7869783 102.274478,86.740625 100.714062,89.415625 C99.1536467,92.090625 97.0359375,94.2083342 94.3609375,95.76875 C91.6859375,97.3291658 88.7322908,98.109375 85.5,98.109375 C82.2677092,98.109375 79.3140625,97.3291658 76.6390625,95.76875 C73.9640625,94.2083342 71.8463533,92.090625 70.2859375,89.415625 C68.7255217,86.740625 67.9453125,83.7869783 67.9453125,80.5546875 C67.9453125,77.3223967 68.7255217,74.36875 70.2859375,71.69375 C71.8463533,69.01875 73.9640625,66.9010408 76.6390625,65.340625 C79.3140625,63.7802092 82.2677092,63 85.5,63 Z M104.392187,99.2796875 C107.178647,99.9484375 109.407812,101.369531 111.079687,103.542969 C112.751562,105.716406 113.5875,108.196353 113.5875,110.982812 L113.5875,121.18125 C113.5875,122.853125 113.002344,124.274219 111.832031,125.444531 C110.661719,126.614844 109.240625,127.2 107.56875,127.2 L63.43125,127.2 C61.759375,127.2 60.3382812,126.614844 59.1679688,125.444531 C57.9976562,124.274219 57.4125,122.853125 57.4125,121.18125 L57.4125,110.982812 C57.4125,108.196353 58.2484375,105.716406 59.9203125,103.542969 C61.5921875,101.369531 63.8213533,99.9484375 66.6078125,99.2796875 L73.2953125,97.6078125 C76.6390625,100.059897 80.484375,101.397397 84.83125,101.620312 C89.5125,101.843228 93.8036467,100.505728 97.7046875,97.6078125 L104.392187,99.2796875 Z M120.275,102.45625 C117.042709,102.45625 114.284115,101.313803 111.999219,99.0289063 C109.714322,96.7440096 108.571875,93.9854158 108.571875,90.753125 C108.571875,87.5208342 109.714322,84.7622404 111.999219,82.4773438 C114.284115,80.1924471 117.042709,79.05 120.275,79.05 C123.507291,79.05 126.265885,80.1924471 128.550781,82.4773438 C130.835678,84.7622404 131.978125,87.5208342 131.978125,90.753125 C131.978125,93.9854158 130.835678,96.7440096 128.550781,99.0289063 C126.265885,101.313803 123.507291,102.45625 120.275,102.45625 Z M50.725,102.45625 C47.4927092,102.45625 44.7341154,101.313803 42.4492188,99.0289063 C40.1643221,96.7440096 39.021875,93.9854158 39.021875,90.753125 C39.021875,87.5208342 40.1643221,84.7622404 42.4492188,82.4773438 C44.7341154,80.1924471 47.4927092,79.05 50.725,79.05 C53.9572908,79.05 56.7158846,80.1924471 59.0007812,82.4773438 C61.2856779,84.7622404 62.428125,87.5208342 62.428125,90.753125 C62.428125,93.9854158 61.2856779,96.7440096 59.0007812,99.0289063 C56.7158846,101.313803 53.9572908,102.45625 50.725,102.45625 Z M54.7375,110.982812 L54.7375,121.85 L36.0125,121.85 C34.8979158,121.85 33.9505217,121.459897 33.1703125,120.679688 C32.3901033,119.899478 32,118.952084 32,117.8375 L32,110.982812 C32,109.199478 32.5572908,107.583334 33.671875,106.134375 C34.7864592,104.685416 36.2354158,103.738022 38.01875,103.292187 L42.5328125,102.121875 C44.5390625,103.570834 46.8239592,104.434635 49.3875,104.713281 C51.9510408,104.991928 54.4588533,104.573959 56.9109375,103.459375 C55.4619783,105.8 54.7375,108.307812 54.7375,110.982812 Z M132.98125,103.292187 C134.764584,103.738022 136.213541,104.685416 137.328125,106.134375 C138.442709,107.583334 139,109.199478 139,110.982812 L139,117.8375 C139,118.952084 138.609897,119.899478 137.829688,120.679688 C137.049478,121.459897 136.102084,121.85 134.9875,121.85 L116.2625,121.85 L116.2625,110.982812 C116.2625,108.307812 115.538022,105.744272 114.089062,103.292187 C116.318228,104.406772 118.658853,104.908334 121.110937,104.796875 C123.785937,104.685416 126.238022,103.79375 128.467188,102.121875 L132.98125,103.292187 Z" id="Icon" fill="#795548"></path>
            </g>
        </g>
    </g>
</svg>