<?xml version="1.0" encoding="UTF-8"?>
<svg width="170px" height="186px" viewBox="0 0 170 186" version="1.1" xmlns="http://www.w3.org/2000/svg" xmlns:xlink="http://www.w3.org/1999/xlink">
    <!-- Generator: Sketch 48.2 (47327) - http://www.bohemiancoding.com/sketch -->
    <title>pinax-blog</title>
    <desc>Created with Sketch.</desc>
    <defs>
        <path d="M92.3173204,4.08909079 L162.31732,43.2067379 C167.060996,45.8576154 170,50.8667748 170,56.3008901 L170,133.69911 C170,139.133225 167.060996,144.142385 162.31732,146.793262 L92.3173204,185.910909 C87.7700345,188.45204 82.2299655,188.45204 77.6826796,185.910909 L7.68267964,146.793262 C2.93900409,144.142385 -3.55271368e-15,139.133225 -3.55271368e-15,133.69911 L-1.0658141e-14,56.3008901 C-1.59872116e-14,50.8667748 2.93900409,45.8576154 7.68267964,43.2067379 L77.6826796,4.08909079 C82.2299655,1.54796043 87.7700345,1.54796043 92.3173204,4.08909079 Z" id="path-1"></path>
    </defs>
    <g id="Hexagons" stroke="none" stroke-width="1" fill="none" fill-rule="evenodd" transform="translate(-44.000000, -247.000000)">
        <g id="pinax-blog" transform="translate(44.000000, 245.000000)">
            <g>
                <g id="Badge">
                    <use fill="#FFE5BF" fill-rule="evenodd" xlink:href="#path-1"></use>
                    <path stroke="#FF9800" stroke-width="15" d="M88.6586602,10.6361669 C86.3850172,9.36560173 83.6149828,9.36560173 81.3413398,10.6361669 L11.3413398,49.753814 C8.96950205,51.0792527 7.5,53.5838324 7.5,56.3008901 L7.5,133.69911 C7.5,136.416168 8.96950205,138.920747 11.3413398,140.246186 L81.3413398,179.363833 C83.6149828,180.634398 86.3850172,180.634398 88.6586602,179.363833 L158.65866,140.246186 C161.030498,138.920747 162.5,136.416168 162.5,133.69911 L162.5,56.3008901 C162.5,53.5838324 161.030498,51.0792527 158.65866,49.753814 L88.6586602,10.6361669 Z"></path>
                </g>
                <path d="M69.2857143,120.857143 C69.2857143,123.604166 68.3084069,125.981398 66.3537946,127.988839 C64.3991824,129.996281 62.0219502,131 59.2220982,131 C56.4222462,131 54.018602,129.996281 52.0111607,127.988839 C50.0037194,125.981398 49,123.577754 49,120.777902 C49,117.97805 50.0037194,115.600818 52.0111607,113.646205 C54.018602,111.691593 56.4222462,110.714286 59.2220982,110.714286 C62.0219502,110.714286 64.3991824,111.691593 66.3537946,113.646205 C68.3084069,115.600818 69.2857143,118.004464 69.2857143,120.857143 Z M97.1785714,128.305804 C97.1785714,129.045388 96.9408482,129.679316 96.4654018,130.207589 C95.9899554,130.735862 95.3824413,131 94.6428571,131 L87.0357143,131 C86.2961301,131 85.6886161,130.762277 85.2131696,130.28683 C84.7377232,129.811384 84.5,129.256696 84.5,128.622768 C84.0773801,122.811755 82.3604911,117.449777 79.3493304,112.53683 C76.3381696,107.623884 72.3761161,103.66183 67.4631696,100.65067 C62.5502232,97.6395089 57.1882449,95.9226199 51.3772321,95.5 C50.7433036,95.5 50.1886161,95.2622768 49.7131696,94.7868304 C49.2377232,94.3113839 49,93.7038699 49,92.9642857 L49,85.3571429 C49,84.6175587 49.2641377,84.0100446 49.7924107,83.5345982 C50.3206837,83.0591518 50.9546123,82.8214286 51.6941964,82.8214286 C59.7239591,83.2440484 67.1197909,85.5420395 73.8816964,89.7154018 C80.643602,93.8887641 86.1112359,99.356398 90.2845982,106.118304 C94.4579605,112.880209 96.7559516,120.276041 97.1785714,128.305804 Z M120.000169,128.305804 C120.000169,129.045388 119.762445,129.679316 119.286998,130.207589 C118.81155,130.735862 118.204035,131 117.464449,131 L109.857288,131 C109.117702,131 108.510187,130.762277 108.034739,130.28683 C107.559291,129.811384 107.321568,129.256696 107.321568,128.622768 C106.898947,118.585566 104.151917,109.340773 99.0804765,100.888393 C94.0090359,92.6473214 87.35277,85.9910714 79.1116789,80.9196429 C70.6592786,75.8482143 61.4144633,73.1011913 51.3772378,72.6785714 C50.7433077,72.6785714 50.1886189,72.4408482 49.7131713,71.9654018 C49.2377238,71.4899554 49,70.8824413 49,70.1428571 L49,62.5357143 C49,61.7961301 49.2641383,61.1886161 49.7924126,60.7131696 C50.3206869,60.2377232 50.9546169,60 51.6942029,60 C63.8445302,60.4226199 75.1496159,63.8035714 85.6094623,70.1428571 C95.7523436,76.1651786 103.887779,84.3005944 110.01577,94.5491071 C116.249415,104.903273 119.577548,116.155505 120.000169,128.305804 Z" id="Icon" fill="#FF9800"></path>
            </g>
        </g>
    </g>
</svg>