<?xml version="1.0" encoding="UTF-8"?>
<svg width="171px" height="186px" viewBox="0 0 171 186" version="1.1" xmlns="http://www.w3.org/2000/svg" xmlns:xlink="http://www.w3.org/1999/xlink">
    <!-- Generator: Sketch 48.2 (47327) - http://www.bohemiancoding.com/sketch -->
    <title>pinax-templates</title>
    <desc>Created with Sketch.</desc>
    <defs>
        <path d="M93.0352881,4.08909079 L163.035288,43.2067379 C167.778964,45.8576154 170.717968,50.8667748 170.717968,56.3008901 L170.717968,133.69911 C170.717968,139.133225 167.778964,144.142385 163.035288,146.793262 L93.0352881,185.910909 C88.4880022,188.45204 82.9479332,188.45204 78.4006473,185.910909 L8.40064733,146.793262 C3.65697179,144.142385 0.717967697,139.133225 0.717967697,133.69911 L0.717967697,56.3008901 C0.717967697,50.8667748 3.65697179,45.8576154 8.40064733,43.2067379 L78.4006473,4.08909079 C82.9479332,1.54796043 88.4880022,1.54796043 93.0352881,4.08909079 Z" id="path-1"></path>
    </defs>
    <g id="Hexagons" stroke="none" stroke-width="1" fill="none" fill-rule="evenodd" transform="translate(-1093.000000, -877.000000)">
        <g id="pinax-templates" transform="translate(1093.000000, 875.000000)">
            <g>
                <g id="-Badge">
                    <use fill="#FFF8CD" fill-rule="evenodd" xlink:href="#path-1"></use>
                    <path stroke="#3A5683" stroke-width="15" d="M89.3766279,10.6361669 C87.1029849,9.36560173 84.3329505,9.36560173 82.0593075,10.6361669 L12.0593075,49.753814 C9.68746974,51.0792527 8.2179677,53.5838324 8.2179677,56.3008901 L8.2179677,133.69911 C8.2179677,136.416168 9.68746974,138.920747 12.0593075,140.246186 L82.0593075,179.363833 C84.3329505,180.634398 87.1029849,180.634398 89.3766279,179.363833 L159.376628,140.246186 C161.748466,138.920747 163.217968,136.416168 163.217968,133.69911 L163.217968,56.3008901 C163.217968,53.5838324 161.748466,51.0792527 159.376628,49.753814 L89.3766279,10.6361669 Z"></path>
                </g>
                <path d="M122.785907,56 C125.10734,56 127.080561,56.8125009 128.705564,58.4375 C130.330567,60.0624991 131.14307,62.0357152 131.14307,64.3571429 L131.14307,125.642857 C131.14307,127.964285 130.330567,129.937501 128.705564,131.5625 C127.080561,133.187499 125.10734,134 122.785907,134 L50.3571628,134 C48.0357296,134 46.0625088,133.187499 44.4375058,131.5625 C42.8125028,129.937501 42,127.964285 42,125.642857 L42,64.3571429 C42,62.0357152 42.8125028,60.0624991 44.4375058,58.4375 C46.0625088,56.8125009 48.0357296,56 50.3571628,56 L122.785907,56 Z M81,122.857143 L81,78.2857143 L53.1428571,78.2857143 L53.1428571,122.857143 L81,122.857143 Z M120,122.857143 L120,78.2857143 L92.1428571,78.2857143 L92.1428571,122.857143 L120,122.857143 Z" id="Icon" fill="#3A5683"></path>
            </g>
        </g>
    </g>
</svg>