<?xml version="1.0" encoding="UTF-8"?>
<svg width="169px" height="190px" viewBox="0 0 169 190" version="1.1" xmlns="http://www.w3.org/2000/svg" xmlns:xlink="http://www.w3.org/1999/xlink">
    <!-- Generator: Sketch 48.2 (47327) - http://www.bohemiancoding.com/sketch -->
    <title>pinax-blog</title>
    <desc>Created with Sketch.</desc>
    <defs>
        <polygon id="path-1" points="69.2820323 0 138.564065 40 138.564065 120 69.2820323 160 3.19744231e-14 120 -1.24344979e-14 40"></polygon>
    </defs>
    <g id="Hexagons" stroke="none" stroke-width="1" fill="none" fill-rule="evenodd" transform="translate(-46.000000, -245.000000)">
        <g id="pinax-blog" transform="translate(61.000000, 260.000000)">
            <g id="Polygon-Copy-6" stroke-linejoin="round">
                <use fill="#FFE5BF" fill-rule="evenodd" xlink:href="#path-1"></use>
                <path stroke="#FF9800" stroke-width="15" d="M69.2820323,-8.66025404 L146.064065,35.669873 L146.064065,124.330127 L69.2820323,168.660254 L-7.5,124.330127 L-7.5,35.669873 L69.2820323,-8.66025404 Z"></path>
            </g>
            <path d="M54.2857143,105.857143 C54.2857143,108.604166 53.3084069,110.981398 51.3537946,112.988839 C49.3991824,114.996281 47.0219502,116 44.2220982,116 C41.4222462,116 39.018602,114.996281 37.0111607,112.988839 C35.0037194,110.981398 34,108.577754 34,105.777902 C34,102.97805 35.0037194,100.600818 37.0111607,98.6462054 C39.018602,96.6915931 41.4222462,95.7142857 44.2220982,95.7142857 C47.0219502,95.7142857 49.3991824,96.6915931 51.3537946,98.6462054 C53.3084069,100.600818 54.2857143,103.004464 54.2857143,105.857143 Z M82.1785714,113.305804 C82.1785714,114.045388 81.9408482,114.679316 81.4654018,115.207589 C80.9899554,115.735862 80.3824413,116 79.6428571,116 L72.0357143,116 C71.2961301,116 70.6886161,115.762277 70.2131696,115.28683 C69.7377232,114.811384 69.5,114.256696 69.5,113.622768 C69.0773801,107.811755 67.3604911,102.449777 64.3493304,97.5368304 C61.3381696,92.6238839 57.3761161,88.6618304 52.4631696,85.6506696 C47.5502232,82.6395089 42.1882449,80.9226199 36.3772321,80.5 C35.7433036,80.5 35.1886161,80.2622768 34.7131696,79.7868304 C34.2377232,79.3113839 34,78.7038699 34,77.9642857 L34,70.3571429 C34,69.6175587 34.2641377,69.0100446 34.7924107,68.5345982 C35.3206837,68.0591518 35.9546123,67.8214286 36.6941964,67.8214286 C44.7239591,68.2440484 52.1197909,70.5420395 58.8816964,74.7154018 C65.643602,78.8887641 71.1112359,84.356398 75.2845982,91.1183036 C79.4579605,97.8802091 81.7559516,105.276041 82.1785714,113.305804 Z M105.000169,113.305804 C105.000169,114.045388 104.762445,114.679316 104.286998,115.207589 C103.81155,115.735862 103.204035,116 102.464449,116 L94.857288,116 C94.117702,116 93.5101865,115.762277 93.034739,115.28683 C92.5592914,114.811384 92.3215676,114.256696 92.3215676,113.622768 C91.8989468,103.585566 89.1519172,94.340773 84.0804765,85.8883929 C79.0090359,77.6473214 72.35277,70.9910714 64.1116789,65.9196429 C55.6592786,60.8482143 46.4144633,58.1011913 36.3772378,57.6785714 C35.7433077,57.6785714 35.1886189,57.4408482 34.7131713,56.9654018 C34.2377238,56.4899554 34,55.8824413 34,55.1428571 L34,47.5357143 C34,46.7961301 34.2641383,46.1886161 34.7924126,45.7131696 C35.3206869,45.2377232 35.9546169,45 36.6942029,45 C48.8445302,45.4226199 60.1496159,48.8035714 70.6094623,55.1428571 C80.7523436,61.1651786 88.8877789,69.3005944 95.0157705,79.5491071 C101.249415,89.903273 104.577548,101.155505 105.000169,113.305804 Z" fill="#FF9800"></path>
        </g>
    </g>
</svg>