<?xml version="1.0" encoding="UTF-8"?>
<svg width="170px" height="186px" viewBox="0 0 170 186" version="1.1" xmlns="http://www.w3.org/2000/svg" xmlns:xlink="http://www.w3.org/1999/xlink">
    <!-- Generator: Sketch 48.2 (47327) - http://www.bohemiancoding.com/sketch -->
    <title>pinax-phone-confirmation</title>
    <desc>Created with Sketch.</desc>
    <defs>
        <path d="M92.3173204,4.08909079 L162.31732,43.2067379 C167.060996,45.8576154 170,50.8667748 170,56.3008901 L170,133.69911 C170,139.133225 167.060996,144.142385 162.31732,146.793262 L92.3173204,185.910909 C87.7700345,188.45204 82.2299655,188.45204 77.6826796,185.910909 L7.68267964,146.793262 C2.93900409,144.142385 6.75015599e-14,139.133225 6.75015599e-14,133.69911 L6.03961325e-14,56.3008901 C5.5067062e-14,50.8667748 2.93900409,45.8576154 7.68267964,43.2067379 L77.6826796,4.08909079 C82.2299655,1.54796043 87.7700345,1.54796043 92.3173204,4.08909079 Z" id="path-1"></path>
    </defs>
    <g id="Hexagons" stroke="none" stroke-width="1" fill="none" fill-rule="evenodd" transform="translate(-884.000000, -457.000000)">
        <g id="pinax-phone-confirmation" transform="translate(884.000000, 455.000000)">
            <g>
                <g id="Badge">
                    <use fill="#FAC6D7" fill-rule="evenodd" xlink:href="#path-1"></use>
                    <path stroke="#E91E63" stroke-width="15" d="M88.6586602,10.6361669 C86.3850172,9.36560173 83.6149828,9.36560173 81.3413398,10.6361669 L11.3413398,49.753814 C8.96950205,51.0792527 7.5,53.5838324 7.5,56.3008901 L7.5,133.69911 C7.5,136.416168 8.96950205,138.920747 11.3413398,140.246186 L81.3413398,179.363833 C83.6149828,180.634398 86.3850172,180.634398 88.6586602,179.363833 L158.65866,140.246186 C161.030498,138.920747 162.5,136.416168 162.5,133.69911 L162.5,56.3008901 C162.5,53.5838324 161.030498,51.0792527 158.65866,49.753814 L88.6586602,10.6361669 Z"></path>
                </g>
                <path d="M123.818058,57.0463612 C124.802311,57.1557231 125.567841,57.5931659 126.114647,58.3586946 C126.661453,59.1242232 126.934858,59.9444316 126.934858,60.8193197 C126.934858,74.5988205 123.489974,87.3940712 116.600207,99.2050719 C109.819803,110.687989 100.688127,119.819643 89.2051821,126.600032 C77.3941533,133.489782 64.598872,136.934657 50.8193384,136.934657 C49.9444482,136.934657 49.1242378,136.661254 48.3587073,136.114449 C47.5931769,135.567644 47.155733,134.802116 47.0463708,133.817866 L43.1093612,116.757531 C42.8906393,115.882643 42.999999,115.007752 43.4374453,114.132864 C43.8748917,113.257976 44.5310599,112.656489 45.4059501,112.328406 L63.7786617,104.454406 C64.5441922,104.126322 65.3370613,104.071642 66.1572717,104.290364 C66.977482,104.509085 67.7156713,104.946531 68.3718396,105.602697 L76.4099009,115.445198 C82.8622213,112.492448 88.576355,108.500768 93.5522969,103.470155 C98.5282388,98.4395432 102.49259,92.7527668 105.445347,86.4098212 L95.6028227,78.371779 C94.9466545,77.7156123 94.5092081,76.9774248 94.2904862,76.1572164 C94.0717643,75.337008 94.1264441,74.5441408 94.4545283,73.7786121 L102.328547,55.4059444 C102.656632,54.5310563 103.25812,53.8748896 104.13301,53.4374443 C105.0079,52.999999 105.882793,52.8906395 106.757683,53.1093609 L123.818058,57.0463612 Z" id="Icon" fill="#E91E63"></path>
            </g>
        </g>
    </g>
</svg>