<?xml version="1.0" encoding="UTF-8"?>
<svg width="170px" height="190px" viewBox="0 0 170 190" version="1.1" xmlns="http://www.w3.org/2000/svg" xmlns:xlink="http://www.w3.org/1999/xlink">
    <!-- Generator: Sketch 46.2 (44496) - http://www.bohemiancoding.com/sketch -->
    <title>pinax-comments</title>
    <desc>Created with Sketch.</desc>
    <defs>
        <path d="M86.5,2.88675135 L158,44.1672956 L158,44.1672956 C161.094011,45.9536235 163,49.2548937 163,52.8275496 L163,135.388638 L163,135.388638 C163,138.961294 161.094011,142.262564 158,144.048892 L86.5,185.329436 L86.5,185.329436 C83.4059892,187.115764 79.5940108,187.115764 76.5,185.329436 L5,144.048892 L5,144.048892 C1.90598923,142.262564 7.10542736e-14,138.961294 6.03961325e-14,135.388638 L-5.32907052e-15,52.8275496 L3.55271368e-15,52.8275496 C7.10542736e-15,49.2548937 1.90598923,45.9536235 5,44.1672956 L76.5,2.88675135 L76.5,2.88675135 C79.5940108,1.1004234 83.4059892,1.1004234 86.5,2.88675135 Z" id="path-1"></path>
    </defs>
    <g id="Page-2" stroke="none" stroke-width="1" fill="none" fill-rule="evenodd">
        <g id="pinax-comments">
            <g transform="translate(4.000000, 1.000000)">
                <g id="Polygon-Copy-8">
                    <use fill="#D2EAD3" fill-rule="evenodd" xlink:href="#path-1"></use>
                    <path stroke="#4CAF50" stroke-width="15" d="M82.75,9.38194187 C81.9764973,8.93535989 81.0235027,8.93535989 80.25,9.38194187 L8.75,50.6624861 C7.97649731,51.1090681 7.5,51.9343857 7.5,52.8275496 L7.5,135.388638 C7.5,136.281802 7.97649731,137.10712 8.75,137.553702 L80.25,178.834246 C81.0235027,179.280828 81.9764973,179.280828 82.75,178.834246 L154.25,137.553702 C155.023503,137.10712 155.5,136.281802 155.5,135.388638 L155.5,52.8275496 C155.5,51.9343857 155.023503,51.1090681 154.25,50.6624861 L82.75,9.38194187 Z"></path>
                </g>
                <path d="M105.994634,84.7253215 C105.994634,89.2003695 104.481511,93.3373123 101.45522,97.1362739 C98.4289282,100.935236 94.300034,103.937336 89.0684131,106.142665 C83.8367922,108.347995 78.1464838,109.450643 71.9973171,109.450643 C69.2285823,109.450643 66.3955009,109.19309 63.4979878,108.677977 C59.5058587,111.511101 55.0308778,113.571524 50.0729109,114.859307 C48.9139057,115.149058 47.5295591,115.406611 45.9198295,115.631973 L45.7749546,115.631973 C45.4208141,115.631973 45.0908245,115.503197 44.7849759,115.24564 C44.4791273,114.988084 44.2940112,114.650045 44.229622,114.231516 C44.1974274,114.134932 44.1813304,114.030301 44.1813304,113.91762 C44.1813304,113.804939 44.1893789,113.700308 44.2054762,113.603724 C44.2215735,113.507141 44.2537676,113.410558 44.3020595,113.313975 L44.4227886,113.072516 C44.4549832,113.008127 44.5113229,112.919593 44.5918094,112.806912 C44.6722958,112.694231 44.736684,112.613746 44.7849759,112.565454 C44.8332678,112.517162 44.9057046,112.436677 45.0022883,112.323996 C45.0988721,112.211315 45.1632603,112.138878 45.1954549,112.106683 C45.3564278,111.913516 45.7266601,111.51109 46.3061627,110.899392 C46.8856653,110.287695 47.3041887,109.812832 47.5617454,109.474789 C47.8193022,109.136746 48.1814859,108.669931 48.6483074,108.074331 C49.115129,107.478731 49.5175553,106.858995 49.8555985,106.215103 C50.1936417,105.571211 50.5236313,104.862941 50.8455772,104.090271 C46.853448,101.77226 43.7145226,98.9230816 41.4287067,95.5426497 C39.1428908,92.1622177 38,88.5564777 38,84.7253215 C38,80.2502735 39.513123,76.1133307 42.5394145,72.3143691 C45.565706,68.5154075 49.6946002,65.513307 54.9262211,63.3079776 C60.157842,61.1026482 65.8481504,60 71.9973171,60 C78.1464838,60 83.8367922,61.1026482 89.0684131,63.3079776 C94.300034,65.513307 98.4289282,68.5154075 101.45522,72.3143691 C104.481511,76.1133307 105.994634,80.2502735 105.994634,84.7253215 Z M124.538625,97.0879823 C124.538625,100.951333 123.395735,104.565122 121.109919,107.929456 C118.824103,111.293791 115.685177,114.134921 111.693048,116.452931 C112.014994,117.225602 112.344984,117.933872 112.683027,118.577764 C113.02107,119.221655 113.423496,119.841392 113.890318,120.436992 C114.357139,121.032592 114.719323,121.499406 114.97688,121.83745 C115.234437,122.175493 115.65296,122.650356 116.232463,123.262053 C116.811965,123.87375 117.182197,124.276177 117.34317,124.469344 C117.375365,124.501539 117.439753,124.573976 117.536337,124.686657 C117.632921,124.799338 117.705358,124.879823 117.753649,124.928115 C117.801941,124.976407 117.866329,125.056892 117.946816,125.169573 C118.027302,125.282254 118.083642,125.370788 118.115837,125.435177 L118.236566,125.676635 C118.284858,125.773219 118.317052,125.869801 118.333149,125.966385 C118.349246,126.062969 118.357295,126.1676 118.357295,126.280281 C118.357295,126.392962 118.341198,126.497593 118.309003,126.594177 C118.21242,127.044901 118.003158,127.399036 117.681212,127.656593 C117.359266,127.914149 117.005131,128.026829 116.618796,127.994634 C115.009066,127.769272 113.62472,127.511719 112.465714,127.221968 C107.507748,125.934184 103.032767,123.873761 99.0406375,121.040637 C96.1431244,121.555751 93.310043,121.813304 90.5413082,121.813304 C81.8165743,121.813304 74.218765,119.688493 67.7476525,115.438807 C69.6149387,115.567585 71.0314794,115.631973 71.9973171,115.631973 C77.1806461,115.631973 82.1546356,114.907606 86.919435,113.458849 C91.6842343,112.010093 95.9338564,109.933573 99.6684289,107.229227 C103.692753,104.267325 106.783387,100.85475 108.940424,96.991399 C111.097462,93.1280482 112.175965,89.0393966 112.175965,84.7253215 C112.175965,82.2463381 111.805732,79.7995859 111.065257,77.3849917 C115.218359,79.6708076 118.502158,82.5360831 120.916752,85.9809043 C123.331346,89.4257254 124.538625,93.1280477 124.538625,97.0879823 Z" fill="#4CAF50"></path>
            </g>
        </g>
    </g>
</svg>