<?xml version="1.0" encoding="UTF-8"?>
<svg width="170px" height="186px" viewBox="0 0 170 186" version="1.1" xmlns="http://www.w3.org/2000/svg" xmlns:xlink="http://www.w3.org/1999/xlink">
    <!-- Generator: Sketch 48.2 (47327) - http://www.bohemiancoding.com/sketch -->
    <title>pinax-messages</title>
    <desc>Created with Sketch.</desc>
    <defs>
        <path d="M92.3173204,4.08909079 L162.31732,43.2067379 C167.060996,45.8576154 170,50.8667748 170,56.3008901 L170,133.69911 C170,139.133225 167.060996,144.142385 162.31732,146.793262 L92.3173204,185.910909 C87.7700345,188.45204 82.2299655,188.45204 77.6826796,185.910909 L7.68267964,146.793262 C2.93900409,144.142385 -3.55271368e-15,139.133225 -3.55271368e-15,133.69911 L-1.0658141e-14,56.3008901 C-1.59872116e-14,50.8667748 2.93900409,45.8576154 7.68267964,43.2067379 L77.6826796,4.08909079 C82.2299655,1.54796043 87.7700345,1.54796043 92.3173204,4.08909079 Z" id="path-1"></path>
    </defs>
    <g id="Hexagons" stroke="none" stroke-width="1" fill="none" fill-rule="evenodd" transform="translate(-464.000000, -247.000000)">
        <g id="pinax-messages" transform="translate(464.000000, 245.000000)">
            <g>
                <g id="Badge">
                    <use fill="#D2EAD3" fill-rule="evenodd" xlink:href="#path-1"></use>
                    <path stroke="#4CAF50" stroke-width="15" d="M88.6586602,10.6361669 C86.3850172,9.36560173 83.6149828,9.36560173 81.3413398,10.6361669 L11.3413398,49.753814 C8.96950205,51.0792527 7.5,53.5838324 7.5,56.3008901 L7.5,133.69911 C7.5,136.416168 8.96950205,138.920747 11.3413398,140.246186 L81.3413398,179.363833 C83.6149828,180.634398 86.3850172,180.634398 88.6586602,179.363833 L158.65866,140.246186 C161.030498,138.920747 162.5,136.416168 162.5,133.69911 L162.5,56.3008901 C162.5,53.5838324 161.030498,51.0792527 158.65866,49.753814 L88.6586602,10.6361669 Z"></path>
                </g>
                <path d="M74.5226406,111.823661 C68.7116278,111.823661 63.2175818,110.819941 58.0404977,108.8125 C52.9690691,112.721727 47.1052298,115.04613 40.4489798,115.785714 L40.2904977,115.785714 C39.6565691,115.785714 39.2339493,115.46875 39.0226406,114.834821 C38.916985,114.412202 39.1811227,113.936755 39.8150513,113.408482 L40.607462,112.616071 C42.1922834,111.242559 43.3016584,109.974702 43.935587,108.8125 C44.9921354,107.01637 45.7845461,104.586309 46.3128191,101.522321 C41.4526993,96.9791659 39.0226406,91.7492551 39.0226406,85.8325893 C39.0226406,81.1837806 40.607462,76.8783482 43.7771048,72.9162946 C46.9467477,68.9542411 51.2521801,65.8110127 56.6933995,63.4866071 C62.1346189,61.1622016 68.0776993,60 74.5226406,60 C80.9675818,60 86.9106622,61.1622016 92.3518816,63.4866071 C97.7931011,65.8110127 102.098533,68.9542411 105.268176,72.9162946 C108.437819,76.8783482 110.022641,81.2101926 110.022641,85.9118304 C110.022641,90.6134681 108.437819,94.9453125 105.268176,98.9073661 C102.098533,102.86942 97.7931011,106.012648 92.3518816,108.337054 C86.9106622,110.661459 80.9675818,111.823661 74.5226406,111.823661 Z M129.515944,128.78125 L129.674426,128.939732 C130.202699,129.362352 130.41401,129.732143 130.308355,130.049107 C130.202699,130.366071 130.017805,130.603795 129.753667,130.762277 C129.48953,130.920759 129.251806,131 129.040498,131 C122.806868,130.366071 117.365646,128.252977 112.716837,124.660714 C107.856717,126.456844 102.732462,127.354911 97.3440691,127.354911 C92.4839493,127.354911 87.9143816,126.641741 83.6353638,125.215402 C79.3563459,123.789062 75.6848421,121.860862 72.6208548,119.430804 C80.6506176,119.642112 88.1256903,118.295014 95.0460781,115.389509 C101.966466,112.484004 107.4341,108.495536 111.44898,103.424107 C115.569516,98.1413699 117.629783,92.2775306 117.629783,85.8325893 L117.629783,85.1986607 C122.278592,87.8400306 125.685958,91.0889145 127.851882,94.9453125 C130.017805,98.8017105 130.730975,102.790179 129.991391,106.910714 C129.251806,111.03125 127.138712,114.729166 123.652105,118.004464 C124.074725,120.751487 124.76148,122.970237 125.712373,124.660714 C126.346301,125.717263 127.350021,126.879464 128.723533,128.147321 C129.040498,128.464286 129.304635,128.675594 129.515944,128.78125 Z" id="Icon" fill="#4CAF50"></path>
            </g>
        </g>
    </g>
</svg>