<?xml version="1.0" encoding="UTF-8"?>
<svg width="169px" height="190px" viewBox="0 0 169 190" version="1.1" xmlns="http://www.w3.org/2000/svg" xmlns:xlink="http://www.w3.org/1999/xlink">
    <!-- Generator: Sketch 48.2 (47327) - http://www.bohemiancoding.com/sketch -->
    <title>pinax-likes</title>
    <desc>Created with Sketch.</desc>
    <defs>
        <polygon id="path-1" points="69.2820323 0 138.564065 40 138.564065 120 69.2820323 160 3.19744231e-14 120 -1.24344979e-14 40"></polygon>
    </defs>
    <g id="Hexagons" stroke="none" stroke-width="1" fill="none" fill-rule="evenodd" transform="translate(-46.000000, -455.000000)">
        <g id="pinax-likes" transform="translate(61.000000, 470.000000)">
            <g id="Polygon-Copy-17" stroke-linejoin="round">
                <use fill="#C6E4FB" fill-rule="evenodd" xlink:href="#path-1"></use>
                <path stroke="#2196F3" stroke-width="15" d="M69.2820323,-8.66025404 L146.064065,35.669873 L146.064065,124.330127 L69.2820323,168.660254 L-7.5,124.330127 L-7.5,35.669873 L69.2820323,-8.66025404 Z"></path>
            </g>
            <path d="M44.265625,69.1875 C45.3723967,69.1875 46.3131502,69.5748689 47.0878906,70.3496094 C47.8626311,71.1243498 48.25,72.0651033 48.25,73.171875 L48.25,113.015625 C48.25,114.122397 47.8626311,115.06315 47.0878906,115.837891 C46.3131502,116.612631 45.3723967,117 44.265625,117 L30.984375,117 C29.8776033,117 28.9368498,116.612631 28.1621094,115.837891 C27.3873689,115.06315 27,114.122397 27,113.015625 L27,73.171875 C27,72.0651033 27.3873689,71.1243498 28.1621094,70.3496094 C28.9368498,69.5748689 29.8776033,69.1875 30.984375,69.1875 L44.265625,69.1875 Z M37.625,110.359375 C38.7317717,110.359375 39.6725252,109.972006 40.4472656,109.197266 C41.2220061,108.422525 41.609375,107.481772 41.609375,106.375 C41.609375,105.268228 41.2220061,104.327475 40.4472656,103.552734 C39.6725252,102.777994 38.7317717,102.390625 37.625,102.390625 C36.5182283,102.390625 35.5774748,102.777994 34.8027344,103.552734 C34.0279939,104.327475 33.640625,105.268228 33.640625,106.375 C33.640625,107.481772 34.0279939,108.422525 34.8027344,109.197266 C35.5774748,109.972006 36.5182283,110.359375 37.625,110.359375 Z M90.75,45.4472656 C90.75,47.4394531 90.4179687,49.4316406 89.7539062,51.4238281 C89.3111971,52.5305998 88.5364592,54.0800781 87.4296875,56.0722656 C86.2122404,58.3964844 85.4928377,60.1119783 85.2714844,61.21875 L102.039062,61.21875 C104.80599,61.21875 107.157877,62.1871736 109.094727,64.1240234 C111.031576,66.0608732 112,68.3020842 112,70.8476562 C112,72.3971346 111.695639,73.8912752 111.086914,75.3300781 C110.478189,76.7688811 109.731119,77.9863281 108.845703,78.9824219 L108.679687,78.9824219 C109.565103,81.0852873 109.897135,83.3541658 109.675781,85.7890625 C109.454428,88.2239592 108.62435,90.3821623 107.185547,92.2636719 C107.849609,94.3665373 107.904947,96.5800781 107.351562,98.9042969 C106.798178,101.228516 105.857422,103.165365 104.529297,104.714844 C105.193359,107.592447 104.80599,110.082681 103.367187,112.185547 C101.928385,114.288412 99.2721346,115.671875 95.3984375,116.335938 C93.0742187,116.778647 89.4772127,117 84.6074219,117 L84.109375,117 C80.5677092,117 76.9153654,116.391275 73.1523437,115.173828 C70.9388029,114.509766 67.9228516,113.319986 64.1044922,111.604492 C60.2861328,109.888998 57.4361971,109.03125 55.5546875,109.03125 C55.0013029,109.03125 54.5309236,108.837564 54.1435547,108.450195 C53.7561857,108.062826 53.5625,107.592447 53.5625,107.039062 L53.5625,71.5117188 C53.5625,70.9583342 53.7838533,70.515625 54.2265625,70.1835938 C56.4401033,67.859375 59.1516936,64.3730469 62.3613281,59.7246094 C65.0175781,55.8509123 67.2311189,53.0839844 69.0019531,51.4238281 C70.1087248,50.3170564 70.9941406,48.8229158 71.6582031,46.9414062 C72.1009123,45.8346346 72.5989592,44.0638029 73.1523437,41.6289062 L73.1523437,41.4628906 C73.8164062,38.9173186 74.4251311,36.9804688 74.9785156,35.6523438 C76.0852873,33.2174471 77.3580721,32 78.796875,32 C81.7851562,32 84.2753906,32.7194002 86.2675781,34.1582031 C89.2558594,36.3717439 90.75,40.1347656 90.75,45.4472656 Z" fill="#2196F3"></path>
        </g>
    </g>
</svg>