<?xml version="1.0" encoding="UTF-8"?>
<svg width="170px" height="186px" viewBox="0 0 170 186" version="1.1" xmlns="http://www.w3.org/2000/svg" xmlns:xlink="http://www.w3.org/1999/xlink">
    <!-- Generator: Sketch 48.2 (47327) - http://www.bohemiancoding.com/sketch -->
    <title>pinax-testimonials</title>
    <desc>Created with Sketch.</desc>
    <defs>
        <path d="M92.3173204,4.08909079 L162.31732,43.2067379 C167.060996,45.8576154 170,50.8667748 170,56.3008901 L170,133.69911 C170,139.133225 167.060996,144.142385 162.31732,146.793262 L92.3173204,185.910909 C87.7700345,188.45204 82.2299655,188.45204 77.6826796,185.910909 L7.68267964,146.793262 C2.93900409,144.142385 6.75015599e-14,139.133225 6.75015599e-14,133.69911 L6.03961325e-14,56.3008901 C5.5067062e-14,50.8667748 2.93900409,45.8576154 7.68267964,43.2067379 L77.6826796,4.08909079 C82.2299655,1.54796043 87.7700345,1.54796043 92.3173204,4.08909079 Z" id="path-1"></path>
    </defs>
    <g id="Hexagons" stroke="none" stroke-width="1" fill="none" fill-rule="evenodd" transform="translate(-674.000000, -877.000000)">
        <g id="pinax-testimonials" transform="translate(674.000000, 875.000000)">
            <g>
                <g id="Badge">
                    <use fill="#A7D9C8" fill-rule="evenodd" xlink:href="#path-1"></use>
                    <path stroke="#3A5683" stroke-width="15" d="M88.6586602,10.6361669 C86.3850172,9.36560173 83.6149828,9.36560173 81.3413398,10.6361669 L11.3413398,49.753814 C8.96950205,51.0792527 7.5,53.5838324 7.5,56.3008901 L7.5,133.69911 C7.5,136.416168 8.96950205,138.920747 11.3413398,140.246186 L81.3413398,179.363833 C83.6149828,180.634398 86.3850172,180.634398 88.6586602,179.363833 L158.65866,140.246186 C161.030498,138.920747 162.5,136.416168 162.5,133.69911 L162.5,56.3008901 C162.5,53.5838324 161.030498,51.0792527 158.65866,49.753814 L88.6586602,10.6361669 Z"></path>
                </g>
                <path d="M128,86.875 C128,98.359375 125.375,107.875 120.125,115.421875 C114.656251,123.187499 106.671875,128.492188 96.171875,131.335937 C94.9687508,131.664062 93.8476554,131.445313 92.8085937,130.679687 C91.7695321,129.914062 91.25,128.875 91.25,127.5625 L91.25,121.984375 C91.25,121.218749 91.4960937,120.480468 91.9882812,119.769531 C92.4804687,119.058595 93.1093742,118.593749 93.875,118.375 C105.249999,114.218751 110.9375,106.343751 110.9375,94.75 L99.125,94.75 C96.9375008,94.75 95.0781242,93.9843742 93.546875,92.453125 C92.0156258,90.9218758 91.25,89.0624992 91.25,86.875 L91.25,65.875 C91.25,63.6875008 92.0156258,61.8281242 93.546875,60.296875 C95.0781242,58.7656258 96.9375008,58 99.125,58 L120.125,58 C122.312499,58 124.171876,58.7656258 125.703125,60.296875 C127.234374,61.8281242 128,63.6875008 128,65.875 L128,86.875 Z M72.875,58 C75.0624992,58 76.9218758,58.7656258 78.453125,60.296875 C79.9843742,61.8281242 80.75,63.6875008 80.75,65.875 L80.75,86.875 C80.75,98.359375 78.125,107.875 72.875,115.421875 C67.4062508,123.187499 59.421875,128.492188 48.921875,131.335937 C47.7187508,131.664062 46.5976554,131.445313 45.5585938,130.679687 C44.5195321,129.914062 44,128.875 44,127.5625 L44,121.984375 C44,121.218749 44.2460938,120.480468 44.7382812,119.769531 C45.2304688,119.058595 45.8593742,118.593749 46.625,118.375 C57.9999992,114.218751 63.6875,106.343751 63.6875,94.75 L51.875,94.75 C49.6875008,94.75 47.8281242,93.9843742 46.296875,92.453125 C44.7656258,90.9218758 44,89.0624992 44,86.875 L44,65.875 C44,63.6875008 44.7656258,61.8281242 46.296875,60.296875 C47.8281242,58.7656258 49.6875008,58 51.875,58 L72.875,58 Z" id="Icon" fill="#3A5683"></path>
            </g>
        </g>
    </g>
</svg>