<?xml version="1.0" encoding="UTF-8"?>
<svg width="170px" height="186px" viewBox="0 0 170 186" version="1.1" xmlns="http://www.w3.org/2000/svg" xmlns:xlink="http://www.w3.org/1999/xlink">
    <!-- Generator: Sketch 48.2 (47327) - http://www.bohemiancoding.com/sketch -->
    <title>pinax-referrals</title>
    <desc>Created with Sketch.</desc>
    <defs>
        <path d="M92.3173204,4.08909079 L162.31732,43.2067379 C167.060996,45.8576154 170,50.8667748 170,56.3008901 L170,133.69911 C170,139.133225 167.060996,144.142385 162.31732,146.793262 L92.3173204,185.910909 C87.7700345,188.45204 82.2299655,188.45204 77.6826796,185.910909 L7.68267964,146.793262 C2.93900409,144.142385 -3.55271368e-15,139.133225 -3.55271368e-15,133.69911 L-1.0658141e-14,56.3008901 C-1.59872116e-14,50.8667748 2.93900409,45.8576154 7.68267964,43.2067379 L77.6826796,4.08909079 C82.2299655,1.54796043 87.7700345,1.54796043 92.3173204,4.08909079 Z" id="path-1"></path>
    </defs>
    <g id="Hexagons" stroke="none" stroke-width="1" fill="none" fill-rule="evenodd" transform="translate(-254.000000, -667.000000)">
        <g id="pinax-referrals" transform="translate(254.000000, 665.000000)">
            <g>
                <g id="Badge">
                    <use fill="#C6E4FB" fill-rule="evenodd" xlink:href="#path-1"></use>
                    <path stroke="#FF6977" stroke-width="15" d="M88.6586602,10.6361669 C86.3850172,9.36560173 83.6149828,9.36560173 81.3413398,10.6361669 L11.3413398,49.753814 C8.96950205,51.0792527 7.5,53.5838324 7.5,56.3008901 L7.5,133.69911 C7.5,136.416168 8.96950205,138.920747 11.3413398,140.246186 L81.3413398,179.363833 C83.6149828,180.634398 86.3850172,180.634398 88.6586602,179.363833 L158.65866,140.246186 C161.030498,138.920747 162.5,136.416168 162.5,133.69911 L162.5,56.3008901 C162.5,53.5838324 161.030498,51.0792527 158.65866,49.753814 L88.6586602,10.6361669 Z"></path>
                </g>
                <path d="M120.015385,126.815385 C119.22564,127.605129 118.266668,128 117.138462,128 C116.010256,128 115.051283,127.605129 114.261538,126.815385 L97.1692308,109.892308 C96.3794863,109.102563 95.9846154,108.143591 95.9846154,107.015385 C95.9846154,105.887179 96.3794863,104.928206 97.1692308,104.138462 L99.0307692,102.276923 C99.8205137,101.487179 100.807692,101.092308 101.992308,101.092308 C103.176923,101.092308 104.164102,101.487179 104.953846,102.276923 L111.723077,109.553846 L111.723077,78.7538462 L79.9076923,78.7538462 C78.8923077,78.7538462 77.9333325,78.3589752 77.0307692,77.5692308 L74.3230769,74.8615385 C73.5333325,74.071794 73.1666675,73.1128214 73.2230769,71.9846154 C73.2794863,70.8564094 73.6743598,69.8974368 74.4076923,69.1076923 C75.1410248,68.3179479 76.071794,67.9230769 77.2,67.9230769 L118.492308,67.9230769 C119.620514,67.9230769 120.579486,68.3179479 121.369231,69.1076923 C122.158975,69.8974368 122.553846,70.8564094 122.553846,71.9846154 L122.553846,109.553846 L129.323077,102.276923 C130.112821,101.487179 131.1,101.092308 132.284615,101.092308 C133.469231,101.092308 134.456409,101.487179 135.246154,102.276923 L137.107692,104.138462 C137.897437,104.928206 138.292308,105.887179 138.292308,107.015385 C138.292308,108.143591 137.897437,109.102563 137.107692,109.892308 L120.015385,126.815385 Z M92.2615385,112.430769 L94.9692308,115.138462 C95.7589752,115.928206 96.1256402,116.887179 96.0692308,118.015385 C96.0128214,119.143591 95.6179479,120.102563 94.8846154,120.892308 C94.1512829,121.682052 93.2205137,122.076923 92.0923077,122.076923 L50.8,122.076923 C49.671794,122.076923 48.7128214,121.682052 47.9230769,120.892308 C47.1333325,120.102563 46.7384615,119.143591 46.7384615,118.015385 L46.7384615,80.4461538 L39.9692308,87.7230769 C39.1794863,88.5128214 38.1923077,88.9076923 37.0076923,88.9076923 C35.8230769,88.9076923 34.8358983,88.5128214 34.0461538,87.7230769 L32.1846154,85.8615385 C31.3948709,85.071794 31,84.1128214 31,82.9846154 C31,81.8564094 31.3948709,80.8974368 32.1846154,80.1076923 L49.2769231,63.1846154 C50.0666675,62.3948709 51.0256402,62 52.1538462,62 C53.2820521,62 54.2410248,62.3948709 55.0307692,63.1846154 L72.1230769,80.1076923 C72.9128214,80.8974368 73.3076923,81.8564094 73.3076923,82.9846154 C73.3076923,84.1128214 72.9128214,85.071794 72.1230769,85.8615385 L70.2615385,87.7230769 C69.471794,88.5128214 68.4846154,88.9076923 67.3,88.9076923 C66.1153846,88.9076923 65.128206,88.5128214 64.3384615,87.7230769 L57.5692308,80.4461538 L57.5692308,111.246154 L89.3846154,111.246154 C90.4,111.246154 91.3589752,111.641025 92.2615385,112.430769 Z" id="Icon" fill="#FF6977"></path>
            </g>
        </g>
    </g>
</svg>