<?xml version="1.0" encoding="UTF-8"?>
<svg width="170px" height="186px" viewBox="0 0 170 186" version="1.1" xmlns="http://www.w3.org/2000/svg" xmlns:xlink="http://www.w3.org/1999/xlink">
    <!-- Generator: Sketch 48.2 (47327) - http://www.bohemiancoding.com/sketch -->
    <title>pinax-comments</title>
    <desc>Created with Sketch.</desc>
    <defs>
        <path d="M92.3173204,4.08909079 L162.31732,43.2067379 C167.060996,45.8576154 170,50.8667748 170,56.3008901 L170,133.69911 C170,139.133225 167.060996,144.142385 162.31732,146.793262 L92.3173204,185.910909 C87.7700345,188.45204 82.2299655,188.45204 77.6826796,185.910909 L7.68267964,146.793262 C2.93900409,144.142385 -3.55271368e-15,139.133225 -3.55271368e-15,133.69911 L-1.0658141e-14,56.3008901 C-1.59872116e-14,50.8667748 2.93900409,45.8576154 7.68267964,43.2067379 L77.6826796,4.08909079 C82.2299655,1.54796043 87.7700345,1.54796043 92.3173204,4.08909079 Z" id="path-1"></path>
    </defs>
    <g id="Hexagons" stroke="none" stroke-width="1" fill="none" fill-rule="evenodd" transform="translate(-254.000000, -457.000000)">
        <g id="pinax-comments" transform="translate(254.000000, 455.000000)">
            <g>
                <g id="Badge">
                    <use fill="#CED3EC" fill-rule="evenodd" xlink:href="#path-1"></use>
                    <path stroke="#3F51B5" stroke-width="15" d="M88.6586602,10.6361669 C86.3850172,9.36560173 83.6149828,9.36560173 81.3413398,10.6361669 L11.3413398,49.753814 C8.96950205,51.0792527 7.5,53.5838324 7.5,56.3008901 L7.5,133.69911 C7.5,136.416168 8.96950205,138.920747 11.3413398,140.246186 L81.3413398,179.363833 C83.6149828,180.634398 86.3850172,180.634398 88.6586602,179.363833 L158.65866,140.246186 C161.030498,138.920747 162.5,136.416168 162.5,133.69911 L162.5,56.3008901 C162.5,53.5838324 161.030498,51.0792527 158.65866,49.753814 L88.6586602,10.6361669 Z"></path>
                </g>
                <path d="M129,92.4097753 C129,98.1480997 127.062053,103.40823 123.186158,108.190167 C119.310262,112.972105 114.02495,116.772485 107.330224,119.591312 C100.635497,122.410138 93.3619007,123.819551 85.5094382,123.819551 C78.3616846,123.819551 71.6166198,122.611482 65.2742462,120.195346 C59.1332171,125.027619 51.9854634,127.846446 43.8309831,128.651824 C43.428292,128.651824 43.0507697,128.551151 42.6984164,128.349807 C42.3460631,128.148463 42.1195497,127.846446 42.0188764,127.443756 C41.918203,127.041065 42.2202208,126.487369 42.9249297,125.782662 L44.1330009,124.725602 C45.9451076,123.114843 47.2538522,121.655096 48.0592322,120.346354 C49.3679767,118.030891 50.3243656,115.061056 50.9284012,111.436851 C48.1095677,108.718697 45.9199387,105.748862 44.3595142,102.527347 C42.7990898,99.3058325 42.0188764,95.9333071 42.0188764,92.4097753 C42.0188764,86.671451 43.981992,81.4113211 47.9082233,76.6293834 C51.8344546,71.8474457 57.1197659,68.0470657 63.7641573,65.228239 C70.4085487,62.4094122 77.6569756,61 85.5094382,61 C93.3619007,61 100.610328,62.4094122 107.254719,65.228239 C113.89911,68.0470657 119.184422,71.8474457 123.110653,76.6293834 C127.036884,81.4113211 129,86.671451 129,92.4097753 Z" id="Icon" fill="#3F51B5"></path>
            </g>
        </g>
    </g>
</svg>