<?xml version="1.0" encoding="UTF-8"?>
<svg width="170px" height="186px" viewBox="0 0 170 186" version="1.1" xmlns="http://www.w3.org/2000/svg" xmlns:xlink="http://www.w3.org/1999/xlink">
    <!-- Generator: Sketch 48.2 (47327) - http://www.bohemiancoding.com/sketch -->
    <title>pinax-stripe</title>
    <desc>Created with Sketch.</desc>
    <defs>
        <path d="M92.3173204,4.08909079 L162.31732,43.2067379 C167.060996,45.8576154 170,50.8667748 170,56.3008901 L170,133.69911 C170,139.133225 167.060996,144.142385 162.31732,146.793262 L92.3173204,185.910909 C87.7700345,188.45204 82.2299655,188.45204 77.6826796,185.910909 L7.68267964,146.793262 C2.93900409,144.142385 -3.55271368e-15,139.133225 -3.55271368e-15,133.69911 L-1.0658141e-14,56.3008901 C-1.59872116e-14,50.8667748 2.93900409,45.8576154 7.68267964,43.2067379 L77.6826796,4.08909079 C82.2299655,1.54796043 87.7700345,1.54796043 92.3173204,4.08909079 Z" id="path-1"></path>
    </defs>
    <g id="Hexagons" stroke="none" stroke-width="1" fill="none" fill-rule="evenodd" transform="translate(-44.000000, -37.000000)">
        <g id="pinax-stripe" transform="translate(43.000000, 35.000000)">
            <g transform="translate(1.000000, 0.000000)">
                <g id="Badge">
                    <use fill="#D7DEE1" fill-rule="evenodd" xlink:href="#path-1"></use>
                    <path stroke="#607D8B" stroke-width="15" d="M88.6586602,10.6361669 C86.3850172,9.36560173 83.6149828,9.36560173 81.3413398,10.6361669 L11.3413398,49.753814 C8.96950205,51.0792527 7.5,53.5838324 7.5,56.3008901 L7.5,133.69911 C7.5,136.416168 8.96950205,138.920747 11.3413398,140.246186 L81.3413398,179.363833 C83.6149828,180.634398 86.3850172,180.634398 88.6586602,179.363833 L158.65866,140.246186 C161.030498,138.920747 162.5,136.416168 162.5,133.69911 L162.5,56.3008901 C162.5,53.5838324 161.030498,51.0792527 158.65866,49.753814 L88.6586602,10.6361669 Z"></path>
                </g>
                <path d="M75.1037536,78.0077338 C75.1037536,80.3514782 76.4709378,82.4348076 79.2053063,84.2577189 C80.8980116,85.2993821 84.1206601,86.7316723 88.873252,88.5545837 C93.6258438,90.377495 97.1089104,91.8748882 99.3224458,93.0467604 C102.968271,94.9998808 105.767743,97.2134162 107.720863,99.6873696 C110.064608,102.812362 111.23648,106.458188 111.23648,110.624844 C111.23648,116.353996 109.348463,121.334452 105.572431,125.566214 C101.796399,129.797976 96.7833894,132.434688 90.5334043,133.476352 L90.5334043,142.656017 C90.5334043,143.307056 90.3055392,143.860442 89.8498121,144.316169 C89.3940851,144.771897 88.840699,144.999762 88.1896599,144.999762 L80.3771785,144.999762 C79.7261394,144.999762 79.1727533,144.771897 78.7170262,144.316169 C78.2612991,143.860442 78.0334341,143.307056 78.0334341,142.656017 L78.0334341,133.28104 C74.2574024,132.63 70.7092328,131.490678 67.3889282,129.863079 C64.0686236,128.23548 61.1714961,126.249806 58.6975427,123.906062 C58.3069186,123.515438 58.0790536,123.027158 58.0139505,122.441222 C57.9488475,121.855286 58.1116066,121.301902 58.5022306,120.781069 L64.3615917,112.773276 C64.7522157,112.252443 65.3055988,111.959475 66.021744,111.894372 C66.7378891,111.829269 67.2912722,111.992028 67.6818962,112.382652 C70.4162647,114.465981 73.1506332,116.158684 75.8850017,117.460765 C79.0099942,118.762846 82.0047778,119.413885 84.8693553,119.413885 C88.1245568,119.413885 90.7287163,118.567534 92.6818366,116.874829 C94.2443329,115.312332 95.0255811,113.489421 95.0255811,111.406092 C95.0255811,109.322762 93.7886058,107.434748 91.3146524,105.742043 C89.6219471,104.700379 86.4644045,103.268089 81.8420187,101.445178 C77.2196329,99.6222666 73.7365693,98.1248733 71.3928249,96.9530011 C67.6167932,94.8696718 64.6871127,92.4608243 62.6037834,89.7264559 C60.2600389,86.4712543 59.0881667,82.6301196 59.0881667,78.2030458 C59.0881667,73.1249329 60.813422,68.6653092 64.2639356,64.8241715 C67.7144492,60.9830338 72.3042821,58.4114274 78.0334341,57.1093461 L78.0334341,47.3437444 C78.0334341,46.6927053 78.2612991,46.1393192 78.7170262,45.6835921 C79.1727533,45.227865 79.7261394,45 80.3771785,45 L88.1896599,45 C88.840699,45 89.3940851,45.227865 89.8498121,45.6835921 C90.3055392,46.1393192 90.5334043,46.6927053 90.5334043,47.3437444 L90.5334043,56.52341 C93.7886058,56.9140341 97.0112544,57.7603853 100.20135,59.0624665 C103.391446,60.3645477 106.093264,61.992147 108.306799,63.9452673 C108.697423,64.3358914 108.957839,64.7916185 109.088048,65.3124516 C109.218257,65.8332847 109.153151,66.3541148 108.892735,66.8749478 L104.205247,75.2733653 C103.944832,75.9244044 103.456552,76.3150285 102.740406,76.4452375 C102.024261,76.5754465 101.405775,76.4452375 100.884942,76.0546135 C95.6766202,72.4087878 90.6636133,70.5858765 85.8459154,70.5858765 C82.5907139,70.5858765 79.9865544,71.2694686 78.0334341,72.6366529 C76.0803137,74.0038371 75.1037536,75.7941984 75.1037536,78.0077338 Z" id="Icon" fill="#607D8B"></path>
            </g>
        </g>
    </g>
</svg>