<?xml version="1.0" encoding="UTF-8"?>
<svg width="169px" height="190px" viewBox="0 0 169 190" version="1.1" xmlns="http://www.w3.org/2000/svg" xmlns:xlink="http://www.w3.org/1999/xlink">
    <!-- Generator: Sketch 48.2 (47327) - http://www.bohemiancoding.com/sketch -->
    <title>pinax-testimonials</title>
    <desc>Created with Sketch.</desc>
    <defs>
        <polygon id="path-1" points="69.2820323 0 138.564065 40 138.564065 120 69.2820323 160 9.05941988e-14 120 4.61852778e-14 40"></polygon>
    </defs>
    <g id="Hexagons" stroke="none" stroke-width="1" fill="none" fill-rule="evenodd" transform="translate(-676.000000, -875.000000)">
        <g id="pinax-testimonials" transform="translate(691.000000, 890.000000)">
            <g id="Polygon-Copy-26" stroke-linejoin="round">
                <use fill="#A7D9C8" fill-rule="evenodd" xlink:href="#path-1"></use>
                <path stroke="#3A5683" stroke-width="15" d="M69.2820323,-8.66025404 L146.064065,35.669873 L146.064065,124.330127 L69.2820323,168.660254 L-7.5,124.330127 L-7.5,35.669873 L69.2820323,-8.66025404 Z"></path>
            </g>
            <path d="M111,71.875 C111,83.359375 108.375,92.875 103.125,100.421875 C97.6562508,108.187499 89.671875,113.492188 79.171875,116.335937 C77.9687508,116.664062 76.8476554,116.445313 75.8085937,115.679687 C74.7695321,114.914062 74.25,113.875 74.25,112.5625 L74.25,106.984375 C74.25,106.218749 74.4960937,105.480468 74.9882812,104.769531 C75.4804687,104.058595 76.1093742,103.593749 76.875,103.375 C88.2499992,99.2187508 93.9375,91.3437508 93.9375,79.75 L82.125,79.75 C79.9375008,79.75 78.0781242,78.9843742 76.546875,77.453125 C75.0156258,75.9218758 74.25,74.0624992 74.25,71.875 L74.25,50.875 C74.25,48.6875008 75.0156258,46.8281242 76.546875,45.296875 C78.0781242,43.7656258 79.9375008,43 82.125,43 L103.125,43 C105.312499,43 107.171876,43.7656258 108.703125,45.296875 C110.234374,46.8281242 111,48.6875008 111,50.875 L111,71.875 Z M55.875,43 C58.0624992,43 59.9218758,43.7656258 61.453125,45.296875 C62.9843742,46.8281242 63.75,48.6875008 63.75,50.875 L63.75,71.875 C63.75,83.359375 61.125,92.875 55.875,100.421875 C50.4062508,108.187499 42.421875,113.492188 31.921875,116.335937 C30.7187508,116.664062 29.5976554,116.445313 28.5585937,115.679687 C27.5195321,114.914062 27,113.875 27,112.5625 L27,106.984375 C27,106.218749 27.2460938,105.480468 27.7382812,104.769531 C28.2304688,104.058595 28.8593742,103.593749 29.625,103.375 C40.9999992,99.2187508 46.6875,91.3437508 46.6875,79.75 L34.875,79.75 C32.6875008,79.75 30.8281242,78.9843742 29.296875,77.453125 C27.7656258,75.9218758 27,74.0624992 27,71.875 L27,50.875 C27,48.6875008 27.7656258,46.8281242 29.296875,45.296875 C30.8281242,43.7656258 32.6875008,43 34.875,43 L55.875,43 Z" id="pinax-referrals-copy-8" fill="#3A5683"></path>
        </g>
    </g>
</svg>