<?xml version="1.0" encoding="UTF-8"?>
<svg width="170px" height="186px" viewBox="0 0 170 186" version="1.1" xmlns="http://www.w3.org/2000/svg" xmlns:xlink="http://www.w3.org/1999/xlink">
    <!-- Generator: Sketch 48.2 (47327) - http://www.bohemiancoding.com/sketch -->
    <title>pinax-notifications</title>
    <desc>Created with Sketch.</desc>
    <defs>
        <path d="M92.3173204,4.08909079 L162.31732,43.2067379 C167.060996,45.8576154 170,50.8667748 170,56.3008901 L170,133.69911 C170,139.133225 167.060996,144.142385 162.31732,146.793262 L92.3173204,185.910909 C87.7700345,188.45204 82.2299655,188.45204 77.6826796,185.910909 L7.68267964,146.793262 C2.93900409,144.142385 6.75015599e-14,139.133225 6.75015599e-14,133.69911 L6.03961325e-14,56.3008901 C5.5067062e-14,50.8667748 2.93900409,45.8576154 7.68267964,43.2067379 L77.6826796,4.08909079 C82.2299655,1.54796043 87.7700345,1.54796043 92.3173204,4.08909079 Z" id="path-1"></path>
    </defs>
    <g id="Hexagons" stroke="none" stroke-width="1" fill="none" fill-rule="evenodd" transform="translate(-674.000000, -457.000000)">
        <g id="pinax-notifications" transform="translate(674.000000, 455.000000)">
            <g>
                <g id="Badge">
                    <use fill="#E6C8EB" fill-rule="evenodd" xlink:href="#path-1"></use>
                    <path stroke="#9C27B0" stroke-width="15" d="M88.6586602,10.6361669 C86.3850172,9.36560173 83.6149828,9.36560173 81.3413398,10.6361669 L11.3413398,49.753814 C8.96950205,51.0792527 7.5,53.5838324 7.5,56.3008901 L7.5,133.69911 C7.5,136.416168 8.96950205,138.920747 11.3413398,140.246186 L81.3413398,179.363833 C83.6149828,180.634398 86.3850172,180.634398 88.6586602,179.363833 L158.65866,140.246186 C161.030498,138.920747 162.5,136.416168 162.5,133.69911 L162.5,56.3008901 C162.5,53.5838324 161.030498,51.0792527 158.65866,49.753814 L88.6586602,10.6361669 Z"></path>
                </g>
                <path d="M125.765625,116.484205 C127.588541,118.437325 128.5,120.683413 128.5,123.22247 C128.5,125.761526 127.621094,127.942512 125.863281,129.765423 C124.105469,131.588334 121.859375,132.499791 119.125,132.499791 L97.25,132.499791 C97.25,136.015408 96.0455719,138.977642 93.6367188,141.386489 C91.2278656,143.795336 88.265625,144.999762 84.75,144.999762 C81.234375,144.999762 78.2721344,143.795336 75.8632812,141.386489 C73.4544281,138.977642 72.25,136.015408 72.25,132.499791 L50.375,132.499791 C47.640625,132.499791 45.3945312,131.588334 43.6367188,129.765423 C41.8789062,127.942512 41,125.761526 41,123.22247 C41,120.683413 41.9765625,118.437325 43.9296875,116.484205 C45.8828125,114.531084 47.3151032,112.773276 48.2265625,111.21078 C49.7890625,108.736826 51.0260407,105.67694 51.9375,102.031114 C52.9791657,97.6040403 53.5,92.1353033 53.5,85.6249031 C53.5,80.5467902 54.6393219,75.7941984 56.9179688,71.3671246 C59.1966156,66.9400509 62.3216156,63.2616752 66.2929688,60.3319947 C70.2643219,57.4023142 74.7239593,55.5468499 79.671875,54.7656017 C78.890625,53.7239385 78.5,52.5520663 78.5,51.2499851 C78.5,49.5572798 79.1184906,48.0924396 80.3554688,46.8554643 C81.5924469,45.6184891 83.0572907,45 84.75,45 C86.4427093,45 87.9075531,45.6184891 89.1445312,46.8554643 C90.3815094,48.0924396 91,49.5572798 91,51.2499851 C91,52.5520663 90.609375,53.7239385 89.828125,54.7656017 C94.7760407,55.5468499 99.2356781,57.4023142 103.207031,60.3319947 C107.178384,63.2616752 110.303384,66.9400509 112.582031,71.3671246 C114.860678,75.7941984 116,80.5467902 116,85.6249031 C116,92.1353033 116.520834,97.6040403 117.5625,102.031114 C118.473959,105.67694 119.710938,108.736826 121.273438,111.21078 C122.184897,112.773276 123.682291,114.531084 125.765625,116.484205 Z M84.7498957,137.18728 C83.4478145,137.18728 82.3410483,136.731553 81.4295911,135.820096 C80.518134,134.908639 80.0624069,133.801873 80.0624069,132.499791 L76.9374143,132.499791 C76.9374143,134.713327 77.6861095,136.568791 79.1835027,138.066184 C80.680896,139.563578 82.5363603,140.312273 84.7498957,140.312273 C85.1405198,140.312273 85.4985908,140.149514 85.8241119,139.823993 C86.1496329,139.498472 86.312392,139.140401 86.312392,138.749776 C86.312392,138.359152 86.1496329,138.001081 85.8241119,137.67556 C85.4985908,137.350039 85.1405198,137.18728 84.7498957,137.18728 Z" id="Icon" fill="#9C27B0"></path>
            </g>
        </g>
    </g>
</svg>