<?xml version="1.0" encoding="UTF-8"?>
<svg width="170px" height="186px" viewBox="0 0 170 186" version="1.1" xmlns="http://www.w3.org/2000/svg" xmlns:xlink="http://www.w3.org/1999/xlink">
    <!-- Generator: Sketch 48.2 (47327) - http://www.bohemiancoding.com/sketch -->
    <title>pinax-announcements</title>
    <desc>Created with Sketch.</desc>
    <defs>
        <path d="M92.3173204,4.08909079 L162.31732,43.2067379 C167.060996,45.8576154 170,50.8667748 170,56.3008901 L170,133.69911 C170,139.133225 167.060996,144.142385 162.31732,146.793262 L92.3173204,185.910909 C87.7700345,188.45204 82.2299655,188.45204 77.6826796,185.910909 L7.68267964,146.793262 C2.93900409,144.142385 6.75015599e-14,139.133225 6.75015599e-14,133.69911 L6.03961325e-14,56.3008901 C5.5067062e-14,50.8667748 2.93900409,45.8576154 7.68267964,43.2067379 L77.6826796,4.08909079 C82.2299655,1.54796043 87.7700345,1.54796043 92.3173204,4.08909079 Z" id="path-1"></path>
    </defs>
    <g id="Hexagons" stroke="none" stroke-width="1" fill="none" fill-rule="evenodd" transform="translate(-884.000000, -37.000000)">
        <g id="pinax-announcements" transform="translate(884.000000, 35.000000)">
            <g>
                <g id="Badge">
                    <use fill="#607D8B" fill-rule="evenodd" xlink:href="#path-1"></use>
                    <path stroke="#FFC107" stroke-width="15" d="M88.6586602,10.6361669 C86.3850172,9.36560173 83.6149828,9.36560173 81.3413398,10.6361669 L11.3413398,49.753814 C8.96950205,51.0792527 7.5,53.5838324 7.5,56.3008901 L7.5,133.69911 C7.5,136.416168 8.96950205,138.920747 11.3413398,140.246186 L81.3413398,179.363833 C83.6149828,180.634398 86.3850172,180.634398 88.6586602,179.363833 L158.65866,140.246186 C161.030498,138.920747 162.5,136.416168 162.5,133.69911 L162.5,56.3008901 C162.5,53.5838324 161.030498,51.0792527 158.65866,49.753814 L88.6586602,10.6361669 Z"></path>
                </g>
                <g id="Icon" transform="translate(40.000000, 55.000000)" fill="#FFC107">
                    <path d="M90,34.9999166 C90,36.5624128 89.53125,37.9947019 88.59375,39.2967813 C87.65625,40.5988607 86.4583325,41.5103185 85,42.0311498 L85,59.9998569 C85,62.8123502 84.0364575,65.1821371 82.109375,67.109215 C80.1822925,69.0362929 77.8125,69.9998331 75,69.9998331 L73.59375,68.7498361 C69.3229175,65.1040122 65.9895825,62.3956838 63.59375,60.6248555 C59.4270825,57.6040301 55.3125,55.2602857 51.25,53.5936222 C46.3541675,51.6144595 41.1979175,50.4686297 35.78125,50.1561304 C33.28125,50.989461 31.5885425,52.604042 30.703125,54.9998689 C29.8177075,57.3956957 30,59.5311081 31.25,61.4061036 C31.6666675,62.0311021 31.71875,62.6561006 31.40625,63.2810991 C30.6770825,65.0519274 30.6770825,66.7706733 31.40625,68.4373368 C31.9270825,69.7915011 32.96875,71.2498301 34.53125,72.8123264 C35.5729175,73.7498242 35.9635425,74.869614 35.703125,76.1716934 C35.4427075,77.4737728 34.6875,78.3852306 33.4375,78.9060619 C31.4583325,79.7393924 28.9322925,80.0779341 25.859375,79.9216845 C22.7864575,79.7654348 20.4166675,79.1664787 18.75,78.1248137 C18.0208325,77.7081473 17.5,77.0310663 17.1875,76.0935686 L16.40625,73.9060738 C14.84375,69.0102529 13.8541675,65.2602619 13.4375,62.6561006 C12.8125,58.281111 13.0729175,54.0623711 14.21875,49.9998808 L7.5,49.9998808 C5.41666746,49.9998808 3.64583254,49.2707151 2.1875,47.812386 C0.729167461,46.3540569 0,44.5832262 0,42.4998987 L0,27.4999344 C0,25.4166069 0.729167461,23.6457762 2.1875,22.1874471 C3.64583254,20.729118 5.41666746,19.9999523 7.5,19.9999523 L32.5,19.9999523 C38.5416675,19.9999523 44.21875,19.0103721 49.53125,17.0312094 C54.0104175,15.3645459 58.4375,12.9687191 62.8125,9.84372653 C65.5208325,7.968731 69.1145825,5.10415529 73.59375,1.24999702 L75,0 C77.8125,0 80.1822925,0.963540164 82.109375,2.89061811 C84.0364575,4.81769605 85,7.18748286 85,9.99997616 L85,27.9686833 C86.4583325,28.4895146 87.65625,29.4009724 88.59375,30.7030518 C89.53125,32.0051312 90,33.4374203 90,34.9999166 Z M74.9998212,56.8748644 L74.9998212,13.1249687 C69.7915011,17.4999583 64.8435954,20.8853677 60.1561066,23.2811945 C53.6977894,26.6145191 46.9790555,28.697849 39.9999046,29.5311796 L39.9999046,40.4686535 C46.9790555,41.3019841 53.6977894,43.385314 60.1561066,46.7186386 C64.8435954,49.1144654 69.7915011,52.4998748 74.9998212,56.8748644 Z" id="pinax-announcements"></path>
                    <path d="M74.9998212,56.8748644 L74.9998212,13.1249687 C69.7915011,17.4999583 64.8435954,20.8853677 60.1561066,23.2811945 C53.6977894,26.6145191 46.9790555,28.697849 39.9999046,29.5311796 L39.9999046,40.4686535 C46.9790555,41.3019841 53.6977894,43.385314 60.1561066,46.7186386 C64.8435954,49.1144654 69.7915011,52.4998748 74.9998212,56.8748644 Z" id="Path-Copy" fill-opacity="0.320737092"></path>
                </g>
            </g>
        </g>
    </g>
</svg>