<?xml version="1.0" encoding="UTF-8"?>
<svg width="169px" height="190px" viewBox="0 0 169 190" version="1.1" xmlns="http://www.w3.org/2000/svg" xmlns:xlink="http://www.w3.org/1999/xlink">
    <!-- Generator: Sketch 48.2 (47327) - http://www.bohemiancoding.com/sketch -->
    <title>pinax-types</title>
    <desc>Created with Sketch.</desc>
    <defs>
        <polygon id="path-1" points="69.2820323 0 138.564065 40 138.564065 120 69.2820323 160 3.19744231e-14 120 -1.24344979e-14 40"></polygon>
    </defs>
    <g id="Hexagons" stroke="none" stroke-width="1" fill="none" fill-rule="evenodd" transform="translate(-46.000000, -875.000000)">
        <g id="pinax-types" transform="translate(61.000000, 890.000000)">
            <g id="Polygon-Copy-29" stroke-linejoin="round">
                <use fill="#FAF8B6" fill-rule="evenodd" xlink:href="#path-1"></use>
                <path stroke="#009688" stroke-width="15" d="M69.2820323,-8.66025404 L146.064065,35.669873 L146.064065,124.330127 L69.2820323,168.660254 L-7.5,124.330127 L-7.5,35.669873 L69.2820323,-8.66025404 Z"></path>
            </g>
            <path d="M52.1542969,60.859375 C52.1542969,61.940105 51.7760425,62.8587231 51.0195312,63.6152344 C50.26302,64.3717456 49.3444019,64.75 48.2636719,64.75 L31.890625,64.75 C30.809895,64.75 29.8912769,64.3717456 29.1347656,63.6152344 C28.3782544,62.8587231 28,61.940105 28,60.859375 L28,47.890625 C28,46.809895 28.3782544,45.8912769 29.1347656,45.1347656 C29.8912769,44.3782544 30.809895,44 31.890625,44 L48.2636719,44 C49.3444019,44 50.26302,44.3782544 51.0195312,45.1347656 C51.7760425,45.8912769 52.1542969,46.809895 52.1542969,47.890625 L52.1542969,60.859375 Z M81.6582031,86.796875 C81.6582031,87.877605 81.2799487,88.7962231 80.5234375,89.5527344 C79.7669263,90.3092456 78.8483081,90.6875 77.7675781,90.6875 L61.2324219,90.6875 C60.1516919,90.6875 59.2330737,90.3092456 58.4765625,89.5527344 C57.7200513,88.7962231 57.3417969,87.877605 57.3417969,86.796875 L57.3417969,73.828125 C57.3417969,72.747395 57.7200513,71.8287769 58.4765625,71.0722656 C59.2330737,70.3157544 60.1516919,69.9375 61.2324219,69.9375 L77.7675781,69.9375 C78.8483081,69.9375 79.7669263,70.3157544 80.5234375,71.0722656 C81.2799487,71.8287769 81.6582031,72.747395 81.6582031,73.828125 L81.6582031,86.796875 Z M86.8457031,47.890625 C86.8457031,46.809895 87.2239575,45.8912769 87.9804688,45.1347656 C88.73698,44.3782544 89.6555981,44 90.7363281,44 L107.109375,44 C108.190105,44 109.108723,44.3782544 109.865234,45.1347656 C110.621746,45.8912769 111,46.809895 111,47.890625 L111,60.859375 C111,61.940105 110.621746,62.8587231 109.865234,63.6152344 C109.108723,64.3717456 108.190105,64.75 107.109375,64.75 L90.7363281,64.75 C89.6555981,64.75 88.73698,64.3717456 87.9804688,63.6152344 C87.2239575,62.8587231 86.8457031,61.940105 86.8457031,60.859375 L86.8457031,47.890625 Z M81.6582031,60.859375 C81.6582031,61.940105 81.2799487,62.8587231 80.5234375,63.6152344 C79.7669263,64.3717456 78.8483081,64.75 77.7675781,64.75 L61.2324219,64.75 C60.1516919,64.75 59.2330737,64.3717456 58.4765625,63.6152344 C57.7200513,62.8587231 57.3417969,61.940105 57.3417969,60.859375 L57.3417969,47.890625 C57.3417969,46.809895 57.7200513,45.8912769 58.4765625,45.1347656 C59.2330737,44.3782544 60.1516919,44 61.2324219,44 L77.7675781,44 C78.8483081,44 79.7669263,44.3782544 80.5234375,45.1347656 C81.2799487,45.8912769 81.6582031,46.809895 81.6582031,47.890625 L81.6582031,60.859375 Z M48.2636719,69.9375 C49.3444019,69.9375 50.26302,70.3157544 51.0195312,71.0722656 C51.7760425,71.8287769 52.1542969,72.747395 52.1542969,73.828125 L52.1542969,86.796875 C52.1542969,87.877605 51.7760425,88.7962231 51.0195312,89.5527344 C50.26302,90.3092456 49.3444019,90.6875 48.2636719,90.6875 L31.890625,90.6875 C30.809895,90.6875 29.8912769,90.3092456 29.1347656,89.5527344 C28.3782544,88.7962231 28,87.877605 28,86.796875 L28,73.828125 C28,72.747395 28.3782544,71.8287769 29.1347656,71.0722656 C29.8912769,70.3157544 30.809895,69.9375 31.890625,69.9375 L48.2636719,69.9375 Z M28,99.765625 C28,98.684895 28.3782544,97.7662769 29.1347656,97.0097656 C29.8912769,96.2532544 30.809895,95.875 31.890625,95.875 L48.2636719,95.875 C49.3444019,95.875 50.26302,96.2532544 51.0195312,97.0097656 C51.7760425,97.7662769 52.1542969,98.684895 52.1542969,99.765625 L52.1542969,112.734375 C52.1542969,113.815105 51.7760425,114.733723 51.0195312,115.490234 C50.26302,116.246746 49.3444019,116.625 48.2636719,116.625 L31.890625,116.625 C30.809895,116.625 29.8912769,116.246746 29.1347656,115.490234 C28.3782544,114.733723 28,113.815105 28,112.734375 L28,99.765625 Z M90.7363281,90.6875 C89.6555981,90.6875 88.73698,90.3092456 87.9804688,89.5527344 C87.2239575,88.7962231 86.8457031,87.877605 86.8457031,86.796875 L86.8457031,73.828125 C86.8457031,72.747395 87.2239575,71.8287769 87.9804688,71.0722656 C88.73698,70.3157544 89.6555981,69.9375 90.7363281,69.9375 L107.109375,69.9375 C108.190105,69.9375 109.108723,70.3157544 109.865234,71.0722656 C110.621746,71.8287769 111,72.747395 111,73.828125 L111,86.796875 C111,87.877605 110.621746,88.7962231 109.865234,89.5527344 C109.108723,90.3092456 108.190105,90.6875 107.109375,90.6875 L90.7363281,90.6875 Z M90.7363281,116.625 C89.6555981,116.625 88.73698,116.246746 87.9804688,115.490234 C87.2239575,114.733723 86.8457031,113.815105 86.8457031,112.734375 L86.8457031,99.765625 C86.8457031,98.684895 87.2239575,97.7662769 87.9804688,97.0097656 C88.73698,96.2532544 89.6555981,95.875 90.7363281,95.875 L107.109375,95.875 C108.190105,95.875 109.108723,96.2532544 109.865234,97.0097656 C110.621746,97.7662769 111,98.684895 111,99.765625 L111,112.734375 C111,113.815105 110.621746,114.733723 109.865234,115.490234 C109.108723,116.246746 108.190105,116.625 107.109375,116.625 L90.7363281,116.625 Z M57.3417969,99.765625 C57.3417969,98.684895 57.7200513,97.7662769 58.4765625,97.0097656 C59.2330737,96.2532544 60.1516919,95.875 61.2324219,95.875 L77.7675781,95.875 C78.8483081,95.875 79.7669263,96.2532544 80.5234375,97.0097656 C81.2799487,97.7662769 81.6582031,98.684895 81.6582031,99.765625 L81.6582031,112.734375 C81.6582031,113.815105 81.2799487,114.733723 80.5234375,115.490234 C79.7669263,116.246746 78.8483081,116.625 77.7675781,116.625 L61.2324219,116.625 C60.1516919,116.625 59.2330737,116.246746 58.4765625,115.490234 C57.7200513,114.733723 57.3417969,113.815105 57.3417969,112.734375 L57.3417969,99.765625 Z" id="pinax-referrals-copy-4" fill="#009688"></path>
        </g>
    </g>
</svg>