<?xml version="1.0" encoding="UTF-8"?>
<svg width="170px" height="186px" viewBox="0 0 170 186" version="1.1" xmlns="http://www.w3.org/2000/svg" xmlns:xlink="http://www.w3.org/1999/xlink">
    <!-- Generator: Sketch 48.2 (47327) - http://www.bohemiancoding.com/sketch -->
    <title>pinax-eventlog</title>
    <desc>Created with Sketch.</desc>
    <defs>
        <path d="M92.3173204,4.08909079 L162.31732,43.2067379 C167.060996,45.8576154 170,50.8667748 170,56.3008901 L170,133.69911 C170,139.133225 167.060996,144.142385 162.31732,146.793262 L92.3173204,185.910909 C87.7700345,188.45204 82.2299655,188.45204 77.6826796,185.910909 L7.68267964,146.793262 C2.93900409,144.142385 -3.55271368e-15,139.133225 -3.55271368e-15,133.69911 L-1.0658141e-14,56.3008901 C-1.59872116e-14,50.8667748 2.93900409,45.8576154 7.68267964,43.2067379 L77.6826796,4.08909079 C82.2299655,1.54796043 87.7700345,1.54796043 92.3173204,4.08909079 Z" id="path-1"></path>
    </defs>
    <g id="Hexagons" stroke="none" stroke-width="1" fill="none" fill-rule="evenodd" transform="translate(-254.000000, -877.000000)">
        <g id="pinax-eventlog" transform="translate(253.000000, 875.000000)">
            <g transform="translate(1.000000, 0.000000)">
                <g id="Badge">
                    <use fill="#33658A" fill-rule="evenodd" xlink:href="#path-1"></use>
                    <path stroke="#86BBD8" stroke-width="15" d="M88.6586602,10.6361669 C86.3850172,9.36560173 83.6149828,9.36560173 81.3413398,10.6361669 L11.3413398,49.753814 C8.96950205,51.0792527 7.5,53.5838324 7.5,56.3008901 L7.5,133.69911 C7.5,136.416168 8.96950205,138.920747 11.3413398,140.246186 L81.3413398,179.363833 C83.6149828,180.634398 86.3850172,180.634398 88.6586602,179.363833 L158.65866,140.246186 C161.030498,138.920747 162.5,136.416168 162.5,133.69911 L162.5,56.3008901 C162.5,53.5838324 161.030498,51.0792527 158.65866,49.753814 L88.6586602,10.6361669 Z"></path>
                </g>
                <path d="M121.5,64.9765625 L121.5,72.5234375 C121.5,74.7109367 119.859375,76.7070312 116.578125,78.5117187 C113.296875,80.3164062 108.839843,81.7656242 103.207031,82.859375 C97.5742196,83.9531258 91.4218758,84.5 84.75,84.5 C78.0781242,84.5 71.9257804,83.9531258 66.2929687,82.859375 C60.6601571,81.7656242 56.203125,80.3164062 52.921875,78.5117187 C49.640625,76.7070312 48,74.7109367 48,72.5234375 L48,64.9765625 C48,62.7890633 49.640625,60.7929687 52.921875,58.9882812 C56.203125,57.1835937 60.6601571,55.7343758 66.2929687,54.640625 C71.9257804,53.5468742 78.0781242,53 84.75,53 C91.4218758,53 97.5742196,53.5468742 103.207031,54.640625 C108.839843,55.7343758 113.296875,57.1835937 116.578125,58.9882812 C119.859375,60.7929687 121.5,62.7890633 121.5,64.9765625 Z M121.5,81.875 L121.5,98.7734375 C121.5,100.960937 119.859375,102.957031 116.578125,104.761719 C113.296875,106.566406 108.839843,108.015624 103.207031,109.109375 C97.5742196,110.203126 91.4218758,110.75 84.75,110.75 C78.0781242,110.75 71.9257804,110.203126 66.2929687,109.109375 C60.6601571,108.015624 56.203125,106.566406 52.921875,104.761719 C49.640625,102.957031 48,100.960937 48,98.7734375 L48,81.875 C51.8281242,84.5 57.1328133,86.5234367 63.9140625,87.9453125 C70.2578133,89.2578125 77.203125,89.9140625 84.75,89.9140625 C92.296875,89.9140625 99.2421867,89.2578125 105.585937,87.9453125 C112.367187,86.5234367 117.671876,84.5 121.5,81.875 Z M121.5,108.125 L121.5,125.023438 C121.5,127.210937 119.859375,129.207031 116.578125,131.011719 C113.296875,132.816406 108.839843,134.265624 103.207031,135.359375 C97.5742196,136.453126 91.4218758,137 84.75,137 C78.0781242,137 71.9257804,136.453126 66.2929687,135.359375 C60.6601571,134.265624 56.203125,132.816406 52.921875,131.011719 C49.640625,129.207031 48,127.210937 48,125.023438 L48,108.125 C51.8281242,110.75 57.1328133,112.773437 63.9140625,114.195312 C70.2578133,115.507812 77.203125,116.164062 84.75,116.164062 C92.296875,116.164062 99.2421867,115.507812 105.585937,114.195312 C112.367187,112.773437 117.671876,110.75 121.5,108.125 Z" id="Icon" fill="#86BBD8"></path>
            </g>
        </g>
    </g>
</svg>