<?xml version="1.0" encoding="UTF-8"?>
<svg width="170px" height="190px" viewBox="0 0 170 190" version="1.1" xmlns="http://www.w3.org/2000/svg" xmlns:xlink="http://www.w3.org/1999/xlink">
    <!-- Generator: Sketch 48.2 (47327) - http://www.bohemiancoding.com/sketch -->
    <title>pinax-webanalytics</title>
    <desc>Created with Sketch.</desc>
    <defs>
        <polygon id="path-1" points="70 0 139.282032 40 139.282032 120 70 160 0.717967697 120 0.717967697 40"></polygon>
    </defs>
    <g id="Hexagons" stroke="none" stroke-width="1" fill="none" fill-rule="evenodd" transform="translate(-885.000000, -665.000000)">
        <g id="pinax-webanalytics" transform="translate(900.000000, 680.000000)">
            <g id="Polygon-Copy-19" stroke-linejoin="round">
                <use fill-opacity="0.302904212" fill="#DE690C" fill-rule="evenodd" xlink:href="#path-1"></use>
                <path stroke="#DE690C" stroke-width="15" d="M70,-8.66025404 L146.782032,35.669873 L146.782032,124.330127 L70,168.660254 L-6.7820323,124.330127 L-6.7820323,35.669873 L70,-8.66025404 Z"></path>
            </g>
            <path d="M107.171875,99.7498838 C107.679687,99.7498838 108.111329,99.9276185 108.466797,100.283086 C108.822265,100.638553 109,101.070194 109,101.578004 L109,107.67174 C109,108.17955 108.822265,108.611192 108.466797,108.966659 C108.111329,109.322126 107.679687,109.499861 107.171875,109.499861 L32.828125,109.499861 C32.3203133,109.499861 31.8886711,109.322126 31.5332031,108.966659 C31.1777351,108.611192 31,108.17955 31,107.67174 L31,52.8281206 C31,52.3203101 31.1777351,51.888669 31.5332031,51.5332019 C31.8886711,51.1777347 32.3203133,51 32.828125,51 L38.921875,51 C39.4296867,51 39.8613289,51.1777347 40.2167969,51.5332019 C40.5722649,51.888669 40.75,52.3203101 40.75,52.8281206 L40.75,99.7498838 L107.171875,99.7498838 Z M60.2499303,93.0467748 C60.2499303,93.5545853 60.0721955,93.9862264 59.7167284,94.3416935 C59.3612613,94.6971607 58.9296201,94.8748954 58.4218096,94.8748954 L52.3280741,94.8748954 C51.8202636,94.8748954 51.3886225,94.6971607 51.0331554,94.3416935 C50.6776882,93.9862264 50.4999535,93.5545853 50.4999535,93.0467748 L50.4999535,82.0780509 C50.4999535,81.5702404 50.6776882,81.1385992 51.0331554,80.7831321 C51.3886225,80.427665 51.8202636,80.2499303 52.3280741,80.2499303 L58.4218096,80.2499303 C58.9296201,80.2499303 59.3612613,80.427665 59.7167284,80.7831321 C60.0721955,81.1385992 60.2499303,81.5702404 60.2499303,82.0780509 L60.2499303,93.0467748 Z M89.4998605,93.0467748 C89.4998605,93.5545853 89.3221258,93.9862264 88.9666587,94.3416935 C88.6111915,94.6971607 88.1795504,94.8748954 87.6717399,94.8748954 L81.5780044,94.8748954 C81.0701939,94.8748954 80.6385528,94.6971607 80.2830856,94.3416935 C79.9276185,93.9862264 79.7498838,93.5545853 79.7498838,93.0467748 L79.7498838,72.3280741 C79.7498838,71.8202636 79.9276185,71.3886225 80.2830856,71.0331554 C80.6385528,70.6776882 81.0701939,70.4999535 81.5780044,70.4999535 L87.6717399,70.4999535 C88.1795504,70.4999535 88.6111915,70.6776882 88.9666587,71.0331554 C89.3221258,71.3886225 89.4998605,71.8202636 89.4998605,72.3280741 L89.4998605,93.0467748 Z M74.8748954,93.0467748 C74.8748954,93.5545853 74.6971607,93.9862264 74.3416935,94.3416935 C73.9862264,94.6971607 73.5545853,94.8748954 73.0467748,94.8748954 L66.9530393,94.8748954 C66.4452288,94.8748954 66.0135876,94.6971607 65.6581205,94.3416935 C65.3026534,93.9862264 65.1249186,93.5545853 65.1249186,93.0467748 L65.1249186,62.5780974 C65.1249186,62.0702869 65.3026534,61.6386457 65.6581205,61.2831786 C66.0135876,60.9277115 66.4452288,60.7499768 66.9530393,60.7499768 L73.0467748,60.7499768 C73.5545853,60.7499768 73.9862264,60.9277115 74.3416935,61.2831786 C74.6971607,61.6386457 74.8748954,62.0702869 74.8748954,62.5780974 L74.8748954,93.0467748 Z M104.124826,93.0467748 C104.124826,93.5545853 103.947091,93.9862264 103.591624,94.3416935 C103.236157,94.6971607 102.804516,94.8748954 102.296705,94.8748954 L96.2029695,94.8748954 C95.695159,94.8748954 95.2635179,94.6971607 94.9080508,94.3416935 C94.5525836,93.9862264 94.3748489,93.5545853 94.3748489,93.0467748 L94.3748489,57.703109 C94.3748489,57.1952985 94.5525836,56.7636574 94.9080508,56.4081902 C95.2635179,56.0527231 95.695159,55.8749884 96.2029695,55.8749884 L102.296705,55.8749884 C102.804516,55.8749884 103.236157,56.0527231 103.591624,56.4081902 C103.947091,56.7636574 104.124826,57.1952985 104.124826,57.703109 L104.124826,93.0467748 Z" id="pinax-referrals-copy-2" fill="#DE690C"></path>
        </g>
    </g>
</svg>