<?xml version="1.0" encoding="UTF-8"?>
<svg width="169px" height="190px" viewBox="0 0 169 190" version="1.1" xmlns="http://www.w3.org/2000/svg" xmlns:xlink="http://www.w3.org/1999/xlink">
    <!-- Generator: Sketch 48.2 (47327) - http://www.bohemiancoding.com/sketch -->
    <title>pinax-messages</title>
    <desc>Created with Sketch.</desc>
    <defs>
        <polygon id="path-1" points="69.2820323 0 138.564065 40 138.564065 120 69.2820323 160 3.19744231e-14 120 -1.24344979e-14 40"></polygon>
    </defs>
    <g id="Hexagons" stroke="none" stroke-width="1" fill="none" fill-rule="evenodd" transform="translate(-256.000000, -455.000000)">
        <g id="pinax-messages" transform="translate(271.000000, 470.000000)">
            <g id="Polygon-Copy-16" stroke-linejoin="round">
                <use fill="#CED3EC" fill-rule="evenodd" xlink:href="#path-1"></use>
                <path stroke="#3F51B5" stroke-width="15" d="M69.2820323,-8.66025404 L146.064065,35.669873 L146.064065,124.330127 L69.2820323,168.660254 L-7.5,124.330127 L-7.5,35.669873 L69.2820323,-8.66025404 Z"></path>
            </g>
            <path d="M113,77.4097753 C113,83.1480997 111.062053,88.4082295 107.186158,93.1901673 C103.310262,97.972105 98.0249505,101.772485 91.3302235,104.591312 C84.6354966,107.410138 77.3619007,108.819551 69.5094382,108.819551 C62.3616846,108.819551 55.6166198,107.611482 49.2742462,105.195346 C43.1332171,110.027619 35.9854634,112.846446 27.8309831,113.651824 C27.428292,113.651824 27.0507697,113.551151 26.6984164,113.349807 C26.3460631,113.148463 26.1195497,112.846446 26.0188764,112.443756 C25.918203,112.041065 26.2202208,111.487369 26.9249297,110.782662 L28.1330009,109.725602 C29.9451076,108.114843 31.2538522,106.655096 32.0592322,105.346354 C33.3679767,103.030891 34.3243656,100.061056 34.9284012,96.4368508 C32.1095677,93.7186971 29.9199387,90.7488618 28.3595142,87.5273472 C26.7990898,84.3058325 26.0188764,80.9333071 26.0188764,77.4097753 C26.0188764,71.671451 27.981992,66.4113211 31.9082233,61.6293834 C35.8344546,56.8474457 41.1197659,53.0470657 47.7641573,50.228239 C54.4085487,47.4094122 61.6569756,46 69.5094382,46 C77.3619007,46 84.6103277,47.4094122 91.2547191,50.228239 C97.8991105,53.0470657 103.184422,56.8474457 107.110653,61.6293834 C111.036884,66.4113211 113,71.671451 113,77.4097753 Z" fill="#3F51B5"></path>
        </g>
    </g>
</svg>