<?xml version="1.0" encoding="UTF-8"?>
<svg width="169px" height="190px" viewBox="0 0 169 190" version="1.1" xmlns="http://www.w3.org/2000/svg" xmlns:xlink="http://www.w3.org/1999/xlink">
    <!-- Generator: Sketch 48.2 (47327) - http://www.bohemiancoding.com/sketch -->
    <title>pinax-news</title>
    <desc>Created with Sketch.</desc>
    <defs>
        <polygon id="path-1" points="69.2820323 0 138.564065 40 138.564065 120 69.2820323 160 3.19744231e-14 120 -1.24344979e-14 40"></polygon>
    </defs>
    <g id="Hexagons" stroke="none" stroke-width="1" fill="none" fill-rule="evenodd" transform="translate(-466.000000, -455.000000)">
        <g id="pinax-news" transform="translate(481.000000, 470.000000)">
            <g id="Polygon-Copy-15" stroke-linejoin="round">
                <use fill="#D8CDEC" fill-rule="evenodd" xlink:href="#path-1"></use>
                <path stroke="#673AB7" stroke-width="15" d="M69.2820323,-8.66025404 L146.064065,35.669873 L146.064065,124.330127 L69.2820323,168.660254 L-7.5,124.330127 L-7.5,35.669873 L69.2820323,-8.66025404 Z"></path>
            </g>
            <path d="M112.562716,49 C113.656469,49 114.586157,49.3828117 115.351785,50.1484375 C116.117413,50.9140633 116.500225,51.8437492 116.500225,52.9375 L116.500225,108.0625 C116.500225,109.156251 116.117413,110.085937 115.351785,110.851562 C114.586157,111.617188 113.656469,112 112.562716,112 L29.8750188,112 C27.6875144,112 25.8281333,111.234374 24.2968805,109.703125 C22.7656277,108.171876 22,106.312499 22,104.125 L22,58.1875 C22,57.0937492 22.3828126,56.1640633 23.1484402,55.3984375 C23.9140679,54.6328117 24.8437559,54.25 25.9375094,54.25 L32.500025,54.25 L32.500025,52.9375 C32.500025,51.8437492 32.8828376,50.9140633 33.6484653,50.1484375 C34.4140929,49.3828117 35.343781,49 36.4375344,49 L112.562716,49 Z M27.25,104.125 C27.25,104.890626 27.4960937,105.519531 27.9882812,106.011719 C28.4804687,106.503906 29.1093742,106.75 29.875,106.75 C30.6406258,106.75 31.2695312,106.503906 31.7617187,106.011719 C32.2539062,105.519531 32.5,104.890626 32.5,104.125 L32.5,59.5 L27.25,59.5 L27.25,104.125 Z M111.25,106.75 L111.25,54.25 L37.75,54.25 L37.75,104.125 C37.75,104.999999 37.5859375,105.875001 37.2578125,106.75 L111.25,106.75 Z M44.96875,91 C44.4218758,91 43.9570304,90.8085929 43.5742187,90.4257812 C43.1914071,90.0429696 43,89.5781242 43,89.03125 L43,61.46875 C43,60.9218758 43.1914071,60.4570304 43.5742187,60.0742188 C43.9570304,59.6914071 44.4218758,59.5 44.96875,59.5 L72.53125,59.5 C73.0781242,59.5 73.5429696,59.6914071 73.9257812,60.0742188 C74.3085929,60.4570304 74.5,60.9218758 74.5,61.46875 L74.5,89.03125 C74.5,89.5781242 74.3085929,90.0429696 73.9257812,90.4257812 C73.5429696,90.8085929 73.0781242,91 72.53125,91 L44.96875,91 Z M48.25,64.75 L48.25,85.75 L69.25,85.75 L69.25,64.75 L48.25,64.75 Z M43,98.21875 C43,97.6718758 43.1914071,97.2070304 43.5742187,96.8242188 C43.9570304,96.4414071 44.4218758,96.25 44.96875,96.25 L72.53125,96.25 C73.0781242,96.25 73.5429696,96.4414071 73.9257812,96.8242188 C74.3085929,97.2070304 74.5,97.6718758 74.5,98.21875 L74.5,99.53125 C74.5,100.078124 74.3085929,100.54297 73.9257812,100.925781 C73.5429696,101.308593 73.0781242,101.5 72.53125,101.5 L44.96875,101.5 C44.4218758,101.5 43.9570304,101.308593 43.5742187,100.925781 C43.1914071,100.54297 43,100.078124 43,99.53125 L43,98.21875 Z M79.75,98.21875 C79.75,97.6718758 79.9414071,97.2070304 80.3242187,96.8242188 C80.7070304,96.4414071 81.1718758,96.25 81.71875,96.25 L104.03125,96.25 C104.578124,96.25 105.04297,96.4414071 105.425781,96.8242188 C105.808593,97.2070304 106,97.6718758 106,98.21875 L106,99.53125 C106,100.078124 105.808593,100.54297 105.425781,100.925781 C105.04297,101.308593 104.578124,101.5 104.03125,101.5 L81.71875,101.5 C81.1718758,101.5 80.7070304,101.308593 80.3242187,100.925781 C79.9414071,100.54297 79.75,100.078124 79.75,99.53125 L79.75,98.21875 Z M79.75,87.71875 C79.75,87.1718758 79.9414071,86.7070304 80.3242187,86.3242188 C80.7070304,85.9414071 81.1718758,85.75 81.71875,85.75 L104.03125,85.75 C104.578124,85.75 105.04297,85.9414071 105.425781,86.3242188 C105.808593,86.7070304 106,87.1718758 106,87.71875 L106,89.03125 C106,89.5781242 105.808593,90.0429696 105.425781,90.4257812 C105.04297,90.8085929 104.578124,91 104.03125,91 L81.71875,91 C81.1718758,91 80.7070304,90.8085929 80.3242187,90.4257812 C79.9414071,90.0429696 79.75,89.5781242 79.75,89.03125 L79.75,87.71875 Z M79.75,66.71875 C79.75,66.1718758 79.9414071,65.7070304 80.3242187,65.3242188 C80.7070304,64.9414071 81.1718758,64.75 81.71875,64.75 L104.03125,64.75 C104.578124,64.75 105.04297,64.9414071 105.425781,65.3242188 C105.808593,65.7070304 106,66.1718758 106,66.71875 L106,68.03125 C106,68.5781242 105.808593,69.0429696 105.425781,69.4257812 C105.04297,69.8085929 104.578124,70 104.03125,70 L81.71875,70 C81.1718758,70 80.7070304,69.8085929 80.3242187,69.4257812 C79.9414071,69.0429696 79.75,68.5781242 79.75,68.03125 L79.75,66.71875 Z M79.75,77.21875 C79.75,76.6718758 79.9414071,76.2070304 80.3242187,75.8242188 C80.7070304,75.4414071 81.1718758,75.25 81.71875,75.25 L104.03125,75.25 C104.578124,75.25 105.04297,75.4414071 105.425781,75.8242188 C105.808593,76.2070304 106,76.6718758 106,77.21875 L106,78.53125 C106,79.0781242 105.808593,79.5429696 105.425781,79.9257812 C105.04297,80.3085929 104.578124,80.5 104.03125,80.5 L81.71875,80.5 C81.1718758,80.5 80.7070304,80.3085929 80.3242187,79.9257812 C79.9414071,79.5429696 79.75,79.0781242 79.75,78.53125 L79.75,77.21875 Z" fill="#673AB7"></path>
        </g>
    </g>
</svg>