<?xml version="1.0" encoding="UTF-8"?>
<svg width="169px" height="190px" viewBox="0 0 169 190" version="1.1" xmlns="http://www.w3.org/2000/svg" xmlns:xlink="http://www.w3.org/1999/xlink">
    <!-- Generator: Sketch 48.2 (47327) - http://www.bohemiancoding.com/sketch -->
    <title>pinax-images</title>
    <desc>Created with Sketch.</desc>
    <defs>
        <polygon id="path-1" points="69.2820323 0 138.564065 40 138.564065 120 69.2820323 160 9.05941988e-14 120 4.61852778e-14 40"></polygon>
    </defs>
    <g id="Hexagons" stroke="none" stroke-width="1" fill="none" fill-rule="evenodd" transform="translate(-1096.000000, -245.000000)">
        <g id="pinax-images" transform="translate(1111.000000, 260.000000)">
            <g id="Polygon-Copy-11" stroke-linejoin="round">
                <use fill="#BEE9FC" fill-rule="evenodd" xlink:href="#path-1"></use>
                <path stroke="#03A9F4" stroke-width="15" d="M69.2820323,-8.66025404 L146.064065,35.669873 L146.064065,124.330127 L69.2820323,168.660254 L-7.5,124.330127 L-7.5,35.669873 L69.2820323,-8.66025404 Z"></path>
            </g>
            <path d="M109.625,43 C112.229166,43 114.442709,43.9114572 116.265625,45.7343685 C118.088541,47.5572798 119,49.7708182 119,52.3749776 L119,108.624844 C119,111.229003 118.088541,113.442541 116.265625,115.265453 C114.442709,117.088364 112.229166,117.999821 109.625,117.999821 L28.375,117.999821 C25.7708343,117.999821 23.5572907,117.088364 21.734375,115.265453 C19.9114593,113.442541 19,111.229003 19,108.624844 L19,52.3749776 C19,49.7708182 19.9114593,47.5572798 21.734375,45.7343685 C23.5572907,43.9114572 25.7708343,43 28.375,43 L109.625,43 Z M108.452912,108.624844 C108.713327,108.624844 108.973745,108.494635 109.23416,108.234219 C109.494575,107.973804 109.624784,107.713386 109.624784,107.452971 L109.624784,53.5468499 C109.624784,53.2864348 109.494575,53.0260168 109.23416,52.7656017 C108.973745,52.5051867 108.713327,52.3749776 108.452912,52.3749776 L29.5468499,52.3749776 C29.2864348,52.3749776 29.0260168,52.5051867 28.7656017,52.7656017 C28.5051867,53.0260168 28.3749776,53.2864348 28.3749776,53.5468499 L28.3749776,107.452971 C28.3749776,107.713386 28.5051867,107.973804 28.7656017,108.234219 C29.0260168,108.494635 29.2864348,108.624844 29.5468499,108.624844 L108.452912,108.624844 Z M43.9999404,60.187459 C46.2134758,60.187459 48.0689401,60.9361542 49.5663334,62.4335474 C51.0637266,63.9309407 51.8124218,65.786405 51.8124218,67.9999404 C51.8124218,70.2134758 51.0637266,72.0689401 49.5663334,73.5663334 C48.0689401,75.0637266 46.2134758,75.8124218 43.9999404,75.8124218 C41.786405,75.8124218 39.9309407,75.0637266 38.4335474,73.5663334 C36.9361542,72.0689401 36.187459,70.2134758 36.187459,67.9999404 C36.187459,65.786405 36.9361542,63.9309407 38.4335474,62.4335474 C39.9309407,60.9361542 41.786405,60.187459 43.9999404,60.187459 Z M37.7499553,99.2498659 L37.7499553,89.8748882 L45.5624367,82.0624069 C45.9530607,81.6717828 46.4738938,81.4764708 47.1249329,81.4764708 C47.7759721,81.4764708 48.2968052,81.6717828 48.6874292,82.0624069 L56.4999106,89.8748882 L79.9373547,66.4374441 C80.3279788,66.0468201 80.8488119,65.851508 81.499851,65.851508 C82.1508901,65.851508 82.6717232,66.0468201 83.0623473,66.4374441 L100.249806,83.6249031 L100.249806,99.2498659 L37.7499553,99.2498659 Z" fill="#03A9F4"></path>
        </g>
    </g>
</svg>