<?xml version="1.0" encoding="UTF-8"?>
<svg width="170px" height="186px" viewBox="0 0 170 186" version="1.1" xmlns="http://www.w3.org/2000/svg" xmlns:xlink="http://www.w3.org/1999/xlink">
    <!-- Generator: Sketch 48.2 (47327) - http://www.bohemiancoding.com/sketch -->
    <title>pinax-news</title>
    <desc>Created with Sketch.</desc>
    <defs>
        <path d="M92.3173204,4.08909079 L162.31732,43.2067379 C167.060996,45.8576154 170,50.8667748 170,56.3008901 L170,133.69911 C170,139.133225 167.060996,144.142385 162.31732,146.793262 L92.3173204,185.910909 C87.7700345,188.45204 82.2299655,188.45204 77.6826796,185.910909 L7.68267964,146.793262 C2.93900409,144.142385 -3.55271368e-15,139.133225 -3.55271368e-15,133.69911 L-1.0658141e-14,56.3008901 C-1.59872116e-14,50.8667748 2.93900409,45.8576154 7.68267964,43.2067379 L77.6826796,4.08909079 C82.2299655,1.54796043 87.7700345,1.54796043 92.3173204,4.08909079 Z" id="path-1"></path>
    </defs>
    <g id="Hexagons" stroke="none" stroke-width="1" fill="none" fill-rule="evenodd" transform="translate(-464.000000, -457.000000)">
        <g id="pinax-news" transform="translate(464.000000, 455.000000)">
            <g>
                <g id="Badge">
                    <use fill="#D8CDEC" fill-rule="evenodd" xlink:href="#path-1"></use>
                    <path stroke="#673AB7" stroke-width="15" d="M88.6586602,10.6361669 C86.3850172,9.36560173 83.6149828,9.36560173 81.3413398,10.6361669 L11.3413398,49.753814 C8.96950205,51.0792527 7.5,53.5838324 7.5,56.3008901 L7.5,133.69911 C7.5,136.416168 8.96950205,138.920747 11.3413398,140.246186 L81.3413398,179.363833 C83.6149828,180.634398 86.3850172,180.634398 88.6586602,179.363833 L158.65866,140.246186 C161.030498,138.920747 162.5,136.416168 162.5,133.69911 L162.5,56.3008901 C162.5,53.5838324 161.030498,51.0792527 158.65866,49.753814 L88.6586602,10.6361669 Z"></path>
                </g>
                <path d="M129.562716,64 C130.656469,64 131.586157,64.3828117 132.351785,65.1484375 C133.117413,65.9140633 133.500225,66.8437492 133.500225,67.9375 L133.500225,123.0625 C133.500225,124.156251 133.117413,125.085937 132.351785,125.851562 C131.586157,126.617188 130.656469,127 129.562716,127 L46.8750188,127 C44.6875144,127 42.8281333,126.234374 41.2968805,124.703125 C39.7656277,123.171876 39,121.312499 39,119.125 L39,73.1875 C39,72.0937492 39.3828126,71.1640633 40.1484402,70.3984375 C40.9140679,69.6328117 41.8437559,69.25 42.9375094,69.25 L49.500025,69.25 L49.500025,67.9375 C49.500025,66.8437492 49.8828376,65.9140633 50.6484653,65.1484375 C51.4140929,64.3828117 52.343781,64 53.4375344,64 L129.562716,64 Z M44.25,119.125 C44.25,119.890626 44.4960937,120.519531 44.9882812,121.011719 C45.4804687,121.503906 46.1093742,121.75 46.875,121.75 C47.6406258,121.75 48.2695312,121.503906 48.7617187,121.011719 C49.2539062,120.519531 49.5,119.890626 49.5,119.125 L49.5,74.5 L44.25,74.5 L44.25,119.125 Z M128.25,121.75 L128.25,69.25 L54.75,69.25 L54.75,119.125 C54.75,119.999999 54.5859375,120.875001 54.2578125,121.75 L128.25,121.75 Z M61.96875,106 C61.4218758,106 60.9570304,105.808593 60.5742187,105.425781 C60.1914071,105.04297 60,104.578124 60,104.03125 L60,76.46875 C60,75.9218758 60.1914071,75.4570304 60.5742187,75.0742188 C60.9570304,74.6914071 61.4218758,74.5 61.96875,74.5 L89.53125,74.5 C90.0781242,74.5 90.5429696,74.6914071 90.9257812,75.0742188 C91.3085929,75.4570304 91.5,75.9218758 91.5,76.46875 L91.5,104.03125 C91.5,104.578124 91.3085929,105.04297 90.9257812,105.425781 C90.5429696,105.808593 90.0781242,106 89.53125,106 L61.96875,106 Z M65.25,79.75 L65.25,100.75 L86.25,100.75 L86.25,79.75 L65.25,79.75 Z M60,113.21875 C60,112.671876 60.1914071,112.20703 60.5742187,111.824219 C60.9570304,111.441407 61.4218758,111.25 61.96875,111.25 L89.53125,111.25 C90.0781242,111.25 90.5429696,111.441407 90.9257812,111.824219 C91.3085929,112.20703 91.5,112.671876 91.5,113.21875 L91.5,114.53125 C91.5,115.078124 91.3085929,115.54297 90.9257812,115.925781 C90.5429696,116.308593 90.0781242,116.5 89.53125,116.5 L61.96875,116.5 C61.4218758,116.5 60.9570304,116.308593 60.5742187,115.925781 C60.1914071,115.54297 60,115.078124 60,114.53125 L60,113.21875 Z M96.75,113.21875 C96.75,112.671876 96.9414071,112.20703 97.3242187,111.824219 C97.7070304,111.441407 98.1718758,111.25 98.71875,111.25 L121.03125,111.25 C121.578124,111.25 122.04297,111.441407 122.425781,111.824219 C122.808593,112.20703 123,112.671876 123,113.21875 L123,114.53125 C123,115.078124 122.808593,115.54297 122.425781,115.925781 C122.04297,116.308593 121.578124,116.5 121.03125,116.5 L98.71875,116.5 C98.1718758,116.5 97.7070304,116.308593 97.3242187,115.925781 C96.9414071,115.54297 96.75,115.078124 96.75,114.53125 L96.75,113.21875 Z M96.75,102.71875 C96.75,102.171876 96.9414071,101.70703 97.3242187,101.324219 C97.7070304,100.941407 98.1718758,100.75 98.71875,100.75 L121.03125,100.75 C121.578124,100.75 122.04297,100.941407 122.425781,101.324219 C122.808593,101.70703 123,102.171876 123,102.71875 L123,104.03125 C123,104.578124 122.808593,105.04297 122.425781,105.425781 C122.04297,105.808593 121.578124,106 121.03125,106 L98.71875,106 C98.1718758,106 97.7070304,105.808593 97.3242187,105.425781 C96.9414071,105.04297 96.75,104.578124 96.75,104.03125 L96.75,102.71875 Z M96.75,81.71875 C96.75,81.1718758 96.9414071,80.7070304 97.3242187,80.3242188 C97.7070304,79.9414071 98.1718758,79.75 98.71875,79.75 L121.03125,79.75 C121.578124,79.75 122.04297,79.9414071 122.425781,80.3242188 C122.808593,80.7070304 123,81.1718758 123,81.71875 L123,83.03125 C123,83.5781242 122.808593,84.0429696 122.425781,84.4257812 C122.04297,84.8085929 121.578124,85 121.03125,85 L98.71875,85 C98.1718758,85 97.7070304,84.8085929 97.3242187,84.4257812 C96.9414071,84.0429696 96.75,83.5781242 96.75,83.03125 L96.75,81.71875 Z M96.75,92.21875 C96.75,91.6718758 96.9414071,91.2070304 97.3242187,90.8242188 C97.7070304,90.4414071 98.1718758,90.25 98.71875,90.25 L121.03125,90.25 C121.578124,90.25 122.04297,90.4414071 122.425781,90.8242188 C122.808593,91.2070304 123,91.6718758 123,92.21875 L123,93.53125 C123,94.0781242 122.808593,94.5429696 122.425781,94.9257812 C122.04297,95.3085929 121.578124,95.5 121.03125,95.5 L98.71875,95.5 C98.1718758,95.5 97.7070304,95.3085929 97.3242187,94.9257812 C96.9414071,94.5429696 96.75,94.0781242 96.75,93.53125 L96.75,92.21875 Z" id="Icon" fill="#673AB7"></path>
            </g>
        </g>
    </g>
</svg>