<?xml version="1.0" encoding="UTF-8"?>
<svg width="169px" height="190px" viewBox="0 0 169 190" version="1.1" xmlns="http://www.w3.org/2000/svg" xmlns:xlink="http://www.w3.org/1999/xlink">
    <!-- Generator: Sketch 48.2 (47327) - http://www.bohemiancoding.com/sketch -->
    <title>pinax-invitations</title>
    <desc>Created with Sketch.</desc>
    <defs>
        <polygon id="path-1" points="69.2820323 0 138.564065 40 138.564065 120 69.2820323 160 9.05941988e-14 120 4.61852778e-14 40"></polygon>
    </defs>
    <g id="Hexagons" stroke="none" stroke-width="1" fill="none" fill-rule="evenodd" transform="translate(-676.000000, -665.000000)">
        <g id="pinax-invitations" transform="translate(691.000000, 680.000000)">
            <g id="Polygon-Copy-20" stroke-linejoin="round">
                <use fill="#9AD1D4" fill-rule="evenodd" xlink:href="#path-1"></use>
                <path stroke="#003249" stroke-width="15" d="M69.2820323,-8.66025404 L146.064065,35.669873 L146.064065,124.330127 L69.2820323,168.660254 L-7.5,124.330127 L-7.5,35.669873 L69.2820323,-8.66025404 Z"></path>
            </g>
            <path d="M112.000205,108.9375 C112.000205,111.177082 111.216348,113.08073 109.648637,114.648438 C108.080926,116.216145 106.177274,117 103.937686,117 L34.0625192,117 C31.8229314,117 29.9192793,116.216145 28.3515681,114.648438 C26.7838569,113.08073 26,111.177082 26,108.9375 L26,64.7617188 C26,62.0742188 27.0078149,59.9466137 29.0234447,58.3789062 C33.6146006,54.7955738 42.8529039,47.9648438 56.7383545,37.8867188 L58.2500769,36.7109375 C60.4896647,34.91927 62.2813365,33.6875 63.6250897,33.015625 C65.7526998,31.671875 67.544369,31 69.0001025,31 C70.455836,31 72.2475052,31.671875 74.3751153,33.015625 C75.7188685,33.6875 77.5105403,34.91927 79.7501282,36.7109375 L81.2618505,37.8867188 C95.1473011,47.9648438 104.385604,54.7955738 108.97676,58.3789062 C110.99239,59.9466137 112.000205,62.0742188 112.000205,64.7617188 L112.000205,108.9375 Z M100.914063,75.8476562 C100.690105,75.6236988 100.410156,75.45573 100.074219,75.34375 C99.7382813,75.23177 99.4023438,75.2877613 99.0664063,75.5117187 L79.75,89.7890625 C77.5104175,91.58073 75.71875,92.8125 74.375,93.484375 C72.247395,94.828125 70.45573,95.5 69,95.5 C67.54427,95.5 65.752605,94.828125 63.625,93.484375 C62.28125,92.8125 60.4895825,91.58073 58.25,89.7890625 L38.9335938,75.5117187 C38.5976563,75.2877613 38.2617188,75.23177 37.9257813,75.34375 C37.5898438,75.45573 37.309895,75.6236988 37.0859375,75.8476562 L35.5742188,78.1992187 C35.3502613,78.4231762 35.2662769,78.7311206 35.3222656,79.1230469 C35.3782544,79.5149731 35.51823,79.8229175 35.7421875,80.046875 L55.2265625,94.15625 C57.8020825,96.171875 59.9296875,97.627605 61.609375,98.5234375 C64.296875,100.091145 66.7604175,100.875 69,100.875 C71.2395825,100.875 73.703125,100.091145 76.390625,98.5234375 C78.0703125,97.627605 80.1979175,96.171875 82.7734375,94.15625 L102.257813,80.046875 C102.48177,79.8229175 102.621746,79.5149731 102.677734,79.1230469 C102.733723,78.7311206 102.649739,78.4231762 102.425781,78.1992187 L100.914063,75.8476562 Z" id="envelope-open" fill="#003249"></path>
        </g>
    </g>
</svg>