<?xml version="1.0" encoding="UTF-8"?>
<svg width="170px" height="186px" viewBox="0 0 170 186" version="1.1" xmlns="http://www.w3.org/2000/svg" xmlns:xlink="http://www.w3.org/1999/xlink">
    <!-- Generator: Sketch 48.2 (47327) - http://www.bohemiancoding.com/sketch -->
    <title>pinax-forums</title>
    <desc>Created with Sketch.</desc>
    <defs>
        <path d="M92.3173204,4.08909079 L162.31732,43.2067379 C167.060996,45.8576154 170,50.8667748 170,56.3008901 L170,133.69911 C170,139.133225 167.060996,144.142385 162.31732,146.793262 L92.3173204,185.910909 C87.7700345,188.45204 82.2299655,188.45204 77.6826796,185.910909 L7.68267964,146.793262 C2.93900409,144.142385 6.75015599e-14,139.133225 6.75015599e-14,133.69911 L6.03961325e-14,56.3008901 C5.5067062e-14,50.8667748 2.93900409,45.8576154 7.68267964,43.2067379 L77.6826796,4.08909079 C82.2299655,1.54796043 87.7700345,1.54796043 92.3173204,4.08909079 Z" id="path-1"></path>
    </defs>
    <g id="Hexagons" stroke="none" stroke-width="1" fill="none" fill-rule="evenodd" transform="translate(-884.000000, -247.000000)">
        <g id="pinax-forums" transform="translate(884.000000, 245.000000)">
            <g>
                <g id="Badge">
                    <use fill="#BEEEF4" fill-rule="evenodd" xlink:href="#path-1"></use>
                    <path stroke="#00BCD4" stroke-width="15" d="M88.6586602,10.6361669 C86.3850172,9.36560173 83.6149828,9.36560173 81.3413398,10.6361669 L11.3413398,49.753814 C8.96950205,51.0792527 7.5,53.5838324 7.5,56.3008901 L7.5,133.69911 C7.5,136.416168 8.96950205,138.920747 11.3413398,140.246186 L81.3413398,179.363833 C83.6149828,180.634398 86.3850172,180.634398 88.6586602,179.363833 L158.65866,140.246186 C161.030498,138.920747 162.5,136.416168 162.5,133.69911 L162.5,56.3008901 C162.5,53.5838324 161.030498,51.0792527 158.65866,49.753814 L88.6586602,10.6361669 Z"></path>
                </g>
                <path d="M130.305742,92.9642857 C130.305742,98.9866071 128.271884,104.507068 124.204165,109.52567 C120.136447,114.544272 114.589558,118.532737 107.563501,121.491071 C100.537443,124.449406 92.9038676,125.928571 84.6627765,125.928571 C77.1612713,125.928571 70.0823846,124.660714 63.4261188,122.125 C56.9811621,127.196429 49.4796569,130.154763 40.9216008,131 C40.49898,131 40.1027737,130.894344 39.7329819,130.683036 C39.3631902,130.471727 39.1254664,130.154763 39.0198106,129.732143 C38.9141548,129.309523 39.2311198,128.728423 39.9707057,127.988839 L41.2385659,126.879464 C43.1403561,125.188987 44.5138721,123.656995 45.3591114,122.283482 C46.7326274,119.853423 47.7363492,116.736607 48.3702793,112.933036 C45.4119381,110.080357 43.1139416,106.963541 41.4762896,103.582589 C39.8386377,100.201638 39.0198106,96.6622016 39.0198106,92.9642857 C39.0198106,86.9419643 41.0800833,81.4215038 45.2006289,76.4029018 C49.3211744,71.3842998 54.8680626,67.3958341 61.8412935,64.4375 C68.8145245,61.4791659 76.4216854,60 84.6627765,60 C92.9038676,60 100.511029,61.4791659 107.484259,64.4375 C114.45749,67.3958341 120.004379,71.3842998 124.124924,76.4029018 C128.24547,81.4215038 130.305742,86.9419643 130.305742,92.9642857 Z M64.3769534,85.3571429 C62.263859,85.3571429 60.4677264,86.096727 58.9885605,87.5758929 C57.5093947,89.0550587 56.7698105,90.8511913 56.7698105,92.9642857 C56.7698105,95.0773801 57.5093947,96.8735127 58.9885605,98.3526786 C60.4677264,99.8318444 62.263859,100.571429 64.3769534,100.571429 C66.4900478,100.571429 68.2861804,99.8318444 69.7653462,98.3526786 C71.2445121,96.8735127 71.9840962,95.0773801 71.9840962,92.9642857 C71.9840962,90.8511913 71.2445121,89.0550587 69.7653462,87.5758929 C68.2861804,86.096727 66.4900478,85.3571429 64.3769534,85.3571429 Z M84.6626677,85.3571429 C82.5495732,85.3571429 80.7534407,86.096727 79.2742748,87.5758929 C77.795109,89.0550587 77.0555248,90.8511913 77.0555248,92.9642857 C77.0555248,95.0773801 77.795109,96.8735127 79.2742748,98.3526786 C80.7534407,99.8318444 82.5495732,100.571429 84.6626677,100.571429 C86.7757621,100.571429 88.5718947,99.8318444 90.0510605,98.3526786 C91.5302264,96.8735127 92.2698105,95.0773801 92.2698105,92.9642857 C92.2698105,90.8511913 91.5302264,89.0550587 90.0510605,87.5758929 C88.5718947,86.096727 86.7757621,85.3571429 84.6626677,85.3571429 Z M104.948382,85.3571429 C102.835288,85.3571429 101.039155,86.096727 99.5599891,87.5758929 C98.0808232,89.0550587 97.3412391,90.8511913 97.3412391,92.9642857 C97.3412391,95.0773801 98.0808232,96.8735127 99.5599891,98.3526786 C101.039155,99.8318444 102.835288,100.571429 104.948382,100.571429 C107.061476,100.571429 108.857609,99.8318444 110.336775,98.3526786 C111.815941,96.8735127 112.555525,95.0773801 112.555525,92.9642857 C112.555525,90.8511913 111.815941,89.0550587 110.336775,87.5758929 C108.857609,86.096727 107.061476,85.3571429 104.948382,85.3571429 Z" id="Icon" fill="#00BCD4"></path>
            </g>
        </g>
    </g>
</svg>