<?xml version="1.0" encoding="UTF-8"?>
<svg width="170px" height="186px" viewBox="0 0 170 186" version="1.1" xmlns="http://www.w3.org/2000/svg" xmlns:xlink="http://www.w3.org/1999/xlink">
    <!-- Generator: Sketch 48.2 (47327) - http://www.bohemiancoding.com/sketch -->
    <title>pinax-blog</title>
    <desc>Created with Sketch.</desc>
    <defs>
        <path d="M92.3173204,4.08909079 L162.31732,43.2067379 C167.060996,45.8576154 170,50.8667748 170,56.3008901 L170,133.69911 C170,139.133225 167.060996,144.142385 162.31732,146.793262 L92.3173204,185.910909 C87.7700345,188.45204 82.2299655,188.45204 77.6826796,185.910909 L7.68267964,146.793262 C2.93900409,144.142385 -3.55271368e-15,139.133225 -3.55271368e-15,133.69911 L-1.0658141e-14,56.3008901 C-1.59872116e-14,50.8667748 2.93900409,45.8576154 7.68267964,43.2067379 L77.6826796,4.08909079 C82.2299655,1.54796043 87.7700345,1.54796043 92.3173204,4.08909079 Z" id="path-1"></path>
    </defs>
    <g id="Hexagons" stroke="none" stroke-width="1" fill="none" fill-rule="evenodd" transform="translate(-44.000000, -247.000000)">
        <g id="pinax-blog" transform="translate(44.000000, 245.000000)">
            <g>
                <g id="Badge">
                    <use fill="#FFE5BF" fill-rule="evenodd" xlink:href="#path-1"></use>
                    <path stroke="#FF9800" stroke-width="15" d="M88.6586602,10.6361669 C86.3850172,9.36560173 83.6149828,9.36560173 81.3413398,10.6361669 L11.3413398,49.753814 C8.96950205,51.0792527 7.5,53.5838324 7.5,56.3008901 L7.5,133.69911 C7.5,136.416168 8.96950205,138.920747 11.3413398,140.246186 L81.3413398,179.363833 C83.6149828,180.634398 86.3850172,180.634398 88.6586602,179.363833 L158.65866,140.246186 C161.030498,138.920747 162.5,136.416168 162.5,133.69911 L162.5,56.3008901 C162.5,53.5838324 161.030498,51.0792527 158.65866,49.753814 L88.6586602,10.6361669 Z"></path>
                </g>
                <path d="M71.2857143,120.857143 C71.2857143,123.604166 70.3084069,125.981398 68.3537946,127.988839 C66.3991824,129.996281 64.0219502,131 61.2220982,131 C58.4222462,131 56.018602,129.996281 54.0111607,127.988839 C52.0037194,125.981398 51,123.577754 51,120.777902 C51,117.97805 52.0037194,115.600818 54.0111607,113.646205 C56.018602,111.691593 58.4222462,110.714286 61.2220982,110.714286 C64.0219502,110.714286 66.3991824,111.691593 68.3537946,113.646205 C70.3084069,115.600818 71.2857143,118.004464 71.2857143,120.857143 Z M99.1785714,128.305804 C99.1785714,129.045388 98.9408482,129.679316 98.4654018,130.207589 C97.9899554,130.735862 97.3824413,131 96.6428571,131 L89.0357143,131 C88.2961301,131 87.6886161,130.762277 87.2131696,130.28683 C86.7377232,129.811384 86.5,129.256696 86.5,128.622768 C86.0773801,122.811755 84.3604911,117.449777 81.3493304,112.53683 C78.3381696,107.623884 74.3761161,103.66183 69.4631696,100.65067 C64.5502232,97.6395089 59.1882449,95.9226199 53.3772321,95.5 C52.7433036,95.5 52.1886161,95.2622768 51.7131696,94.7868304 C51.2377232,94.3113839 51,93.7038699 51,92.9642857 L51,85.3571429 C51,84.6175587 51.2641377,84.0100446 51.7924107,83.5345982 C52.3206837,83.0591518 52.9546123,82.8214286 53.6941964,82.8214286 C61.7239591,83.2440484 69.1197909,85.5420395 75.8816964,89.7154018 C82.643602,93.8887641 88.1112359,99.356398 92.2845982,106.118304 C96.4579605,112.880209 98.7559516,120.276041 99.1785714,128.305804 Z M122.000169,128.305804 C122.000169,129.045388 121.762445,129.679316 121.286998,130.207589 C120.81155,130.735862 120.204035,131 119.464449,131 L111.857288,131 C111.117702,131 110.510187,130.762277 110.034739,130.28683 C109.559291,129.811384 109.321568,129.256696 109.321568,128.622768 C108.898947,118.585566 106.151917,109.340773 101.080477,100.888393 C96.0090359,92.6473214 89.35277,85.9910714 81.1116789,80.9196429 C72.6592786,75.8482143 63.4144633,73.1011913 53.3772378,72.6785714 C52.7433077,72.6785714 52.1886189,72.4408482 51.7131713,71.9654018 C51.2377238,71.4899554 51,70.8824413 51,70.1428571 L51,62.5357143 C51,61.7961301 51.2641383,61.1886161 51.7924126,60.7131696 C52.3206869,60.2377232 52.9546169,60 53.6942029,60 C65.8445302,60.4226199 77.1496159,63.8035714 87.6094623,70.1428571 C97.7523436,76.1651786 105.887779,84.3005944 112.01577,94.5491071 C118.249415,104.903273 121.577548,116.155505 122.000169,128.305804 Z" id="Icon" fill="#FF9800"></path>
            </g>
        </g>
    </g>
</svg>