<?xml version="1.0" encoding="UTF-8"?>
<svg width="171px" height="186px" viewBox="0 0 171 186" version="1.1" xmlns="http://www.w3.org/2000/svg" xmlns:xlink="http://www.w3.org/1999/xlink">
    <!-- Generator: Sketch 48.2 (47327) - http://www.bohemiancoding.com/sketch -->
    <title>pinax-webanalytics</title>
    <desc>Created with Sketch.</desc>
    <defs>
        <path d="M93.0352881,4.08909079 L163.035288,43.2067379 C167.778964,45.8576154 170.717968,50.8667748 170.717968,56.3008901 L170.717968,133.69911 C170.717968,139.133225 167.778964,144.142385 163.035288,146.793262 L93.0352881,185.910909 C88.4880022,188.45204 82.9479332,188.45204 78.4006473,185.910909 L8.40064733,146.793262 C3.65697179,144.142385 0.717967697,139.133225 0.717967697,133.69911 L0.717967697,56.3008901 C0.717967697,50.8667748 3.65697179,45.8576154 8.40064733,43.2067379 L78.4006473,4.08909079 C82.9479332,1.54796043 88.4880022,1.54796043 93.0352881,4.08909079 Z" id="path-1"></path>
    </defs>
    <g id="Hexagons" stroke="none" stroke-width="1" fill="none" fill-rule="evenodd" transform="translate(-883.000000, -667.000000)">
        <g id="pinax-webanalytics" transform="translate(883.000000, 665.000000)">
            <g>
                <g id="Badge">
                    <use fill-opacity="0.302904212" fill="#DE690C" fill-rule="evenodd" xlink:href="#path-1"></use>
                    <path stroke="#DE690C" stroke-width="15" d="M89.3766279,10.6361669 C87.1029849,9.36560173 84.3329505,9.36560173 82.0593075,10.6361669 L12.0593075,49.753814 C9.68746974,51.0792527 8.2179677,53.5838324 8.2179677,56.3008901 L8.2179677,133.69911 C8.2179677,136.416168 9.68746974,138.920747 12.0593075,140.246186 L82.0593075,179.363833 C84.3329505,180.634398 87.1029849,180.634398 89.3766279,179.363833 L159.376628,140.246186 C161.748466,138.920747 163.217968,136.416168 163.217968,133.69911 L163.217968,56.3008901 C163.217968,53.5838324 161.748466,51.0792527 159.376628,49.753814 L89.3766279,10.6361669 Z"></path>
                </g>
                <path d="M124.171875,114.749884 C124.679687,114.749884 125.111329,114.927618 125.466797,115.283086 C125.822265,115.638553 126,116.070194 126,116.578004 L126,122.67174 C126,123.17955 125.822265,123.611192 125.466797,123.966659 C125.111329,124.322126 124.679687,124.499861 124.171875,124.499861 L49.828125,124.499861 C49.3203133,124.499861 48.8886711,124.322126 48.5332031,123.966659 C48.1777351,123.611192 48,123.17955 48,122.67174 L48,67.8281206 C48,67.3203101 48.1777351,66.888669 48.5332031,66.5332019 C48.8886711,66.1777347 49.3203133,66 49.828125,66 L55.921875,66 C56.4296867,66 56.8613289,66.1777347 57.2167969,66.5332019 C57.5722649,66.888669 57.75,67.3203101 57.75,67.8281206 L57.75,114.749884 L124.171875,114.749884 Z M77.2499303,108.046775 C77.2499303,108.554585 77.0721955,108.986226 76.7167284,109.341694 C76.3612613,109.697161 75.9296201,109.874895 75.4218096,109.874895 L69.3280741,109.874895 C68.8202636,109.874895 68.3886225,109.697161 68.0331554,109.341694 C67.6776882,108.986226 67.4999535,108.554585 67.4999535,108.046775 L67.4999535,97.0780509 C67.4999535,96.5702404 67.6776882,96.1385992 68.0331554,95.7831321 C68.3886225,95.427665 68.8202636,95.2499303 69.3280741,95.2499303 L75.4218096,95.2499303 C75.9296201,95.2499303 76.3612613,95.427665 76.7167284,95.7831321 C77.0721955,96.1385992 77.2499303,96.5702404 77.2499303,97.0780509 L77.2499303,108.046775 Z M106.499861,108.046775 C106.499861,108.554585 106.322126,108.986226 105.966659,109.341694 C105.611192,109.697161 105.17955,109.874895 104.67174,109.874895 L98.5780044,109.874895 C98.0701939,109.874895 97.6385528,109.697161 97.2830856,109.341694 C96.9276185,108.986226 96.7498838,108.554585 96.7498838,108.046775 L96.7498838,87.3280741 C96.7498838,86.8202636 96.9276185,86.3886225 97.2830856,86.0331554 C97.6385528,85.6776882 98.0701939,85.4999535 98.5780044,85.4999535 L104.67174,85.4999535 C105.17955,85.4999535 105.611192,85.6776882 105.966659,86.0331554 C106.322126,86.3886225 106.499861,86.8202636 106.499861,87.3280741 L106.499861,108.046775 Z M91.8748954,108.046775 C91.8748954,108.554585 91.6971607,108.986226 91.3416935,109.341694 C90.9862264,109.697161 90.5545853,109.874895 90.0467748,109.874895 L83.9530393,109.874895 C83.4452288,109.874895 83.0135876,109.697161 82.6581205,109.341694 C82.3026534,108.986226 82.1249186,108.554585 82.1249186,108.046775 L82.1249186,77.5780974 C82.1249186,77.0702869 82.3026534,76.6386457 82.6581205,76.2831786 C83.0135876,75.9277115 83.4452288,75.7499768 83.9530393,75.7499768 L90.0467748,75.7499768 C90.5545853,75.7499768 90.9862264,75.9277115 91.3416935,76.2831786 C91.6971607,76.6386457 91.8748954,77.0702869 91.8748954,77.5780974 L91.8748954,108.046775 Z M121.124826,108.046775 C121.124826,108.554585 120.947091,108.986226 120.591624,109.341694 C120.236157,109.697161 119.804516,109.874895 119.296705,109.874895 L113.20297,109.874895 C112.695159,109.874895 112.263518,109.697161 111.908051,109.341694 C111.552584,108.986226 111.374849,108.554585 111.374849,108.046775 L111.374849,72.703109 C111.374849,72.1952985 111.552584,71.7636574 111.908051,71.4081902 C112.263518,71.0527231 112.695159,70.8749884 113.20297,70.8749884 L119.296705,70.8749884 C119.804516,70.8749884 120.236157,71.0527231 120.591624,71.4081902 C120.947091,71.7636574 121.124826,72.1952985 121.124826,72.703109 L121.124826,108.046775 Z" id="Icon" fill="#DE690C"></path>
            </g>
        </g>
    </g>
</svg>