<?xml version="1.0" encoding="UTF-8"?>
<svg width="169px" height="190px" viewBox="0 0 169 190" version="1.1" xmlns="http://www.w3.org/2000/svg" xmlns:xlink="http://www.w3.org/1999/xlink">
    <!-- Generator: Sketch 48.2 (47327) - http://www.bohemiancoding.com/sketch -->
    <title>pinax-calendars</title>
    <desc>Created with Sketch.</desc>
    <defs>
        <polygon id="path-1" points="69.2820323 0 138.564065 40 138.564065 120 69.2820323 160 3.19744231e-14 120 -1.24344979e-14 40"></polygon>
    </defs>
    <g id="Hexagons" stroke="none" stroke-width="1" fill="none" fill-rule="evenodd" transform="translate(-256.000000, -245.000000)">
        <g id="pinax-calendars" transform="translate(271.000000, 260.000000)">
            <g id="Polygon-Copy-7" stroke-linejoin="round">
                <use fill="#E1EFD1" fill-rule="evenodd" xlink:href="#path-1"></use>
                <path stroke="#8BC34A" stroke-width="15" d="M69.2820323,-8.66025404 L146.064065,35.669873 L146.064065,124.330127 L69.2820323,168.660254 L-7.5,124.330127 L-7.5,35.669873 L69.2820323,-8.66025404 Z"></path>
            </g>
            <path d="M56.015625,85.625 L48.984375,85.625 C48.3984384,85.625 47.9003897,85.419921 47.4902344,85.0097656 C47.080079,84.5996103 46.875,84.1015616 46.875,83.515625 L46.875,76.484375 C46.875,75.8984384 47.080079,75.4003897 47.4902344,74.9902344 C47.9003897,74.580079 48.3984384,74.375 48.984375,74.375 L56.015625,74.375 C56.6015616,74.375 57.0996103,74.580079 57.5097656,74.9902344 C57.919921,75.4003897 58.125,75.8984384 58.125,76.484375 L58.125,83.515625 C58.125,84.1015616 57.919921,84.5996103 57.5097656,85.0097656 C57.0996103,85.419921 56.6015616,85.625 56.015625,85.625 Z M75,76.484375 L75,83.515625 C75,84.1015616 74.794921,84.5996103 74.3847656,85.0097656 C73.9746103,85.419921 73.4765616,85.625 72.890625,85.625 L65.859375,85.625 C65.2734384,85.625 64.7753897,85.419921 64.3652344,85.0097656 C63.955079,84.5996103 63.75,84.1015616 63.75,83.515625 L63.75,76.484375 C63.75,75.8984384 63.955079,75.4003897 64.3652344,74.9902344 C64.7753897,74.580079 65.2734384,74.375 65.859375,74.375 L72.890625,74.375 C73.4765616,74.375 73.9746103,74.580079 74.3847656,74.9902344 C74.794921,75.4003897 75,75.8984384 75,76.484375 Z M91.875,76.484375 L91.875,83.515625 C91.875,84.1015616 91.669921,84.5996103 91.2597656,85.0097656 C90.8496103,85.419921 90.3515616,85.625 89.765625,85.625 L82.734375,85.625 C82.1484384,85.625 81.6503897,85.419921 81.2402344,85.0097656 C80.830079,84.5996103 80.625,84.1015616 80.625,83.515625 L80.625,76.484375 C80.625,75.8984384 80.830079,75.4003897 81.2402344,74.9902344 C81.6503897,74.580079 82.1484384,74.375 82.734375,74.375 L89.765625,74.375 C90.3515616,74.375 90.8496103,74.580079 91.2597656,74.9902344 C91.669921,75.4003897 91.875,75.8984384 91.875,76.484375 Z M75,93.359375 L75,100.390625 C75,100.976562 74.794921,101.47461 74.3847656,101.884766 C73.9746103,102.294921 73.4765616,102.5 72.890625,102.5 L65.859375,102.5 C65.2734384,102.5 64.7753897,102.294921 64.3652344,101.884766 C63.955079,101.47461 63.75,100.976562 63.75,100.390625 L63.75,93.359375 C63.75,92.7734384 63.955079,92.2753897 64.3652344,91.8652344 C64.7753897,91.455079 65.2734384,91.25 65.859375,91.25 L72.890625,91.25 C73.4765616,91.25 73.9746103,91.455079 74.3847656,91.8652344 C74.794921,92.2753897 75,92.7734384 75,93.359375 Z M58.125,93.359375 L58.125,100.390625 C58.125,100.976562 57.919921,101.47461 57.5097656,101.884766 C57.0996103,102.294921 56.6015616,102.5 56.015625,102.5 L48.984375,102.5 C48.3984384,102.5 47.9003897,102.294921 47.4902344,101.884766 C47.080079,101.47461 46.875,100.976562 46.875,100.390625 L46.875,93.359375 C46.875,92.7734384 47.080079,92.2753897 47.4902344,91.8652344 C47.9003897,91.455079 48.3984384,91.25 48.984375,91.25 L56.015625,91.25 C56.6015616,91.25 57.0996103,91.455079 57.5097656,91.8652344 C57.919921,92.2753897 58.125,92.7734384 58.125,93.359375 Z M91.875,93.359375 L91.875,100.390625 C91.875,100.976562 91.669921,101.47461 91.2597656,101.884766 C90.8496103,102.294921 90.3515616,102.5 89.765625,102.5 L82.734375,102.5 C82.1484384,102.5 81.6503897,102.294921 81.2402344,101.884766 C80.830079,101.47461 80.625,100.976562 80.625,100.390625 L80.625,93.359375 C80.625,92.7734384 80.830079,92.2753897 81.2402344,91.8652344 C81.6503897,91.455079 82.1484384,91.25 82.734375,91.25 L89.765625,91.25 C90.3515616,91.25 90.8496103,91.455079 91.2597656,91.8652344 C91.669921,92.2753897 91.875,92.7734384 91.875,93.359375 Z M108.750188,54.6875 L108.750188,116.5625 C108.750188,118.906249 107.929872,120.898438 106.289244,122.539062 C104.648616,124.179687 102.656422,125 100.312668,125 L38.4375201,125 C36.0937654,125 34.1015714,124.179687 32.4609434,122.539062 C30.8203153,120.898438 30,118.906249 30,116.5625 L30,54.6875 C30,52.3437509 30.8203153,50.3515616 32.4609434,48.7109375 C34.1015714,47.0703134 36.0937654,46.25 38.4375201,46.25 L46.8750402,46.25 L46.8750402,37.109375 C46.8750402,36.5234384 47.0801197,36.0253897 47.4902761,35.6152344 C47.9004324,35.205079 48.3984823,35 48.9844203,35 L56.015687,35 C56.601625,35 57.0996749,35.205079 57.5098312,35.6152344 C57.9199875,36.0253897 58.1250671,36.5234384 58.1250671,37.109375 L58.1250671,46.25 L80.6251207,46.25 L80.6251207,37.109375 C80.6251207,36.5234384 80.8302002,36.0253897 81.2403565,35.6152344 C81.6505129,35.205079 82.1485627,35 82.7345007,35 L89.7657675,35 C90.3517055,35 90.8497553,35.205079 91.2599117,35.6152344 C91.670068,36.0253897 91.8751475,36.5234384 91.8751475,37.109375 L91.8751475,46.25 L100.312668,46.25 C102.656422,46.25 104.648616,47.0703134 106.289244,48.7109375 C107.929872,50.3515616 108.750188,52.3437509 108.750188,54.6875 Z M100.3125,115.507813 L100.3125,63.125 L38.4375,63.125 L38.4375,115.507813 C38.4375,115.742187 38.5546884,115.976563 38.7890625,116.210938 C39.0234366,116.445312 39.2578134,116.5625 39.4921875,116.5625 L99.2578125,116.5625 C99.4921866,116.5625 99.7265634,116.445312 99.9609375,116.210938 C100.195312,115.976563 100.3125,115.742187 100.3125,115.507813 Z" fill="#8BC34A"></path>
        </g>
    </g>
</svg>