<?xml version="1.0" encoding="UTF-8"?>
<svg width="170px" height="186px" viewBox="0 0 170 186" version="1.1" xmlns="http://www.w3.org/2000/svg" xmlns:xlink="http://www.w3.org/1999/xlink">
    <!-- Generator: Sketch 48.2 (47327) - http://www.bohemiancoding.com/sketch -->
    <title>pinax-notifications</title>
    <desc>Created with Sketch.</desc>
    <defs>
        <path d="M92.3173204,4.08909079 L162.31732,43.2067379 C167.060996,45.8576154 170,50.8667748 170,56.3008901 L170,133.69911 C170,139.133225 167.060996,144.142385 162.31732,146.793262 L92.3173204,185.910909 C87.7700345,188.45204 82.2299655,188.45204 77.6826796,185.910909 L7.68267964,146.793262 C2.93900409,144.142385 6.75015599e-14,139.133225 6.75015599e-14,133.69911 L6.03961325e-14,56.3008901 C5.5067062e-14,50.8667748 2.93900409,45.8576154 7.68267964,43.2067379 L77.6826796,4.08909079 C82.2299655,1.54796043 87.7700345,1.54796043 92.3173204,4.08909079 Z" id="path-1"></path>
    </defs>
    <g id="Hexagons" stroke="none" stroke-width="1" fill="none" fill-rule="evenodd" transform="translate(-674.000000, -457.000000)">
        <g id="pinax-notifications" transform="translate(674.000000, 455.000000)">
            <g>
                <g id="Badge">
                    <use fill="#E6C8EB" fill-rule="evenodd" xlink:href="#path-1"></use>
                    <path stroke="#9C27B0" stroke-width="15" d="M88.6586602,10.6361669 C86.3850172,9.36560173 83.6149828,9.36560173 81.3413398,10.6361669 L11.3413398,49.753814 C8.96950205,51.0792527 7.5,53.5838324 7.5,56.3008901 L7.5,133.69911 C7.5,136.416168 8.96950205,138.920747 11.3413398,140.246186 L81.3413398,179.363833 C83.6149828,180.634398 86.3850172,180.634398 88.6586602,179.363833 L158.65866,140.246186 C161.030498,138.920747 162.5,136.416168 162.5,133.69911 L162.5,56.3008901 C162.5,53.5838324 161.030498,51.0792527 158.65866,49.753814 L88.6586602,10.6361669 Z"></path>
                </g>
                <path d="M127.765625,116.484205 C129.588541,118.437325 130.5,120.683413 130.5,123.22247 C130.5,125.761526 129.621094,127.942512 127.863281,129.765423 C126.105469,131.588334 123.859375,132.499791 121.125,132.499791 L99.25,132.499791 C99.25,136.015408 98.0455719,138.977642 95.6367188,141.386489 C93.2278656,143.795336 90.265625,144.999762 86.75,144.999762 C83.234375,144.999762 80.2721344,143.795336 77.8632812,141.386489 C75.4544281,138.977642 74.25,136.015408 74.25,132.499791 L52.375,132.499791 C49.640625,132.499791 47.3945312,131.588334 45.6367188,129.765423 C43.8789062,127.942512 43,125.761526 43,123.22247 C43,120.683413 43.9765625,118.437325 45.9296875,116.484205 C47.8828125,114.531084 49.3151032,112.773276 50.2265625,111.21078 C51.7890625,108.736826 53.0260407,105.67694 53.9375,102.031114 C54.9791657,97.6040403 55.5,92.1353033 55.5,85.6249031 C55.5,80.5467902 56.6393219,75.7941984 58.9179688,71.3671246 C61.1966156,66.9400509 64.3216156,63.2616752 68.2929688,60.3319947 C72.2643219,57.4023142 76.7239593,55.5468499 81.671875,54.7656017 C80.890625,53.7239385 80.5,52.5520663 80.5,51.2499851 C80.5,49.5572798 81.1184906,48.0924396 82.3554688,46.8554643 C83.5924469,45.6184891 85.0572907,45 86.75,45 C88.4427093,45 89.9075531,45.6184891 91.1445312,46.8554643 C92.3815094,48.0924396 93,49.5572798 93,51.2499851 C93,52.5520663 92.609375,53.7239385 91.828125,54.7656017 C96.7760407,55.5468499 101.235678,57.4023142 105.207031,60.3319947 C109.178384,63.2616752 112.303384,66.9400509 114.582031,71.3671246 C116.860678,75.7941984 118,80.5467902 118,85.6249031 C118,92.1353033 118.520834,97.6040403 119.5625,102.031114 C120.473959,105.67694 121.710938,108.736826 123.273438,111.21078 C124.184897,112.773276 125.682291,114.531084 127.765625,116.484205 Z M86.7498957,137.18728 C85.4478145,137.18728 84.3410483,136.731553 83.4295911,135.820096 C82.518134,134.908639 82.0624069,133.801873 82.0624069,132.499791 L78.9374143,132.499791 C78.9374143,134.713327 79.6861095,136.568791 81.1835027,138.066184 C82.680896,139.563578 84.5363603,140.312273 86.7498957,140.312273 C87.1405198,140.312273 87.4985908,140.149514 87.8241119,139.823993 C88.1496329,139.498472 88.312392,139.140401 88.312392,138.749776 C88.312392,138.359152 88.1496329,138.001081 87.8241119,137.67556 C87.4985908,137.350039 87.1405198,137.18728 86.7498957,137.18728 Z" id="Icon" fill="#9C27B0"></path>
            </g>
        </g>
    </g>
</svg>