<?xml version="1.0" encoding="UTF-8"?>
<svg width="170px" height="190px" viewBox="0 0 170 190" version="1.1" xmlns="http://www.w3.org/2000/svg" xmlns:xlink="http://www.w3.org/1999/xlink">
    <!-- Generator: Sketch 46.2 (44496) - http://www.bohemiancoding.com/sketch -->
    <title>pinax-stripe</title>
    <desc>Created with Sketch.</desc>
    <defs>
        <path d="M86.5,2.88675135 L158,44.1672956 L158,44.1672956 C161.094011,45.9536235 163,49.2548937 163,52.8275496 L163,135.388638 L163,135.388638 C163,138.961294 161.094011,142.262564 158,144.048892 L86.5,185.329436 L86.5,185.329436 C83.4059892,187.115764 79.5940108,187.115764 76.5,185.329436 L5,144.048892 L5,144.048892 C1.90598923,142.262564 7.10542736e-14,138.961294 6.03961325e-14,135.388638 L-5.32907052e-15,52.8275496 L3.55271368e-15,52.8275496 C7.10542736e-15,49.2548937 1.90598923,45.9536235 5,44.1672956 L76.5,2.88675135 L76.5,2.88675135 C79.5940108,1.1004234 83.4059892,1.1004234 86.5,2.88675135 Z" id="path-1"></path>
    </defs>
    <g id="Page-2" stroke="none" stroke-width="1" fill="none" fill-rule="evenodd">
        <g id="pinax-stripe">
            <g transform="translate(4.000000, 1.000000)">
                <g id="Polygon">
                    <use fill="#D7DEE1" fill-rule="evenodd" xlink:href="#path-1"></use>
                    <path stroke="#607D8B" stroke-width="15" d="M82.75,9.38194187 C81.9764973,8.93535989 81.0235027,8.93535989 80.25,9.38194187 L8.75,50.6624861 C7.97649731,51.1090681 7.5,51.9343857 7.5,52.8275496 L7.5,135.388638 C7.5,136.281802 7.97649731,137.10712 8.75,137.553702 L80.25,178.834246 C81.0235027,179.280828 81.9764973,179.280828 82.75,178.834246 L154.25,137.553702 C155.023503,137.10712 155.5,136.281802 155.5,135.388638 L155.5,52.8275496 C155.5,51.9343857 155.023503,51.1090681 154.25,50.6624861 L82.75,9.38194187 Z"></path>
                </g>
                <path d="M107.066478,110.127232 C107.066478,115.819225 105.215678,120.72059 101.514023,124.831473 C97.8123674,128.942357 93.0040078,131.481394 87.0887996,132.448661 L87.0887996,142.214286 C87.0887996,142.735122 86.9213906,143.162945 86.5865675,143.497768 C86.2517444,143.832591 85.8239213,144 85.3030854,144 L77.7696032,144 C77.2859698,144 76.8674472,143.82329 76.5140229,143.469866 C76.1605985,143.116442 75.9838889,142.697919 75.9838889,142.214286 L75.9838889,132.448661 C73.5285195,132.113838 71.1568914,131.537206 68.8689336,130.71875 C66.5809757,129.900294 64.6929738,129.072549 63.2048711,128.235491 C61.7167684,127.398433 60.3402941,126.505585 59.0754068,125.55692 C57.8105195,124.608254 56.9455728,123.910717 56.4805407,123.464286 C56.0155086,123.017855 55.6899911,122.683037 55.5039782,122.459821 C54.8715346,121.678568 54.8343326,120.915926 55.3923711,120.171875 L61.1401389,112.638393 C61.4005569,112.266367 61.82838,112.043155 62.4236211,111.96875 C62.9816596,111.894345 63.4280837,112.061754 63.7629068,112.470982 L63.8745139,112.582589 C68.078404,116.265643 72.5984481,118.590769 77.4347818,119.558036 C78.8112768,119.855656 80.1877511,120.004464 81.5642461,120.004464 C84.577654,120.004464 87.2282971,119.204621 89.516255,117.604911 C91.8042129,116.0052 92.9481746,113.735878 92.9481746,110.796875 C92.9481746,109.755203 92.6691596,108.76935 92.1111211,107.839286 C91.5530826,106.909222 90.9299489,106.127979 90.2417014,105.495536 C89.5534539,104.863092 88.4652952,104.165554 86.9771925,103.402902 C85.4890898,102.640249 84.2614235,102.045017 83.2941568,101.617187 C82.32689,101.189358 80.8388097,100.584825 78.8298711,99.8035714 C77.378971,99.2083304 76.2350092,98.7433052 75.3979514,98.4084821 C74.5608937,98.073659 73.4169319,97.5807324 71.9660318,96.9296875 C70.5151317,96.2786426 69.3525689,95.7020114 68.4783086,95.1997768 C67.6040483,94.6975421 66.5530915,94.0372065 65.3254068,93.21875 C64.0977221,92.4002935 63.1025683,91.6097508 62.3399157,90.8470982 C61.5772631,90.0844456 60.7681194,89.1729964 59.9124604,88.1127232 C59.0568013,87.0524501 58.3964657,85.9735918 57.9314336,84.8761161 C57.4664015,83.7786403 57.0757804,82.5416735 56.7595586,81.1651786 C56.4433368,79.7886836 56.2852282,78.3378052 56.2852282,76.8125 C56.2852282,71.6785458 58.1081267,67.1771027 61.7539782,63.3080357 C65.3998298,59.4389688 70.1430859,56.9464342 75.9838889,55.8303571 L75.9838889,45.7857143 C75.9838889,45.3020809 76.1605985,44.8835583 76.5140229,44.5301339 C76.8674472,44.1767095 77.2859698,44 77.7696032,44 L85.3030854,44 C85.8239213,44 86.2517444,44.167409 86.5865675,44.5022321 C86.9213906,44.8370552 87.0887996,45.2648783 87.0887996,45.7857143 L87.0887996,55.6071429 C89.209346,55.8303583 91.264757,56.2581814 93.2550943,56.890625 C95.2454316,57.5230686 96.863719,58.1462023 98.110005,58.7600446 C99.356291,59.373887 100.537455,60.0714247 101.653532,60.8526786 C102.769609,61.6339325 103.495048,62.1733616 103.829871,62.4709821 C104.164694,62.7686027 104.443709,63.0290167 104.666925,63.2522321 C105.299368,63.9218783 105.392373,64.6287165 104.945943,65.3727679 L100.425853,73.5200893 C100.128233,74.0781278 99.7004096,74.3757439 99.1423711,74.4129464 C98.6215351,74.5245541 98.119308,74.3943471 97.6356746,74.0223214 C97.5240669,73.9107137 97.2543524,73.6875017 96.8265229,73.3526786 C96.3986933,73.0178555 95.6732542,72.5249289 94.6501836,71.8738839 C93.627113,71.222839 92.5389542,70.6276069 91.3856746,70.0881696 C90.2323951,69.5487324 88.8466202,69.0651063 87.2283086,68.6372768 C85.6099969,68.2094473 84.019611,67.9955357 82.4571032,67.9955357 C78.9228594,67.9955357 76.0397037,68.7953789 73.8075496,70.3950893 C71.5753956,71.9947997 70.4593354,74.0595112 70.4593354,76.5892857 C70.4593354,77.5565525 70.6174439,78.4494007 70.9336657,79.2678571 C71.2498875,80.0863136 71.7986172,80.8582553 72.5798711,81.5837054 C73.361125,82.3091554 74.0958647,82.9229886 74.7841121,83.4252232 C75.4723596,83.9274579 76.5140159,84.504089 77.9091121,85.1551339 C79.3042084,85.8061789 80.4295692,86.308406 81.2852282,86.6618304 C82.1408873,87.0152547 83.4429576,87.5267824 85.1914782,88.1964286 C87.1632143,88.9404799 88.6698956,89.5264116 89.7115675,89.9542411 C90.7532394,90.3820706 92.1669157,91.0331057 93.9526389,91.9073661 C95.7383621,92.7816264 97.142738,93.5721691 98.1658086,94.2790179 C99.1888792,94.9858666 100.342141,95.9159169 101.62563,97.0691964 C102.909119,98.222476 103.894972,99.4036398 104.583219,100.612723 C105.271467,101.821807 105.857398,103.244783 106.341032,104.881696 C106.824665,106.518609 107.066478,108.267104 107.066478,110.127232 Z" fill="#607D8B"></path>
            </g>
        </g>
    </g>
</svg>