<?xml version="1.0" encoding="UTF-8"?>
<svg width="170px" height="190px" viewBox="0 0 170 190" version="1.1" xmlns="http://www.w3.org/2000/svg" xmlns:xlink="http://www.w3.org/1999/xlink">
    <!-- Generator: Sketch 46.2 (44496) - http://www.bohemiancoding.com/sketch -->
    <title>pinax-blog</title>
    <desc>Created with Sketch.</desc>
    <defs>
        <path d="M86.5,2.88675135 L158,44.1672956 L158,44.1672956 C161.094011,45.9536235 163,49.2548937 163,52.8275496 L163,135.388638 L163,135.388638 C163,138.961294 161.094011,142.262564 158,144.048892 L86.5,185.329436 L86.5,185.329436 C83.4059892,187.115764 79.5940108,187.115764 76.5,185.329436 L5,144.048892 L5,144.048892 C1.90598923,142.262564 7.10542736e-14,138.961294 6.03961325e-14,135.388638 L-5.32907052e-15,52.8275496 L3.55271368e-15,52.8275496 C7.10542736e-15,49.2548937 1.90598923,45.9536235 5,44.1672956 L76.5,2.88675135 L76.5,2.88675135 C79.5940108,1.1004234 83.4059892,1.1004234 86.5,2.88675135 Z" id="path-1"></path>
    </defs>
    <g id="Page-2" stroke="none" stroke-width="1" fill="none" fill-rule="evenodd">
        <g id="pinax-blog">
            <g transform="translate(4.000000, 1.000000)">
                <g id="Polygon-Copy-6">
                    <use fill="#FFE5BF" fill-rule="evenodd" xlink:href="#path-1"></use>
                    <path stroke="#FF9800" stroke-width="15" d="M82.75,9.38194187 C81.9764973,8.93535989 81.0235027,8.93535989 80.25,9.38194187 L8.75,50.6624861 C7.97649731,51.1090681 7.5,51.9343857 7.5,52.8275496 L7.5,135.388638 C7.5,136.281802 7.97649731,137.10712 8.75,137.553702 L80.25,178.834246 C81.0235027,179.280828 81.9764973,179.280828 82.75,178.834246 L154.25,137.553702 C155.023503,137.10712 155.5,136.281802 155.5,135.388638 L155.5,52.8275496 C155.5,51.9343857 155.023503,51.1090681 154.25,50.6624861 L82.75,9.38194187 Z"></path>
                </g>
                <path d="M65.5454545,118.727273 C65.5454545,121.303043 64.6439484,123.492415 62.8409091,125.295455 C61.0378698,127.098494 58.8484977,128 56.2727273,128 C53.6969568,128 51.5075848,127.098494 49.7045455,125.295455 C47.9015061,123.492415 47,121.303043 47,118.727273 C47,116.151502 47.9015061,113.96213 49.7045455,112.159091 C51.5075848,110.356052 53.6969568,109.454545 56.2727273,109.454545 C58.8484977,109.454545 61.0378698,110.356052 62.8409091,112.159091 C64.6439484,113.96213 65.5454545,116.151502 65.5454545,118.727273 Z M90.2727273,124.667614 C90.3371215,125.569133 90.06345,126.341853 89.4517045,126.985795 C88.8721562,127.661935 88.115535,128 87.1818182,128 L80.6619318,128 C79.8570036,128 79.1647756,127.734378 78.5852273,127.203125 C78.0056789,126.671872 77.6837124,126.003792 77.6193182,125.198864 C76.9109813,117.825721 73.9408406,111.523227 68.7088068,106.291193 C63.4767731,101.059159 57.1742793,98.0890187 49.8011364,97.3806818 C48.9962081,97.3162876 48.3281277,96.9943211 47.796875,96.4147727 C47.2656223,95.8352244 47,95.1429964 47,94.3380682 L47,87.8181818 C47,86.884465 47.3380648,86.1278438 48.0142045,85.5482955 C48.5615558,85.0009442 49.2537837,84.7272727 50.0909091,84.7272727 L50.3323864,84.7272727 C55.4839273,85.1458354 60.4100144,86.4417505 65.1107955,88.6150568 C69.8115765,90.7883631 73.9810424,93.7102089 77.6193182,97.3806818 C81.2897911,101.018958 84.2116369,105.188423 86.3849432,109.889205 C88.5582495,114.589986 89.8541646,119.516073 90.2727273,124.667614 Z M115,124.764205 C115.064394,125.633527 114.774624,126.390148 114.130682,127.034091 C113.551133,127.678034 112.810611,128 111.909091,128 L105.002841,128 C104.165716,128 103.44934,127.718279 102.853693,127.15483 C102.258046,126.59138 101.944129,125.907201 101.911932,125.102273 C101.525566,118.17989 99.8996355,111.603724 97.0340909,105.37358 C94.1685463,99.1434348 90.4417843,93.7343979 85.8536932,89.1463068 C81.2656021,84.5582157 75.8565652,80.8314537 69.6264205,77.9659091 C63.3962757,75.1003645 56.8201104,73.4583354 49.8977273,73.0397727 C49.092799,73.0075756 48.4086202,72.6936583 47.8451705,72.0980114 C47.2817207,71.5023644 47,70.8020874 47,69.9971591 L47,63.0909091 C47,62.1893894 47.3219665,61.4488665 47.9659091,60.8693182 C48.5454574,60.2897698 49.2537837,60 50.0909091,60 L50.2357955,60 C58.6714437,60.4185627 66.7447531,62.3503616 74.4559659,65.7954545 C82.1671787,69.2405475 89.0170155,73.9734547 95.0056818,79.9943182 C101.026545,85.9829845 105.759452,92.8328213 109.204545,100.544034 C112.649638,108.255247 114.581437,116.328556 115,124.764205 Z" id="pinax-blog-copy" fill="#FF9800"></path>
            </g>
        </g>
    </g>
</svg>