<?xml version="1.0" encoding="UTF-8"?>
<svg width="169px" height="190px" viewBox="0 0 169 190" version="1.1" xmlns="http://www.w3.org/2000/svg" xmlns:xlink="http://www.w3.org/1999/xlink">
    <!-- Generator: Sketch 48.2 (47327) - http://www.bohemiancoding.com/sketch -->
    <title>pinax-points</title>
    <desc>Created with Sketch.</desc>
    <defs>
        <polygon id="path-1" points="69.2820323 0 138.564065 40 138.564065 120 69.2820323 160 9.05941988e-14 120 4.61852778e-14 40"></polygon>
    </defs>
    <g id="Hexagons" stroke="none" stroke-width="1" fill="none" fill-rule="evenodd" transform="translate(-1096.000000, -459.000000)">
        <g id="pinax-points" transform="translate(1111.000000, 474.000000)">
            <g id="Polygon-Copy-12" stroke-linejoin="round">
                <use fill="#FDCFCC" fill-rule="evenodd" xlink:href="#path-1"></use>
                <path stroke="#F44336" stroke-width="15" d="M69.2820323,-8.66025404 L146.064065,35.669873 L146.064065,124.330127 L69.2820323,168.660254 L-7.5,124.330127 L-7.5,35.669873 L69.2820323,-8.66025404 Z"></path>
            </g>
            <path d="M109.093693,50.7499702 C110.109319,50.7499702 110.972598,51.1054371 111.683535,51.8163732 C112.394473,52.5273093 112.749941,53.3905864 112.749941,54.406209 L112.749941,62.9374329 C112.749941,65.6796121 111.937442,68.3710109 110.312443,71.011627 C108.687443,73.6522432 106.351508,76.0897357 103.304635,78.3241047 C98.4296381,81.7772199 92.8437036,83.8592432 86.5468336,84.5701793 C85.1249603,87.0076719 83.4999607,89.1912582 81.6718369,91.1209405 C80.4530877,92.4412498 79.1835581,93.6092134 77.8632457,94.6248361 L76.1874656,95.8435824 L76.1874656,106.812299 L83.4999607,106.812299 C86.2421463,106.812299 88.5526924,107.574015 90.4315966,109.097448 C92.3105008,110.620881 93.2499541,112.702907 93.2499541,115.343523 L93.2499541,117.171642 C93.2499541,117.679452 93.0722191,118.111093 92.7167513,118.46656 C92.3612836,118.822027 91.9296417,118.999762 91.4218303,118.999762 L46.3281107,118.999762 C45.8202993,118.999762 45.3886574,118.822027 45.0331897,118.46656 C44.6777219,118.111093 44.4999869,117.679452 44.4999869,117.171642 L44.4999869,115.343523 C44.4999869,112.702907 45.4394402,110.620881 47.3183444,109.097448 C49.1972486,107.574015 51.5077947,106.812299 54.2499803,106.812299 L61.5624754,106.812299 L61.5624754,95.8435824 L59.8866953,94.6248361 C58.5663829,93.6092134 57.2968533,92.4412498 56.0781041,91.1209405 C54.2499803,89.1912582 52.6249806,87.0076719 51.2031074,84.5701793 C44.9062374,83.8592432 39.3203029,81.7772199 34.4453061,78.3241047 C31.3984332,76.0897357 29.062498,73.6522432 27.4374984,71.011627 C25.8124987,68.3710109 25,65.6796121 25,62.9374329 L25,54.406209 C25,53.3905864 25.3554677,52.5273093 26.0664055,51.8163732 C26.7773433,51.1054371 27.6406224,50.7499702 28.6562475,50.7499702 L44.4999869,50.7499702 L44.4999869,44.6562388 C44.4999869,43.6406162 44.8554546,42.7773391 45.5663924,42.066403 C46.2773302,41.3554669 47.1406093,41 48.1562344,41 L89.5937066,41 C90.6093317,41 91.4726108,41.3554669 92.1835486,42.066403 C92.8944864,42.7773391 93.2499541,43.6406162 93.2499541,44.6562388 L93.2499541,50.7499702 L109.093693,50.7499702 Z M40.0819851,70.4022539 C42.0116675,71.7225631 44.1444735,72.7889661 46.4804031,73.6014628 C45.3632198,69.4374139 44.703064,65.0702389 44.4999404,60.4999404 L34.7499702,60.4999404 L34.7499702,62.9374329 C34.7499702,63.9530556 35.2070001,65.1210192 36.1210598,66.4413285 C37.0351195,67.7616377 38.3554287,69.0819446 40.0819851,70.4022539 Z M102.999762,62.9374329 L102.999762,60.4999404 L93.2497914,60.4999404 C93.0466678,65.0702389 92.386512,69.4374139 91.2693287,73.6014628 C93.6052583,72.7889661 95.7380643,71.7225631 97.6677466,70.4022539 C99.0896165,69.2850706 100.333754,68.040933 101.400157,66.6698434 C102.46656,65.2987539 102.999762,64.0546163 102.999762,62.9374329 Z" fill="#F44336"></path>
        </g>
    </g>
</svg>