<?xml version="1.0" encoding="UTF-8"?>
<svg width="169px" height="190px" viewBox="0 0 169 190" version="1.1" xmlns="http://www.w3.org/2000/svg" xmlns:xlink="http://www.w3.org/1999/xlink">
    <!-- Generator: Sketch 46.2 (44496) - http://www.bohemiancoding.com/sketch -->
    <title>pinax-announcements</title>
    <desc>Created with Sketch.</desc>
    <defs>
        <path d="M86.5,2.88675135 L158,44.1672956 L158,44.1672956 C161.094011,45.9536235 163,49.2548937 163,52.8275496 L163,135.388638 L163,135.388638 C163,138.961294 161.094011,142.262564 158,144.048892 L86.5,185.329436 L86.5,185.329436 C83.4059892,187.115764 79.5940108,187.115764 76.5,185.329436 L5,144.048892 L5,144.048892 C1.90598923,142.262564 1.27897692e-13,138.961294 1.17239551e-13,135.388638 L5.15143483e-14,52.8275496 L6.03961325e-14,52.8275496 C6.39488462e-14,49.2548937 1.90598923,45.9536235 5,44.1672956 L76.5,2.88675135 L76.5,2.88675135 C79.5940108,1.1004234 83.4059892,1.1004234 86.5,2.88675135 Z" id="path-1"></path>
    </defs>
    <g id="Page-2" stroke="none" stroke-width="1" fill="none" fill-rule="evenodd">
        <g id="pinax-announcements">
            <g transform="translate(3.000000, 1.000000)">
                <g id="Polygon-Copy-4">
                    <use fill="#607D8B" fill-rule="evenodd" xlink:href="#path-1"></use>
                    <path stroke="#FFC107" stroke-width="15" d="M82.75,9.38194187 C81.9764973,8.93535989 81.0235027,8.93535989 80.25,9.38194187 L8.75,50.6624861 C7.97649731,51.1090681 7.5,51.9343857 7.5,52.8275496 L7.5,135.388638 C7.5,136.281802 7.97649731,137.10712 8.75,137.553702 L80.25,178.834246 C81.0235027,179.280828 81.9764973,179.280828 82.75,178.834246 L154.25,137.553702 C155.023503,137.10712 155.5,136.281802 155.5,135.388638 L155.5,52.8275496 C155.5,51.9343857 155.023503,51.1090681 154.25,50.6624861 L82.75,9.38194187 Z"></path>
                </g>
                <path d="M119.184788,81.9799346 C120.908672,81.9799346 122.380457,82.5897902 123.600186,83.8095197 C124.819916,85.0292492 125.429771,86.501034 125.429771,88.2249183 C125.429771,89.9488026 124.819916,91.4205874 123.600186,92.6403169 C122.380457,93.8600464 120.908672,94.469902 119.184788,94.469902 L119.184788,113.204853 C119.184788,114.896211 118.566801,116.359865 117.330808,117.595857 C116.094816,118.83185 114.631162,119.449837 112.939804,119.449837 C99.3764122,108.163273 86.1710059,101.983403 73.3231888,100.910041 C71.4366739,101.528038 69.9567577,102.601383 68.8833958,104.130111 C67.8100338,105.658839 67.3058865,107.293252 67.3709388,109.033399 C67.435991,110.773546 68.0865036,112.277857 69.3224962,113.546375 C68.6719738,114.619737 68.297929,115.684952 68.2003507,116.742051 C68.1027723,117.79915 68.2003492,118.742393 68.4930843,119.571809 C68.7858193,120.401225 69.3306237,121.29568 70.1275136,122.2552 C70.9244035,123.214721 71.7050187,124.027862 72.4693825,124.694647 C73.2337463,125.361433 74.2339094,126.182705 75.469902,127.158488 C74.5266445,129.045003 72.7133406,130.394817 70.0299357,131.20797 C67.3465309,132.021123 64.6062465,132.208145 61.8090002,131.769043 C59.011754,131.32994 56.8650623,130.427354 55.3688608,129.061257 C55.141178,128.313156 54.6614249,126.89016 53.9295872,124.792225 C53.1977495,122.69429 52.6773394,121.157454 52.3683413,120.181671 C52.0593432,119.205887 51.6852984,117.758496 51.2461958,115.839455 C50.8070932,113.920414 50.563151,112.27787 50.5143618,110.911773 C50.4655726,109.545676 50.5224925,107.943789 50.6851231,106.106063 C50.8477537,104.268337 51.2055356,102.471296 51.7584796,100.714886 L45.8062296,100.714886 C43.6595057,100.714886 41.8218075,99.9505333 40.2930799,98.4218057 C38.7643523,96.8930781 38,95.0553799 38,92.908656 L38,83.5411806 C38,81.3944567 38.7643523,79.5567585 40.2930799,78.0280309 C41.8218075,76.4993033 43.6595057,75.734951 45.8062296,75.734951 L69.2249183,75.734951 C83.3737801,75.734951 97.945263,69.4900298 112.939804,57 C114.631162,57 116.094816,57.617987 117.330808,58.8539795 C118.566801,60.0899721 119.184788,61.5536255 119.184788,63.2449837 L119.184788,81.9799346 Z M112.939804,111.448451 L112.939804,64.9038074 C100.124513,74.7266954 87.6346705,80.3048412 75.469902,81.6384121 L75.469902,94.8114245 C87.7322489,96.1775215 100.222091,101.723142 112.939804,111.448451 Z" fill="#FFC107"></path>
                <path d="M112.939804,111.448451 L112.939804,64.9038074 C100.124513,74.7266954 87.6346705,80.3048412 75.469902,81.6384121 L75.469902,94.8114245 C87.7322489,96.1775215 100.222091,101.723142 112.939804,111.448451 Z" id="Path" fill-opacity="0.52270154" fill="#FFC107"></path>
            </g>
        </g>
    </g>
</svg>