<?xml version="1.0" encoding="UTF-8"?>
<svg width="170px" height="186px" viewBox="0 0 170 186" version="1.1" xmlns="http://www.w3.org/2000/svg" xmlns:xlink="http://www.w3.org/1999/xlink">
    <!-- Generator: Sketch 48.2 (47327) - http://www.bohemiancoding.com/sketch -->
    <title>pinax-webanalytics</title>
    <desc>Created with Sketch.</desc>
    <defs>
        <path d="M92.3173204,4.08909079 L162.31732,43.2067379 C167.060996,45.8576154 170,50.8667748 170,56.3008901 L170,133.69911 C170,139.133225 167.060996,144.142385 162.31732,146.793262 L92.3173204,185.910909 C87.7700345,188.45204 82.2299655,188.45204 77.6826796,185.910909 L7.68267964,146.793262 C2.93900409,144.142385 6.75015599e-14,139.133225 6.75015599e-14,133.69911 L6.03961325e-14,56.3008901 C5.5067062e-14,50.8667748 2.93900409,45.8576154 7.68267964,43.2067379 L77.6826796,4.08909079 C82.2299655,1.54796043 87.7700345,1.54796043 92.3173204,4.08909079 Z" id="path-1"></path>
    </defs>
    <g id="Hexagons" stroke="none" stroke-width="1" fill="none" fill-rule="evenodd" transform="translate(-884.000000, -667.000000)">
        <g id="pinax-webanalytics" transform="translate(883.000000, 665.000000)">
            <g transform="translate(1.000000, 0.000000)">
                <g id="Badge">
                    <use fill-opacity="0.302904212" fill="#DE690C" fill-rule="evenodd" xlink:href="#path-1"></use>
                    <path stroke="#DE690C" stroke-width="15" d="M88.6586602,10.6361669 C86.3850172,9.36560173 83.6149828,9.36560173 81.3413398,10.6361669 L11.3413398,49.753814 C8.96950205,51.0792527 7.5,53.5838324 7.5,56.3008901 L7.5,133.69911 C7.5,136.416168 8.96950205,138.920747 11.3413398,140.246186 L81.3413398,179.363833 C83.6149828,180.634398 86.3850172,180.634398 88.6586602,179.363833 L158.65866,140.246186 C161.030498,138.920747 162.5,136.416168 162.5,133.69911 L162.5,56.3008901 C162.5,53.5838324 161.030498,51.0792527 158.65866,49.753814 L88.6586602,10.6361669 Z"></path>
                </g>
                <path d="M122.171875,114.749884 C122.679687,114.749884 123.111329,114.927618 123.466797,115.283086 C123.822265,115.638553 124,116.070194 124,116.578004 L124,122.67174 C124,123.17955 123.822265,123.611192 123.466797,123.966659 C123.111329,124.322126 122.679687,124.499861 122.171875,124.499861 L47.828125,124.499861 C47.3203133,124.499861 46.8886711,124.322126 46.5332031,123.966659 C46.1777351,123.611192 46,123.17955 46,122.67174 L46,67.8281206 C46,67.3203101 46.1777351,66.888669 46.5332031,66.5332019 C46.8886711,66.1777347 47.3203133,66 47.828125,66 L53.921875,66 C54.4296867,66 54.8613289,66.1777347 55.2167969,66.5332019 C55.5722649,66.888669 55.75,67.3203101 55.75,67.8281206 L55.75,114.749884 L122.171875,114.749884 Z M75.2499303,108.046775 C75.2499303,108.554585 75.0721955,108.986226 74.7167284,109.341694 C74.3612613,109.697161 73.9296201,109.874895 73.4218096,109.874895 L67.3280741,109.874895 C66.8202636,109.874895 66.3886225,109.697161 66.0331554,109.341694 C65.6776882,108.986226 65.4999535,108.554585 65.4999535,108.046775 L65.4999535,97.0780509 C65.4999535,96.5702404 65.6776882,96.1385992 66.0331554,95.7831321 C66.3886225,95.427665 66.8202636,95.2499303 67.3280741,95.2499303 L73.4218096,95.2499303 C73.9296201,95.2499303 74.3612613,95.427665 74.7167284,95.7831321 C75.0721955,96.1385992 75.2499303,96.5702404 75.2499303,97.0780509 L75.2499303,108.046775 Z M104.499861,108.046775 C104.499861,108.554585 104.322126,108.986226 103.966659,109.341694 C103.611192,109.697161 103.17955,109.874895 102.67174,109.874895 L96.5780044,109.874895 C96.0701939,109.874895 95.6385528,109.697161 95.2830856,109.341694 C94.9276185,108.986226 94.7498838,108.554585 94.7498838,108.046775 L94.7498838,87.3280741 C94.7498838,86.8202636 94.9276185,86.3886225 95.2830856,86.0331554 C95.6385528,85.6776882 96.0701939,85.4999535 96.5780044,85.4999535 L102.67174,85.4999535 C103.17955,85.4999535 103.611192,85.6776882 103.966659,86.0331554 C104.322126,86.3886225 104.499861,86.8202636 104.499861,87.3280741 L104.499861,108.046775 Z M89.8748954,108.046775 C89.8748954,108.554585 89.6971607,108.986226 89.3416935,109.341694 C88.9862264,109.697161 88.5545853,109.874895 88.0467748,109.874895 L81.9530393,109.874895 C81.4452288,109.874895 81.0135876,109.697161 80.6581205,109.341694 C80.3026534,108.986226 80.1249186,108.554585 80.1249186,108.046775 L80.1249186,77.5780974 C80.1249186,77.0702869 80.3026534,76.6386457 80.6581205,76.2831786 C81.0135876,75.9277115 81.4452288,75.7499768 81.9530393,75.7499768 L88.0467748,75.7499768 C88.5545853,75.7499768 88.9862264,75.9277115 89.3416935,76.2831786 C89.6971607,76.6386457 89.8748954,77.0702869 89.8748954,77.5780974 L89.8748954,108.046775 Z M119.124826,108.046775 C119.124826,108.554585 118.947091,108.986226 118.591624,109.341694 C118.236157,109.697161 117.804516,109.874895 117.296705,109.874895 L111.20297,109.874895 C110.695159,109.874895 110.263518,109.697161 109.908051,109.341694 C109.552584,108.986226 109.374849,108.554585 109.374849,108.046775 L109.374849,72.703109 C109.374849,72.1952985 109.552584,71.7636574 109.908051,71.4081902 C110.263518,71.0527231 110.695159,70.8749884 111.20297,70.8749884 L117.296705,70.8749884 C117.804516,70.8749884 118.236157,71.0527231 118.591624,71.4081902 C118.947091,71.7636574 119.124826,72.1952985 119.124826,72.703109 L119.124826,108.046775 Z" id="Icon" fill="#DE690C"></path>
            </g>
        </g>
    </g>
</svg>