<?xml version="1.0" encoding="UTF-8"?>
<svg width="170px" height="186px" viewBox="0 0 170 186" version="1.1" xmlns="http://www.w3.org/2000/svg" xmlns:xlink="http://www.w3.org/1999/xlink">
    <!-- Generator: Sketch 48.2 (47327) - http://www.bohemiancoding.com/sketch -->
    <title>pinax-lms-activities</title>
    <desc>Created with Sketch.</desc>
    <defs>
        <path d="M92.3173204,4.08909079 L162.31732,43.2067379 C167.060996,45.8576154 170,50.8667748 170,56.3008901 L170,133.69911 C170,139.133225 167.060996,144.142385 162.31732,146.793262 L92.3173204,185.910909 C87.7700345,188.45204 82.2299655,188.45204 77.6826796,185.910909 L7.68267964,146.793262 C2.93900409,144.142385 -3.55271368e-15,139.133225 -3.55271368e-15,133.69911 L-1.0658141e-14,56.3008901 C-1.59872116e-14,50.8667748 2.93900409,45.8576154 7.68267964,43.2067379 L77.6826796,4.08909079 C82.2299655,1.54796043 87.7700345,1.54796043 92.3173204,4.08909079 Z" id="path-1"></path>
    </defs>
    <g id="Hexagons" stroke="none" stroke-width="1" fill="none" fill-rule="evenodd" transform="translate(-44.000000, -1087.000000)">
        <g id="pinax-lms-activities" transform="translate(44.000000, 1085.000000)">
            <g>
                <g id="Badge">
                    <use fill="#DDC2C2" fill-rule="evenodd" xlink:href="#path-1"></use>
                    <path stroke="#6C2121" stroke-width="15" d="M88.6586602,10.6361669 C86.3850172,9.36560173 83.6149828,9.36560173 81.3413398,10.6361669 L11.3413398,49.753814 C8.96950205,51.0792527 7.5,53.5838324 7.5,56.3008901 L7.5,133.69911 C7.5,136.416168 8.96950205,138.920747 11.3413398,140.246186 L81.3413398,179.363833 C83.6149828,180.634398 86.3850172,180.634398 88.6586602,179.363833 L158.65866,140.246186 C161.030498,138.920747 162.5,136.416168 162.5,133.69911 L162.5,56.3008901 C162.5,53.5838324 161.030498,51.0792527 158.65866,49.753814 L88.6586602,10.6361669 Z"></path>
                </g>
                <path d="M89.7968752,98.9374257 C87.2656253,99.6874232 84.7343753,99.6874232 82.2031253,98.9374257 L53.9375005,90.2186965 C52.9999997,91.5311926 52.4374998,93.3593133 52.2500005,95.7030584 C52.9999997,96.0780582 53.5624997,96.5936806 53.9375005,97.2499297 C54.3125012,97.9061789 54.5000005,98.6561764 54.5000005,99.4999244 C54.5000005,100.343672 54.289063,101.117108 53.867188,101.820231 C53.445313,102.523355 52.9062512,103.062415 52.2500005,103.437415 L54.5000005,120.734249 C54.5000005,121.109249 54.4062497,121.413934 54.2187505,121.648309 C54.0312512,121.882684 53.7500012,121.999871 53.3750005,121.999871 L46.6250005,121.999871 C46.2499998,121.999871 45.9687498,121.882684 45.7812505,121.648309 C45.5937512,121.413934 45.5000005,121.109249 45.5000005,120.734249 L47.7500005,103.437415 C47.0937498,103.062415 46.554688,102.523355 46.132813,101.820231 C45.710938,101.117108 45.5000005,100.343672 45.5000005,99.4999244 C45.5000005,98.6561764 45.710938,97.8827407 46.132813,97.1796174 C46.554688,96.4764941 47.0937498,95.9374336 47.7500005,95.5624337 C47.9374998,92.8436909 48.5468762,90.5936963 49.5781255,88.8124498 L43.3906255,86.9843292 C42.3593762,86.7030799 41.6562512,86.093707 41.2812505,85.1562086 C40.9062498,84.2187101 40.9062498,83.2812137 41.2812505,82.3437153 C41.6562512,81.4062168 42.3593762,80.796844 43.3906255,80.5155946 L82.2031253,68.5624981 C84.7343753,67.8125006 87.2656253,67.8125006 89.7968752,68.5624981 L128.609375,80.5155946 C129.640624,80.796844 130.343749,81.4062168 130.71875,82.3437153 C131.093751,83.2812137 131.093751,84.2187101 130.71875,85.1562086 C130.343749,86.093707 129.640624,86.7030799 128.609375,86.9843292 L89.7968752,98.9374257 Z M91.2030058,103.29679 L112.296706,96.6874311 L114.124826,108.499903 C114.124826,110.093648 112.859204,111.593646 110.32796,112.999892 C107.796716,114.406139 104.37485,115.507698 100.06236,116.304572 C95.7498693,117.101446 91.0623812,117.499881 85.9998932,117.499881 C80.9374053,117.499881 76.2499172,117.101446 71.9374268,116.304572 C67.6249363,115.507698 64.2030702,114.406139 61.6718263,112.999892 C59.1405823,111.593646 57.8749603,110.093648 57.8749603,108.499903 L59.7030809,96.6874311 L80.9374053,103.29679 C84.3123973,104.234289 87.6873892,104.234289 91.0623812,103.29679 L91.2030058,103.29679 Z" id="graduation-cap" fill="#6C2121"></path>
            </g>
        </g>
    </g>
</svg>