<?xml version="1.0" encoding="UTF-8"?>
<svg width="170px" height="186px" viewBox="0 0 170 186" version="1.1" xmlns="http://www.w3.org/2000/svg" xmlns:xlink="http://www.w3.org/1999/xlink">
    <!-- Generator: Sketch 48.2 (47327) - http://www.bohemiancoding.com/sketch -->
    <title>pinax-comments</title>
    <desc>Created with Sketch.</desc>
    <defs>
        <path d="M92.3173204,4.08909079 L162.31732,43.2067379 C167.060996,45.8576154 170,50.8667748 170,56.3008901 L170,133.69911 C170,139.133225 167.060996,144.142385 162.31732,146.793262 L92.3173204,185.910909 C87.7700345,188.45204 82.2299655,188.45204 77.6826796,185.910909 L7.68267964,146.793262 C2.93900409,144.142385 -3.55271368e-15,139.133225 -3.55271368e-15,133.69911 L-1.0658141e-14,56.3008901 C-1.59872116e-14,50.8667748 2.93900409,45.8576154 7.68267964,43.2067379 L77.6826796,4.08909079 C82.2299655,1.54796043 87.7700345,1.54796043 92.3173204,4.08909079 Z" id="path-1"></path>
    </defs>
    <g id="Hexagons" stroke="none" stroke-width="1" fill="none" fill-rule="evenodd" transform="translate(-464.000000, -247.000000)">
        <g id="pinax-comments" transform="translate(464.000000, 245.000000)">
            <g>
                <g id="Badge">
                    <use fill="#D2EAD3" fill-rule="evenodd" xlink:href="#path-1"></use>
                    <path stroke="#4CAF50" stroke-width="15" d="M88.6586602,10.6361669 C86.3850172,9.36560173 83.6149828,9.36560173 81.3413398,10.6361669 L11.3413398,49.753814 C8.96950205,51.0792527 7.5,53.5838324 7.5,56.3008901 L7.5,133.69911 C7.5,136.416168 8.96950205,138.920747 11.3413398,140.246186 L81.3413398,179.363833 C83.6149828,180.634398 86.3850172,180.634398 88.6586602,179.363833 L158.65866,140.246186 C161.030498,138.920747 162.5,136.416168 162.5,133.69911 L162.5,56.3008901 C162.5,53.5838324 161.030498,51.0792527 158.65866,49.753814 L88.6586602,10.6361669 Z"></path>
                </g>
                <path d="M76.5226406,111.823661 C70.7116278,111.823661 65.2175818,110.819941 60.0404977,108.8125 C54.9690691,112.721727 49.1052298,115.04613 42.4489798,115.785714 L42.2904977,115.785714 C41.6565691,115.785714 41.2339493,115.46875 41.0226406,114.834821 C40.916985,114.412202 41.1811227,113.936755 41.8150513,113.408482 L42.607462,112.616071 C44.1922834,111.242559 45.3016584,109.974702 45.935587,108.8125 C46.9921354,107.01637 47.7845461,104.586309 48.3128191,101.522321 C43.4526993,96.9791659 41.0226406,91.7492551 41.0226406,85.8325893 C41.0226406,81.1837806 42.607462,76.8783482 45.7771048,72.9162946 C48.9467477,68.9542411 53.2521801,65.8110127 58.6933995,63.4866071 C64.1346189,61.1622016 70.0776993,60 76.5226406,60 C82.9675818,60 88.9106622,61.1622016 94.3518816,63.4866071 C99.7931011,65.8110127 104.098533,68.9542411 107.268176,72.9162946 C110.437819,76.8783482 112.022641,81.2101926 112.022641,85.9118304 C112.022641,90.6134681 110.437819,94.9453125 107.268176,98.9073661 C104.098533,102.86942 99.7931011,106.012648 94.3518816,108.337054 C88.9106622,110.661459 82.9675818,111.823661 76.5226406,111.823661 Z M131.515944,128.78125 L131.674426,128.939732 C132.202699,129.362352 132.41401,129.732143 132.308355,130.049107 C132.202699,130.366071 132.017805,130.603795 131.753667,130.762277 C131.48953,130.920759 131.251806,131 131.040498,131 C124.806868,130.366071 119.365646,128.252977 114.716837,124.660714 C109.856717,126.456844 104.732462,127.354911 99.3440691,127.354911 C94.4839493,127.354911 89.9143816,126.641741 85.6353638,125.215402 C81.3563459,123.789062 77.6848421,121.860862 74.6208548,119.430804 C82.6506176,119.642112 90.1256903,118.295014 97.0460781,115.389509 C103.966466,112.484004 109.4341,108.495536 113.44898,103.424107 C117.569516,98.1413699 119.629783,92.2775306 119.629783,85.8325893 L119.629783,85.1986607 C124.278592,87.8400306 127.685958,91.0889145 129.851882,94.9453125 C132.017805,98.8017105 132.730975,102.790179 131.991391,106.910714 C131.251806,111.03125 129.138712,114.729166 125.652105,118.004464 C126.074725,120.751487 126.76148,122.970237 127.712373,124.660714 C128.346301,125.717263 129.350021,126.879464 130.723533,128.147321 C131.040498,128.464286 131.304635,128.675594 131.515944,128.78125 Z" id="Icon" fill="#4CAF50"></path>
            </g>
        </g>
    </g>
</svg>