<?xml version="1.0" encoding="UTF-8"?>
<svg width="170px" height="190px" viewBox="0 0 170 190" version="1.1" xmlns="http://www.w3.org/2000/svg" xmlns:xlink="http://www.w3.org/1999/xlink">
    <!-- Generator: Sketch 46.2 (44496) - http://www.bohemiancoding.com/sketch -->
    <title>pinax-likes</title>
    <desc>Created with Sketch.</desc>
    <defs>
        <path d="M86.5,2.88675135 L158,44.1672956 L158,44.1672956 C161.094011,45.9536235 163,49.2548937 163,52.8275496 L163,135.388638 L163,135.388638 C163,138.961294 161.094011,142.262564 158,144.048892 L86.5,185.329436 L86.5,185.329436 C83.4059892,187.115764 79.5940108,187.115764 76.5,185.329436 L5,144.048892 L5,144.048892 C1.90598923,142.262564 7.10542736e-14,138.961294 6.03961325e-14,135.388638 L-5.32907052e-15,52.8275496 L3.55271368e-15,52.8275496 C7.10542736e-15,49.2548937 1.90598923,45.9536235 5,44.1672956 L76.5,2.88675135 L76.5,2.88675135 C79.5940108,1.1004234 83.4059892,1.1004234 86.5,2.88675135 Z" id="path-1"></path>
    </defs>
    <g id="Page-2" stroke="none" stroke-width="1" fill="none" fill-rule="evenodd">
        <g id="pinax-likes">
            <g transform="translate(4.000000, 1.000000)">
                <g id="Polygon-Copy-17">
                    <use fill="#C6E4FB" fill-rule="evenodd" xlink:href="#path-1"></use>
                    <path stroke="#2196F3" stroke-width="15" d="M82.75,9.38194187 C81.9764973,8.93535989 81.0235027,8.93535989 80.25,9.38194187 L8.75,50.6624861 C7.97649731,51.1090681 7.5,51.9343857 7.5,52.8275496 L7.5,135.388638 C7.5,136.281802 7.97649731,137.10712 8.75,137.553702 L80.25,178.834246 C81.0235027,179.280828 81.9764973,179.280828 82.75,178.834246 L154.25,137.553702 C155.023503,137.10712 155.5,136.281802 155.5,135.388638 L155.5,52.8275496 C155.5,51.9343857 155.023503,51.1090681 154.25,50.6624861 L82.75,9.38194187 Z"></path>
                </g>
                <path d="M54.5,116.375 C54.5,115.528642 54.1907583,114.796227 53.5722656,114.177734 C52.9537729,113.559242 52.2213584,113.25 51.375,113.25 C50.4960894,113.25 49.7555369,113.559242 49.1533203,114.177734 C48.5511038,114.796227 48.25,115.528642 48.25,116.375 C48.25,117.253911 48.5511038,117.994463 49.1533203,118.59668 C49.7555369,119.198896 50.4960894,119.5 51.375,119.5 C52.2213584,119.5 52.9537729,119.198896 53.5722656,118.59668 C54.1907583,117.994463 54.5,117.253911 54.5,116.375 Z M62.3125,91.375 L62.3125,122.625 C62.3125,123.471358 62.0032583,124.203773 61.3847656,124.822266 C60.7662729,125.440758 60.0338584,125.75 59.1875,125.75 L45.125,125.75 C44.2786416,125.75 43.5462271,125.440758 42.9277344,124.822266 C42.3092417,124.203773 42,123.471358 42,122.625 L42,91.375 C42,90.5286416 42.3092417,89.7962271 42.9277344,89.1777344 C43.5462271,88.5592417 44.2786416,88.25 45.125,88.25 L59.1875,88.25 C60.0338584,88.25 60.7662729,88.5592417 61.3847656,89.1777344 C62.0032583,89.7962271 62.3125,90.5286416 62.3125,91.375 Z M120.125,91.375 C120.125,94.1744932 119.229827,96.5995991 117.439453,98.6503906 C117.927737,100.082689 118.171875,101.319656 118.171875,102.361328 C118.269532,104.835299 117.569669,107.065094 116.072266,109.050781 C116.625654,110.873707 116.625654,112.777985 116.072266,114.763672 C115.583982,116.61915 114.705084,118.149083 113.435547,119.353516 C113.728517,122.999367 112.930999,125.945301 111.042969,128.191406 C108.959625,130.665377 105.753277,131.934896 101.423828,132 L95.125,132 C92.9765518,132 90.6328252,131.747724 88.09375,131.243164 C85.5546748,130.738604 83.5771555,130.266604 82.1611328,129.827148 C80.7451101,129.387693 78.7838667,128.744796 76.2773437,127.898438 C72.2734175,126.498691 69.7018286,125.782552 68.5625,125.75 C67.7161416,125.717448 66.9837271,125.400068 66.3652344,124.797852 C65.7467417,124.195635 65.4375,123.471358 65.4375,122.625 L65.4375,91.3261719 C65.4375,90.5123657 65.7304658,89.804365 66.3164062,89.2021484 C66.9023467,88.5999319 67.6022095,88.2662764 68.4160156,88.2011719 C69.1972695,88.1360674 70.4342363,87.1757905 72.1269531,85.3203125 C73.8196699,83.4648345 75.4635337,81.4954531 77.0585937,79.4121094 C79.2721465,76.580064 80.9160103,74.6269585 81.9902344,73.5527344 C82.5761748,72.9667939 83.0807271,72.1855518 83.5039062,71.2089844 C83.9270854,70.232417 84.2119133,69.4430369 84.3583984,68.8408203 C84.5048835,68.2386038 84.7246079,67.2539131 85.0175781,65.8867188 C85.2454438,64.6171812 85.4488923,63.6243525 85.6279297,62.9082031 C85.806967,62.1920537 86.1243467,61.345708 86.5800781,60.3691406 C87.0358096,59.3925732 87.5891895,58.5787793 88.2402344,57.9277344 C88.8587271,57.3092417 89.5911416,57 90.4375,57 C91.9349033,57 93.2776633,57.1708967 94.4658203,57.5126953 C95.6539773,57.8544939 96.63053,58.2776667 97.3955078,58.7822266 C98.1604856,59.2867864 98.8115208,59.9459595 99.3486328,60.7597656 C99.8857449,61.5735718 100.276366,62.3059863 100.520508,62.9570313 C100.76465,63.6080762 100.95996,64.4218701 101.106445,65.3984375 C101.25293,66.3750049 101.33431,67.1074194 101.350586,67.5957031 C101.366862,68.0839868 101.375,68.7187461 101.375,69.5 C101.375,70.7369854 101.220379,71.9739521 100.911133,73.2109375 C100.601886,74.4479229 100.292645,75.4244756 99.9833984,76.140625 C99.6741521,76.8567744 99.2265654,77.7682236 98.640625,78.875 C98.5429683,79.0703135 98.3802095,79.3632793 98.1523437,79.7539062 C97.924478,80.1445332 97.7454434,80.5026025 97.6152344,80.828125 C97.4850254,81.1536475 97.3548184,81.5442686 97.2246094,82 L110.75,82 C113.289075,82 115.486319,82.9277251 117.341797,84.7832031 C119.197275,86.6386812 120.125,88.8359248 120.125,91.375 Z" fill="#2196F3"></path>
            </g>
        </g>
    </g>
</svg>