<?xml version="1.0" encoding="UTF-8"?>
<svg width="170px" height="186px" viewBox="0 0 170 186" version="1.1" xmlns="http://www.w3.org/2000/svg" xmlns:xlink="http://www.w3.org/1999/xlink">
    <!-- Generator: Sketch 48.2 (47327) - http://www.bohemiancoding.com/sketch -->
    <title>pinax-calendars</title>
    <desc>Created with Sketch.</desc>
    <defs>
        <path d="M92.3173204,4.08909079 L162.31732,43.2067379 C167.060996,45.8576154 170,50.8667748 170,56.3008901 L170,133.69911 C170,139.133225 167.060996,144.142385 162.31732,146.793262 L92.3173204,185.910909 C87.7700345,188.45204 82.2299655,188.45204 77.6826796,185.910909 L7.68267964,146.793262 C2.93900409,144.142385 -3.55271368e-15,139.133225 -3.55271368e-15,133.69911 L-1.0658141e-14,56.3008901 C-1.59872116e-14,50.8667748 2.93900409,45.8576154 7.68267964,43.2067379 L77.6826796,4.08909079 C82.2299655,1.54796043 87.7700345,1.54796043 92.3173204,4.08909079 Z" id="path-1"></path>
    </defs>
    <g id="Hexagons" stroke="none" stroke-width="1" fill="none" fill-rule="evenodd" transform="translate(-254.000000, -247.000000)">
        <g id="pinax-calendars" transform="translate(254.000000, 245.000000)">
            <g>
                <g id="Badge">
                    <use fill="#E1EFD1" fill-rule="evenodd" xlink:href="#path-1"></use>
                    <path stroke="#8BC34A" stroke-width="15" d="M88.6586602,10.6361669 C86.3850172,9.36560173 83.6149828,9.36560173 81.3413398,10.6361669 L11.3413398,49.753814 C8.96950205,51.0792527 7.5,53.5838324 7.5,56.3008901 L7.5,133.69911 C7.5,136.416168 8.96950205,138.920747 11.3413398,140.246186 L81.3413398,179.363833 C83.6149828,180.634398 86.3850172,180.634398 88.6586602,179.363833 L158.65866,140.246186 C161.030498,138.920747 162.5,136.416168 162.5,133.69911 L162.5,56.3008901 C162.5,53.5838324 161.030498,51.0792527 158.65866,49.753814 L88.6586602,10.6361669 Z"></path>
                </g>
                <path d="M73.015625,100.625 L65.984375,100.625 C65.3984384,100.625 64.9003897,100.419921 64.4902344,100.009766 C64.080079,99.5996103 63.875,99.1015616 63.875,98.515625 L63.875,91.484375 C63.875,90.8984384 64.080079,90.4003897 64.4902344,89.9902344 C64.9003897,89.580079 65.3984384,89.375 65.984375,89.375 L73.015625,89.375 C73.6015616,89.375 74.0996103,89.580079 74.5097656,89.9902344 C74.919921,90.4003897 75.125,90.8984384 75.125,91.484375 L75.125,98.515625 C75.125,99.1015616 74.919921,99.5996103 74.5097656,100.009766 C74.0996103,100.419921 73.6015616,100.625 73.015625,100.625 Z M92,91.484375 L92,98.515625 C92,99.1015616 91.794921,99.5996103 91.3847656,100.009766 C90.9746103,100.419921 90.4765616,100.625 89.890625,100.625 L82.859375,100.625 C82.2734384,100.625 81.7753897,100.419921 81.3652344,100.009766 C80.955079,99.5996103 80.75,99.1015616 80.75,98.515625 L80.75,91.484375 C80.75,90.8984384 80.955079,90.4003897 81.3652344,89.9902344 C81.7753897,89.580079 82.2734384,89.375 82.859375,89.375 L89.890625,89.375 C90.4765616,89.375 90.9746103,89.580079 91.3847656,89.9902344 C91.794921,90.4003897 92,90.8984384 92,91.484375 Z M108.875,91.484375 L108.875,98.515625 C108.875,99.1015616 108.669921,99.5996103 108.259766,100.009766 C107.84961,100.419921 107.351562,100.625 106.765625,100.625 L99.734375,100.625 C99.1484384,100.625 98.6503897,100.419921 98.2402344,100.009766 C97.830079,99.5996103 97.625,99.1015616 97.625,98.515625 L97.625,91.484375 C97.625,90.8984384 97.830079,90.4003897 98.2402344,89.9902344 C98.6503897,89.580079 99.1484384,89.375 99.734375,89.375 L106.765625,89.375 C107.351562,89.375 107.84961,89.580079 108.259766,89.9902344 C108.669921,90.4003897 108.875,90.8984384 108.875,91.484375 Z M92,108.359375 L92,115.390625 C92,115.976562 91.794921,116.47461 91.3847656,116.884766 C90.9746103,117.294921 90.4765616,117.5 89.890625,117.5 L82.859375,117.5 C82.2734384,117.5 81.7753897,117.294921 81.3652344,116.884766 C80.955079,116.47461 80.75,115.976562 80.75,115.390625 L80.75,108.359375 C80.75,107.773438 80.955079,107.27539 81.3652344,106.865234 C81.7753897,106.455079 82.2734384,106.25 82.859375,106.25 L89.890625,106.25 C90.4765616,106.25 90.9746103,106.455079 91.3847656,106.865234 C91.794921,107.27539 92,107.773438 92,108.359375 Z M75.125,108.359375 L75.125,115.390625 C75.125,115.976562 74.919921,116.47461 74.5097656,116.884766 C74.0996103,117.294921 73.6015616,117.5 73.015625,117.5 L65.984375,117.5 C65.3984384,117.5 64.9003897,117.294921 64.4902344,116.884766 C64.080079,116.47461 63.875,115.976562 63.875,115.390625 L63.875,108.359375 C63.875,107.773438 64.080079,107.27539 64.4902344,106.865234 C64.9003897,106.455079 65.3984384,106.25 65.984375,106.25 L73.015625,106.25 C73.6015616,106.25 74.0996103,106.455079 74.5097656,106.865234 C74.919921,107.27539 75.125,107.773438 75.125,108.359375 Z M108.875,108.359375 L108.875,115.390625 C108.875,115.976562 108.669921,116.47461 108.259766,116.884766 C107.84961,117.294921 107.351562,117.5 106.765625,117.5 L99.734375,117.5 C99.1484384,117.5 98.6503897,117.294921 98.2402344,116.884766 C97.830079,116.47461 97.625,115.976562 97.625,115.390625 L97.625,108.359375 C97.625,107.773438 97.830079,107.27539 98.2402344,106.865234 C98.6503897,106.455079 99.1484384,106.25 99.734375,106.25 L106.765625,106.25 C107.351562,106.25 107.84961,106.455079 108.259766,106.865234 C108.669921,107.27539 108.875,107.773438 108.875,108.359375 Z M125.750188,69.6875 L125.750188,131.5625 C125.750188,133.906249 124.929872,135.898438 123.289244,137.539062 C121.648616,139.179687 119.656422,140 117.312668,140 L55.4375201,140 C53.0937654,140 51.1015714,139.179687 49.4609434,137.539062 C47.8203153,135.898438 47,133.906249 47,131.5625 L47,69.6875 C47,67.3437509 47.8203153,65.3515616 49.4609434,63.7109375 C51.1015714,62.0703134 53.0937654,61.25 55.4375201,61.25 L63.8750402,61.25 L63.8750402,52.109375 C63.8750402,51.5234384 64.0801197,51.0253897 64.4902761,50.6152344 C64.9004324,50.205079 65.3984823,50 65.9844203,50 L73.015687,50 C73.601625,50 74.0996749,50.205079 74.5098312,50.6152344 C74.9199875,51.0253897 75.1250671,51.5234384 75.1250671,52.109375 L75.1250671,61.25 L97.6251207,61.25 L97.6251207,52.109375 C97.6251207,51.5234384 97.8302002,51.0253897 98.2403565,50.6152344 C98.6505129,50.205079 99.1485627,50 99.7345007,50 L106.765767,50 C107.351705,50 107.849755,50.205079 108.259912,50.6152344 C108.670068,51.0253897 108.875148,51.5234384 108.875148,52.109375 L108.875148,61.25 L117.312668,61.25 C119.656422,61.25 121.648616,62.0703134 123.289244,63.7109375 C124.929872,65.3515616 125.750188,67.3437509 125.750188,69.6875 Z M117.3125,130.507813 L117.3125,78.125 L55.4375,78.125 L55.4375,130.507813 C55.4375,130.742187 55.5546884,130.976563 55.7890625,131.210938 C56.0234366,131.445312 56.2578134,131.5625 56.4921875,131.5625 L116.257813,131.5625 C116.492187,131.5625 116.726563,131.445312 116.960938,131.210938 C117.195312,130.976563 117.3125,130.742187 117.3125,130.507813 Z" id="Icon" fill="#8BC34A"></path>
            </g>
        </g>
    </g>
</svg>