<?xml version="1.0" encoding="UTF-8"?>
<svg width="170px" height="186px" viewBox="0 0 170 186" version="1.1" xmlns="http://www.w3.org/2000/svg" xmlns:xlink="http://www.w3.org/1999/xlink">
    <!-- Generator: Sketch 48.2 (47327) - http://www.bohemiancoding.com/sketch -->
    <title>pinax-testimonials</title>
    <desc>Created with Sketch.</desc>
    <defs>
        <path d="M92.3173204,4.08909079 L162.31732,43.2067379 C167.060996,45.8576154 170,50.8667748 170,56.3008901 L170,133.69911 C170,139.133225 167.060996,144.142385 162.31732,146.793262 L92.3173204,185.910909 C87.7700345,188.45204 82.2299655,188.45204 77.6826796,185.910909 L7.68267964,146.793262 C2.93900409,144.142385 6.75015599e-14,139.133225 6.75015599e-14,133.69911 L6.03961325e-14,56.3008901 C5.5067062e-14,50.8667748 2.93900409,45.8576154 7.68267964,43.2067379 L77.6826796,4.08909079 C82.2299655,1.54796043 87.7700345,1.54796043 92.3173204,4.08909079 Z" id="path-1"></path>
    </defs>
    <g id="Hexagons" stroke="none" stroke-width="1" fill="none" fill-rule="evenodd" transform="translate(-674.000000, -877.000000)">
        <g id="pinax-testimonials" transform="translate(674.000000, 875.000000)">
            <g>
                <g id="Badge">
                    <use fill="#A7D9C8" fill-rule="evenodd" xlink:href="#path-1"></use>
                    <path stroke="#3A5683" stroke-width="15" d="M88.6586602,10.6361669 C86.3850172,9.36560173 83.6149828,9.36560173 81.3413398,10.6361669 L11.3413398,49.753814 C8.96950205,51.0792527 7.5,53.5838324 7.5,56.3008901 L7.5,133.69911 C7.5,136.416168 8.96950205,138.920747 11.3413398,140.246186 L81.3413398,179.363833 C83.6149828,180.634398 86.3850172,180.634398 88.6586602,179.363833 L158.65866,140.246186 C161.030498,138.920747 162.5,136.416168 162.5,133.69911 L162.5,56.3008901 C162.5,53.5838324 161.030498,51.0792527 158.65866,49.753814 L88.6586602,10.6361669 Z"></path>
                </g>
                <path d="M127,86.875 C127,98.359375 124.375,107.875 119.125,115.421875 C113.656251,123.187499 105.671875,128.492188 95.171875,131.335937 C93.9687508,131.664062 92.8476554,131.445313 91.8085937,130.679687 C90.7695321,129.914062 90.25,128.875 90.25,127.5625 L90.25,121.984375 C90.25,121.218749 90.4960937,120.480468 90.9882812,119.769531 C91.4804687,119.058595 92.1093742,118.593749 92.875,118.375 C104.249999,114.218751 109.9375,106.343751 109.9375,94.75 L98.125,94.75 C95.9375008,94.75 94.0781242,93.9843742 92.546875,92.453125 C91.0156258,90.9218758 90.25,89.0624992 90.25,86.875 L90.25,65.875 C90.25,63.6875008 91.0156258,61.8281242 92.546875,60.296875 C94.0781242,58.7656258 95.9375008,58 98.125,58 L119.125,58 C121.312499,58 123.171876,58.7656258 124.703125,60.296875 C126.234374,61.8281242 127,63.6875008 127,65.875 L127,86.875 Z M71.875,58 C74.0624992,58 75.9218758,58.7656258 77.453125,60.296875 C78.9843742,61.8281242 79.75,63.6875008 79.75,65.875 L79.75,86.875 C79.75,98.359375 77.125,107.875 71.875,115.421875 C66.4062508,123.187499 58.421875,128.492188 47.921875,131.335937 C46.7187508,131.664062 45.5976554,131.445313 44.5585938,130.679687 C43.5195321,129.914062 43,128.875 43,127.5625 L43,121.984375 C43,121.218749 43.2460938,120.480468 43.7382812,119.769531 C44.2304688,119.058595 44.8593742,118.593749 45.625,118.375 C56.9999992,114.218751 62.6875,106.343751 62.6875,94.75 L50.875,94.75 C48.6875008,94.75 46.8281242,93.9843742 45.296875,92.453125 C43.7656258,90.9218758 43,89.0624992 43,86.875 L43,65.875 C43,63.6875008 43.7656258,61.8281242 45.296875,60.296875 C46.8281242,58.7656258 48.6875008,58 50.875,58 L71.875,58 Z" id="Icon" fill="#3A5683"></path>
            </g>
        </g>
    </g>
</svg>