<?xml version="1.0" encoding="UTF-8"?>
<svg width="170px" height="190px" viewBox="0 0 170 190" version="1.1" xmlns="http://www.w3.org/2000/svg" xmlns:xlink="http://www.w3.org/1999/xlink">
    <!-- Generator: Sketch 46.2 (44496) - http://www.bohemiancoding.com/sketch -->
    <title>pinax-messages</title>
    <desc>Created with Sketch.</desc>
    <defs>
        <path d="M86.5,2.88675135 L158,44.1672956 L158,44.1672956 C161.094011,45.9536235 163,49.2548937 163,52.8275496 L163,135.388638 L163,135.388638 C163,138.961294 161.094011,142.262564 158,144.048892 L86.5,185.329436 L86.5,185.329436 C83.4059892,187.115764 79.5940108,187.115764 76.5,185.329436 L5,144.048892 L5,144.048892 C1.90598923,142.262564 7.10542736e-14,138.961294 6.03961325e-14,135.388638 L-5.32907052e-15,52.8275496 L3.55271368e-15,52.8275496 C7.10542736e-15,49.2548937 1.90598923,45.9536235 5,44.1672956 L76.5,2.88675135 L76.5,2.88675135 C79.5940108,1.1004234 83.4059892,1.1004234 86.5,2.88675135 Z" id="path-1"></path>
    </defs>
    <g id="Page-2" stroke="none" stroke-width="1" fill="none" fill-rule="evenodd">
        <g id="pinax-messages">
            <g transform="translate(4.000000, 1.000000)">
                <g id="Polygon-Copy-16">
                    <use fill="#CED3EC" fill-rule="evenodd" xlink:href="#path-1"></use>
                    <path stroke="#3F51B5" stroke-width="15" d="M82.75,9.38194187 C81.9764973,8.93535989 81.0235027,8.93535989 80.25,9.38194187 L8.75,50.6624861 C7.97649731,51.1090681 7.5,51.9343857 7.5,52.8275496 L7.5,135.388638 C7.5,136.281802 7.97649731,137.10712 8.75,137.553702 L80.25,178.834246 C81.0235027,179.280828 81.9764973,179.280828 82.75,178.834246 L154.25,137.553702 C155.023503,137.10712 155.5,136.281802 155.5,135.388638 L155.5,52.8275496 C155.5,51.9343857 155.023503,51.1090681 154.25,50.6624861 L82.75,9.38194187 Z"></path>
                </g>
                <path d="M125.482475,88.2437411 C125.482475,93.9066975 123.529761,99.1383446 119.624274,103.938839 C115.718787,108.739334 110.413913,112.530854 103.709493,115.313514 C97.0050735,118.096173 89.6823949,119.487482 81.7412376,119.487482 C79.4630368,119.487482 77.103507,119.357301 74.6625775,119.096936 C68.2185237,124.792438 60.7331189,128.730411 52.2061386,130.910975 C50.611398,131.366615 48.7563194,131.724613 46.6408472,131.984979 C46.0875698,132.05007 45.5912549,131.903617 45.1518876,131.545614 C44.7125203,131.187611 44.4277495,130.715705 44.2975666,130.129882 C44.1999294,129.95088 44.1917931,129.755609 44.2731574,129.495243 C44.3545217,129.234877 44.387067,129.072151 44.3707941,129.00706 C44.3545212,128.941968 44.427748,128.787378 44.5904766,128.543285 L44.8833867,128.10392 C44.9159324,128.055102 45.0298408,127.916784 45.2251151,127.688964 C45.4203895,127.461144 45.5505705,127.314691 45.6156619,127.249599 C45.843482,126.989233 46.3479332,126.427828 47.1290306,125.565366 C47.9101281,124.702905 48.4715334,124.084545 48.8132635,123.710269 C49.1549937,123.335993 49.6594449,122.693225 50.3266322,121.781945 C50.9938196,120.870664 51.5226798,120.040761 51.9132285,119.292209 C52.3037772,118.543657 52.7431379,117.583573 53.2313238,116.411927 C53.7195097,115.24028 54.1425978,114.003561 54.5006008,112.701732 C49.3909217,109.805163 45.3634485,106.225186 42.4180603,101.961696 C39.472672,97.6982061 38,93.1256001 38,88.2437411 C38,84.0127967 39.155356,79.9690509 41.4661025,76.1123823 C43.7768491,72.2557137 46.8849194,68.9279631 50.7904065,66.1290306 C54.6958937,63.3300981 59.3498628,61.1088856 64.7524534,59.4653264 C70.1550439,57.8217673 75.8179154,57 81.7412376,57 C89.6823949,57 97.0050735,58.3913089 103.709493,61.1739685 C110.413913,63.9566282 115.718787,67.7481484 119.624274,72.5486431 C123.529761,77.3491377 125.482475,82.5807848 125.482475,88.2437411 Z" fill="#3F51B5"></path>
            </g>
        </g>
    </g>
</svg>