<?xml version="1.0" encoding="UTF-8"?>
<svg width="170px" height="186px" viewBox="0 0 170 186" version="1.1" xmlns="http://www.w3.org/2000/svg" xmlns:xlink="http://www.w3.org/1999/xlink">
    <!-- Generator: Sketch 48.2 (47327) - http://www.bohemiancoding.com/sketch -->
    <title>pinax-news</title>
    <desc>Created with Sketch.</desc>
    <defs>
        <path d="M92.3173204,4.08909079 L162.31732,43.2067379 C167.060996,45.8576154 170,50.8667748 170,56.3008901 L170,133.69911 C170,139.133225 167.060996,144.142385 162.31732,146.793262 L92.3173204,185.910909 C87.7700345,188.45204 82.2299655,188.45204 77.6826796,185.910909 L7.68267964,146.793262 C2.93900409,144.142385 -3.55271368e-15,139.133225 -3.55271368e-15,133.69911 L-1.0658141e-14,56.3008901 C-1.59872116e-14,50.8667748 2.93900409,45.8576154 7.68267964,43.2067379 L77.6826796,4.08909079 C82.2299655,1.54796043 87.7700345,1.54796043 92.3173204,4.08909079 Z" id="path-1"></path>
    </defs>
    <g id="Hexagons" stroke="none" stroke-width="1" fill="none" fill-rule="evenodd" transform="translate(-464.000000, -457.000000)">
        <g id="pinax-news" transform="translate(464.000000, 455.000000)">
            <g>
                <g id="Badge">
                    <use fill="#D8CDEC" fill-rule="evenodd" xlink:href="#path-1"></use>
                    <path stroke="#673AB7" stroke-width="15" d="M88.6586602,10.6361669 C86.3850172,9.36560173 83.6149828,9.36560173 81.3413398,10.6361669 L11.3413398,49.753814 C8.96950205,51.0792527 7.5,53.5838324 7.5,56.3008901 L7.5,133.69911 C7.5,136.416168 8.96950205,138.920747 11.3413398,140.246186 L81.3413398,179.363833 C83.6149828,180.634398 86.3850172,180.634398 88.6586602,179.363833 L158.65866,140.246186 C161.030498,138.920747 162.5,136.416168 162.5,133.69911 L162.5,56.3008901 C162.5,53.5838324 161.030498,51.0792527 158.65866,49.753814 L88.6586602,10.6361669 Z"></path>
                </g>
                <path d="M128.562716,64 C129.656469,64 130.586157,64.3828117 131.351785,65.1484375 C132.117413,65.9140633 132.500225,66.8437492 132.500225,67.9375 L132.500225,123.0625 C132.500225,124.156251 132.117413,125.085937 131.351785,125.851562 C130.586157,126.617188 129.656469,127 128.562716,127 L45.8750188,127 C43.6875144,127 41.8281333,126.234374 40.2968805,124.703125 C38.7656277,123.171876 38,121.312499 38,119.125 L38,73.1875 C38,72.0937492 38.3828126,71.1640633 39.1484402,70.3984375 C39.9140679,69.6328117 40.8437559,69.25 41.9375094,69.25 L48.500025,69.25 L48.500025,67.9375 C48.500025,66.8437492 48.8828376,65.9140633 49.6484653,65.1484375 C50.4140929,64.3828117 51.343781,64 52.4375344,64 L128.562716,64 Z M43.25,119.125 C43.25,119.890626 43.4960937,120.519531 43.9882812,121.011719 C44.4804687,121.503906 45.1093742,121.75 45.875,121.75 C46.6406258,121.75 47.2695312,121.503906 47.7617187,121.011719 C48.2539062,120.519531 48.5,119.890626 48.5,119.125 L48.5,74.5 L43.25,74.5 L43.25,119.125 Z M127.25,121.75 L127.25,69.25 L53.75,69.25 L53.75,119.125 C53.75,119.999999 53.5859375,120.875001 53.2578125,121.75 L127.25,121.75 Z M60.96875,106 C60.4218758,106 59.9570304,105.808593 59.5742187,105.425781 C59.1914071,105.04297 59,104.578124 59,104.03125 L59,76.46875 C59,75.9218758 59.1914071,75.4570304 59.5742187,75.0742188 C59.9570304,74.6914071 60.4218758,74.5 60.96875,74.5 L88.53125,74.5 C89.0781242,74.5 89.5429696,74.6914071 89.9257812,75.0742188 C90.3085929,75.4570304 90.5,75.9218758 90.5,76.46875 L90.5,104.03125 C90.5,104.578124 90.3085929,105.04297 89.9257812,105.425781 C89.5429696,105.808593 89.0781242,106 88.53125,106 L60.96875,106 Z M64.25,79.75 L64.25,100.75 L85.25,100.75 L85.25,79.75 L64.25,79.75 Z M59,113.21875 C59,112.671876 59.1914071,112.20703 59.5742187,111.824219 C59.9570304,111.441407 60.4218758,111.25 60.96875,111.25 L88.53125,111.25 C89.0781242,111.25 89.5429696,111.441407 89.9257812,111.824219 C90.3085929,112.20703 90.5,112.671876 90.5,113.21875 L90.5,114.53125 C90.5,115.078124 90.3085929,115.54297 89.9257812,115.925781 C89.5429696,116.308593 89.0781242,116.5 88.53125,116.5 L60.96875,116.5 C60.4218758,116.5 59.9570304,116.308593 59.5742187,115.925781 C59.1914071,115.54297 59,115.078124 59,114.53125 L59,113.21875 Z M95.75,113.21875 C95.75,112.671876 95.9414071,112.20703 96.3242187,111.824219 C96.7070304,111.441407 97.1718758,111.25 97.71875,111.25 L120.03125,111.25 C120.578124,111.25 121.04297,111.441407 121.425781,111.824219 C121.808593,112.20703 122,112.671876 122,113.21875 L122,114.53125 C122,115.078124 121.808593,115.54297 121.425781,115.925781 C121.04297,116.308593 120.578124,116.5 120.03125,116.5 L97.71875,116.5 C97.1718758,116.5 96.7070304,116.308593 96.3242187,115.925781 C95.9414071,115.54297 95.75,115.078124 95.75,114.53125 L95.75,113.21875 Z M95.75,102.71875 C95.75,102.171876 95.9414071,101.70703 96.3242187,101.324219 C96.7070304,100.941407 97.1718758,100.75 97.71875,100.75 L120.03125,100.75 C120.578124,100.75 121.04297,100.941407 121.425781,101.324219 C121.808593,101.70703 122,102.171876 122,102.71875 L122,104.03125 C122,104.578124 121.808593,105.04297 121.425781,105.425781 C121.04297,105.808593 120.578124,106 120.03125,106 L97.71875,106 C97.1718758,106 96.7070304,105.808593 96.3242187,105.425781 C95.9414071,105.04297 95.75,104.578124 95.75,104.03125 L95.75,102.71875 Z M95.75,81.71875 C95.75,81.1718758 95.9414071,80.7070304 96.3242187,80.3242188 C96.7070304,79.9414071 97.1718758,79.75 97.71875,79.75 L120.03125,79.75 C120.578124,79.75 121.04297,79.9414071 121.425781,80.3242188 C121.808593,80.7070304 122,81.1718758 122,81.71875 L122,83.03125 C122,83.5781242 121.808593,84.0429696 121.425781,84.4257812 C121.04297,84.8085929 120.578124,85 120.03125,85 L97.71875,85 C97.1718758,85 96.7070304,84.8085929 96.3242187,84.4257812 C95.9414071,84.0429696 95.75,83.5781242 95.75,83.03125 L95.75,81.71875 Z M95.75,92.21875 C95.75,91.6718758 95.9414071,91.2070304 96.3242187,90.8242188 C96.7070304,90.4414071 97.1718758,90.25 97.71875,90.25 L120.03125,90.25 C120.578124,90.25 121.04297,90.4414071 121.425781,90.8242188 C121.808593,91.2070304 122,91.6718758 122,92.21875 L122,93.53125 C122,94.0781242 121.808593,94.5429696 121.425781,94.9257812 C121.04297,95.3085929 120.578124,95.5 120.03125,95.5 L97.71875,95.5 C97.1718758,95.5 96.7070304,95.3085929 96.3242187,94.9257812 C95.9414071,94.5429696 95.75,94.0781242 95.75,93.53125 L95.75,92.21875 Z" id="Icon" fill="#673AB7"></path>
            </g>
        </g>
    </g>
</svg>