<?xml version="1.0" encoding="UTF-8"?>
<svg width="169px" height="190px" viewBox="0 0 169 190" version="1.1" xmlns="http://www.w3.org/2000/svg" xmlns:xlink="http://www.w3.org/1999/xlink">
    <!-- Generator: Sketch 48.2 (47327) - http://www.bohemiancoding.com/sketch -->
    <title>pinax-waitinglist</title>
    <desc>Created with Sketch.</desc>
    <defs>
        <polygon id="path-1" points="69.2820323 0 138.564065 40 138.564065 120 69.2820323 160 3.19744231e-14 120 -1.24344979e-14 40"></polygon>
    </defs>
    <g id="Hexagons" stroke="none" stroke-width="1" fill="none" fill-rule="evenodd" transform="translate(-466.000000, -875.000000)">
        <g id="pinax-waitinglist" transform="translate(481.000000, 890.000000)">
            <g id="Polygon-Copy-27" stroke-linejoin="round">
                <use fill="#CCF3FF" fill-rule="evenodd" xlink:href="#path-1"></use>
                <path stroke="#00A8DD" stroke-width="15" d="M69.2820323,-8.66025404 L146.064065,35.669873 L146.064065,124.330127 L69.2820323,168.660254 L-7.5,124.330127 L-7.5,35.669873 L69.2820323,-8.66025404 Z"></path>
            </g>
            <g transform="translate(24.000000, 42.000000)">
                <path d="M0.167322835,18.8303571 C0.167322835,17.6994039 0.725064766,17.1339286 1.84055118,17.1339286 L4.8523622,17.1339286 L4.8523622,6.44642857 L4.51771654,6.78571429 C4.40616713,7.125 4.29462027,7.35118961 4.18307087,7.46428571 L3.8484252,7.63392857 C3.06758445,8.4255961 2.28674626,8.4255961 1.50590551,7.63392857 L0.836614173,6.78571429 C0.0557734272,5.88095324 0.0557734272,5.08928571 0.836614173,4.41071429 L4.51771654,0.848214286 C5.07545847,0.282738958 5.74474981,0 6.52559055,0 L8.1988189,0 C9.31430531,0 9.87204724,0.565475328 9.87204724,1.69642857 L9.87204724,17.1339286 L12.8838583,17.1339286 C13.9993447,17.1339286 14.5570866,17.6994039 14.5570866,18.8303571 L14.5570866,20.0178571 C14.5570866,21.1488104 13.9993447,21.7142857 12.8838583,21.7142857 L1.84055118,21.7142857 C0.725064766,21.7142857 0.167322835,21.1488104 0.167322835,20.0178571 L0.167322835,18.8303571 Z M0,46.4821429 C0,44.4464286 0.669291339,42.5803571 2.00787402,40.8839286 C2.78871476,39.9791675 4.12729744,38.8482143 6.02362205,37.4910714 C7.13910846,36.6994039 7.86417323,36.1339286 8.1988189,35.7946429 C8.75656083,35.2291675 9.03543307,34.6354175 9.03543307,34.0133929 C9.03543307,33.3913682 8.81233681,32.9107143 8.36614173,32.5714286 C7.91994666,32.2321429 7.33431673,32.0625 6.60925197,32.0625 C5.8841872,32.0625 5.15911988,32.4300604 4.43405512,33.1651786 C3.70899035,33.9002968 2.9560376,33.9851182 2.17519685,33.4196429 L1.17125984,32.5714286 C0.278872242,31.8928571 0.111549407,31.157739 0.669291339,30.3660714 C2.23097028,28.217261 4.40616713,27.1428571 7.19488189,27.1428571 C9.20275591,27.1428571 10.8759843,27.6517857 12.2145669,28.6696429 C13.664699,29.9136896 14.3897638,31.6101182 14.3897638,33.7589286 C14.3897638,35.5684532 13.7762459,37.1517857 12.5492126,38.5089286 C11.7683719,39.3005961 10.4855652,40.2619039 8.7007874,41.3928571 C7.69685039,42.0714286 7.02755906,42.5803571 6.69291339,42.9196429 C6.02362205,43.3720247 5.68897638,43.8809532 5.68897638,44.4464286 L13.2185039,44.4464286 C14.2224409,44.4464286 14.7244094,44.9553571 14.7244094,45.9732143 L14.7244094,47.1607143 C14.7244094,48.2916675 14.2224409,48.8571429 13.2185039,48.8571429 L1.67322835,48.8571429 C0.557741931,48.8571429 0,48.2916675 0,47.1607143 L0,46.4821429 Z M1.17125984,70.5714286 C1.72900177,69.6666675 2.50984252,69.5252968 3.51377953,70.1473214 C4.51771654,70.7693461 5.49376555,71.0803571 6.44192913,71.0803571 C7.39009271,71.0803571 8.11515748,70.8824396 8.61712598,70.4866071 C9.11909449,70.0907747 9.37007874,69.5535714 9.37007874,68.875 C9.37007874,67.404761 8.08726949,66.6696429 5.52165354,66.6696429 L5.35433071,66.6696429 C4.57348996,66.6696429 3.9599746,66.2738104 3.51377953,65.4821429 L3.51377953,65.1428571 C3.06758445,64.4642857 3.17913386,63.7857143 3.8484252,63.1071429 L5.68897638,60.7321429 L7.52952756,58.6964286 L2.17519685,58.6964286 C1.05971044,58.6964286 0.501968504,58.1875 0.501968504,57.1696429 L0.501968504,55.9821429 C0.501968504,54.8511896 1.05971044,54.2857143 2.17519685,54.2857143 L12.2145669,54.2857143 C13.3300533,54.2857143 13.8877953,54.8511896 13.8877953,55.9821429 L13.8877953,56.3214286 C13.8877953,57.1130961 13.608923,57.7916675 13.0511811,58.3571429 L9.53740157,62.5982143 C11.0990805,62.9375 12.3261163,63.6726182 13.2185039,64.8035714 C14.1108915,65.9345247 14.5570866,67.2351182 14.5570866,68.7053571 C14.5570866,70.7410714 13.8877953,72.4657747 12.5492126,73.8794643 C11.2106299,75.2931539 9.37007874,76 7.02755906,76 C4.68503937,76 2.62139193,75.3779753 0.836614173,74.1339286 C-0.0557734272,73.5684532 -0.167322835,72.8333325 0.501968504,71.9285714 L1.17125984,70.5714286 Z M85,12.8928571 C85,13.1190468 84.8884506,13.345239 84.6653543,13.5714286 C84.4422581,13.7976182 84.2191593,13.9107143 83.996063,13.9107143 L21.7519685,13.9107143 C21.5288722,13.9107143 21.3057734,13.7976182 21.0826772,13.5714286 C20.8595809,13.345239 20.7480315,13.1190468 20.7480315,12.8928571 L20.7480315,8.82142857 C20.7480315,8.59523896 20.8595809,8.36904676 21.0826772,8.14285714 C21.3057734,7.91666753 21.5288722,7.80357143 21.7519685,7.80357143 L83.996063,7.80357143 C84.2191593,7.80357143 84.4422581,7.91666753 84.6653543,8.14285714 C84.8884506,8.36904676 85,8.59523896 85,8.82142857 L85,12.8928571 Z M85,40.0357143 C85,40.2619039 84.8884506,40.4880961 84.6653543,40.7142857 C84.4422581,40.9404753 84.2191593,41.0535714 83.996063,41.0535714 L21.7519685,41.0535714 C21.5288722,41.0535714 21.3057734,40.9404753 21.0826772,40.7142857 C20.8595809,40.4880961 20.7480315,40.2619039 20.7480315,40.0357143 L20.7480315,35.9642857 C20.7480315,35.7380961 20.8595809,35.5119039 21.0826772,35.2857143 C21.3057734,35.0595247 21.5288722,34.9464286 21.7519685,34.9464286 L83.996063,34.9464286 C84.2191593,34.9464286 84.4422581,35.0595247 84.6653543,35.2857143 C84.8884506,35.5119039 85,35.7380961 85,35.9642857 L85,40.0357143 Z M85,67.1785714 C85,67.404761 84.8884506,67.6309532 84.6653543,67.8571429 C84.4422581,68.0833325 84.2191593,68.1964286 83.996063,68.1964286 L21.7519685,68.1964286 C21.5288722,68.1964286 21.3057734,68.0833325 21.0826772,67.8571429 C20.8595809,67.6309532 20.7480315,67.404761 20.7480315,67.1785714 L20.7480315,63.1071429 C20.7480315,62.8809532 20.8595809,62.654761 21.0826772,62.4285714 C21.3057734,62.2023818 21.5288722,62.0892857 21.7519685,62.0892857 L83.996063,62.0892857 C84.2191593,62.0892857 84.4422581,62.2023818 84.6653543,62.4285714 C84.8884506,62.654761 85,62.8809532 85,63.1071429 L85,67.1785714 Z" id="pinax-referrals-copy-6" fill="#00A8DD"></path>
                <g id="Group-2" fill="#29BF12">
                    <path d="M0.167322835,18.8303571 C0.167322835,17.6994039 0.725064766,17.1339286 1.84055118,17.1339286 L4.8523622,17.1339286 L4.8523622,6.44642857 L4.51771654,6.78571429 C4.40616713,7.125 4.29462027,7.35118961 4.18307087,7.46428571 L3.8484252,7.63392857 C3.06758445,8.4255961 2.28674626,8.4255961 1.50590551,7.63392857 L0.836614173,6.78571429 C0.0557734272,5.88095324 0.0557734272,5.08928571 0.836614173,4.41071429 L4.51771654,0.848214286 C5.07545847,0.282738958 5.74474981,0 6.52559055,0 L8.1988189,0 C9.31430531,0 9.87204724,0.565475328 9.87204724,1.69642857 L9.87204724,17.1339286 L12.8838583,17.1339286 C13.9993447,17.1339286 14.5570866,17.6994039 14.5570866,18.8303571 L14.5570866,20.0178571 C14.5570866,21.1488104 13.9993447,21.7142857 12.8838583,21.7142857 L1.84055118,21.7142857 C0.725064766,21.7142857 0.167322835,21.1488104 0.167322835,20.0178571 L0.167322835,18.8303571 Z" id="Path-Copy-3"></path>
                    <path d="M85,12.8928571 C85,13.1190468 84.8884506,13.345239 84.6653543,13.5714286 C84.4422581,13.7976182 84.2191593,13.9107143 83.996063,13.9107143 L21.7519685,13.9107143 C21.5288722,13.9107143 21.3057734,13.7976182 21.0826772,13.5714286 C20.8595809,13.345239 20.7480315,13.1190468 20.7480315,12.8928571 L20.7480315,8.82142857 C20.7480315,8.59523896 20.8595809,8.36904676 21.0826772,8.14285714 C21.3057734,7.91666753 21.5288722,7.80357143 21.7519685,7.80357143 L83.996063,7.80357143 C84.2191593,7.80357143 84.4422581,7.91666753 84.6653543,8.14285714 C84.8884506,8.36904676 85,8.59523896 85,8.82142857 L85,12.8928571 Z" id="Path-Copy-2"></path>
                </g>
                <g id="Group" transform="translate(43.000000, 26.000000)">
                    <path d="M46.4210526,24.5 C46.4210526,20.5082039 45.4400174,16.8377802 43.4779483,13.4887305 C41.5158793,10.1396808 38.8434043,7.48412067 35.4605263,5.52205166 C32.0776483,3.55998265 28.4072247,2.57894737 24.4492568,2.57894737 C20.491289,2.57894737 16.8377802,3.55998265 13.4887305,5.52205166 C10.1396808,7.48412067 7.48412067,10.1565957 5.52205166,13.5394737 C3.55998265,16.9223517 2.57894737,20.5927753 2.57894737,24.5507432 C2.57894737,28.508711 3.55998265,32.1622198 5.52205166,35.5112695 C7.48412067,38.8603192 10.1565957,41.5158793 13.5394737,43.4779483 C16.9223517,45.4400174 20.5927753,46.4210526 24.5507432,46.4210526 C28.508711,46.4210526 32.1622198,45.4400174 35.5112695,43.4779483 C38.8603192,41.5158793 41.5158793,38.8434043 43.4779483,35.4605263 C45.4400174,32.0776483 46.4210526,28.4241396 46.4210526,24.5 Z" id="Path" fill="#FFFFFF"></path>
                    <path d="M24.5,0 C28.9126349,0 32.9959677,1.1031591 36.75,3.30947581 C40.5040323,5.51579251 43.4842075,8.49596774 45.6905242,12.25 C47.8968409,16.0040323 49,20.0873651 49,24.5 C49,28.9126349 47.8968409,32.9959677 45.6905242,36.75 C43.4842075,40.5040323 40.5040323,43.4842075 36.75,45.6905242 C32.9959677,47.8968409 28.9126349,49 24.5,49 C20.0873651,49 16.0040323,47.8968409 12.25,45.6905242 C8.49596774,43.4842075 5.51579251,40.5040323 3.30947581,36.75 C1.1031591,32.9959677 0,28.9126349 0,24.5 C0,20.0873651 1.1031591,16.0040323 3.30947581,12.25 C5.51579251,8.49596774 8.49596774,5.51579251 12.25,3.30947581 C16.0040323,1.1031591 20.0873651,0 24.5,0 Z M45.8387097,24.5 C45.8387097,20.6142478 44.8837361,17.0413306 42.9737903,13.78125 C41.0638446,10.5211694 38.4623651,7.93615541 35.1693548,6.02620968 C31.8763446,4.11626394 28.3034274,3.16129032 24.4506048,3.16129032 C20.5977823,3.16129032 17.0413306,4.11626394 13.78125,6.02620968 C10.5211694,7.93615541 7.93615541,10.5376349 6.02620968,13.8306452 C4.11626394,17.1236554 3.16129032,20.6965726 3.16129032,24.5493952 C3.16129032,28.4022177 4.11626394,31.9586694 6.02620968,35.21875 C7.93615541,38.4788306 10.5376349,41.0638446 13.8306452,42.9737903 C17.1236554,44.8837361 20.6965726,45.8387097 24.5493952,45.8387097 C28.4022177,45.8387097 31.9586694,44.8837361 35.21875,42.9737903 C38.4788306,41.0638446 41.0638446,38.4623651 42.9737903,35.1693548 C44.8837361,31.8763446 45.8387097,28.319893 45.8387097,24.5 Z M23.1169355,27.3649194 C22.7876349,27.1673387 22.6229839,26.8709677 22.6229839,26.4758065 L22.6229839,10.6693548 C22.6229839,10.3400543 22.7382397,10.0601473 22.96875,9.8296371 C23.1992603,9.59912685 23.4791672,9.48387097 23.8084677,9.48387097 L25.1915323,9.48387097 C25.5208328,9.48387097 25.8007397,9.59912685 26.03125,9.8296371 C26.2617603,10.0601473 26.3770161,10.3400543 26.3770161,10.6693548 L26.3770161,25.0927419 L33.391129,30.2298387 C33.6545704,30.4274194 33.8027559,30.6743952 33.8356855,30.9707661 C33.8686151,31.2671371 33.7862903,31.5470425 33.5887097,31.8104839 L32.7983871,32.9959677 C32.6008065,33.2594091 32.3373651,33.4075946 32.0080645,33.4405242 C31.6787639,33.4734538 31.382393,33.391129 31.1189516,33.1935484 L23.1169355,27.3649194 Z" id="pinax-referrals-copy-7" fill="#0083AB"></path>
                </g>
            </g>
        </g>
    </g>
</svg>