<?xml version="1.0" encoding="UTF-8"?>
<svg width="169px" height="190px" viewBox="0 0 169 190" version="1.1" xmlns="http://www.w3.org/2000/svg" xmlns:xlink="http://www.w3.org/1999/xlink">
    <!-- Generator: Sketch 46.2 (44496) - http://www.bohemiancoding.com/sketch -->
    <title>pinax-notifications</title>
    <desc>Created with Sketch.</desc>
    <defs>
        <path d="M86.5,2.88675135 L158,44.1672956 L158,44.1672956 C161.094011,45.9536235 163,49.2548937 163,52.8275496 L163,135.388638 L163,135.388638 C163,138.961294 161.094011,142.262564 158,144.048892 L86.5,185.329436 L86.5,185.329436 C83.4059892,187.115764 79.5940108,187.115764 76.5,185.329436 L5,144.048892 L5,144.048892 C1.90598923,142.262564 1.27897692e-13,138.961294 1.17239551e-13,135.388638 L5.15143483e-14,52.8275496 L6.03961325e-14,52.8275496 C6.39488462e-14,49.2548937 1.90598923,45.9536235 5,44.1672956 L76.5,2.88675135 L76.5,2.88675135 C79.5940108,1.1004234 83.4059892,1.1004234 86.5,2.88675135 Z" id="path-1"></path>
    </defs>
    <g id="Page-2" stroke="none" stroke-width="1" fill="none" fill-rule="evenodd">
        <g id="pinax-notifications">
            <g transform="translate(3.000000, 1.000000)">
                <g id="Polygon-Copy-14">
                    <use fill="#E6C8EB" fill-rule="evenodd" xlink:href="#path-1"></use>
                    <path stroke="#9C27B0" stroke-width="15" d="M82.75,9.38194187 C81.9764973,8.93535989 81.0235027,8.93535989 80.25,9.38194187 L8.75,50.6624861 C7.97649731,51.1090681 7.5,51.9343857 7.5,52.8275496 L7.5,135.388638 C7.5,136.281802 7.97649731,137.10712 8.75,137.553702 L80.25,178.834246 C81.0235027,179.280828 81.9764973,179.280828 82.75,178.834246 L154.25,137.553702 C155.023503,137.10712 155.5,136.281802 155.5,135.388638 L155.5,52.8275496 C155.5,51.9343857 155.023503,51.1090681 154.25,50.6624861 L82.75,9.38194187 Z"></path>
                </g>
                <path d="M82.4910714,127.982143 C82.4910714,127.535712 82.2678594,127.3125 81.8214286,127.3125 C80.175215,127.3125 78.7592135,126.719593 77.5733817,125.533761 C76.3875499,124.347929 75.7946429,122.931928 75.7946429,121.285714 C75.7946429,120.839283 75.5714308,120.616071 75.125,120.616071 C74.6785692,120.616071 74.4553571,120.839283 74.4553571,121.285714 C74.4553571,123.322555 75.1738209,125.059424 76.6107701,126.496373 C78.0477192,127.933322 79.784588,128.651786 81.8214286,128.651786 C82.2678594,128.651786 82.4910714,128.428574 82.4910714,127.982143 Z M116.642857,115.928571 C116.642857,117.379472 116.112729,118.635039 115.052455,119.695312 C113.992182,120.755586 112.736614,121.285714 111.285714,121.285714 L92.5357143,121.285714 C92.5357143,124.243318 91.4894078,126.768405 89.3967634,128.861049 C87.304119,130.953693 84.7790326,132 81.8214286,132 C78.8638245,132 76.3387381,130.953693 74.2460938,128.861049 C72.1534494,126.768405 71.1071429,124.243318 71.1071429,121.285714 L52.3571429,121.285714 C50.9062427,121.285714 49.6506749,120.755586 48.5904018,119.695312 C47.5301286,118.635039 47,117.379472 47,115.928571 C48.3950963,114.756691 49.6646148,113.529024 50.8085938,112.245536 C51.9525727,110.962047 53.1383867,109.294932 54.3660714,107.244141 C55.5937561,105.193349 56.6330873,102.982155 57.484096,100.610491 C58.3351047,98.2388274 59.0326424,95.3649722 59.5767299,91.9888393 C60.1208175,88.6127063 60.3928571,84.9855105 60.3928571,81.1071429 C60.3928571,76.8660502 62.0250953,72.9249624 65.2896205,69.2837612 C68.5541458,65.6425599 72.8370271,63.4313655 78.1383929,62.6501116 C77.9151775,62.119975 77.8035714,61.5758956 77.8035714,61.0178571 C77.8035714,59.9017801 78.1941925,58.9531289 78.9754464,58.171875 C79.7567003,57.3906211 80.7053516,57 81.8214286,57 C82.9375056,57 83.8861568,57.3906211 84.6674107,58.171875 C85.4486646,58.9531289 85.8392857,59.9017801 85.8392857,61.0178571 C85.8392857,61.5758956 85.7276797,62.119975 85.5044643,62.6501116 C90.8058301,63.4313655 95.0887114,65.6425599 98.3532366,69.2837612 C101.617762,72.9249624 103.25,76.8660502 103.25,81.1071429 C103.25,84.9855105 103.52204,88.6127063 104.066127,91.9888393 C104.610215,95.3649722 105.307752,98.2388274 106.158761,100.610491 C107.00977,102.982155 108.049101,105.193349 109.276786,107.244141 C110.50447,109.294932 111.690284,110.962047 112.834263,112.245536 C113.978242,113.529024 115.247761,114.756691 116.642857,115.928571 Z" fill="#9C27B0"></path>
            </g>
        </g>
    </g>
</svg>