<?xml version="1.0" encoding="UTF-8"?>
<svg width="170px" height="186px" viewBox="0 0 170 186" version="1.1" xmlns="http://www.w3.org/2000/svg" xmlns:xlink="http://www.w3.org/1999/xlink">
    <!-- Generator: Sketch 48.2 (47327) - http://www.bohemiancoding.com/sketch -->
    <title>pinax-ratings</title>
    <desc>Created with Sketch.</desc>
    <defs>
        <path d="M92.3173204,4.08909079 L162.31732,43.2067379 C167.060996,45.8576154 170,50.8667748 170,56.3008901 L170,133.69911 C170,139.133225 167.060996,144.142385 162.31732,146.793262 L92.3173204,185.910909 C87.7700345,188.45204 82.2299655,188.45204 77.6826796,185.910909 L7.68267964,146.793262 C2.93900409,144.142385 -3.55271368e-15,139.133225 -3.55271368e-15,133.69911 L-1.0658141e-14,56.3008901 C-1.59872116e-14,50.8667748 2.93900409,45.8576154 7.68267964,43.2067379 L77.6826796,4.08909079 C82.2299655,1.54796043 87.7700345,1.54796043 92.3173204,4.08909079 Z" id="path-1"></path>
    </defs>
    <g id="Hexagons" stroke="none" stroke-width="1" fill="none" fill-rule="evenodd" transform="translate(-44.000000, -667.000000)">
        <g id="pinax-ratings" transform="translate(44.000000, 665.000000)">
            <g>
                <g id="Badge">
                    <use fill="#607D8B" fill-rule="evenodd" xlink:href="#path-1"></use>
                    <path stroke="#FFEB3B" stroke-width="15" d="M88.6586602,10.6361669 C86.3850172,9.36560173 83.6149828,9.36560173 81.3413398,10.6361669 L11.3413398,49.753814 C8.96950205,51.0792527 7.5,53.5838324 7.5,56.3008901 L7.5,133.69911 C7.5,136.416168 8.96950205,138.920747 11.3413398,140.246186 L81.3413398,179.363833 C83.6149828,180.634398 86.3850172,180.634398 88.6586602,179.363833 L158.65866,140.246186 C161.030498,138.920747 162.5,136.416168 162.5,133.69911 L162.5,56.3008901 C162.5,53.5838324 161.030498,51.0792527 158.65866,49.753814 L88.6586602,10.6361669 Z"></path>
                </g>
                <path d="M80.2022701,56.8828131 C80.8428951,55.6015631 81.7771391,54.7473973 83.0050044,54.3203131 C84.2328698,53.893229 85.4607328,53.893229 86.6885982,54.3203131 C87.9164636,54.7473973 88.8507075,55.6015631 89.4913325,56.8828131 L99.9014887,78.0234379 L123.284301,81.3867192 C124.672323,81.60026 125.766723,82.240885 126.567504,83.3085941 C127.368285,84.3763033 127.741982,85.5507816 127.688598,86.8320316 C127.635213,88.1132816 127.128051,89.2343753 126.167113,90.1953128 L109.190551,106.691406 L113.194457,130.074219 C113.407998,131.355469 113.167764,132.556641 112.473754,133.677734 C111.779745,134.798828 110.792114,135.519531 109.510864,135.839844 C108.229614,136.160156 107.001748,136 105.82727,135.359375 L84.8468013,124.46875 L63.8663327,135.359375 C62.6918544,136 61.463989,136.160156 60.182739,135.839844 C58.901489,135.519531 57.913858,134.798828 57.2198484,133.677734 C56.5258388,132.556641 56.2856044,131.355469 56.4991453,130.074219 L60.5030515,106.691406 L43.5264891,90.1953128 C42.5655516,89.2343753 42.0583894,88.1132816 42.0050047,86.8320316 C41.9516201,85.5507816 42.3253172,84.3763033 43.1260985,83.3085941 C43.9268797,82.240885 45.02128,81.60026 46.4093016,81.3867192 L69.7921139,78.0234379 L80.2022701,56.8828131 Z" id="Icon" fill="#FFEB3B"></path>
            </g>
        </g>
    </g>
</svg>