<?xml version="1.0" encoding="UTF-8"?>
<svg width="170px" height="186px" viewBox="0 0 170 186" version="1.1" xmlns="http://www.w3.org/2000/svg" xmlns:xlink="http://www.w3.org/1999/xlink">
    <!-- Generator: Sketch 48.2 (47327) - http://www.bohemiancoding.com/sketch -->
    <title>pinax-forums</title>
    <desc>Created with Sketch.</desc>
    <defs>
        <path d="M92.3173204,4.08909079 L162.31732,43.2067379 C167.060996,45.8576154 170,50.8667748 170,56.3008901 L170,133.69911 C170,139.133225 167.060996,144.142385 162.31732,146.793262 L92.3173204,185.910909 C87.7700345,188.45204 82.2299655,188.45204 77.6826796,185.910909 L7.68267964,146.793262 C2.93900409,144.142385 6.75015599e-14,139.133225 6.75015599e-14,133.69911 L6.03961325e-14,56.3008901 C5.5067062e-14,50.8667748 2.93900409,45.8576154 7.68267964,43.2067379 L77.6826796,4.08909079 C82.2299655,1.54796043 87.7700345,1.54796043 92.3173204,4.08909079 Z" id="path-1"></path>
    </defs>
    <g id="Hexagons" stroke="none" stroke-width="1" fill="none" fill-rule="evenodd" transform="translate(-884.000000, -247.000000)">
        <g id="pinax-forums" transform="translate(884.000000, 245.000000)">
            <g>
                <g id="Badge">
                    <use fill="#BEEEF4" fill-rule="evenodd" xlink:href="#path-1"></use>
                    <path stroke="#00BCD4" stroke-width="15" d="M88.6586602,10.6361669 C86.3850172,9.36560173 83.6149828,9.36560173 81.3413398,10.6361669 L11.3413398,49.753814 C8.96950205,51.0792527 7.5,53.5838324 7.5,56.3008901 L7.5,133.69911 C7.5,136.416168 8.96950205,138.920747 11.3413398,140.246186 L81.3413398,179.363833 C83.6149828,180.634398 86.3850172,180.634398 88.6586602,179.363833 L158.65866,140.246186 C161.030498,138.920747 162.5,136.416168 162.5,133.69911 L162.5,56.3008901 C162.5,53.5838324 161.030498,51.0792527 158.65866,49.753814 L88.6586602,10.6361669 Z"></path>
                </g>
                <path d="M132.305742,92.9642857 C132.305742,98.9866071 130.271884,104.507068 126.204165,109.52567 C122.136447,114.544272 116.589558,118.532737 109.563501,121.491071 C102.537443,124.449406 94.9038676,125.928571 86.6627765,125.928571 C79.1612713,125.928571 72.0823846,124.660714 65.4261188,122.125 C58.9811621,127.196429 51.4796569,130.154763 42.9216008,131 C42.49898,131 42.1027737,130.894344 41.7329819,130.683036 C41.3631902,130.471727 41.1254664,130.154763 41.0198106,129.732143 C40.9141548,129.309523 41.2311198,128.728423 41.9707057,127.988839 L43.2385659,126.879464 C45.1403561,125.188987 46.5138721,123.656995 47.3591114,122.283482 C48.7326274,119.853423 49.7363492,116.736607 50.3702793,112.933036 C47.4119381,110.080357 45.1139416,106.963541 43.4762896,103.582589 C41.8386377,100.201638 41.0198106,96.6622016 41.0198106,92.9642857 C41.0198106,86.9419643 43.0800833,81.4215038 47.2006289,76.4029018 C51.3211744,71.3842998 56.8680626,67.3958341 63.8412935,64.4375 C70.8145245,61.4791659 78.4216854,60 86.6627765,60 C94.9038676,60 102.511029,61.4791659 109.484259,64.4375 C116.45749,67.3958341 122.004379,71.3842998 126.124924,76.4029018 C130.24547,81.4215038 132.305742,86.9419643 132.305742,92.9642857 Z M66.3769534,85.3571429 C64.263859,85.3571429 62.4677264,86.096727 60.9885605,87.5758929 C59.5093947,89.0550587 58.7698105,90.8511913 58.7698105,92.9642857 C58.7698105,95.0773801 59.5093947,96.8735127 60.9885605,98.3526786 C62.4677264,99.8318444 64.263859,100.571429 66.3769534,100.571429 C68.4900478,100.571429 70.2861804,99.8318444 71.7653462,98.3526786 C73.2445121,96.8735127 73.9840962,95.0773801 73.9840962,92.9642857 C73.9840962,90.8511913 73.2445121,89.0550587 71.7653462,87.5758929 C70.2861804,86.096727 68.4900478,85.3571429 66.3769534,85.3571429 Z M86.6626677,85.3571429 C84.5495732,85.3571429 82.7534407,86.096727 81.2742748,87.5758929 C79.795109,89.0550587 79.0555248,90.8511913 79.0555248,92.9642857 C79.0555248,95.0773801 79.795109,96.8735127 81.2742748,98.3526786 C82.7534407,99.8318444 84.5495732,100.571429 86.6626677,100.571429 C88.7757621,100.571429 90.5718947,99.8318444 92.0510605,98.3526786 C93.5302264,96.8735127 94.2698105,95.0773801 94.2698105,92.9642857 C94.2698105,90.8511913 93.5302264,89.0550587 92.0510605,87.5758929 C90.5718947,86.096727 88.7757621,85.3571429 86.6626677,85.3571429 Z M106.948382,85.3571429 C104.835288,85.3571429 103.039155,86.096727 101.559989,87.5758929 C100.080823,89.0550587 99.3412391,90.8511913 99.3412391,92.9642857 C99.3412391,95.0773801 100.080823,96.8735127 101.559989,98.3526786 C103.039155,99.8318444 104.835288,100.571429 106.948382,100.571429 C109.061476,100.571429 110.857609,99.8318444 112.336775,98.3526786 C113.815941,96.8735127 114.555525,95.0773801 114.555525,92.9642857 C114.555525,90.8511913 113.815941,89.0550587 112.336775,87.5758929 C110.857609,86.096727 109.061476,85.3571429 106.948382,85.3571429 Z" id="Icon" fill="#00BCD4"></path>
            </g>
        </g>
    </g>
</svg>