<?xml version="1.0" encoding="UTF-8"?>
<svg width="170px" height="186px" viewBox="0 0 170 186" version="1.1" xmlns="http://www.w3.org/2000/svg" xmlns:xlink="http://www.w3.org/1999/xlink">
    <!-- Generator: Sketch 48.2 (47327) - http://www.bohemiancoding.com/sketch -->
    <title>pinax-ratings</title>
    <desc>Created with Sketch.</desc>
    <defs>
        <path d="M92.3173204,4.08909079 L162.31732,43.2067379 C167.060996,45.8576154 170,50.8667748 170,56.3008901 L170,133.69911 C170,139.133225 167.060996,144.142385 162.31732,146.793262 L92.3173204,185.910909 C87.7700345,188.45204 82.2299655,188.45204 77.6826796,185.910909 L7.68267964,146.793262 C2.93900409,144.142385 -3.55271368e-15,139.133225 -3.55271368e-15,133.69911 L-1.0658141e-14,56.3008901 C-1.59872116e-14,50.8667748 2.93900409,45.8576154 7.68267964,43.2067379 L77.6826796,4.08909079 C82.2299655,1.54796043 87.7700345,1.54796043 92.3173204,4.08909079 Z" id="path-1"></path>
    </defs>
    <g id="Hexagons" stroke="none" stroke-width="1" fill="none" fill-rule="evenodd" transform="translate(-44.000000, -667.000000)">
        <g id="pinax-ratings" transform="translate(44.000000, 665.000000)">
            <g>
                <g id="Badge">
                    <use fill="#607D8B" fill-rule="evenodd" xlink:href="#path-1"></use>
                    <path stroke="#FFEB3B" stroke-width="15" d="M88.6586602,10.6361669 C86.3850172,9.36560173 83.6149828,9.36560173 81.3413398,10.6361669 L11.3413398,49.753814 C8.96950205,51.0792527 7.5,53.5838324 7.5,56.3008901 L7.5,133.69911 C7.5,136.416168 8.96950205,138.920747 11.3413398,140.246186 L81.3413398,179.363833 C83.6149828,180.634398 86.3850172,180.634398 88.6586602,179.363833 L158.65866,140.246186 C161.030498,138.920747 162.5,136.416168 162.5,133.69911 L162.5,56.3008901 C162.5,53.5838324 161.030498,51.0792527 158.65866,49.753814 L88.6586602,10.6361669 Z"></path>
                </g>
                <path d="M81.2022701,56.8828131 C81.8428951,55.6015631 82.7771391,54.7473973 84.0050044,54.3203131 C85.2328698,53.893229 86.4607328,53.893229 87.6885982,54.3203131 C88.9164636,54.7473973 89.8507075,55.6015631 90.4913325,56.8828131 L100.901489,78.0234379 L124.284301,81.3867192 C125.672323,81.60026 126.766723,82.240885 127.567504,83.3085941 C128.368285,84.3763033 128.741982,85.5507816 128.688598,86.8320316 C128.635213,88.1132816 128.128051,89.2343753 127.167113,90.1953128 L110.190551,106.691406 L114.194457,130.074219 C114.407998,131.355469 114.167764,132.556641 113.473754,133.677734 C112.779745,134.798828 111.792114,135.519531 110.510864,135.839844 C109.229614,136.160156 108.001748,136 106.82727,135.359375 L85.8468013,124.46875 L64.8663327,135.359375 C63.6918544,136 62.463989,136.160156 61.182739,135.839844 C59.901489,135.519531 58.913858,134.798828 58.2198484,133.677734 C57.5258388,132.556641 57.2856044,131.355469 57.4991453,130.074219 L61.5030515,106.691406 L44.5264891,90.1953128 C43.5655516,89.2343753 43.0583894,88.1132816 43.0050047,86.8320316 C42.9516201,85.5507816 43.3253172,84.3763033 44.1260985,83.3085941 C44.9268797,82.240885 46.02128,81.60026 47.4093016,81.3867192 L70.7921139,78.0234379 L81.2022701,56.8828131 Z" id="Icon" fill="#FFEB3B"></path>
            </g>
        </g>
    </g>
</svg>