<?xml version="1.0" encoding="UTF-8"?>
<svg width="170px" height="190px" viewBox="0 0 170 190" version="1.1" xmlns="http://www.w3.org/2000/svg" xmlns:xlink="http://www.w3.org/1999/xlink">
    <!-- Generator: Sketch 48.2 (47327) - http://www.bohemiancoding.com/sketch -->
    <title>pinax-eventlog</title>
    <desc>Created with Sketch.</desc>
    <defs>
        <polygon id="path-1" points="70 0 139.282032 40 139.282032 120 70 160 0.717967697 120 0.717967697 40"></polygon>
    </defs>
    <g id="Hexagons" stroke="none" stroke-width="1" fill="none" fill-rule="evenodd" transform="translate(-255.000000, -875.000000)">
        <g id="pinax-eventlog" transform="translate(270.000000, 890.000000)">
            <g id="Polygon-Copy-28" stroke-linejoin="round">
                <use fill="#33658A" fill-rule="evenodd" xlink:href="#path-1"></use>
                <path stroke="#86BBD8" stroke-width="15" d="M70,-8.66025404 L146.782032,35.669873 L146.782032,124.330127 L70,168.660254 L-6.7820323,124.330127 L-6.7820323,35.669873 L70,-8.66025404 Z"></path>
            </g>
            <path d="M106.5,49.9765625 L106.5,57.5234375 C106.5,59.7109367 104.859375,61.7070312 101.578125,63.5117187 C98.296875,65.3164062 93.8398429,66.7656242 88.2070312,67.859375 C82.5742196,68.9531258 76.4218758,69.5 69.75,69.5 C63.0781242,69.5 56.9257804,68.9531258 51.2929687,67.859375 C45.6601571,66.7656242 41.203125,65.3164062 37.921875,63.5117187 C34.640625,61.7070312 33,59.7109367 33,57.5234375 L33,49.9765625 C33,47.7890633 34.640625,45.7929687 37.921875,43.9882812 C41.203125,42.1835937 45.6601571,40.7343758 51.2929687,39.640625 C56.9257804,38.5468742 63.0781242,38 69.75,38 C76.4218758,38 82.5742196,38.5468742 88.2070312,39.640625 C93.8398429,40.7343758 98.296875,42.1835937 101.578125,43.9882812 C104.859375,45.7929687 106.5,47.7890633 106.5,49.9765625 Z M106.5,66.875 L106.5,83.7734375 C106.5,85.9609367 104.859375,87.9570313 101.578125,89.7617188 C98.296875,91.5664063 93.8398429,93.0156242 88.2070312,94.109375 C82.5742196,95.2031258 76.4218758,95.75 69.75,95.75 C63.0781242,95.75 56.9257804,95.2031258 51.2929687,94.109375 C45.6601571,93.0156242 41.203125,91.5664063 37.921875,89.7617188 C34.640625,87.9570313 33,85.9609367 33,83.7734375 L33,66.875 C36.8281242,69.5 42.1328133,71.5234367 48.9140625,72.9453125 C55.2578133,74.2578125 62.203125,74.9140625 69.75,74.9140625 C77.296875,74.9140625 84.2421867,74.2578125 90.5859375,72.9453125 C97.3671867,71.5234367 102.671876,69.5 106.5,66.875 Z M106.5,93.125 L106.5,110.023438 C106.5,112.210937 104.859375,114.207031 101.578125,116.011719 C98.296875,117.816406 93.8398429,119.265624 88.2070312,120.359375 C82.5742196,121.453126 76.4218758,122 69.75,122 C63.0781242,122 56.9257804,121.453126 51.2929687,120.359375 C45.6601571,119.265624 41.203125,117.816406 37.921875,116.011719 C34.640625,114.207031 33,112.210937 33,110.023438 L33,93.125 C36.8281242,95.75 42.1328133,97.7734367 48.9140625,99.1953125 C55.2578133,100.507812 62.203125,101.164062 69.75,101.164062 C77.296875,101.164062 84.2421867,100.507812 90.5859375,99.1953125 C97.3671867,97.7734367 102.671876,95.75 106.5,93.125 Z" id="pinax-referrals-copy-5" fill="#86BBD8"></path>
        </g>
    </g>
</svg>