<?xml version="1.0" encoding="UTF-8"?>
<svg width="171px" height="186px" viewBox="0 0 171 186" version="1.1" xmlns="http://www.w3.org/2000/svg" xmlns:xlink="http://www.w3.org/1999/xlink">
    <!-- Generator: Sketch 48.2 (47327) - http://www.bohemiancoding.com/sketch -->
    <title>pinax-eventlog</title>
    <desc>Created with Sketch.</desc>
    <defs>
        <path d="M93.0352881,4.08909079 L163.035288,43.2067379 C167.778964,45.8576154 170.717968,50.8667748 170.717968,56.3008901 L170.717968,133.69911 C170.717968,139.133225 167.778964,144.142385 163.035288,146.793262 L93.0352881,185.910909 C88.4880022,188.45204 82.9479332,188.45204 78.4006473,185.910909 L8.40064733,146.793262 C3.65697179,144.142385 0.717967697,139.133225 0.717967697,133.69911 L0.717967697,56.3008901 C0.717967697,50.8667748 3.65697179,45.8576154 8.40064733,43.2067379 L78.4006473,4.08909079 C82.9479332,1.54796043 88.4880022,1.54796043 93.0352881,4.08909079 Z" id="path-1"></path>
    </defs>
    <g id="Hexagons" stroke="none" stroke-width="1" fill="none" fill-rule="evenodd" transform="translate(-253.000000, -877.000000)">
        <g id="pinax-eventlog" transform="translate(253.000000, 875.000000)">
            <g>
                <g id="Badge">
                    <use fill="#33658A" fill-rule="evenodd" xlink:href="#path-1"></use>
                    <path stroke="#86BBD8" stroke-width="15" d="M89.3766279,10.6361669 C87.1029849,9.36560173 84.3329505,9.36560173 82.0593075,10.6361669 L12.0593075,49.753814 C9.68746974,51.0792527 8.2179677,53.5838324 8.2179677,56.3008901 L8.2179677,133.69911 C8.2179677,136.416168 9.68746974,138.920747 12.0593075,140.246186 L82.0593075,179.363833 C84.3329505,180.634398 87.1029849,180.634398 89.3766279,179.363833 L159.376628,140.246186 C161.748466,138.920747 163.217968,136.416168 163.217968,133.69911 L163.217968,56.3008901 C163.217968,53.5838324 161.748466,51.0792527 159.376628,49.753814 L89.3766279,10.6361669 Z"></path>
                </g>
                <path d="M123.5,64.9765625 L123.5,72.5234375 C123.5,74.7109367 121.859375,76.7070312 118.578125,78.5117187 C115.296875,80.3164062 110.839843,81.7656242 105.207031,82.859375 C99.5742196,83.9531258 93.4218758,84.5 86.75,84.5 C80.0781242,84.5 73.9257804,83.9531258 68.2929687,82.859375 C62.6601571,81.7656242 58.203125,80.3164062 54.921875,78.5117187 C51.640625,76.7070312 50,74.7109367 50,72.5234375 L50,64.9765625 C50,62.7890633 51.640625,60.7929687 54.921875,58.9882812 C58.203125,57.1835937 62.6601571,55.7343758 68.2929687,54.640625 C73.9257804,53.5468742 80.0781242,53 86.75,53 C93.4218758,53 99.5742196,53.5468742 105.207031,54.640625 C110.839843,55.7343758 115.296875,57.1835937 118.578125,58.9882812 C121.859375,60.7929687 123.5,62.7890633 123.5,64.9765625 Z M123.5,81.875 L123.5,98.7734375 C123.5,100.960937 121.859375,102.957031 118.578125,104.761719 C115.296875,106.566406 110.839843,108.015624 105.207031,109.109375 C99.5742196,110.203126 93.4218758,110.75 86.75,110.75 C80.0781242,110.75 73.9257804,110.203126 68.2929687,109.109375 C62.6601571,108.015624 58.203125,106.566406 54.921875,104.761719 C51.640625,102.957031 50,100.960937 50,98.7734375 L50,81.875 C53.8281242,84.5 59.1328133,86.5234367 65.9140625,87.9453125 C72.2578133,89.2578125 79.203125,89.9140625 86.75,89.9140625 C94.296875,89.9140625 101.242187,89.2578125 107.585937,87.9453125 C114.367187,86.5234367 119.671876,84.5 123.5,81.875 Z M123.5,108.125 L123.5,125.023438 C123.5,127.210937 121.859375,129.207031 118.578125,131.011719 C115.296875,132.816406 110.839843,134.265624 105.207031,135.359375 C99.5742196,136.453126 93.4218758,137 86.75,137 C80.0781242,137 73.9257804,136.453126 68.2929687,135.359375 C62.6601571,134.265624 58.203125,132.816406 54.921875,131.011719 C51.640625,129.207031 50,127.210937 50,125.023438 L50,108.125 C53.8281242,110.75 59.1328133,112.773437 65.9140625,114.195312 C72.2578133,115.507812 79.203125,116.164062 86.75,116.164062 C94.296875,116.164062 101.242187,115.507812 107.585937,114.195312 C114.367187,112.773437 119.671876,110.75 123.5,108.125 Z" id="Icon" fill="#86BBD8"></path>
            </g>
        </g>
    </g>
</svg>