<?xml version="1.0" encoding="UTF-8"?>
<svg width="169px" height="190px" viewBox="0 0 169 190" version="1.1" xmlns="http://www.w3.org/2000/svg" xmlns:xlink="http://www.w3.org/1999/xlink">
    <!-- Generator: Sketch 48.2 (47327) - http://www.bohemiancoding.com/sketch -->
    <title>pinax-comments</title>
    <desc>Created with Sketch.</desc>
    <defs>
        <polygon id="path-1" points="69.2820323 0 138.564065 40 138.564065 120 69.2820323 160 3.19744231e-14 120 -1.24344979e-14 40"></polygon>
    </defs>
    <g id="Hexagons" stroke="none" stroke-width="1" fill="none" fill-rule="evenodd" transform="translate(-466.000000, -245.000000)">
        <g id="pinax-comments" transform="translate(481.000000, 260.000000)">
            <g id="Polygon-Copy-8" stroke-linejoin="round">
                <use fill="#D2EAD3" fill-rule="evenodd" xlink:href="#path-1"></use>
                <path stroke="#4CAF50" stroke-width="15" d="M69.2820323,-8.66025404 L146.064065,35.669873 L146.064065,124.330127 L69.2820323,168.660254 L-7.5,124.330127 L-7.5,35.669873 L69.2820323,-8.66025404 Z"></path>
            </g>
            <path d="M59.5226406,96.8236607 C53.7116278,96.8236607 48.2175818,95.8199413 43.0404977,93.8125 C37.9690691,97.721727 32.1052298,100.04613 25.4489798,100.785714 L25.2904977,100.785714 C24.6565691,100.785714 24.2339493,100.46875 24.0226406,99.8348214 C23.916985,99.4122016 24.1811227,98.9367551 24.8150513,98.4084821 L25.607462,97.6160714 C27.1922834,96.2425587 28.3016584,94.9747016 28.935587,93.8125 C29.9921354,92.0163699 30.7845461,89.5863087 31.3128191,86.5223214 C26.4526993,81.9791659 24.0226406,76.7492551 24.0226406,70.8325893 C24.0226406,66.1837806 25.607462,61.8783482 28.7771048,57.9162946 C31.9467477,53.9542411 36.2521801,50.8110127 41.6933995,48.4866071 C47.1346189,46.1622016 53.0776993,45 59.5226406,45 C65.9675818,45 71.9106622,46.1622016 77.3518816,48.4866071 C82.7931011,50.8110127 87.0985334,53.9542411 90.2681763,57.9162946 C93.4378191,61.8783482 95.0226406,66.2101926 95.0226406,70.9118304 C95.0226406,75.6134681 93.4378191,79.9453125 90.2681763,83.9073661 C87.0985334,87.8694196 82.7931011,91.012648 77.3518816,93.3370536 C71.9106622,95.6614591 65.9675818,96.8236607 59.5226406,96.8236607 Z M114.515944,113.78125 L114.674426,113.939732 C115.202699,114.362352 115.41401,114.732143 115.308355,115.049107 C115.202699,115.366071 115.017805,115.603795 114.753667,115.762277 C114.48953,115.920759 114.251806,116 114.040498,116 C107.806868,115.366071 102.365646,113.252977 97.716837,109.660714 C92.8567171,111.456844 87.732462,112.354911 82.3440691,112.354911 C77.4839493,112.354911 72.9143816,111.641741 68.6353638,110.215402 C64.3563459,108.789062 60.6848421,106.860862 57.6208548,104.430804 C65.6506176,104.642112 73.1256903,103.295014 80.0460781,100.389509 C86.9664658,97.4840038 92.4340997,93.4955357 96.4489798,88.4241071 C100.569516,83.1413699 102.629783,77.2775306 102.629783,70.8325893 L102.629783,70.1986607 C107.278592,72.8400306 110.685958,76.0889145 112.851882,79.9453125 C115.017805,83.8017105 115.730975,87.7901786 114.991391,91.9107143 C114.251806,96.03125 112.138712,99.7291659 108.652105,103.004464 C109.074725,105.751487 109.76148,107.970237 110.712373,109.660714 C111.346301,110.717263 112.350021,111.879464 113.723533,113.147321 C114.040498,113.464286 114.304635,113.675594 114.515944,113.78125 Z" fill="#4CAF50"></path>
        </g>
    </g>
</svg>