<?xml version="1.0" encoding="UTF-8"?>
<svg width="169px" height="190px" viewBox="0 0 169 190" version="1.1" xmlns="http://www.w3.org/2000/svg" xmlns:xlink="http://www.w3.org/1999/xlink">
    <!-- Generator: Sketch 48.2 (47327) - http://www.bohemiancoding.com/sketch -->
    <title>pinax-forums</title>
    <desc>Created with Sketch.</desc>
    <defs>
        <polygon id="path-1" points="69.2820323 0 138.564065 40 138.564065 120 69.2820323 160 9.05941988e-14 120 4.61852778e-14 40"></polygon>
    </defs>
    <g id="Hexagons" stroke="none" stroke-width="1" fill="none" fill-rule="evenodd" transform="translate(-886.000000, -245.000000)">
        <g id="pinax-forums" transform="translate(901.000000, 260.000000)">
            <g id="Polygon-Copy-10" stroke-linejoin="round">
                <use fill="#BEEEF4" fill-rule="evenodd" xlink:href="#path-1"></use>
                <path stroke="#00BCD4" stroke-width="15" d="M69.2820323,-8.66025404 L146.064065,35.669873 L146.064065,124.330127 L69.2820323,168.660254 L-7.5,124.330127 L-7.5,35.669873 L69.2820323,-8.66025404 Z"></path>
            </g>
            <path d="M115.305742,77.9642857 C115.305742,83.9866071 113.271884,89.5070676 109.204165,94.5256696 C105.136447,99.5442716 99.5895584,103.532737 92.5635008,106.491071 C85.5374431,109.449406 77.9038676,110.928571 69.6627765,110.928571 C62.1612713,110.928571 55.0823846,109.660714 48.4261188,107.125 C41.9811621,112.196429 34.4796569,115.154763 25.9216008,116 C25.49898,116 25.1027737,115.894344 24.7329819,115.683036 C24.3631902,115.471727 24.1254664,115.154763 24.0198106,114.732143 C23.9141548,114.309523 24.2311198,113.728423 24.9707057,112.988839 L26.2385659,111.879464 C28.1403561,110.188987 29.5138721,108.656995 30.3591114,107.283482 C31.7326274,104.853423 32.7363492,101.736607 33.3702793,97.9330357 C30.4119381,95.0803571 28.1139416,91.9635409 26.4762896,88.5825893 C24.8386377,85.2016377 24.0198106,81.6622016 24.0198106,77.9642857 C24.0198106,71.9419643 26.0800833,66.4215038 30.2006289,61.4029018 C34.3211744,56.3842998 39.8680626,52.3958341 46.8412935,49.4375 C53.8145245,46.4791659 61.4216854,45 69.6627765,45 C77.9038676,45 85.5110286,46.4791659 92.4842595,49.4375 C99.4574904,52.3958341 105.004379,56.3842998 109.124924,61.4029018 C113.24547,66.4215038 115.305742,71.9419643 115.305742,77.9642857 Z M49.3769534,70.3571429 C47.263859,70.3571429 45.4677264,71.096727 43.9885605,72.5758929 C42.5093947,74.0550587 41.7698105,75.8511913 41.7698105,77.9642857 C41.7698105,80.0773801 42.5093947,81.8735127 43.9885605,83.3526786 C45.4677264,84.8318444 47.263859,85.5714286 49.3769534,85.5714286 C51.4900478,85.5714286 53.2861804,84.8318444 54.7653462,83.3526786 C56.2445121,81.8735127 56.9840962,80.0773801 56.9840962,77.9642857 C56.9840962,75.8511913 56.2445121,74.0550587 54.7653462,72.5758929 C53.2861804,71.096727 51.4900478,70.3571429 49.3769534,70.3571429 Z M69.6626677,70.3571429 C67.5495732,70.3571429 65.7534407,71.096727 64.2742748,72.5758929 C62.795109,74.0550587 62.0555248,75.8511913 62.0555248,77.9642857 C62.0555248,80.0773801 62.795109,81.8735127 64.2742748,83.3526786 C65.7534407,84.8318444 67.5495732,85.5714286 69.6626677,85.5714286 C71.7757621,85.5714286 73.5718947,84.8318444 75.0510605,83.3526786 C76.5302264,81.8735127 77.2698105,80.0773801 77.2698105,77.9642857 C77.2698105,75.8511913 76.5302264,74.0550587 75.0510605,72.5758929 C73.5718947,71.096727 71.7757621,70.3571429 69.6626677,70.3571429 Z M89.948382,70.3571429 C87.8352875,70.3571429 86.039155,71.096727 84.5599891,72.5758929 C83.0808232,74.0550587 82.3412391,75.8511913 82.3412391,77.9642857 C82.3412391,80.0773801 83.0808232,81.8735127 84.5599891,83.3526786 C86.039155,84.8318444 87.8352875,85.5714286 89.948382,85.5714286 C92.0614764,85.5714286 93.857609,84.8318444 95.3367748,83.3526786 C96.8159407,81.8735127 97.5555248,80.0773801 97.5555248,77.9642857 C97.5555248,75.8511913 96.8159407,74.0550587 95.3367748,72.5758929 C93.857609,71.096727 92.0614764,70.3571429 89.948382,70.3571429 Z" fill="#00BCD4"></path>
        </g>
    </g>
</svg>