<?xml version="1.0" encoding="UTF-8"?>
<svg width="169px" height="190px" viewBox="0 0 169 190" version="1.1" xmlns="http://www.w3.org/2000/svg" xmlns:xlink="http://www.w3.org/1999/xlink">
    <!-- Generator: Sketch 48.2 (47327) - http://www.bohemiancoding.com/sketch -->
    <title>pinax-documents</title>
    <desc>Created with Sketch.</desc>
    <defs>
        <polygon id="path-1" points="69.2820323 0 138.564065 40 138.564065 120 69.2820323 160 9.05941988e-14 120 4.61852778e-14 40"></polygon>
    </defs>
    <g id="Hexagons" stroke="none" stroke-width="1" fill="none" fill-rule="evenodd" transform="translate(-676.000000, -245.000000)">
        <g id="pinax-documents" transform="translate(691.000000, 260.000000)">
            <g id="Polygon-Copy-9" stroke-linejoin="round">
                <use fill="#BEE4E1" fill-rule="evenodd" xlink:href="#path-1"></use>
                <path stroke="#009688" stroke-width="15" d="M69.2820323,-8.66025404 L146.064065,35.669873 L146.064065,124.330127 L69.2820323,168.660254 L-7.5,124.330127 L-7.5,35.669873 L69.2820323,-8.66025404 Z"></path>
            </g>
            <path d="M88.2498659,78.4373845 L88.2498659,83.9061215 C88.2498659,84.5571606 88.0220009,85.1105467 87.5662738,85.5662738 C87.1105467,86.0220009 86.5571606,86.2498659 85.9061215,86.2498659 L53.0936997,86.2498659 C52.4426606,86.2498659 51.8892745,86.0220009 51.4335474,85.5662738 C50.9778203,85.1105467 50.7499553,84.5571606 50.7499553,83.9061215 L50.7499553,78.4373845 C50.7499553,77.7863454 50.9778203,77.2329593 51.4335474,76.7772322 C51.8892745,76.3215051 52.4426606,76.0936401 53.0936997,76.0936401 L85.9061215,76.0936401 C86.5571606,76.0936401 87.1105467,76.3215051 87.5662738,76.7772322 C88.0220009,77.2329593 88.2498659,77.7863454 88.2498659,78.4373845 Z M53.0936997,92.499851 L85.9061215,92.499851 C86.5571606,92.499851 87.1105467,92.727716 87.5662738,93.1834431 C88.0220009,93.6391702 88.2498659,94.1925563 88.2498659,94.8435954 L88.2498659,100.312332 C88.2498659,100.963371 88.0220009,101.516758 87.5662738,101.972485 C87.1105467,102.428212 86.5571606,102.656077 85.9061215,102.656077 L53.0936997,102.656077 C52.4426606,102.656077 51.8892745,102.428212 51.4335474,101.972485 C50.9778203,101.516758 50.7499553,100.963371 50.7499553,100.312332 L50.7499553,94.8435954 C50.7499553,94.1925563 50.9778203,93.6391702 51.4335474,93.1834431 C51.8892745,92.727716 52.4426606,92.499851 53.0936997,92.499851 Z M107,55.7811885 L107,120.624784 C107,123.228943 106.088541,125.442482 104.265625,127.265393 C102.442709,129.088304 100.229166,129.999762 97.625,129.999762 L41.375,129.999762 C38.7708343,129.999762 36.5572907,129.088304 34.734375,127.265393 C32.9114593,125.442482 32,123.228943 32,120.624784 L32,39.3749776 C32,36.7708182 32.9114593,34.5572798 34.734375,32.7343685 C36.5572907,30.9114572 38.7708343,30 41.375,30 L81.21875,30 C83.8229157,30 86.0364593,30.9114572 87.859375,32.7343685 L104.265625,49.1405794 C106.088541,50.9634907 107,53.1770291 107,55.7811885 Z M81.9998808,40.1562258 L81.9998808,54.9999404 L96.8435954,54.9999404 L81.9998808,40.1562258 Z M97.6248435,120.624784 L97.6248435,64.374918 L77.312392,64.374918 C76.0103107,64.374918 74.9035445,63.919191 73.9920874,63.0077338 C73.0806302,62.0962766 72.6249031,60.9895104 72.6249031,59.6874292 L72.6249031,39.3749776 L41.3749776,39.3749776 L41.3749776,120.624784 L97.6248435,120.624784 Z" fill="#009688"></path>
        </g>
    </g>
</svg>