<?xml version="1.0" encoding="UTF-8"?>
<svg width="171px" height="186px" viewBox="0 0 171 186" version="1.1" xmlns="http://www.w3.org/2000/svg" xmlns:xlink="http://www.w3.org/1999/xlink">
    <!-- Generator: Sketch 48.2 (47327) - http://www.bohemiancoding.com/sketch -->
    <title>pinax-stripe</title>
    <desc>Created with Sketch.</desc>
    <defs>
        <path d="M93.0352881,4.08909079 L163.035288,43.2067379 C167.778964,45.8576154 170.717968,50.8667748 170.717968,56.3008901 L170.717968,133.69911 C170.717968,139.133225 167.778964,144.142385 163.035288,146.793262 L93.0352881,185.910909 C88.4880022,188.45204 82.9479332,188.45204 78.4006473,185.910909 L8.40064733,146.793262 C3.65697179,144.142385 0.717967697,139.133225 0.717967697,133.69911 L0.717967697,56.3008901 C0.717967697,50.8667748 3.65697179,45.8576154 8.40064733,43.2067379 L78.4006473,4.08909079 C82.9479332,1.54796043 88.4880022,1.54796043 93.0352881,4.08909079 Z" id="path-1"></path>
    </defs>
    <g id="Hexagons" stroke="none" stroke-width="1" fill="none" fill-rule="evenodd" transform="translate(-43.000000, -37.000000)">
        <g id="pinax-stripe" transform="translate(43.000000, 35.000000)">
            <g>
                <g id="Badge">
                    <use fill="#D7DEE1" fill-rule="evenodd" xlink:href="#path-1"></use>
                    <path stroke="#607D8B" stroke-width="15" d="M89.3766279,10.6361669 C87.1029849,9.36560173 84.3329505,9.36560173 82.0593075,10.6361669 L12.0593075,49.753814 C9.68746974,51.0792527 8.2179677,53.5838324 8.2179677,56.3008901 L8.2179677,133.69911 C8.2179677,136.416168 9.68746974,138.920747 12.0593075,140.246186 L82.0593075,179.363833 C84.3329505,180.634398 87.1029849,180.634398 89.3766279,179.363833 L159.376628,140.246186 C161.748466,138.920747 163.217968,136.416168 163.217968,133.69911 L163.217968,56.3008901 C163.217968,53.5838324 161.748466,51.0792527 159.376628,49.753814 L89.3766279,10.6361669 Z"></path>
                </g>
                <path d="M77.1037536,78.0077338 C77.1037536,80.3514782 78.4709378,82.4348076 81.2053063,84.2577189 C82.8980116,85.2993821 86.1206601,86.7316723 90.873252,88.5545837 C95.6258438,90.377495 99.1089104,91.8748882 101.322446,93.0467604 C104.968271,94.9998808 107.767743,97.2134162 109.720863,99.6873696 C112.064608,102.812362 113.23648,106.458188 113.23648,110.624844 C113.23648,116.353996 111.348463,121.334452 107.572431,125.566214 C103.796399,129.797976 98.7833894,132.434688 92.5334043,133.476352 L92.5334043,142.656017 C92.5334043,143.307056 92.3055392,143.860442 91.8498121,144.316169 C91.3940851,144.771897 90.840699,144.999762 90.1896599,144.999762 L82.3771785,144.999762 C81.7261394,144.999762 81.1727533,144.771897 80.7170262,144.316169 C80.2612991,143.860442 80.0334341,143.307056 80.0334341,142.656017 L80.0334341,133.28104 C76.2574024,132.63 72.7092328,131.490678 69.3889282,129.863079 C66.0686236,128.23548 63.1714961,126.249806 60.6975427,123.906062 C60.3069186,123.515438 60.0790536,123.027158 60.0139505,122.441222 C59.9488475,121.855286 60.1116066,121.301902 60.5022306,120.781069 L66.3615917,112.773276 C66.7522157,112.252443 67.3055988,111.959475 68.021744,111.894372 C68.7378891,111.829269 69.2912722,111.992028 69.6818962,112.382652 C72.4162647,114.465981 75.1506332,116.158684 77.8850017,117.460765 C81.0099942,118.762846 84.0047778,119.413885 86.8693553,119.413885 C90.1245568,119.413885 92.7287163,118.567534 94.6818366,116.874829 C96.2443329,115.312332 97.0255811,113.489421 97.0255811,111.406092 C97.0255811,109.322762 95.7886058,107.434748 93.3146524,105.742043 C91.6219471,104.700379 88.4644045,103.268089 83.8420187,101.445178 C79.2196329,99.6222666 75.7365693,98.1248733 73.3928249,96.9530011 C69.6167932,94.8696718 66.6871127,92.4608243 64.6037834,89.7264559 C62.2600389,86.4712543 61.0881667,82.6301196 61.0881667,78.2030458 C61.0881667,73.1249329 62.813422,68.6653092 66.2639356,64.8241715 C69.7144492,60.9830338 74.3042821,58.4114274 80.0334341,57.1093461 L80.0334341,47.3437444 C80.0334341,46.6927053 80.2612991,46.1393192 80.7170262,45.6835921 C81.1727533,45.227865 81.7261394,45 82.3771785,45 L90.1896599,45 C90.840699,45 91.3940851,45.227865 91.8498121,45.6835921 C92.3055392,46.1393192 92.5334043,46.6927053 92.5334043,47.3437444 L92.5334043,56.52341 C95.7886058,56.9140341 99.0112544,57.7603853 102.20135,59.0624665 C105.391446,60.3645477 108.093264,61.992147 110.306799,63.9452673 C110.697423,64.3358914 110.957839,64.7916185 111.088048,65.3124516 C111.218257,65.8332847 111.153151,66.3541148 110.892735,66.8749478 L106.205247,75.2733653 C105.944832,75.9244044 105.456552,76.3150285 104.740406,76.4452375 C104.024261,76.5754465 103.405775,76.4452375 102.884942,76.0546135 C97.6766202,72.4087878 92.6636133,70.5858765 87.8459154,70.5858765 C84.5907139,70.5858765 81.9865544,71.2694686 80.0334341,72.6366529 C78.0803137,74.0038371 77.1037536,75.7941984 77.1037536,78.0077338 Z" id="Icon" fill="#607D8B"></path>
            </g>
        </g>
    </g>
</svg>