<?xml version="1.0" encoding="UTF-8"?>
<svg width="169px" height="190px" viewBox="0 0 169 190" version="1.1" xmlns="http://www.w3.org/2000/svg" xmlns:xlink="http://www.w3.org/1999/xlink">
    <!-- Generator: Sketch 48.2 (47327) - http://www.bohemiancoding.com/sketch -->
    <title>pinax-events</title>
    <desc>Created with Sketch.</desc>
    <defs>
        <polygon id="path-1" points="69.2820323 0 138.564065 40 138.564065 120 69.2820323 160 9.05941988e-14 120 4.61852778e-14 40"></polygon>
    </defs>
    <g id="Hexagons" stroke="none" stroke-width="1" fill="none" fill-rule="evenodd" transform="translate(-1096.000000, -665.000000)">
        <g id="pinax-events" transform="translate(1111.000000, 680.000000)">
            <g id="Polygon-Copy-18" stroke-linejoin="round">
                <use fill="#BFACB4" fill-rule="evenodd" xlink:href="#path-1"></use>
                <path stroke="#70163C" stroke-width="15" d="M69.2820323,-8.66025404 L146.064065,35.669873 L146.064065,124.330127 L69.2820323,168.660254 L-7.5,124.330127 L-7.5,35.669873 L69.2820323,-8.66025404 Z"></path>
            </g>
            <path d="M103.679688,64.9375 L34.9453125,64.9375 C34.4049487,64.9375 33.9456372,64.7483716 33.5673828,64.3701172 C33.1891284,63.9918628 33,63.5325513 33,62.9921875 L33,57.15625 C33,54.9947925 33.7565112,53.1575513 35.2695312,51.6445313 C36.7825513,50.1315112 38.6197925,49.375 40.78125,49.375 L48.5625,49.375 L48.5625,40.9453125 C48.5625,40.4049487 48.7516284,39.9456372 49.1298828,39.5673828 C49.5081372,39.1891284 49.9674487,39 50.5078125,39 L56.9921875,39 C57.5325513,39 57.9918628,39.1891284 58.3701172,39.5673828 C58.7483716,39.9456372 58.9375,40.4049487 58.9375,40.9453125 L58.9375,49.375 L79.6875,49.375 L79.6875,40.9453125 C79.6875,40.4049487 79.8766284,39.9456372 80.2548828,39.5673828 C80.6331372,39.1891284 81.0924487,39 81.6328125,39 L88.1171875,39 C88.6575513,39 89.1168628,39.1891284 89.4951172,39.5673828 C89.8733716,39.9456372 90.0625,40.4049487 90.0625,40.9453125 L90.0625,49.375 L97.84375,49.375 C100.005208,49.375 101.842449,50.1315112 103.355469,51.6445313 C104.868489,53.1575513 105.625,54.9947925 105.625,57.15625 L105.625,62.9921875 C105.625,63.5325513 105.435872,63.9918628 105.057617,64.3701172 C104.679363,64.7483716 104.220051,64.9375 103.679688,64.9375 Z M34.9453125,70.125 L103.679688,70.125 C104.220051,70.125 104.679363,70.3141284 105.057617,70.6923828 C105.435872,71.0706372 105.625,71.5299487 105.625,72.0703125 L105.625,114.21875 C105.625,116.380208 104.868489,118.217449 103.355469,119.730469 C101.842449,121.243489 100.005208,122 97.84375,122 L40.78125,122 C38.6197925,122 36.7825513,121.243489 35.2695312,119.730469 C33.7565112,118.217449 33,116.380208 33,114.21875 L33,72.0703125 C33,71.5299487 33.1891284,71.0706372 33.5673828,70.6923828 C33.9456372,70.3141284 34.4049487,70.125 34.9453125,70.125 Z M88.9277344,85.6875 L84.3886719,81.1484375 C84.0644531,80.716145 83.6321606,80.5 83.0917969,80.5 C82.5514331,80.5 82.065105,80.6621094 81.6328125,80.9863281 L64.4492188,98.1699219 L56.9921875,90.5507812 C56.6679688,90.2265625 56.2356763,90.0644531 55.6953125,90.0644531 C55.1549487,90.0644531 54.6686206,90.2265625 54.2363281,90.5507812 L49.6972656,95.0898438 C49.2649731,95.5221362 49.0488281,96.0084644 49.0488281,96.5488281 C49.0488281,97.0891919 49.2649731,97.5214844 49.6972656,97.8457031 L62.9902344,111.462891 C63.4225269,111.787109 63.908855,111.949219 64.4492188,111.949219 C64.9895825,111.949219 65.421875,111.787109 65.7460938,111.462891 L88.9277344,88.4433594 C89.3600269,88.0110669 89.5761719,87.5247388 89.5761719,86.984375 C89.5761719,86.4440112 89.3600269,86.0117188 88.9277344,85.6875 Z" id="pinax-referrals-copy-3" fill="#70163C"></path>
        </g>
    </g>
</svg>