<?xml version="1.0" encoding="UTF-8"?>
<svg width="170px" height="186px" viewBox="0 0 170 186" version="1.1" xmlns="http://www.w3.org/2000/svg" xmlns:xlink="http://www.w3.org/1999/xlink">
    <!-- Generator: Sketch 48.2 (47327) - http://www.bohemiancoding.com/sketch -->
    <title>pinax-types</title>
    <desc>Created with Sketch.</desc>
    <defs>
        <path d="M92.3173204,4.08909079 L162.31732,43.2067379 C167.060996,45.8576154 170,50.8667748 170,56.3008901 L170,133.69911 C170,139.133225 167.060996,144.142385 162.31732,146.793262 L92.3173204,185.910909 C87.7700345,188.45204 82.2299655,188.45204 77.6826796,185.910909 L7.68267964,146.793262 C2.93900409,144.142385 -3.55271368e-15,139.133225 -3.55271368e-15,133.69911 L-1.0658141e-14,56.3008901 C-1.59872116e-14,50.8667748 2.93900409,45.8576154 7.68267964,43.2067379 L77.6826796,4.08909079 C82.2299655,1.54796043 87.7700345,1.54796043 92.3173204,4.08909079 Z" id="path-1"></path>
    </defs>
    <g id="Hexagons" stroke="none" stroke-width="1" fill="none" fill-rule="evenodd" transform="translate(-44.000000, -877.000000)">
        <g id="pinax-types" transform="translate(44.000000, 875.000000)">
            <g>
                <g id="Badge">
                    <use fill="#FAF8B6" fill-rule="evenodd" xlink:href="#path-1"></use>
                    <path stroke="#009688" stroke-width="15" d="M88.6586602,10.6361669 C86.3850172,9.36560173 83.6149828,9.36560173 81.3413398,10.6361669 L11.3413398,49.753814 C8.96950205,51.0792527 7.5,53.5838324 7.5,56.3008901 L7.5,133.69911 C7.5,136.416168 8.96950205,138.920747 11.3413398,140.246186 L81.3413398,179.363833 C83.6149828,180.634398 86.3850172,180.634398 88.6586602,179.363833 L158.65866,140.246186 C161.030498,138.920747 162.5,136.416168 162.5,133.69911 L162.5,56.3008901 C162.5,53.5838324 161.030498,51.0792527 158.65866,49.753814 L88.6586602,10.6361669 Z"></path>
                </g>
                <path d="M68.1542969,75.859375 C68.1542969,76.940105 67.7760425,77.8587231 67.0195312,78.6152344 C66.26302,79.3717456 65.3444019,79.75 64.2636719,79.75 L47.890625,79.75 C46.809895,79.75 45.8912769,79.3717456 45.1347656,78.6152344 C44.3782544,77.8587231 44,76.940105 44,75.859375 L44,62.890625 C44,61.809895 44.3782544,60.8912769 45.1347656,60.1347656 C45.8912769,59.3782544 46.809895,59 47.890625,59 L64.2636719,59 C65.3444019,59 66.26302,59.3782544 67.0195312,60.1347656 C67.7760425,60.8912769 68.1542969,61.809895 68.1542969,62.890625 L68.1542969,75.859375 Z M97.6582031,101.796875 C97.6582031,102.877605 97.2799487,103.796223 96.5234375,104.552734 C95.7669263,105.309246 94.8483081,105.6875 93.7675781,105.6875 L77.2324219,105.6875 C76.1516919,105.6875 75.2330737,105.309246 74.4765625,104.552734 C73.7200513,103.796223 73.3417969,102.877605 73.3417969,101.796875 L73.3417969,88.828125 C73.3417969,87.747395 73.7200513,86.8287769 74.4765625,86.0722656 C75.2330737,85.3157544 76.1516919,84.9375 77.2324219,84.9375 L93.7675781,84.9375 C94.8483081,84.9375 95.7669263,85.3157544 96.5234375,86.0722656 C97.2799487,86.8287769 97.6582031,87.747395 97.6582031,88.828125 L97.6582031,101.796875 Z M102.845703,62.890625 C102.845703,61.809895 103.223958,60.8912769 103.980469,60.1347656 C104.73698,59.3782544 105.655598,59 106.736328,59 L123.109375,59 C124.190105,59 125.108723,59.3782544 125.865234,60.1347656 C126.621746,60.8912769 127,61.809895 127,62.890625 L127,75.859375 C127,76.940105 126.621746,77.8587231 125.865234,78.6152344 C125.108723,79.3717456 124.190105,79.75 123.109375,79.75 L106.736328,79.75 C105.655598,79.75 104.73698,79.3717456 103.980469,78.6152344 C103.223958,77.8587231 102.845703,76.940105 102.845703,75.859375 L102.845703,62.890625 Z M97.6582031,75.859375 C97.6582031,76.940105 97.2799487,77.8587231 96.5234375,78.6152344 C95.7669263,79.3717456 94.8483081,79.75 93.7675781,79.75 L77.2324219,79.75 C76.1516919,79.75 75.2330737,79.3717456 74.4765625,78.6152344 C73.7200513,77.8587231 73.3417969,76.940105 73.3417969,75.859375 L73.3417969,62.890625 C73.3417969,61.809895 73.7200513,60.8912769 74.4765625,60.1347656 C75.2330737,59.3782544 76.1516919,59 77.2324219,59 L93.7675781,59 C94.8483081,59 95.7669263,59.3782544 96.5234375,60.1347656 C97.2799487,60.8912769 97.6582031,61.809895 97.6582031,62.890625 L97.6582031,75.859375 Z M64.2636719,84.9375 C65.3444019,84.9375 66.26302,85.3157544 67.0195312,86.0722656 C67.7760425,86.8287769 68.1542969,87.747395 68.1542969,88.828125 L68.1542969,101.796875 C68.1542969,102.877605 67.7760425,103.796223 67.0195312,104.552734 C66.26302,105.309246 65.3444019,105.6875 64.2636719,105.6875 L47.890625,105.6875 C46.809895,105.6875 45.8912769,105.309246 45.1347656,104.552734 C44.3782544,103.796223 44,102.877605 44,101.796875 L44,88.828125 C44,87.747395 44.3782544,86.8287769 45.1347656,86.0722656 C45.8912769,85.3157544 46.809895,84.9375 47.890625,84.9375 L64.2636719,84.9375 Z M44,114.765625 C44,113.684895 44.3782544,112.766277 45.1347656,112.009766 C45.8912769,111.253254 46.809895,110.875 47.890625,110.875 L64.2636719,110.875 C65.3444019,110.875 66.26302,111.253254 67.0195312,112.009766 C67.7760425,112.766277 68.1542969,113.684895 68.1542969,114.765625 L68.1542969,127.734375 C68.1542969,128.815105 67.7760425,129.733723 67.0195312,130.490234 C66.26302,131.246746 65.3444019,131.625 64.2636719,131.625 L47.890625,131.625 C46.809895,131.625 45.8912769,131.246746 45.1347656,130.490234 C44.3782544,129.733723 44,128.815105 44,127.734375 L44,114.765625 Z M106.736328,105.6875 C105.655598,105.6875 104.73698,105.309246 103.980469,104.552734 C103.223958,103.796223 102.845703,102.877605 102.845703,101.796875 L102.845703,88.828125 C102.845703,87.747395 103.223958,86.8287769 103.980469,86.0722656 C104.73698,85.3157544 105.655598,84.9375 106.736328,84.9375 L123.109375,84.9375 C124.190105,84.9375 125.108723,85.3157544 125.865234,86.0722656 C126.621746,86.8287769 127,87.747395 127,88.828125 L127,101.796875 C127,102.877605 126.621746,103.796223 125.865234,104.552734 C125.108723,105.309246 124.190105,105.6875 123.109375,105.6875 L106.736328,105.6875 Z M106.736328,131.625 C105.655598,131.625 104.73698,131.246746 103.980469,130.490234 C103.223958,129.733723 102.845703,128.815105 102.845703,127.734375 L102.845703,114.765625 C102.845703,113.684895 103.223958,112.766277 103.980469,112.009766 C104.73698,111.253254 105.655598,110.875 106.736328,110.875 L123.109375,110.875 C124.190105,110.875 125.108723,111.253254 125.865234,112.009766 C126.621746,112.766277 127,113.684895 127,114.765625 L127,127.734375 C127,128.815105 126.621746,129.733723 125.865234,130.490234 C125.108723,131.246746 124.190105,131.625 123.109375,131.625 L106.736328,131.625 Z M73.3417969,114.765625 C73.3417969,113.684895 73.7200513,112.766277 74.4765625,112.009766 C75.2330737,111.253254 76.1516919,110.875 77.2324219,110.875 L93.7675781,110.875 C94.8483081,110.875 95.7669263,111.253254 96.5234375,112.009766 C97.2799487,112.766277 97.6582031,113.684895 97.6582031,114.765625 L97.6582031,127.734375 C97.6582031,128.815105 97.2799487,129.733723 96.5234375,130.490234 C95.7669263,131.246746 94.8483081,131.625 93.7675781,131.625 L77.2324219,131.625 C76.1516919,131.625 75.2330737,131.246746 74.4765625,130.490234 C73.7200513,129.733723 73.3417969,128.815105 73.3417969,127.734375 L73.3417969,114.765625 Z" id="Icon" fill="#009688"></path>
            </g>
        </g>
    </g>
</svg>