<?xml version="1.0" encoding="UTF-8"?>
<svg width="170px" height="186px" viewBox="0 0 170 186" version="1.1" xmlns="http://www.w3.org/2000/svg" xmlns:xlink="http://www.w3.org/1999/xlink">
    <!-- Generator: Sketch 48.2 (47327) - http://www.bohemiancoding.com/sketch -->
    <title>pinax-likes</title>
    <desc>Created with Sketch.</desc>
    <defs>
        <path d="M92.3173204,4.08909079 L162.31732,43.2067379 C167.060996,45.8576154 170,50.8667748 170,56.3008901 L170,133.69911 C170,139.133225 167.060996,144.142385 162.31732,146.793262 L92.3173204,185.910909 C87.7700345,188.45204 82.2299655,188.45204 77.6826796,185.910909 L7.68267964,146.793262 C2.93900409,144.142385 -3.55271368e-15,139.133225 -3.55271368e-15,133.69911 L-1.0658141e-14,56.3008901 C-1.59872116e-14,50.8667748 2.93900409,45.8576154 7.68267964,43.2067379 L77.6826796,4.08909079 C82.2299655,1.54796043 87.7700345,1.54796043 92.3173204,4.08909079 Z" id="path-1"></path>
    </defs>
    <g id="Hexagons" stroke="none" stroke-width="1" fill="none" fill-rule="evenodd" transform="translate(-44.000000, -457.000000)">
        <g id="pinax-likes" transform="translate(44.000000, 455.000000)">
            <g>
                <g id="Badge">
                    <use fill="#C6E4FB" fill-rule="evenodd" xlink:href="#path-1"></use>
                    <path stroke="#2196F3" stroke-width="15" d="M88.6586602,10.6361669 C86.3850172,9.36560173 83.6149828,9.36560173 81.3413398,10.6361669 L11.3413398,49.753814 C8.96950205,51.0792527 7.5,53.5838324 7.5,56.3008901 L7.5,133.69911 C7.5,136.416168 8.96950205,138.920747 11.3413398,140.246186 L81.3413398,179.363833 C83.6149828,180.634398 86.3850172,180.634398 88.6586602,179.363833 L158.65866,140.246186 C161.030498,138.920747 162.5,136.416168 162.5,133.69911 L162.5,56.3008901 C162.5,53.5838324 161.030498,51.0792527 158.65866,49.753814 L88.6586602,10.6361669 Z"></path>
                </g>
                <path d="M60.265625,84.1875 C61.3723967,84.1875 62.3131502,84.5748689 63.0878906,85.3496094 C63.8626311,86.1243498 64.25,87.0651033 64.25,88.171875 L64.25,128.015625 C64.25,129.122397 63.8626311,130.06315 63.0878906,130.837891 C62.3131502,131.612631 61.3723967,132 60.265625,132 L46.984375,132 C45.8776033,132 44.9368498,131.612631 44.1621094,130.837891 C43.3873689,130.06315 43,129.122397 43,128.015625 L43,88.171875 C43,87.0651033 43.3873689,86.1243498 44.1621094,85.3496094 C44.9368498,84.5748689 45.8776033,84.1875 46.984375,84.1875 L60.265625,84.1875 Z M53.625,125.359375 C54.7317717,125.359375 55.6725252,124.972006 56.4472656,124.197266 C57.2220061,123.422525 57.609375,122.481772 57.609375,121.375 C57.609375,120.268228 57.2220061,119.327475 56.4472656,118.552734 C55.6725252,117.777994 54.7317717,117.390625 53.625,117.390625 C52.5182283,117.390625 51.5774748,117.777994 50.8027344,118.552734 C50.0279939,119.327475 49.640625,120.268228 49.640625,121.375 C49.640625,122.481772 50.0279939,123.422525 50.8027344,124.197266 C51.5774748,124.972006 52.5182283,125.359375 53.625,125.359375 Z M106.75,60.4472656 C106.75,62.4394531 106.417969,64.4316406 105.753906,66.4238281 C105.311197,67.5305998 104.536459,69.0800781 103.429687,71.0722656 C102.21224,73.3964844 101.492838,75.1119783 101.271484,76.21875 L118.039062,76.21875 C120.80599,76.21875 123.157877,77.1871736 125.094727,79.1240234 C127.031576,81.0608732 128,83.3020842 128,85.8476562 C128,87.3971346 127.695639,88.8912752 127.086914,90.3300781 C126.478189,91.7688811 125.731119,92.9863281 124.845703,93.9824219 L124.679687,93.9824219 C125.565103,96.0852873 125.897135,98.3541658 125.675781,100.789062 C125.454428,103.223959 124.62435,105.382162 123.185547,107.263672 C123.849609,109.366537 123.904947,111.580078 123.351562,113.904297 C122.798178,116.228516 121.857422,118.165365 120.529297,119.714844 C121.193359,122.592447 120.80599,125.082681 119.367187,127.185547 C117.928385,129.288412 115.272135,130.671875 111.398437,131.335938 C109.074219,131.778647 105.477213,132 100.607422,132 L100.109375,132 C96.5677092,132 92.9153654,131.391275 89.1523437,130.173828 C86.9388029,129.509766 83.9228516,128.319986 80.1044922,126.604492 C76.2861328,124.888998 73.4361971,124.03125 71.5546875,124.03125 C71.0013029,124.03125 70.5309236,123.837564 70.1435547,123.450195 C69.7561857,123.062826 69.5625,122.592447 69.5625,122.039062 L69.5625,86.5117188 C69.5625,85.9583342 69.7838533,85.515625 70.2265625,85.1835938 C72.4401033,82.859375 75.1516936,79.3730469 78.3613281,74.7246094 C81.0175781,70.8509123 83.2311189,68.0839844 85.0019531,66.4238281 C86.1087248,65.3170564 86.9941406,63.8229158 87.6582031,61.9414062 C88.1009123,60.8346346 88.5989592,59.0638029 89.1523437,56.6289062 L89.1523437,56.4628906 C89.8164062,53.9173186 90.4251311,51.9804688 90.9785156,50.6523438 C92.0852873,48.2174471 93.3580721,47 94.796875,47 C97.7851562,47 100.275391,47.7194002 102.267578,49.1582031 C105.255859,51.3717439 106.75,55.1347656 106.75,60.4472656 Z" id="Icon" fill="#2196F3"></path>
            </g>
        </g>
    </g>
</svg>