<?xml version="1.0" encoding="UTF-8"?>
<svg width="170px" height="186px" viewBox="0 0 170 186" version="1.1" xmlns="http://www.w3.org/2000/svg" xmlns:xlink="http://www.w3.org/1999/xlink">
    <!-- Generator: Sketch 48.2 (47327) - http://www.bohemiancoding.com/sketch -->
    <title>pinax-points</title>
    <desc>Created with Sketch.</desc>
    <defs>
        <path d="M92.3173204,4.08909079 L162.31732,43.2067379 C167.060996,45.8576154 170,50.8667748 170,56.3008901 L170,133.69911 C170,139.133225 167.060996,144.142385 162.31732,146.793262 L92.3173204,185.910909 C87.7700345,188.45204 82.2299655,188.45204 77.6826796,185.910909 L7.68267964,146.793262 C2.93900409,144.142385 6.75015599e-14,139.133225 6.75015599e-14,133.69911 L6.03961325e-14,56.3008901 C5.5067062e-14,50.8667748 2.93900409,45.8576154 7.68267964,43.2067379 L77.6826796,4.08909079 C82.2299655,1.54796043 87.7700345,1.54796043 92.3173204,4.08909079 Z" id="path-1"></path>
    </defs>
    <g id="Hexagons" stroke="none" stroke-width="1" fill="none" fill-rule="evenodd" transform="translate(-1094.000000, -461.000000)">
        <g id="pinax-points" transform="translate(1094.000000, 459.000000)">
            <g>
                <g id="Badge">
                    <use fill="#FDCFCC" fill-rule="evenodd" xlink:href="#path-1"></use>
                    <path stroke="#F44336" stroke-width="15" d="M88.6586602,10.6361669 C86.3850172,9.36560173 83.6149828,9.36560173 81.3413398,10.6361669 L11.3413398,49.753814 C8.96950205,51.0792527 7.5,53.5838324 7.5,56.3008901 L7.5,133.69911 C7.5,136.416168 8.96950205,138.920747 11.3413398,140.246186 L81.3413398,179.363833 C83.6149828,180.634398 86.3850172,180.634398 88.6586602,179.363833 L158.65866,140.246186 C161.030498,138.920747 162.5,136.416168 162.5,133.69911 L162.5,56.3008901 C162.5,53.5838324 161.030498,51.0792527 158.65866,49.753814 L88.6586602,10.6361669 Z"></path>
                </g>
                <path d="M125.093693,65.7499702 C126.109319,65.7499702 126.972598,66.1054371 127.683535,66.8163732 C128.394473,67.5273093 128.749941,68.3905864 128.749941,69.406209 L128.749941,77.9374329 C128.749941,80.6796121 127.937442,83.3710109 126.312443,86.011627 C124.687443,88.6522432 122.351508,91.0897357 119.304635,93.3241047 C114.429638,96.7772199 108.843704,98.8592432 102.546834,99.5701793 C101.12496,102.007672 99.4999607,104.191258 97.6718369,106.120941 C96.4530877,107.44125 95.1835581,108.609213 93.8632457,109.624836 L92.1874656,110.843582 L92.1874656,121.812299 L99.4999607,121.812299 C102.242146,121.812299 104.552692,122.574015 106.431597,124.097448 C108.310501,125.620881 109.249954,127.702907 109.249954,130.343523 L109.249954,132.171642 C109.249954,132.679452 109.072219,133.111093 108.716751,133.46656 C108.361284,133.822027 107.929642,133.999762 107.42183,133.999762 L62.3281107,133.999762 C61.8202993,133.999762 61.3886574,133.822027 61.0331897,133.46656 C60.6777219,133.111093 60.4999869,132.679452 60.4999869,132.171642 L60.4999869,130.343523 C60.4999869,127.702907 61.4394402,125.620881 63.3183444,124.097448 C65.1972486,122.574015 67.5077947,121.812299 70.2499803,121.812299 L77.5624754,121.812299 L77.5624754,110.843582 L75.8866953,109.624836 C74.5663829,108.609213 73.2968533,107.44125 72.0781041,106.120941 C70.2499803,104.191258 68.6249806,102.007672 67.2031074,99.5701793 C60.9062374,98.8592432 55.3203029,96.7772199 50.4453061,93.3241047 C47.3984332,91.0897357 45.062498,88.6522432 43.4374984,86.011627 C41.8124987,83.3710109 41,80.6796121 41,77.9374329 L41,69.406209 C41,68.3905864 41.3554677,67.5273093 42.0664055,66.8163732 C42.7773433,66.1054371 43.6406224,65.7499702 44.6562475,65.7499702 L60.4999869,65.7499702 L60.4999869,59.6562388 C60.4999869,58.6406162 60.8554546,57.7773391 61.5663924,57.066403 C62.2773302,56.3554669 63.1406093,56 64.1562344,56 L105.593707,56 C106.609332,56 107.472611,56.3554669 108.183549,57.066403 C108.894486,57.7773391 109.249954,58.6406162 109.249954,59.6562388 L109.249954,65.7499702 L125.093693,65.7499702 Z M56.0819851,85.4022539 C58.0116675,86.7225631 60.1444735,87.7889661 62.4804031,88.6014628 C61.3632198,84.4374139 60.703064,80.0702389 60.4999404,75.4999404 L50.7499702,75.4999404 L50.7499702,77.9374329 C50.7499702,78.9530556 51.2070001,80.1210192 52.1210598,81.4413285 C53.0351195,82.7616377 54.3554287,84.0819446 56.0819851,85.4022539 Z M118.999762,77.9374329 L118.999762,75.4999404 L109.249791,75.4999404 C109.046668,80.0702389 108.386512,84.4374139 107.269329,88.6014628 C109.605258,87.7889661 111.738064,86.7225631 113.667747,85.4022539 C115.089617,84.2850706 116.333754,83.040933 117.400157,81.6698434 C118.46656,80.2987539 118.999762,79.0546163 118.999762,77.9374329 Z" id="Icon" fill="#F44336"></path>
            </g>
        </g>
    </g>
</svg>