<?xml version="1.0" encoding="UTF-8"?>
<svg width="170px" height="186px" viewBox="0 0 170 186" version="1.1" xmlns="http://www.w3.org/2000/svg" xmlns:xlink="http://www.w3.org/1999/xlink">
    <!-- Generator: Sketch 48.2 (47327) - http://www.bohemiancoding.com/sketch -->
    <title>pinax-invitations</title>
    <desc>Created with Sketch.</desc>
    <defs>
        <path d="M92.3173204,4.08909079 L162.31732,43.2067379 C167.060996,45.8576154 170,50.8667748 170,56.3008901 L170,133.69911 C170,139.133225 167.060996,144.142385 162.31732,146.793262 L92.3173204,185.910909 C87.7700345,188.45204 82.2299655,188.45204 77.6826796,185.910909 L7.68267964,146.793262 C2.93900409,144.142385 6.75015599e-14,139.133225 6.75015599e-14,133.69911 L6.03961325e-14,56.3008901 C5.5067062e-14,50.8667748 2.93900409,45.8576154 7.68267964,43.2067379 L77.6826796,4.08909079 C82.2299655,1.54796043 87.7700345,1.54796043 92.3173204,4.08909079 Z" id="path-1"></path>
    </defs>
    <g id="Hexagons" stroke="none" stroke-width="1" fill="none" fill-rule="evenodd" transform="translate(-674.000000, -667.000000)">
        <g id="pinax-invitations" transform="translate(674.000000, 665.000000)">
            <g>
                <g id="Badge">
                    <use fill="#9AD1D4" fill-rule="evenodd" xlink:href="#path-1"></use>
                    <path stroke="#003249" stroke-width="15" d="M88.6586602,10.6361669 C86.3850172,9.36560173 83.6149828,9.36560173 81.3413398,10.6361669 L11.3413398,49.753814 C8.96950205,51.0792527 7.5,53.5838324 7.5,56.3008901 L7.5,133.69911 C7.5,136.416168 8.96950205,138.920747 11.3413398,140.246186 L81.3413398,179.363833 C83.6149828,180.634398 86.3850172,180.634398 88.6586602,179.363833 L158.65866,140.246186 C161.030498,138.920747 162.5,136.416168 162.5,133.69911 L162.5,56.3008901 C162.5,53.5838324 161.030498,51.0792527 158.65866,49.753814 L88.6586602,10.6361669 Z"></path>
                </g>
                <path d="M128.000205,123.9375 C128.000205,126.177082 127.216348,128.08073 125.648637,129.648438 C124.080926,131.216145 122.177274,132 119.937686,132 L50.0625192,132 C47.8229314,132 45.9192793,131.216145 44.3515681,129.648438 C42.7838569,128.08073 42,126.177082 42,123.9375 L42,79.7617188 C42,77.0742188 43.0078149,74.9466137 45.0234447,73.3789062 C49.6146006,69.7955738 58.8529039,62.9648438 72.7383545,52.8867188 L74.2500769,51.7109375 C76.4896647,49.91927 78.2813365,48.6875 79.6250897,48.015625 C81.7526998,46.671875 83.544369,46 85.0001025,46 C86.455836,46 88.2475052,46.671875 90.3751153,48.015625 C91.7188685,48.6875 93.5105403,49.91927 95.7501282,51.7109375 L97.2618505,52.8867188 C111.147301,62.9648438 120.385604,69.7955738 124.97676,73.3789062 C126.99239,74.9466137 128.000205,77.0742188 128.000205,79.7617188 L128.000205,123.9375 Z M116.914063,90.8476562 C116.690105,90.6236988 116.410156,90.45573 116.074219,90.34375 C115.738281,90.23177 115.402344,90.2877613 115.066406,90.5117188 L95.75,104.789062 C93.5104175,106.58073 91.71875,107.8125 90.375,108.484375 C88.247395,109.828125 86.45573,110.5 85,110.5 C83.54427,110.5 81.752605,109.828125 79.625,108.484375 C78.28125,107.8125 76.4895825,106.58073 74.25,104.789062 L54.9335938,90.5117188 C54.5976563,90.2877613 54.2617188,90.23177 53.9257813,90.34375 C53.5898438,90.45573 53.309895,90.6236988 53.0859375,90.8476562 L51.5742188,93.1992187 C51.3502613,93.4231762 51.2662769,93.7311206 51.3222656,94.1230469 C51.3782544,94.5149731 51.51823,94.8229175 51.7421875,95.046875 L71.2265625,109.15625 C73.8020825,111.171875 75.9296875,112.627605 77.609375,113.523437 C80.296875,115.091145 82.7604175,115.875 85,115.875 C87.2395825,115.875 89.703125,115.091145 92.390625,113.523437 C94.0703125,112.627605 96.1979175,111.171875 98.7734375,109.15625 L118.257813,95.046875 C118.48177,94.8229175 118.621746,94.5149731 118.677734,94.1230469 C118.733723,93.7311206 118.649739,93.4231762 118.425781,93.1992187 L116.914063,90.8476562 Z" id="Icon" fill="#003249"></path>
            </g>
        </g>
    </g>
</svg>