<?xml version="1.0" encoding="UTF-8"?>
<svg width="169px" height="190px" viewBox="0 0 169 190" version="1.1" xmlns="http://www.w3.org/2000/svg" xmlns:xlink="http://www.w3.org/1999/xlink">
    <!-- Generator: Sketch 48.2 (47327) - http://www.bohemiancoding.com/sketch -->
    <title>pinax-teams</title>
    <desc>Created with Sketch.</desc>
    <defs>
        <polygon id="path-1" points="69.2820323 0 138.564065 40 138.564065 120 69.2820323 160 3.19744231e-14 120 -1.24344979e-14 40"></polygon>
    </defs>
    <g id="Hexagons" stroke="none" stroke-width="1" fill="none" fill-rule="evenodd" transform="translate(-466.000000, -35.000000)">
        <g id="pinax-teams" transform="translate(481.000000, 50.000000)">
            <g id="Polygon-Copy-2" stroke-linejoin="round">
                <use fill="#DDD4D1" fill-rule="evenodd" xlink:href="#path-1"></use>
                <path stroke="#795548" stroke-width="15" d="M69.2820323,-8.66025404 L146.064065,35.669873 L146.064065,124.330127 L69.2820323,168.660254 L-7.5,124.330127 L-7.5,35.669873 L69.2820323,-8.66025404 Z"></path>
            </g>
            <path d="M69.5,48 C72.7322908,48 75.6859375,48.7802092 78.3609375,50.340625 C81.0359375,51.9010408 83.1536467,54.01875 84.7140625,56.69375 C86.2744783,59.36875 87.0546875,62.3223967 87.0546875,65.5546875 C87.0546875,68.7869783 86.2744783,71.740625 84.7140625,74.415625 C83.1536467,77.090625 81.0359375,79.2083342 78.3609375,80.76875 C75.6859375,82.3291658 72.7322908,83.109375 69.5,83.109375 C66.2677092,83.109375 63.3140625,82.3291658 60.6390625,80.76875 C57.9640625,79.2083342 55.8463533,77.090625 54.2859375,74.415625 C52.7255217,71.740625 51.9453125,68.7869783 51.9453125,65.5546875 C51.9453125,62.3223967 52.7255217,59.36875 54.2859375,56.69375 C55.8463533,54.01875 57.9640625,51.9010408 60.6390625,50.340625 C63.3140625,48.7802092 66.2677092,48 69.5,48 Z M88.3921875,84.2796875 C91.1786467,84.9484375 93.4078125,86.3695312 95.0796875,88.5429688 C96.7515625,90.7164062 97.5875,93.1963533 97.5875,95.9828125 L97.5875,106.18125 C97.5875,107.853125 97.0023437,109.274219 95.8320312,110.444531 C94.6617187,111.614844 93.240625,112.2 91.56875,112.2 L47.43125,112.2 C45.759375,112.2 44.3382812,111.614844 43.1679687,110.444531 C41.9976562,109.274219 41.4125,107.853125 41.4125,106.18125 L41.4125,95.9828125 C41.4125,93.1963533 42.2484375,90.7164062 43.9203125,88.5429688 C45.5921875,86.3695312 47.8213533,84.9484375 50.6078125,84.2796875 L57.2953125,82.6078125 C60.6390625,85.0598967 64.484375,86.3973967 68.83125,86.6203125 C73.5125,86.8432283 77.8036467,85.5057283 81.7046875,82.6078125 L88.3921875,84.2796875 Z M104.275,87.45625 C101.042709,87.45625 98.2841154,86.3138029 95.9992187,84.0289063 C93.7143221,81.7440096 92.571875,78.9854158 92.571875,75.753125 C92.571875,72.5208342 93.7143221,69.7622404 95.9992187,67.4773438 C98.2841154,65.1924471 101.042709,64.05 104.275,64.05 C107.507291,64.05 110.265885,65.1924471 112.550781,67.4773438 C114.835678,69.7622404 115.978125,72.5208342 115.978125,75.753125 C115.978125,78.9854158 114.835678,81.7440096 112.550781,84.0289063 C110.265885,86.3138029 107.507291,87.45625 104.275,87.45625 Z M34.725,87.45625 C31.4927092,87.45625 28.7341154,86.3138029 26.4492188,84.0289063 C24.1643221,81.7440096 23.021875,78.9854158 23.021875,75.753125 C23.021875,72.5208342 24.1643221,69.7622404 26.4492188,67.4773438 C28.7341154,65.1924471 31.4927092,64.05 34.725,64.05 C37.9572908,64.05 40.7158846,65.1924471 43.0007812,67.4773438 C45.2856779,69.7622404 46.428125,72.5208342 46.428125,75.753125 C46.428125,78.9854158 45.2856779,81.7440096 43.0007812,84.0289063 C40.7158846,86.3138029 37.9572908,87.45625 34.725,87.45625 Z M38.7375,95.9828125 L38.7375,106.85 L20.0125,106.85 C18.8979158,106.85 17.9505217,106.459897 17.1703125,105.679688 C16.3901033,104.899478 16,103.952084 16,102.8375 L16,95.9828125 C16,94.1994783 16.5572908,92.5833342 17.671875,91.134375 C18.7864592,89.6854158 20.2354158,88.7380217 22.01875,88.2921875 L26.5328125,87.121875 C28.5390625,88.5708342 30.8239592,89.4346346 33.3875,89.7132812 C35.9510408,89.9919279 38.4588533,89.5739592 40.9109375,88.459375 C39.4619783,90.8 38.7375,93.3078125 38.7375,95.9828125 Z M116.98125,88.2921875 C118.764584,88.7380217 120.213541,89.6854158 121.328125,91.134375 C122.442709,92.5833342 123,94.1994783 123,95.9828125 L123,102.8375 C123,103.952084 122.609897,104.899478 121.829688,105.679688 C121.049478,106.459897 120.102084,106.85 118.9875,106.85 L100.2625,106.85 L100.2625,95.9828125 C100.2625,93.3078125 99.5380217,90.7442717 98.0890625,88.2921875 C100.318228,89.4067717 102.658853,89.9083342 105.110937,89.796875 C107.785937,89.6854158 110.238022,88.79375 112.467188,87.121875 L116.98125,88.2921875 Z" fill="#795548"></path>
        </g>
    </g>
</svg>