<?xml version="1.0" encoding="UTF-8"?>
<svg width="170px" height="186px" viewBox="0 0 170 186" version="1.1" xmlns="http://www.w3.org/2000/svg" xmlns:xlink="http://www.w3.org/1999/xlink">
    <!-- Generator: Sketch 48.2 (47327) - http://www.bohemiancoding.com/sketch -->
    <title>pinax-documents</title>
    <desc>Created with Sketch.</desc>
    <defs>
        <path d="M92.3173204,4.08909079 L162.31732,43.2067379 C167.060996,45.8576154 170,50.8667748 170,56.3008901 L170,133.69911 C170,139.133225 167.060996,144.142385 162.31732,146.793262 L92.3173204,185.910909 C87.7700345,188.45204 82.2299655,188.45204 77.6826796,185.910909 L7.68267964,146.793262 C2.93900409,144.142385 6.75015599e-14,139.133225 6.75015599e-14,133.69911 L6.03961325e-14,56.3008901 C5.5067062e-14,50.8667748 2.93900409,45.8576154 7.68267964,43.2067379 L77.6826796,4.08909079 C82.2299655,1.54796043 87.7700345,1.54796043 92.3173204,4.08909079 Z" id="path-1"></path>
    </defs>
    <g id="Hexagons" stroke="none" stroke-width="1" fill="none" fill-rule="evenodd" transform="translate(-674.000000, -247.000000)">
        <g id="pinax-documents" transform="translate(674.000000, 245.000000)">
            <g>
                <g id="Badge">
                    <use fill="#BEE4E1" fill-rule="evenodd" xlink:href="#path-1"></use>
                    <path stroke="#009688" stroke-width="15" d="M88.6586602,10.6361669 C86.3850172,9.36560173 83.6149828,9.36560173 81.3413398,10.6361669 L11.3413398,49.753814 C8.96950205,51.0792527 7.5,53.5838324 7.5,56.3008901 L7.5,133.69911 C7.5,136.416168 8.96950205,138.920747 11.3413398,140.246186 L81.3413398,179.363833 C83.6149828,180.634398 86.3850172,180.634398 88.6586602,179.363833 L158.65866,140.246186 C161.030498,138.920747 162.5,136.416168 162.5,133.69911 L162.5,56.3008901 C162.5,53.5838324 161.030498,51.0792527 158.65866,49.753814 L88.6586602,10.6361669 Z"></path>
                </g>
                <path d="M104.249866,93.4373845 L104.249866,98.9061215 C104.249866,99.5571606 104.022001,100.110547 103.566274,100.566274 C103.110547,101.022001 102.557161,101.249866 101.906121,101.249866 L69.0936997,101.249866 C68.4426606,101.249866 67.8892745,101.022001 67.4335474,100.566274 C66.9778203,100.110547 66.7499553,99.5571606 66.7499553,98.9061215 L66.7499553,93.4373845 C66.7499553,92.7863454 66.9778203,92.2329593 67.4335474,91.7772322 C67.8892745,91.3215051 68.4426606,91.0936401 69.0936997,91.0936401 L101.906121,91.0936401 C102.557161,91.0936401 103.110547,91.3215051 103.566274,91.7772322 C104.022001,92.2329593 104.249866,92.7863454 104.249866,93.4373845 Z M69.0936997,107.499851 L101.906121,107.499851 C102.557161,107.499851 103.110547,107.727716 103.566274,108.183443 C104.022001,108.63917 104.249866,109.192556 104.249866,109.843595 L104.249866,115.312332 C104.249866,115.963371 104.022001,116.516758 103.566274,116.972485 C103.110547,117.428212 102.557161,117.656077 101.906121,117.656077 L69.0936997,117.656077 C68.4426606,117.656077 67.8892745,117.428212 67.4335474,116.972485 C66.9778203,116.516758 66.7499553,115.963371 66.7499553,115.312332 L66.7499553,109.843595 C66.7499553,109.192556 66.9778203,108.63917 67.4335474,108.183443 C67.8892745,107.727716 68.4426606,107.499851 69.0936997,107.499851 Z M123,70.7811885 L123,135.624784 C123,138.228943 122.088541,140.442482 120.265625,142.265393 C118.442709,144.088304 116.229166,144.999762 113.625,144.999762 L57.375,144.999762 C54.7708343,144.999762 52.5572907,144.088304 50.734375,142.265393 C48.9114593,140.442482 48,138.228943 48,135.624784 L48,54.3749776 C48,51.7708182 48.9114593,49.5572798 50.734375,47.7343685 C52.5572907,45.9114572 54.7708343,45 57.375,45 L97.21875,45 C99.8229157,45 102.036459,45.9114572 103.859375,47.7343685 L120.265625,64.1405794 C122.088541,65.9634907 123,68.1770291 123,70.7811885 Z M97.9998808,55.1562258 L97.9998808,69.9999404 L112.843595,69.9999404 L97.9998808,55.1562258 Z M113.624844,135.624784 L113.624844,79.374918 L93.312392,79.374918 C92.0103107,79.374918 90.9035445,78.919191 89.9920874,78.0077338 C89.0806302,77.0962766 88.6249031,75.9895104 88.6249031,74.6874292 L88.6249031,54.3749776 L57.3749776,54.3749776 L57.3749776,135.624784 L113.624844,135.624784 Z" id="Icon" fill="#009688"></path>
            </g>
        </g>
    </g>
</svg>