<?xml version="1.0" encoding="UTF-8"?>
<svg width="170px" height="186px" viewBox="0 0 170 186" version="1.1" xmlns="http://www.w3.org/2000/svg" xmlns:xlink="http://www.w3.org/1999/xlink">
    <!-- Generator: Sketch 48.2 (47327) - http://www.bohemiancoding.com/sketch -->
    <title>pinax-events</title>
    <desc>Created with Sketch.</desc>
    <defs>
        <path d="M92.3173204,4.08909079 L162.31732,43.2067379 C167.060996,45.8576154 170,50.8667748 170,56.3008901 L170,133.69911 C170,139.133225 167.060996,144.142385 162.31732,146.793262 L92.3173204,185.910909 C87.7700345,188.45204 82.2299655,188.45204 77.6826796,185.910909 L7.68267964,146.793262 C2.93900409,144.142385 6.75015599e-14,139.133225 6.75015599e-14,133.69911 L6.03961325e-14,56.3008901 C5.5067062e-14,50.8667748 2.93900409,45.8576154 7.68267964,43.2067379 L77.6826796,4.08909079 C82.2299655,1.54796043 87.7700345,1.54796043 92.3173204,4.08909079 Z" id="path-1"></path>
    </defs>
    <g id="Hexagons" stroke="none" stroke-width="1" fill="none" fill-rule="evenodd" transform="translate(-1094.000000, -667.000000)">
        <g id="pinax-events" transform="translate(1094.000000, 665.000000)">
            <g>
                <g id="Badge">
                    <use fill="#E8D1DB" fill-rule="evenodd" xlink:href="#path-1"></use>
                    <path stroke="#70163C" stroke-width="15" d="M88.6586602,10.6361669 C86.3850172,9.36560173 83.6149828,9.36560173 81.3413398,10.6361669 L11.3413398,49.753814 C8.96950205,51.0792527 7.5,53.5838324 7.5,56.3008901 L7.5,133.69911 C7.5,136.416168 8.96950205,138.920747 11.3413398,140.246186 L81.3413398,179.363833 C83.6149828,180.634398 86.3850172,180.634398 88.6586602,179.363833 L158.65866,140.246186 C161.030498,138.920747 162.5,136.416168 162.5,133.69911 L162.5,56.3008901 C162.5,53.5838324 161.030498,51.0792527 158.65866,49.753814 L88.6586602,10.6361669 Z"></path>
                </g>
                <path d="M120.679688,79.9375 L51.9453125,79.9375 C51.4049487,79.9375 50.9456372,79.7483716 50.5673828,79.3701172 C50.1891284,78.9918628 50,78.5325513 50,77.9921875 L50,72.15625 C50,69.9947925 50.7565112,68.1575513 52.2695312,66.6445313 C53.7825513,65.1315112 55.6197925,64.375 57.78125,64.375 L65.5625,64.375 L65.5625,55.9453125 C65.5625,55.4049487 65.7516284,54.9456372 66.1298828,54.5673828 C66.5081372,54.1891284 66.9674487,54 67.5078125,54 L73.9921875,54 C74.5325513,54 74.9918628,54.1891284 75.3701172,54.5673828 C75.7483716,54.9456372 75.9375,55.4049487 75.9375,55.9453125 L75.9375,64.375 L96.6875,64.375 L96.6875,55.9453125 C96.6875,55.4049487 96.8766284,54.9456372 97.2548828,54.5673828 C97.6331372,54.1891284 98.0924487,54 98.6328125,54 L105.117188,54 C105.657551,54 106.116863,54.1891284 106.495117,54.5673828 C106.873372,54.9456372 107.0625,55.4049487 107.0625,55.9453125 L107.0625,64.375 L114.84375,64.375 C117.005208,64.375 118.842449,65.1315112 120.355469,66.6445313 C121.868489,68.1575513 122.625,69.9947925 122.625,72.15625 L122.625,77.9921875 C122.625,78.5325513 122.435872,78.9918628 122.057617,79.3701172 C121.679363,79.7483716 121.220051,79.9375 120.679688,79.9375 Z M51.9453125,85.125 L120.679688,85.125 C121.220051,85.125 121.679363,85.3141284 122.057617,85.6923828 C122.435872,86.0706372 122.625,86.5299487 122.625,87.0703125 L122.625,129.21875 C122.625,131.380208 121.868489,133.217449 120.355469,134.730469 C118.842449,136.243489 117.005208,137 114.84375,137 L57.78125,137 C55.6197925,137 53.7825513,136.243489 52.2695312,134.730469 C50.7565112,133.217449 50,131.380208 50,129.21875 L50,87.0703125 C50,86.5299487 50.1891284,86.0706372 50.5673828,85.6923828 C50.9456372,85.3141284 51.4049487,85.125 51.9453125,85.125 Z M105.927734,100.6875 L101.388672,96.1484375 C101.064453,95.716145 100.632161,95.5 100.091797,95.5 C99.5514331,95.5 99.065105,95.6621094 98.6328125,95.9863281 L81.4492188,113.169922 L73.9921875,105.550781 C73.6679688,105.226562 73.2356763,105.064453 72.6953125,105.064453 C72.1549487,105.064453 71.6686206,105.226562 71.2363281,105.550781 L66.6972656,110.089844 C66.2649731,110.522136 66.0488281,111.008464 66.0488281,111.548828 C66.0488281,112.089192 66.2649731,112.521484 66.6972656,112.845703 L79.9902344,126.462891 C80.4225269,126.787109 80.908855,126.949219 81.4492188,126.949219 C81.9895825,126.949219 82.421875,126.787109 82.7460938,126.462891 L105.927734,103.443359 C106.360027,103.011067 106.576172,102.524739 106.576172,101.984375 C106.576172,101.444011 106.360027,101.011719 105.927734,100.6875 Z" id="Icon" fill="#70163C"></path>
            </g>
        </g>
    </g>
</svg>