<?xml version="1.0" encoding="UTF-8"?>
<svg width="169px" height="190px" viewBox="0 0 169 190" version="1.1" xmlns="http://www.w3.org/2000/svg" xmlns:xlink="http://www.w3.org/1999/xlink">
    <!-- Generator: Sketch 48.2 (47327) - http://www.bohemiancoding.com/sketch -->
    <title>pinax-announcements</title>
    <desc>Created with Sketch.</desc>
    <defs>
        <polygon id="path-1" points="69.2820323 0 138.564065 40 138.564065 120 69.2820323 160 9.05941988e-14 120 4.61852778e-14 40"></polygon>
    </defs>
    <g id="Hexagons" stroke="none" stroke-width="1" fill="none" fill-rule="evenodd" transform="translate(-886.000000, -35.000000)">
        <g id="pinax-announcements" transform="translate(901.000000, 50.000000)">
            <g id="Polygon-Copy-4" stroke-linejoin="round">
                <use fill="#607D8B" fill-rule="evenodd" xlink:href="#path-1"></use>
                <path stroke="#FFC107" stroke-width="15" d="M69.2820323,-8.66025404 L146.064065,35.669873 L146.064065,124.330127 L69.2820323,168.660254 L-7.5,124.330127 L-7.5,35.669873 L69.2820323,-8.66025404 Z"></path>
            </g>
            <path d="M114,74.9999166 C114,76.5624128 113.53125,77.9947019 112.59375,79.2967813 C111.65625,80.5988607 110.458333,81.5103185 109,82.0311498 L109,99.9998569 C109,102.81235 108.036458,105.182137 106.109375,107.109215 C104.182292,109.036293 101.8125,109.999833 99,109.999833 L97.59375,108.749836 C93.3229175,105.104012 89.9895825,102.395684 87.59375,100.624855 C83.4270825,97.6040301 79.3125,95.2602857 75.25,93.5936222 C70.3541675,91.6144595 65.1979175,90.4686297 59.78125,90.1561304 C57.28125,90.989461 55.5885425,92.604042 54.703125,94.9998689 C53.8177075,97.3956957 54,99.5311081 55.25,101.406104 C55.6666675,102.031102 55.71875,102.656101 55.40625,103.281099 C54.6770825,105.051927 54.6770825,106.770673 55.40625,108.437337 C55.9270825,109.791501 56.96875,111.24983 58.53125,112.812326 C59.5729175,113.749824 59.9635425,114.869614 59.703125,116.171693 C59.4427075,117.473773 58.6875,118.385231 57.4375,118.906062 C55.4583325,119.739392 52.9322925,120.077934 49.859375,119.921684 C46.7864575,119.765435 44.4166675,119.166479 42.75,118.124814 C42.0208325,117.708147 41.5,117.031066 41.1875,116.093569 L40.40625,113.906074 C38.84375,109.010253 37.8541675,105.260262 37.4375,102.656101 C36.8125,98.281111 37.0729175,94.0623711 38.21875,89.9998808 L31.5,89.9998808 C29.4166675,89.9998808 27.6458325,89.2707151 26.1875,87.812386 C24.7291675,86.3540569 24,84.5832262 24,82.4998987 L24,67.4999344 C24,65.4166069 24.7291675,63.6457762 26.1875,62.1874471 C27.6458325,60.729118 29.4166675,59.9999523 31.5,59.9999523 L56.5,59.9999523 C62.5416675,59.9999523 68.21875,59.0103721 73.53125,57.0312094 C78.0104175,55.3645459 82.4375,52.9687191 86.8125,49.8437265 C89.5208325,47.968731 93.1145825,45.1041553 97.59375,41.249997 L99,40 C101.8125,40 104.182292,40.9635402 106.109375,42.8906181 C108.036458,44.8176961 109,47.1874829 109,49.9999762 L109,67.9686833 C110.458333,68.4895146 111.65625,69.4009724 112.59375,70.7030518 C113.53125,72.0051312 114,73.4374203 114,74.9999166 Z M98.9998212,96.8748644 L98.9998212,53.1249687 C93.7915011,57.4999583 88.8435954,60.8853677 84.1561066,63.2811945 C77.6977894,66.6145191 70.9790555,68.697849 63.9999046,69.5311796 L63.9999046,80.4686535 C70.9790555,81.3019841 77.6977894,83.385314 84.1561066,86.7186386 C88.8435954,89.1144654 93.7915011,92.4998748 98.9998212,96.8748644 Z" fill="#FFC107"></path>
            <path d="M98.9998212,96.8748644 L98.9998212,53.1249687 C93.7915011,57.4999583 88.8435954,60.8853677 84.1561066,63.2811945 C77.6977894,66.6145191 70.9790555,68.697849 63.9999046,69.5311796 L63.9999046,80.4686535 C70.9790555,81.3019841 77.6977894,83.385314 84.1561066,86.7186386 C88.8435954,89.1144654 93.7915011,92.4998748 98.9998212,96.8748644 Z" id="Path-Copy" fill-opacity="0.320737092" fill="#FFC107"></path>
        </g>
    </g>
</svg>