<?xml version="1.0" encoding="UTF-8"?>
<svg width="170px" height="186px" viewBox="0 0 170 186" version="1.1" xmlns="http://www.w3.org/2000/svg" xmlns:xlink="http://www.w3.org/1999/xlink">
    <!-- Generator: Sketch 48.2 (47327) - http://www.bohemiancoding.com/sketch -->
    <title>pinax-images</title>
    <desc>Created with Sketch.</desc>
    <defs>
        <path d="M92.3173204,4.08909079 L162.31732,43.2067379 C167.060996,45.8576154 170,50.8667748 170,56.3008901 L170,133.69911 C170,139.133225 167.060996,144.142385 162.31732,146.793262 L92.3173204,185.910909 C87.7700345,188.45204 82.2299655,188.45204 77.6826796,185.910909 L7.68267964,146.793262 C2.93900409,144.142385 6.75015599e-14,139.133225 6.75015599e-14,133.69911 L6.03961325e-14,56.3008901 C5.5067062e-14,50.8667748 2.93900409,45.8576154 7.68267964,43.2067379 L77.6826796,4.08909079 C82.2299655,1.54796043 87.7700345,1.54796043 92.3173204,4.08909079 Z" id="path-1"></path>
    </defs>
    <g id="Hexagons" stroke="none" stroke-width="1" fill="none" fill-rule="evenodd" transform="translate(-1094.000000, -247.000000)">
        <g id="pinax-images" transform="translate(1094.000000, 245.000000)">
            <g>
                <g id="Badge">
                    <use fill="#BEE9FC" fill-rule="evenodd" xlink:href="#path-1"></use>
                    <path stroke="#03A9F4" stroke-width="15" d="M88.6586602,10.6361669 C86.3850172,9.36560173 83.6149828,9.36560173 81.3413398,10.6361669 L11.3413398,49.753814 C8.96950205,51.0792527 7.5,53.5838324 7.5,56.3008901 L7.5,133.69911 C7.5,136.416168 8.96950205,138.920747 11.3413398,140.246186 L81.3413398,179.363833 C83.6149828,180.634398 86.3850172,180.634398 88.6586602,179.363833 L158.65866,140.246186 C161.030498,138.920747 162.5,136.416168 162.5,133.69911 L162.5,56.3008901 C162.5,53.5838324 161.030498,51.0792527 158.65866,49.753814 L88.6586602,10.6361669 Z"></path>
                </g>
                <path d="M125.625,58 C128.229166,58 130.442709,58.9114572 132.265625,60.7343685 C134.088541,62.5572798 135,64.7708182 135,67.3749776 L135,123.624844 C135,126.229003 134.088541,128.442541 132.265625,130.265453 C130.442709,132.088364 128.229166,132.999821 125.625,132.999821 L44.375,132.999821 C41.7708343,132.999821 39.5572907,132.088364 37.734375,130.265453 C35.9114593,128.442541 35,126.229003 35,123.624844 L35,67.3749776 C35,64.7708182 35.9114593,62.5572798 37.734375,60.7343685 C39.5572907,58.9114572 41.7708343,58 44.375,58 L125.625,58 Z M124.452912,123.624844 C124.713327,123.624844 124.973745,123.494635 125.23416,123.234219 C125.494575,122.973804 125.624784,122.713386 125.624784,122.452971 L125.624784,68.5468499 C125.624784,68.2864348 125.494575,68.0260168 125.23416,67.7656017 C124.973745,67.5051867 124.713327,67.3749776 124.452912,67.3749776 L45.5468499,67.3749776 C45.2864348,67.3749776 45.0260168,67.5051867 44.7656017,67.7656017 C44.5051867,68.0260168 44.3749776,68.2864348 44.3749776,68.5468499 L44.3749776,122.452971 C44.3749776,122.713386 44.5051867,122.973804 44.7656017,123.234219 C45.0260168,123.494635 45.2864348,123.624844 45.5468499,123.624844 L124.452912,123.624844 Z M59.9999404,75.187459 C62.2134758,75.187459 64.0689401,75.9361542 65.5663334,77.4335474 C67.0637266,78.9309407 67.8124218,80.786405 67.8124218,82.9999404 C67.8124218,85.2134758 67.0637266,87.0689401 65.5663334,88.5663334 C64.0689401,90.0637266 62.2134758,90.8124218 59.9999404,90.8124218 C57.786405,90.8124218 55.9309407,90.0637266 54.4335474,88.5663334 C52.9361542,87.0689401 52.187459,85.2134758 52.187459,82.9999404 C52.187459,80.786405 52.9361542,78.9309407 54.4335474,77.4335474 C55.9309407,75.9361542 57.786405,75.187459 59.9999404,75.187459 Z M53.7499553,114.249866 L53.7499553,104.874888 L61.5624367,97.0624069 C61.9530607,96.6717828 62.4738938,96.4764708 63.1249329,96.4764708 C63.7759721,96.4764708 64.2968052,96.6717828 64.6874292,97.0624069 L72.4999106,104.874888 L95.9373547,81.4374441 C96.3279788,81.0468201 96.8488119,80.851508 97.499851,80.851508 C98.1508901,80.851508 98.6717232,81.0468201 99.0623473,81.4374441 L116.249806,98.6249031 L116.249806,114.249866 L53.7499553,114.249866 Z" id="Icon" fill="#03A9F4"></path>
            </g>
        </g>
    </g>
</svg>