<?xml version="1.0" encoding="UTF-8"?>
<svg width="170px" height="186px" viewBox="0 0 170 186" version="1.1" xmlns="http://www.w3.org/2000/svg" xmlns:xlink="http://www.w3.org/1999/xlink">
    <!-- Generator: Sketch 48.2 (47327) - http://www.bohemiancoding.com/sketch -->
    <title>pinax-calendars</title>
    <desc>Created with Sketch.</desc>
    <defs>
        <path d="M92.3173204,4.08909079 L162.31732,43.2067379 C167.060996,45.8576154 170,50.8667748 170,56.3008901 L170,133.69911 C170,139.133225 167.060996,144.142385 162.31732,146.793262 L92.3173204,185.910909 C87.7700345,188.45204 82.2299655,188.45204 77.6826796,185.910909 L7.68267964,146.793262 C2.93900409,144.142385 -3.55271368e-15,139.133225 -3.55271368e-15,133.69911 L-1.0658141e-14,56.3008901 C-1.59872116e-14,50.8667748 2.93900409,45.8576154 7.68267964,43.2067379 L77.6826796,4.08909079 C82.2299655,1.54796043 87.7700345,1.54796043 92.3173204,4.08909079 Z" id="path-1"></path>
    </defs>
    <g id="Hexagons" stroke="none" stroke-width="1" fill="none" fill-rule="evenodd" transform="translate(-254.000000, -247.000000)">
        <g id="pinax-calendars" transform="translate(254.000000, 245.000000)">
            <g>
                <g id="Badge">
                    <use fill="#E1EFD1" fill-rule="evenodd" xlink:href="#path-1"></use>
                    <path stroke="#8BC34A" stroke-width="15" d="M88.6586602,10.6361669 C86.3850172,9.36560173 83.6149828,9.36560173 81.3413398,10.6361669 L11.3413398,49.753814 C8.96950205,51.0792527 7.5,53.5838324 7.5,56.3008901 L7.5,133.69911 C7.5,136.416168 8.96950205,138.920747 11.3413398,140.246186 L81.3413398,179.363833 C83.6149828,180.634398 86.3850172,180.634398 88.6586602,179.363833 L158.65866,140.246186 C161.030498,138.920747 162.5,136.416168 162.5,133.69911 L162.5,56.3008901 C162.5,53.5838324 161.030498,51.0792527 158.65866,49.753814 L88.6586602,10.6361669 Z"></path>
                </g>
                <path d="M72.015625,100.625 L64.984375,100.625 C64.3984384,100.625 63.9003897,100.419921 63.4902344,100.009766 C63.080079,99.5996103 62.875,99.1015616 62.875,98.515625 L62.875,91.484375 C62.875,90.8984384 63.080079,90.4003897 63.4902344,89.9902344 C63.9003897,89.580079 64.3984384,89.375 64.984375,89.375 L72.015625,89.375 C72.6015616,89.375 73.0996103,89.580079 73.5097656,89.9902344 C73.919921,90.4003897 74.125,90.8984384 74.125,91.484375 L74.125,98.515625 C74.125,99.1015616 73.919921,99.5996103 73.5097656,100.009766 C73.0996103,100.419921 72.6015616,100.625 72.015625,100.625 Z M91,91.484375 L91,98.515625 C91,99.1015616 90.794921,99.5996103 90.3847656,100.009766 C89.9746103,100.419921 89.4765616,100.625 88.890625,100.625 L81.859375,100.625 C81.2734384,100.625 80.7753897,100.419921 80.3652344,100.009766 C79.955079,99.5996103 79.75,99.1015616 79.75,98.515625 L79.75,91.484375 C79.75,90.8984384 79.955079,90.4003897 80.3652344,89.9902344 C80.7753897,89.580079 81.2734384,89.375 81.859375,89.375 L88.890625,89.375 C89.4765616,89.375 89.9746103,89.580079 90.3847656,89.9902344 C90.794921,90.4003897 91,90.8984384 91,91.484375 Z M107.875,91.484375 L107.875,98.515625 C107.875,99.1015616 107.669921,99.5996103 107.259766,100.009766 C106.84961,100.419921 106.351562,100.625 105.765625,100.625 L98.734375,100.625 C98.1484384,100.625 97.6503897,100.419921 97.2402344,100.009766 C96.830079,99.5996103 96.625,99.1015616 96.625,98.515625 L96.625,91.484375 C96.625,90.8984384 96.830079,90.4003897 97.2402344,89.9902344 C97.6503897,89.580079 98.1484384,89.375 98.734375,89.375 L105.765625,89.375 C106.351562,89.375 106.84961,89.580079 107.259766,89.9902344 C107.669921,90.4003897 107.875,90.8984384 107.875,91.484375 Z M91,108.359375 L91,115.390625 C91,115.976562 90.794921,116.47461 90.3847656,116.884766 C89.9746103,117.294921 89.4765616,117.5 88.890625,117.5 L81.859375,117.5 C81.2734384,117.5 80.7753897,117.294921 80.3652344,116.884766 C79.955079,116.47461 79.75,115.976562 79.75,115.390625 L79.75,108.359375 C79.75,107.773438 79.955079,107.27539 80.3652344,106.865234 C80.7753897,106.455079 81.2734384,106.25 81.859375,106.25 L88.890625,106.25 C89.4765616,106.25 89.9746103,106.455079 90.3847656,106.865234 C90.794921,107.27539 91,107.773438 91,108.359375 Z M74.125,108.359375 L74.125,115.390625 C74.125,115.976562 73.919921,116.47461 73.5097656,116.884766 C73.0996103,117.294921 72.6015616,117.5 72.015625,117.5 L64.984375,117.5 C64.3984384,117.5 63.9003897,117.294921 63.4902344,116.884766 C63.080079,116.47461 62.875,115.976562 62.875,115.390625 L62.875,108.359375 C62.875,107.773438 63.080079,107.27539 63.4902344,106.865234 C63.9003897,106.455079 64.3984384,106.25 64.984375,106.25 L72.015625,106.25 C72.6015616,106.25 73.0996103,106.455079 73.5097656,106.865234 C73.919921,107.27539 74.125,107.773438 74.125,108.359375 Z M107.875,108.359375 L107.875,115.390625 C107.875,115.976562 107.669921,116.47461 107.259766,116.884766 C106.84961,117.294921 106.351562,117.5 105.765625,117.5 L98.734375,117.5 C98.1484384,117.5 97.6503897,117.294921 97.2402344,116.884766 C96.830079,116.47461 96.625,115.976562 96.625,115.390625 L96.625,108.359375 C96.625,107.773438 96.830079,107.27539 97.2402344,106.865234 C97.6503897,106.455079 98.1484384,106.25 98.734375,106.25 L105.765625,106.25 C106.351562,106.25 106.84961,106.455079 107.259766,106.865234 C107.669921,107.27539 107.875,107.773438 107.875,108.359375 Z M124.750188,69.6875 L124.750188,131.5625 C124.750188,133.906249 123.929872,135.898438 122.289244,137.539062 C120.648616,139.179687 118.656422,140 116.312668,140 L54.4375201,140 C52.0937654,140 50.1015714,139.179687 48.4609434,137.539062 C46.8203153,135.898438 46,133.906249 46,131.5625 L46,69.6875 C46,67.3437509 46.8203153,65.3515616 48.4609434,63.7109375 C50.1015714,62.0703134 52.0937654,61.25 54.4375201,61.25 L62.8750402,61.25 L62.8750402,52.109375 C62.8750402,51.5234384 63.0801197,51.0253897 63.4902761,50.6152344 C63.9004324,50.205079 64.3984823,50 64.9844203,50 L72.015687,50 C72.601625,50 73.0996749,50.205079 73.5098312,50.6152344 C73.9199875,51.0253897 74.1250671,51.5234384 74.1250671,52.109375 L74.1250671,61.25 L96.6251207,61.25 L96.6251207,52.109375 C96.6251207,51.5234384 96.8302002,51.0253897 97.2403565,50.6152344 C97.6505129,50.205079 98.1485627,50 98.7345007,50 L105.765767,50 C106.351705,50 106.849755,50.205079 107.259912,50.6152344 C107.670068,51.0253897 107.875148,51.5234384 107.875148,52.109375 L107.875148,61.25 L116.312668,61.25 C118.656422,61.25 120.648616,62.0703134 122.289244,63.7109375 C123.929872,65.3515616 124.750188,67.3437509 124.750188,69.6875 Z M116.3125,130.507813 L116.3125,78.125 L54.4375,78.125 L54.4375,130.507813 C54.4375,130.742187 54.5546884,130.976563 54.7890625,131.210938 C55.0234366,131.445312 55.2578134,131.5625 55.4921875,131.5625 L115.257813,131.5625 C115.492187,131.5625 115.726563,131.445312 115.960938,131.210938 C116.195312,130.976563 116.3125,130.742187 116.3125,130.507813 Z" id="Icon" fill="#8BC34A"></path>
            </g>
        </g>
    </g>
</svg>