<?xml version="1.0" encoding="UTF-8"?>
<svg width="169px" height="190px" viewBox="0 0 169 190" version="1.1" xmlns="http://www.w3.org/2000/svg" xmlns:xlink="http://www.w3.org/1999/xlink">
    <!-- Generator: Sketch 48.2 (47327) - http://www.bohemiancoding.com/sketch -->
    <title>pinax-phone-confirmation</title>
    <desc>Created with Sketch.</desc>
    <defs>
        <polygon id="path-1" points="69.2820323 0 138.564065 40 138.564065 120 69.2820323 160 9.05941988e-14 120 4.61852778e-14 40"></polygon>
    </defs>
    <g id="Hexagons" stroke="none" stroke-width="1" fill="none" fill-rule="evenodd" transform="translate(-886.000000, -455.000000)">
        <g id="pinax-phone-confirmation" transform="translate(901.000000, 470.000000)">
            <g id="Polygon-Copy-13" stroke-linejoin="round">
                <use fill="#FAC6D7" fill-rule="evenodd" xlink:href="#path-1"></use>
                <path stroke="#E91E63" stroke-width="15" d="M69.2820323,-8.66025404 L146.064065,35.669873 L146.064065,124.330127 L69.2820323,168.660254 L-7.5,124.330127 L-7.5,35.669873 L69.2820323,-8.66025404 Z"></path>
            </g>
            <path d="M107.818058,42.0463612 C108.802311,42.1557231 109.567841,42.5931659 110.114647,43.3586946 C110.661453,44.1242232 110.934858,44.9444316 110.934858,45.8193197 C110.934858,59.5988205 107.489974,72.3940712 100.600207,84.2050719 C93.8198027,95.6879892 84.6881268,104.819643 73.2051821,111.600032 C61.3941533,118.489782 48.598872,121.934657 34.8193384,121.934657 C33.9444482,121.934657 33.1242378,121.661254 32.3587073,121.114449 C31.5931769,120.567644 31.155733,119.802116 31.0463708,118.817866 L27.1093612,101.757531 C26.8906393,100.882643 26.999999,100.007752 27.4374453,99.1328644 C27.8748917,98.2579763 28.5310599,97.6564893 29.4059501,97.328406 L47.7786617,89.4544055 C48.5441922,89.1263222 49.3370613,89.0716424 50.1572717,89.2903638 C50.977482,89.5090852 51.7156713,89.9465305 52.3718396,90.6026972 L60.4099009,100.445198 C66.8622213,97.4924476 72.576355,93.5007677 77.5522969,88.4701555 C82.5282388,83.4395432 86.4925896,77.7527668 89.4453468,71.4098212 L79.6028227,63.371779 C78.9466545,62.7156123 78.5092081,61.9774248 78.2904862,61.1572164 C78.0717643,60.337008 78.1264441,59.5441408 78.4545283,58.7786121 L86.3285475,40.4059444 C86.6566316,39.5310563 87.25812,38.8748896 88.1330102,38.4374443 C89.0079004,37.999999 89.8827931,37.8906395 90.7576833,38.1093609 L107.818058,42.0463612 Z" fill="#E91E63"></path>
        </g>
    </g>
</svg>