<?xml version="1.0" encoding="UTF-8"?>
<svg width="170px" height="186px" viewBox="0 0 170 186" version="1.1" xmlns="http://www.w3.org/2000/svg" xmlns:xlink="http://www.w3.org/1999/xlink">
    <!-- Generator: Sketch 48.2 (47327) - http://www.bohemiancoding.com/sketch -->
    <title>pinax-templates</title>
    <desc>Created with Sketch.</desc>
    <defs>
        <path d="M92.3173204,4.08909079 L162.31732,43.2067379 C167.060996,45.8576154 170,50.8667748 170,56.3008901 L170,133.69911 C170,139.133225 167.060996,144.142385 162.31732,146.793262 L92.3173204,185.910909 C87.7700345,188.45204 82.2299655,188.45204 77.6826796,185.910909 L7.68267964,146.793262 C2.93900409,144.142385 6.75015599e-14,139.133225 6.75015599e-14,133.69911 L6.03961325e-14,56.3008901 C5.5067062e-14,50.8667748 2.93900409,45.8576154 7.68267964,43.2067379 L77.6826796,4.08909079 C82.2299655,1.54796043 87.7700345,1.54796043 92.3173204,4.08909079 Z" id="path-1"></path>
    </defs>
    <g id="Hexagons" stroke="none" stroke-width="1" fill="none" fill-rule="evenodd" transform="translate(-1094.000000, -877.000000)">
        <g id="pinax-templates" transform="translate(1093.000000, 875.000000)">
            <g transform="translate(1.000000, 0.000000)">
                <g id="-Badge">
                    <use fill="#FFF8CD" fill-rule="evenodd" xlink:href="#path-1"></use>
                    <path stroke="#3A5683" stroke-width="15" d="M88.6586602,10.6361669 C86.3850172,9.36560173 83.6149828,9.36560173 81.3413398,10.6361669 L11.3413398,49.753814 C8.96950205,51.0792527 7.5,53.5838324 7.5,56.3008901 L7.5,133.69911 C7.5,136.416168 8.96950205,138.920747 11.3413398,140.246186 L81.3413398,179.363833 C83.6149828,180.634398 86.3850172,180.634398 88.6586602,179.363833 L158.65866,140.246186 C161.030498,138.920747 162.5,136.416168 162.5,133.69911 L162.5,56.3008901 C162.5,53.5838324 161.030498,51.0792527 158.65866,49.753814 L88.6586602,10.6361669 Z"></path>
                </g>
                <path d="M120.785907,56 C123.10734,56 125.080561,56.8125009 126.705564,58.4375 C128.330567,60.0624991 129.14307,62.0357152 129.14307,64.3571429 L129.14307,125.642857 C129.14307,127.964285 128.330567,129.937501 126.705564,131.5625 C125.080561,133.187499 123.10734,134 120.785907,134 L48.3571628,134 C46.0357296,134 44.0625088,133.187499 42.4375058,131.5625 C40.8125028,129.937501 40,127.964285 40,125.642857 L40,64.3571429 C40,62.0357152 40.8125028,60.0624991 42.4375058,58.4375 C44.0625088,56.8125009 46.0357296,56 48.3571628,56 L120.785907,56 Z M79,122.857143 L79,78.2857143 L51.1428571,78.2857143 L51.1428571,122.857143 L79,122.857143 Z M118,122.857143 L118,78.2857143 L90.1428571,78.2857143 L90.1428571,122.857143 L118,122.857143 Z" id="Icon" fill="#3A5683"></path>
            </g>
        </g>
    </g>
</svg>