<?xml version="1.0" encoding="UTF-8"?>
<svg width="170px" height="190px" viewBox="0 0 170 190" version="1.1" xmlns="http://www.w3.org/2000/svg" xmlns:xlink="http://www.w3.org/1999/xlink">
    <!-- Generator: Sketch 48.2 (47327) - http://www.bohemiancoding.com/sketch -->
    <title>pinax-stripe</title>
    <desc>Created with Sketch.</desc>
    <defs>
        <polygon id="path-1" points="70 0 139.282032 40 139.282032 120 70 160 0.717967697 120 0.717967697 40"></polygon>
    </defs>
    <g id="Hexagons" stroke="none" stroke-width="1" fill="none" fill-rule="evenodd" transform="translate(-45.000000, -35.000000)">
        <g id="pinax-stripe" transform="translate(60.000000, 50.000000)">
            <g id="Polygon" stroke-linejoin="round">
                <use fill="#D7DEE1" fill-rule="evenodd" xlink:href="#path-1"></use>
                <path stroke="#607D8B" stroke-width="15" d="M70,-8.66025404 L146.782032,35.669873 L146.782032,124.330127 L70,168.660254 L-6.7820323,124.330127 L-6.7820323,35.669873 L70,-8.66025404 Z"></path>
            </g>
            <path d="M60.1037536,63.0077338 C60.1037536,65.3514782 61.4709378,67.4348076 64.2053063,69.2577189 C65.8980116,70.2993821 69.1206601,71.7316723 73.873252,73.5545837 C78.6258438,75.377495 82.1089104,76.8748882 84.3224458,78.0467604 C87.9682714,79.9998808 90.7677429,82.2134162 92.7208633,84.6873696 C95.0646077,87.8123622 96.2364799,91.4581878 96.2364799,95.6248435 C96.2364799,101.353996 94.3484626,106.334452 90.5724309,110.566214 C86.7963992,114.797976 81.7833894,117.434688 75.5334043,118.476352 L75.5334043,127.656017 C75.5334043,128.307056 75.3055392,128.860442 74.8498121,129.316169 C74.3940851,129.771897 73.840699,129.999762 73.1896599,129.999762 L65.3771785,129.999762 C64.7261394,129.999762 64.1727533,129.771897 63.7170262,129.316169 C63.2612991,128.860442 63.0334341,128.307056 63.0334341,127.656017 L63.0334341,118.28104 C59.2574024,117.63 55.7092328,116.490678 52.3889282,114.863079 C49.0686236,113.23548 46.1714961,111.249806 43.6975427,108.906062 C43.3069186,108.515438 43.0790536,108.027158 43.0139505,107.441222 C42.9488475,106.855286 43.1116066,106.301902 43.5022306,105.781069 L49.3615917,97.7732759 C49.7522157,97.2524428 50.3055988,96.9594748 51.021744,96.8943718 C51.7378891,96.8292687 52.2912722,96.9920278 52.6818962,97.3826518 C55.4162647,99.4659812 58.1506332,101.158684 60.8850017,102.460765 C64.0099942,103.762846 67.0047778,104.413885 69.8693553,104.413885 C73.1245568,104.413885 75.7287163,103.567534 77.6818366,101.874829 C79.2443329,100.312332 80.0255811,98.489421 80.0255811,96.4060917 C80.0255811,94.3227623 78.7886058,92.434748 76.3146524,90.7420427 C74.6219471,89.7003795 71.4644045,88.2680893 66.8420187,86.4451779 C62.2196329,84.6222666 58.7365693,83.1248733 56.3928249,81.9530011 C52.6167932,79.8696718 49.6871127,77.4608243 47.6037834,74.7264559 C45.2600389,71.4712543 44.0881667,67.6301196 44.0881667,63.2030458 C44.0881667,58.1249329 45.813422,53.6653092 49.2639356,49.8241715 C52.7144492,45.9830338 57.3042821,43.4114274 63.0334341,42.1093461 L63.0334341,32.3437444 C63.0334341,31.6927053 63.2612991,31.1393192 63.7170262,30.6835921 C64.1727533,30.227865 64.7261394,30 65.3771785,30 L73.1896599,30 C73.840699,30 74.3940851,30.227865 74.8498121,30.6835921 C75.3055392,31.1393192 75.5334043,31.6927053 75.5334043,32.3437444 L75.5334043,41.52341 C78.7886058,41.9140341 82.0112544,42.7603853 85.20135,44.0624665 C88.3914455,45.3645477 91.093264,46.992147 93.3067994,48.9452673 C93.6974235,49.3358914 93.9578385,49.7916185 94.0880475,50.3124516 C94.2182565,50.8332847 94.1531505,51.3541148 93.8927355,51.8749478 L89.2052467,60.2733653 C88.9448316,60.9244044 88.4565515,61.3150285 87.7404064,61.4452375 C87.0242613,61.5754465 86.4057752,61.4452375 85.8849421,61.0546135 C80.6766202,57.4087878 75.6636133,55.5858765 70.8459154,55.5858765 C67.5907139,55.5858765 64.9865544,56.2694686 63.0334341,57.6366529 C61.0803137,59.0038371 60.1037536,60.7941984 60.1037536,63.0077338 Z" fill="#607D8B"></path>
        </g>
    </g>
</svg>