<?xml version="1.0" encoding="UTF-8"?>
<svg width="169px" height="190px" viewBox="0 0 169 190" version="1.1" xmlns="http://www.w3.org/2000/svg" xmlns:xlink="http://www.w3.org/1999/xlink">
    <!-- Generator: Sketch 48.2 (47327) - http://www.bohemiancoding.com/sketch -->
    <title>pinax-submissions</title>
    <desc>Created with Sketch.</desc>
    <defs>
        <polygon id="path-1" points="69.5 0 139 40 139 120 69.5 160 9.05941988e-14 120 4.61852778e-14 40"></polygon>
    </defs>
    <g id="Hexagons" stroke="none" stroke-width="1" fill="none" fill-rule="evenodd" transform="translate(-886.000000, -875.000000)">
        <g id="pinax-submissions" transform="translate(901.000000, 890.000000)">
            <g id="Polygon-Copy-25" stroke-linejoin="round">
                <use fill="#928779" fill-rule="evenodd" xlink:href="#path-1"></use>
                <path stroke="#443730" stroke-width="15" d="M69.5,-8.6534719 L146.5,35.6630749 L146.5,124.336925 L69.5,168.653472 L-7.5,124.336925 L-7.5,35.6630749 L69.5,-8.6534719 Z"></path>
            </g>
            <g transform="translate(34.000000, 29.000000)">
                <path d="M72.265625,19.640788 C74.0885407,21.4636993 75,23.6772377 75,26.2813971 L75,91.1249925 C75,93.729152 74.0885407,95.9426904 72.265625,97.7656017 C70.4427093,99.588513 68.2291657,100.49997 65.625,100.49997 L9.375,100.49997 C6.77083433,100.49997 4.55729067,99.588513 2.734375,97.7656017 C0.911459327,95.9426904 0,93.729152 0,91.1249925 L0,9.87518626 C0,7.2710268 0.911459327,5.05748842 2.734375,3.2345771 C4.55729067,1.41166577 6.77083433,0.500208616 9.375,0.500208616 L49.21875,0.500208616 C51.8229157,0.500208616 54.0364593,1.41166577 55.859375,3.2345771 L72.265625,19.640788 Z M67.7732759,24.1329648 L51.367065,7.72675389 C50.976441,7.33612982 50.5207139,7.01060877 49.9998808,6.75019372 L49.9998808,25.500149 L68.7498361,25.500149 C68.489421,24.9793159 68.1639,24.5235888 67.7732759,24.1329648 Z M65.6248435,94.2499851 C66.5363007,94.2499851 67.2849958,93.957017 67.8709319,93.3710809 C68.456868,92.7851448 68.7498361,92.0364497 68.7498361,91.1249925 L68.7498361,31.7501341 L48.4373845,31.7501341 C47.1353033,31.7501341 46.0285371,31.294407 45.1170799,30.3829499 C44.2056228,29.4714927 43.7498957,28.3647265 43.7498957,27.0626453 L43.7498957,6.75019372 L9.37497765,6.75019372 C8.46352049,6.75019372 7.71482536,7.04316177 7.12888925,7.62909787 C6.54295315,8.21503397 6.2499851,8.96372911 6.2499851,9.87518626 L6.2499851,91.1249925 C6.2499851,92.0364497 6.54295315,92.7851448 7.12888925,93.3710809 C7.71482536,93.957017 8.46352049,94.2499851 9.37497765,94.2499851 L65.6248435,94.2499851 Z" id="pinax-referrals-copy-9" fill-opacity="0" fill="#F5E8D6"></path>
                <path d="M68.8542797,24.3959439 L49.6041754,5.14583954 C49.1458395,4.68750373 48.6111156,4.30555605 48,4 L48,24.0001192 C48,25.1046887 48.8954305,26.0001192 50,26.0001192 L70.0001192,26.0001192 C69.6945632,25.3890036 69.3126155,24.8542797 68.8542797,24.3959439 Z" id="Path-Copy-5" fill-opacity="0.867527174" fill="#F5E8D6"></path>
                <path d="M67.4125142,97.4500209 C68.3859529,97.4500209 69.1855614,97.1371302 69.8113428,96.5113488 C70.4371242,95.8855674 70.7500149,95.0859589 70.7500149,94.1125201 L70.7500149,30.700006 L49.0562601,30.700006 C47.6656337,30.700006 46.4836043,30.2132882 45.5101655,29.2398494 C44.5367267,28.2664106 44.0500089,27.0843812 44.0500089,25.6937548 L44.0500089,4 L7.33750075,4 C6.36406197,4 5.56445347,4.31289069 4.93867208,4.93867208 C4.31289069,5.56445347 4,6.36406197 4,7.33750075 L4,94.1125201 C4,95.0859589 4.31289069,95.8855674 4.93867208,96.5113488 C5.56445347,97.1371302 6.36406197,97.4500209 7.33750075,97.4500209 L67.4125142,97.4500209 Z" id="Path-Copy-4" fill="#F5E8D6"></path>
                <path d="M54.03125,51.2343387 C56.3229163,51.7030876 58.2239587,52.8489186 59.734375,54.6718305 C61.2447913,56.4947424 62,58.6041124 62,60.9999404 C62,62.8228523 61.5572913,64.5025358 60.671875,66.0389909 C59.7864587,67.5754459 58.5755212,68.7863806 57.0390625,69.6717947 C55.5026038,70.5572089 53.8229163,70.9999166 52,70.9999166 L23.25,70.9999166 C21.21875,70.9999166 19.34375,70.4921053 17.625,69.4764827 C15.90625,68.4608601 14.5390625,67.0936759 13.5234375,65.37493 C12.5078125,63.6561841 12,61.7811885 12,59.7499434 C12,57.3541154 12.703125,55.1796418 14.109375,53.2265214 C15.515625,51.2734011 17.3125,49.9062168 19.5,49.1249687 L19.5,48.4999702 C19.5,46.2603918 20.0598962,44.1770642 21.1796875,42.2499851 C22.2994788,40.322906 23.8229163,38.7994721 25.75,37.6796835 C27.6770837,36.5598949 29.7734375,36 32.0390625,36 C34.3046875,36 36.4010413,36.5729149 38.328125,37.7187459 C40.2552087,38.8645769 41.765625,40.3749896 42.859375,42.2499851 C44.109375,41.4166534 45.4895837,40.9999881 47,40.9999881 C49.0833337,40.9999881 50.8541663,41.7291526 52.3125,43.1874829 C53.7708337,44.6458131 54.5,46.4166414 54.5,48.4999702 C54.5,49.437468 54.34375,50.3489245 54.03125,51.2343387 Z M43.0936759,56.1562019 C43.4582587,55.7916191 43.6405496,55.3489126 43.6405496,54.8280801 C43.6405496,54.3072476 43.4582587,53.8645411 43.0936759,53.4999583 L35.8280682,46.3124754 C35.4634853,45.9478926 35.0207788,45.7656017 34.4999464,45.7656017 C33.9791139,45.7656017 33.5364074,45.9478926 33.1718245,46.3124754 L25.9062168,53.4999583 C25.541634,53.8645411 25.3593431,54.3072476 25.3593431,54.8280801 C25.3593431,55.3489126 25.541634,55.7916191 25.9062168,56.1562019 L26.7655898,57.0155749 C27.1301727,57.3801578 27.5859003,57.5624486 28.132774,57.5624486 C28.6796477,57.5624486 29.1353754,57.3801578 29.4999583,57.0155749 L31.9999523,54.2812064 L31.9999523,64.1249329 C31.9999523,64.6457654 32.1822432,65.0884719 32.546826,65.4530548 C32.9114089,65.8176376 33.3541154,65.9999285 33.8749478,65.9999285 L35.1249449,65.9999285 C35.6457774,65.9999285 36.0884838,65.8176376 36.4530667,65.4530548 C36.8176496,65.0884719 36.9999404,64.6457654 36.9999404,64.1249329 L36.9999404,54.2812064 L39.4999344,57.0155749 C39.8645173,57.3801578 40.320245,57.5624486 40.8671187,57.5624486 C41.4139924,57.5624486 41.8697201,57.3801578 42.2343029,57.0155749 L43.0936759,56.1562019 Z" id="pinax-referrals-copy-10" fill="#443730"></path>
            </g>
        </g>
    </g>
</svg>