<?xml version="1.0" encoding="UTF-8"?>
<svg width="169px" height="190px" viewBox="0 0 169 190" version="1.1" xmlns="http://www.w3.org/2000/svg" xmlns:xlink="http://www.w3.org/1999/xlink">
    <!-- Generator: Sketch 48.2 (47327) - http://www.bohemiancoding.com/sketch -->
    <title>pinax-referrals</title>
    <desc>Created with Sketch.</desc>
    <defs>
        <polygon id="path-1" points="69.2820323 0 138.564065 40 138.564065 120 69.2820323 160 3.19744231e-14 120 -1.24344979e-14 40"></polygon>
    </defs>
    <g id="Hexagons" stroke="none" stroke-width="1" fill="none" fill-rule="evenodd" transform="translate(-256.000000, -665.000000)">
        <g id="pinax-referrals" transform="translate(271.000000, 680.000000)">
            <g id="Polygon-Copy-22" stroke-linejoin="round">
                <use fill="#C6E4FB" fill-rule="evenodd" xlink:href="#path-1"></use>
                <path stroke="#FF6977" stroke-width="15" d="M69.2820323,-8.66025404 L146.064065,35.669873 L146.064065,124.330127 L69.2820323,168.660254 L-7.5,124.330127 L-7.5,35.669873 L69.2820323,-8.66025404 Z"></path>
            </g>
            <path d="M105.015385,111.815385 C104.22564,112.605129 103.266668,113 102.138462,113 C101.010256,113 100.051283,112.605129 99.2615385,111.815385 L82.1692308,94.8923077 C81.3794863,94.1025632 80.9846154,93.1435906 80.9846154,92.0153846 C80.9846154,90.8871786 81.3794863,89.928206 82.1692308,89.1384615 L84.0307692,87.2769231 C84.8205137,86.4871786 85.8076923,86.0923077 86.9923077,86.0923077 C88.1769231,86.0923077 89.1641017,86.4871786 89.9538462,87.2769231 L96.7230769,94.5538462 L96.7230769,63.7538462 L64.9076923,63.7538462 C63.8923077,63.7538462 62.9333325,63.3589752 62.0307692,62.5692308 L59.3230769,59.8615385 C58.5333325,59.071794 58.1666675,58.1128214 58.2230769,56.9846154 C58.2794863,55.8564094 58.6743598,54.8974368 59.4076923,54.1076923 C60.1410248,53.3179479 61.071794,52.9230769 62.2,52.9230769 L103.492308,52.9230769 C104.620514,52.9230769 105.579486,53.3179479 106.369231,54.1076923 C107.158975,54.8974368 107.553846,55.8564094 107.553846,56.9846154 L107.553846,94.5538462 L114.323077,87.2769231 C115.112821,86.4871786 116.1,86.0923077 117.284615,86.0923077 C118.469231,86.0923077 119.456409,86.4871786 120.246154,87.2769231 L122.107692,89.1384615 C122.897437,89.928206 123.292308,90.8871786 123.292308,92.0153846 C123.292308,93.1435906 122.897437,94.1025632 122.107692,94.8923077 L105.015385,111.815385 Z M77.2615385,97.4307692 L79.9692308,100.138462 C80.7589752,100.928206 81.1256402,101.887179 81.0692308,103.015385 C81.0128214,104.143591 80.6179479,105.102563 79.8846154,105.892308 C79.1512829,106.682052 78.2205137,107.076923 77.0923077,107.076923 L35.8,107.076923 C34.671794,107.076923 33.7128214,106.682052 32.9230769,105.892308 C32.1333325,105.102563 31.7384615,104.143591 31.7384615,103.015385 L31.7384615,65.4461538 L24.9692308,72.7230769 C24.1794863,73.5128214 23.1923077,73.9076923 22.0076923,73.9076923 C20.8230769,73.9076923 19.8358983,73.5128214 19.0461538,72.7230769 L17.1846154,70.8615385 C16.3948709,70.071794 16,69.1128214 16,67.9846154 C16,66.8564094 16.3948709,65.8974368 17.1846154,65.1076923 L34.2769231,48.1846154 C35.0666675,47.3948709 36.0256402,47 37.1538462,47 C38.2820521,47 39.2410248,47.3948709 40.0307692,48.1846154 L57.1230769,65.1076923 C57.9128214,65.8974368 58.3076923,66.8564094 58.3076923,67.9846154 C58.3076923,69.1128214 57.9128214,70.071794 57.1230769,70.8615385 L55.2615385,72.7230769 C54.471794,73.5128214 53.4846154,73.9076923 52.3,73.9076923 C51.1153846,73.9076923 50.128206,73.5128214 49.3384615,72.7230769 L42.5692308,65.4461538 L42.5692308,96.2461538 L74.3846154,96.2461538 C75.4,96.2461538 76.3589752,96.6410248 77.2615385,97.4307692 Z" fill="#FF6977"></path>
        </g>
    </g>
</svg>