<?xml version="1.0" encoding="UTF-8"?>
<svg width="966px" height="644px" viewBox="0 0 966 644" version="1.1" xmlns="http://www.w3.org/2000/svg" xmlns:xlink="http://www.w3.org/1999/xlink">
    <!-- Generator: Sketch 46.2 (44496) - http://www.bohemiancoding.com/sketch -->
    <title>TesselationPinax</title>
    <desc>Created with Sketch.</desc>
    <defs>
        <path d="M86.5,2.88675135 L158,44.1672956 L158,44.1672956 C161.094011,45.9536235 163,49.2548937 163,52.8275496 L163,135.388638 L163,135.388638 C163,138.961294 161.094011,142.262564 158,144.048892 L86.5,185.329436 L86.5,185.329436 C83.4059892,187.115764 79.5940108,187.115764 76.5,185.329436 L5,144.048892 L5,144.048892 C1.90598923,142.262564 7.10542736e-14,138.961294 6.03961325e-14,135.388638 L-5.32907052e-15,52.8275496 L3.55271368e-15,52.8275496 C7.10542736e-15,49.2548937 1.90598923,45.9536235 5,44.1672956 L76.5,2.88675135 L76.5,2.88675135 C79.5940108,1.1004234 83.4059892,1.1004234 86.5,2.88675135 Z" id="path-1"></path>
        <path d="M86.5,1.18504542 L158,42.4655897 L158,42.4655897 C161.094011,44.2519176 163,47.5531878 163,51.1258437 L163,133.686932 L163,133.686932 C163,137.259588 161.094011,140.560858 158,142.347186 L86.5,183.62773 L86.5,183.62773 C83.4059892,185.414058 79.5940108,185.414058 76.5,183.62773 L5,142.347186 L5,142.347186 C1.90598923,140.560858 2.46688365e-14,137.259588 3.37507799e-14,133.686932 L-3.48732631e-16,51.1258437 L0,51.1258437 C-4.37524161e-16,47.5531878 1.90598923,44.2519176 5,42.4655897 L76.5,1.18504542 L76.5,1.18504542 C79.5940108,-0.601282526 83.4059892,-0.601282526 86.5,1.18504542 Z" id="path-2"></path>
        <path d="M86.5,2.88675135 L158,44.1672956 L158,44.1672956 C161.094011,45.9536235 163,49.2548937 163,52.8275496 L163,135.388638 L163,135.388638 C163,138.961294 161.094011,142.262564 158,144.048892 L86.5,185.329436 L86.5,185.329436 C83.4059892,187.115764 79.5940108,187.115764 76.5,185.329436 L5,144.048892 L5,144.048892 C1.90598923,142.262564 7.10542736e-14,138.961294 6.03961325e-14,135.388638 L-5.32907052e-15,52.8275496 L3.55271368e-15,52.8275496 C7.10542736e-15,49.2548937 1.90598923,45.9536235 5,44.1672956 L76.5,2.88675135 L76.5,2.88675135 C79.5940108,1.1004234 83.4059892,1.1004234 86.5,2.88675135 Z" id="path-3"></path>
        <path d="M86.5,2.88675135 L158,44.1672956 L158,44.1672956 C161.094011,45.9536235 163,49.2548937 163,52.8275496 L163,135.388638 L163,135.388638 C163,138.961294 161.094011,142.262564 158,144.048892 L86.5,185.329436 L86.5,185.329436 C83.4059892,187.115764 79.5940108,187.115764 76.5,185.329436 L5,144.048892 L5,144.048892 C1.90598923,142.262564 1.27897692e-13,138.961294 1.17239551e-13,135.388638 L5.15143483e-14,52.8275496 L6.03961325e-14,52.8275496 C6.39488462e-14,49.2548937 1.90598923,45.9536235 5,44.1672956 L76.5,2.88675135 L76.5,2.88675135 C79.5940108,1.1004234 83.4059892,1.1004234 86.5,2.88675135 Z" id="path-4"></path>
        <path d="M86.5,2.88675135 L158,44.1672956 L158,44.1672956 C161.094011,45.9536235 163,49.2548937 163,52.8275496 L163,135.388638 L163,135.388638 C163,138.961294 161.094011,142.262564 158,144.048892 L86.5,185.329436 L86.5,185.329436 C83.4059892,187.115764 79.5940108,187.115764 76.5,185.329436 L5,144.048892 L5,144.048892 C1.90598923,142.262564 1.27897692e-13,138.961294 1.17239551e-13,135.388638 L5.15143483e-14,52.8275496 L6.03961325e-14,52.8275496 C6.39488462e-14,49.2548937 1.90598923,45.9536235 5,44.1672956 L76.5,2.88675135 L76.5,2.88675135 C79.5940108,1.1004234 83.4059892,1.1004234 86.5,2.88675135 Z" id="path-5"></path>
        <path d="M86.5,2.88675135 L158,44.1672956 L158,44.1672956 C161.094011,45.9536235 163,49.2548937 163,52.8275496 L163,135.388638 L163,135.388638 C163,138.961294 161.094011,142.262564 158,144.048892 L86.5,185.329436 L86.5,185.329436 C83.4059892,187.115764 79.5940108,187.115764 76.5,185.329436 L5,144.048892 L5,144.048892 C1.90598923,142.262564 1.27897692e-13,138.961294 1.17239551e-13,135.388638 L5.15143483e-14,52.8275496 L6.03961325e-14,52.8275496 C6.39488462e-14,49.2548937 1.90598923,45.9536235 5,44.1672956 L76.5,2.88675135 L76.5,2.88675135 C79.5940108,1.1004234 83.4059892,1.1004234 86.5,2.88675135 Z" id="path-6"></path>
        <path d="M86.5,2.88675135 L158,44.1672956 L158,44.1672956 C161.094011,45.9536235 163,49.2548937 163,52.8275496 L163,135.388638 L163,135.388638 C163,138.961294 161.094011,142.262564 158,144.048892 L86.5,185.329436 L86.5,185.329436 C83.4059892,187.115764 79.5940108,187.115764 76.5,185.329436 L5,144.048892 L5,144.048892 C1.90598923,142.262564 7.10542736e-14,138.961294 6.03961325e-14,135.388638 L-5.32907052e-15,52.8275496 L3.55271368e-15,52.8275496 C7.10542736e-15,49.2548937 1.90598923,45.9536235 5,44.1672956 L76.5,2.88675135 L76.5,2.88675135 C79.5940108,1.1004234 83.4059892,1.1004234 86.5,2.88675135 Z" id="path-7"></path>
        <path d="M86.5,2.88675135 L158,44.1672956 L158,44.1672956 C161.094011,45.9536235 163,49.2548937 163,52.8275496 L163,135.388638 L163,135.388638 C163,138.961294 161.094011,142.262564 158,144.048892 L86.5,185.329436 L86.5,185.329436 C83.4059892,187.115764 79.5940108,187.115764 76.5,185.329436 L5,144.048892 L5,144.048892 C1.90598923,142.262564 7.10542736e-14,138.961294 6.03961325e-14,135.388638 L-5.32907052e-15,52.8275496 L3.55271368e-15,52.8275496 C7.10542736e-15,49.2548937 1.90598923,45.9536235 5,44.1672956 L76.5,2.88675135 L76.5,2.88675135 C79.5940108,1.1004234 83.4059892,1.1004234 86.5,2.88675135 Z" id="path-8"></path>
        <path d="M86.5,2.88675135 L158,44.1672956 L158,44.1672956 C161.094011,45.9536235 163,49.2548937 163,52.8275496 L163,135.388638 L163,135.388638 C163,138.961294 161.094011,142.262564 158,144.048892 L86.5,185.329436 L86.5,185.329436 C83.4059892,187.115764 79.5940108,187.115764 76.5,185.329436 L5,144.048892 L5,144.048892 C1.90598923,142.262564 7.10542736e-14,138.961294 6.03961325e-14,135.388638 L-5.32907052e-15,52.8275496 L3.55271368e-15,52.8275496 C7.10542736e-15,49.2548937 1.90598923,45.9536235 5,44.1672956 L76.5,2.88675135 L76.5,2.88675135 C79.5940108,1.1004234 83.4059892,1.1004234 86.5,2.88675135 Z" id="path-9"></path>
        <path d="M86.5,2.88675135 L158,44.1672956 L158,44.1672956 C161.094011,45.9536235 163,49.2548937 163,52.8275496 L163,135.388638 L163,135.388638 C163,138.961294 161.094011,142.262564 158,144.048892 L86.5,185.329436 L86.5,185.329436 C83.4059892,187.115764 79.5940108,187.115764 76.5,185.329436 L5,144.048892 L5,144.048892 C1.90598923,142.262564 1.27897692e-13,138.961294 1.17239551e-13,135.388638 L5.15143483e-14,52.8275496 L6.03961325e-14,52.8275496 C6.39488462e-14,49.2548937 1.90598923,45.9536235 5,44.1672956 L76.5,2.88675135 L76.5,2.88675135 C79.5940108,1.1004234 83.4059892,1.1004234 86.5,2.88675135 Z" id="path-10"></path>
        <path d="M86.5,2.88675135 L158,44.1672956 L158,44.1672956 C161.094011,45.9536235 163,49.2548937 163,52.8275496 L163,135.388638 L163,135.388638 C163,138.961294 161.094011,142.262564 158,144.048892 L86.5,185.329436 L86.5,185.329436 C83.4059892,187.115764 79.5940108,187.115764 76.5,185.329436 L5,144.048892 L5,144.048892 C1.90598923,142.262564 1.27897692e-13,138.961294 1.17239551e-13,135.388638 L5.15143483e-14,52.8275496 L6.03961325e-14,52.8275496 C6.39488462e-14,49.2548937 1.90598923,45.9536235 5,44.1672956 L76.5,2.88675135 L76.5,2.88675135 C79.5940108,1.1004234 83.4059892,1.1004234 86.5,2.88675135 Z" id="path-11"></path>
        <path d="M86.5,2.88675135 L158,44.1672956 L158,44.1672956 C161.094011,45.9536235 163,49.2548937 163,52.8275496 L163,135.388638 L163,135.388638 C163,138.961294 161.094011,142.262564 158,144.048892 L86.5,185.329436 L86.5,185.329436 C83.4059892,187.115764 79.5940108,187.115764 76.5,185.329436 L5,144.048892 L5,144.048892 C1.90598923,142.262564 1.27897692e-13,138.961294 1.17239551e-13,135.388638 L5.15143483e-14,52.8275496 L6.03961325e-14,52.8275496 C6.39488462e-14,49.2548937 1.90598923,45.9536235 5,44.1672956 L76.5,2.88675135 L76.5,2.88675135 C79.5940108,1.1004234 83.4059892,1.1004234 86.5,2.88675135 Z" id="path-12"></path>
        <path d="M86.5,2.88675135 L158,44.1672956 L158,44.1672956 C161.094011,45.9536235 163,49.2548937 163,52.8275496 L163,135.388638 L163,135.388638 C163,138.961294 161.094011,142.262564 158,144.048892 L86.5,185.329436 L86.5,185.329436 C83.4059892,187.115764 79.5940108,187.115764 76.5,185.329436 L5,144.048892 L5,144.048892 C1.90598923,142.262564 7.10542736e-14,138.961294 6.03961325e-14,135.388638 L-5.32907052e-15,52.8275496 L3.55271368e-15,52.8275496 C7.10542736e-15,49.2548937 1.90598923,45.9536235 5,44.1672956 L76.5,2.88675135 L76.5,2.88675135 C79.5940108,1.1004234 83.4059892,1.1004234 86.5,2.88675135 Z" id="path-13"></path>
        <path d="M86.5,2.88675135 L158,44.1672956 L158,44.1672956 C161.094011,45.9536235 163,49.2548937 163,52.8275496 L163,135.388638 L163,135.388638 C163,138.961294 161.094011,142.262564 158,144.048892 L86.5,185.329436 L86.5,185.329436 C83.4059892,187.115764 79.5940108,187.115764 76.5,185.329436 L5,144.048892 L5,144.048892 C1.90598923,142.262564 7.10542736e-14,138.961294 6.03961325e-14,135.388638 L-5.32907052e-15,52.8275496 L3.55271368e-15,52.8275496 C7.10542736e-15,49.2548937 1.90598923,45.9536235 5,44.1672956 L76.5,2.88675135 L76.5,2.88675135 C79.5940108,1.1004234 83.4059892,1.1004234 86.5,2.88675135 Z" id="path-14"></path>
        <path d="M86.5,2.88675135 L158,44.1672956 L158,44.1672956 C161.094011,45.9536235 163,49.2548937 163,52.8275496 L163,135.388638 L163,135.388638 C163,138.961294 161.094011,142.262564 158,144.048892 L86.5,185.329436 L86.5,185.329436 C83.4059892,187.115764 79.5940108,187.115764 76.5,185.329436 L5,144.048892 L5,144.048892 C1.90598923,142.262564 7.10542736e-14,138.961294 6.03961325e-14,135.388638 L-5.32907052e-15,52.8275496 L3.55271368e-15,52.8275496 C7.10542736e-15,49.2548937 1.90598923,45.9536235 5,44.1672956 L76.5,2.88675135 L76.5,2.88675135 C79.5940108,1.1004234 83.4059892,1.1004234 86.5,2.88675135 Z" id="path-15"></path>
        <path d="M86.5,2.88675135 L158,44.1672956 L158,44.1672956 C161.094011,45.9536235 163,49.2548937 163,52.8275496 L163,135.388638 L163,135.388638 C163,138.961294 161.094011,142.262564 158,144.048892 L86.5,185.329436 L86.5,185.329436 C83.4059892,187.115764 79.5940108,187.115764 76.5,185.329436 L5,144.048892 L5,144.048892 C1.90598923,142.262564 1.27897692e-13,138.961294 1.17239551e-13,135.388638 L5.15143483e-14,52.8275496 L6.03961325e-14,52.8275496 C6.39488462e-14,49.2548937 1.90598923,45.9536235 5,44.1672956 L76.5,2.88675135 L76.5,2.88675135 C79.5940108,1.1004234 83.4059892,1.1004234 86.5,2.88675135 Z" id="path-16"></path>
        <path d="M86.5,2.88675135 L158,44.1672956 L158,44.1672956 C161.094011,45.9536235 163,49.2548937 163,52.8275496 L163,135.388638 L163,135.388638 C163,138.961294 161.094011,142.262564 158,144.048892 L86.5,185.329436 L86.5,185.329436 C83.4059892,187.115764 79.5940108,187.115764 76.5,185.329436 L5,144.048892 L5,144.048892 C1.90598923,142.262564 1.27897692e-13,138.961294 1.17239551e-13,135.388638 L5.15143483e-14,52.8275496 L6.03961325e-14,52.8275496 C6.39488462e-14,49.2548937 1.90598923,45.9536235 5,44.1672956 L76.5,2.88675135 L76.5,2.88675135 C79.5940108,1.1004234 83.4059892,1.1004234 86.5,2.88675135 Z" id="path-17"></path>
        <path d="M86.5,2.88675135 L158,44.1672956 L158,44.1672956 C161.094011,45.9536235 163,49.2548937 163,52.8275496 L163,135.388638 L163,135.388638 C163,138.961294 161.094011,142.262564 158,144.048892 L86.5,185.329436 L86.5,185.329436 C83.4059892,187.115764 79.5940108,187.115764 76.5,185.329436 L5,144.048892 L5,144.048892 C1.90598923,142.262564 1.27897692e-13,138.961294 1.17239551e-13,135.388638 L5.15143483e-14,52.8275496 L6.03961325e-14,52.8275496 C6.39488462e-14,49.2548937 1.90598923,45.9536235 5,44.1672956 L76.5,2.88675135 L76.5,2.88675135 C79.5940108,1.1004234 83.4059892,1.1004234 86.5,2.88675135 Z" id="path-18"></path>
        <path d="M86.5,2.88675135 L158,44.1672956 L158,44.1672956 C161.094011,45.9536235 163,49.2548937 163,52.8275496 L163,135.388638 L163,135.388638 C163,138.961294 161.094011,142.262564 158,144.048892 L86.5,185.329436 L86.5,185.329436 C83.4059892,187.115764 79.5940108,187.115764 76.5,185.329436 L5,144.048892 L5,144.048892 C1.90598923,142.262564 7.10542736e-14,138.961294 6.03961325e-14,135.388638 L-5.32907052e-15,52.8275496 L3.55271368e-15,52.8275496 C7.10542736e-15,49.2548937 1.90598923,45.9536235 5,44.1672956 L76.5,2.88675135 L76.5,2.88675135 C79.5940108,1.1004234 83.4059892,1.1004234 86.5,2.88675135 Z" id="path-19"></path>
        <path d="M86.3311838,1.40115465 L157.597523,43.2629514 L157.597523,43.2629514 C160.654937,45.0588746 162.532678,48.3395819 162.532678,51.8854421 L162.532678,135.909853 L162.532678,135.909853 C162.532678,139.455713 160.654937,142.736421 157.597523,144.532344 L86.3311838,186.394141 L86.3311838,186.394141 C83.2043856,188.23082 79.3282922,188.23082 76.201494,186.394141 L4.93515509,144.532344 L4.93515509,144.532344 C1.8777404,142.736421 3.19744231e-14,139.455713 3.19744231e-14,135.909853 L-2.13162821e-14,51.8854421 L-1.42108547e-14,51.8854421 C-1.42108547e-14,48.3395819 1.8777404,45.0588746 4.93515509,43.2629514 L76.201494,1.40115465 L76.201494,1.40115465 C79.3282922,-0.435524407 83.2043856,-0.435524407 86.3311838,1.40115465 Z" id="path-20"></path>
    </defs>
    <g id="Tesselations" stroke="none" stroke-width="1" fill="none" fill-rule="evenodd">
        <g id="Pinax" transform="translate(-23.000000, -20.000000)">
            <g id="TesselationPinax" transform="translate(20.000000, 19.000000)">
                <g id="pinax-stripe" transform="translate(802.000000, 457.000000)">
                    <g transform="translate(4.000000, 1.000000)">
                        <g id="Polygon">
                            <use fill="#D7DEE1" fill-rule="evenodd" xlink:href="#path-1"></use>
                            <path stroke="#607D8B" stroke-width="15" d="M82.75,9.38194187 C81.9764973,8.93535989 81.0235027,8.93535989 80.25,9.38194187 L8.75,50.6624861 C7.97649731,51.1090681 7.5,51.9343857 7.5,52.8275496 L7.5,135.388638 C7.5,136.281802 7.97649731,137.10712 8.75,137.553702 L80.25,178.834246 C81.0235027,179.280828 81.9764973,179.280828 82.75,178.834246 L154.25,137.553702 C155.023503,137.10712 155.5,136.281802 155.5,135.388638 L155.5,52.8275496 C155.5,51.9343857 155.023503,51.1090681 154.25,50.6624861 L82.75,9.38194187 Z"></path>
                        </g>
                        <path d="M107.066478,110.127232 C107.066478,115.819225 105.215678,120.72059 101.514023,124.831473 C97.8123674,128.942357 93.0040078,131.481394 87.0887996,132.448661 L87.0887996,142.214286 C87.0887996,142.735122 86.9213906,143.162945 86.5865675,143.497768 C86.2517444,143.832591 85.8239213,144 85.3030854,144 L77.7696032,144 C77.2859698,144 76.8674472,143.82329 76.5140229,143.469866 C76.1605985,143.116442 75.9838889,142.697919 75.9838889,142.214286 L75.9838889,132.448661 C73.5285195,132.113838 71.1568914,131.537206 68.8689336,130.71875 C66.5809757,129.900294 64.6929738,129.072549 63.2048711,128.235491 C61.7167684,127.398433 60.3402941,126.505585 59.0754068,125.55692 C57.8105195,124.608254 56.9455728,123.910717 56.4805407,123.464286 C56.0155086,123.017855 55.6899911,122.683037 55.5039782,122.459821 C54.8715346,121.678568 54.8343326,120.915926 55.3923711,120.171875 L61.1401389,112.638393 C61.4005569,112.266367 61.82838,112.043155 62.4236211,111.96875 C62.9816596,111.894345 63.4280837,112.061754 63.7629068,112.470982 L63.8745139,112.582589 C68.078404,116.265643 72.5984481,118.590769 77.4347818,119.558036 C78.8112768,119.855656 80.1877511,120.004464 81.5642461,120.004464 C84.577654,120.004464 87.2282971,119.204621 89.516255,117.604911 C91.8042129,116.0052 92.9481746,113.735878 92.9481746,110.796875 C92.9481746,109.755203 92.6691596,108.76935 92.1111211,107.839286 C91.5530826,106.909222 90.9299489,106.127979 90.2417014,105.495536 C89.5534539,104.863092 88.4652952,104.165554 86.9771925,103.402902 C85.4890898,102.640249 84.2614235,102.045017 83.2941568,101.617187 C82.32689,101.189358 80.8388097,100.584825 78.8298711,99.8035714 C77.378971,99.2083304 76.2350092,98.7433052 75.3979514,98.4084821 C74.5608937,98.073659 73.4169319,97.5807324 71.9660318,96.9296875 C70.5151317,96.2786426 69.3525689,95.7020114 68.4783086,95.1997768 C67.6040483,94.6975421 66.5530915,94.0372065 65.3254068,93.21875 C64.0977221,92.4002935 63.1025683,91.6097508 62.3399157,90.8470982 C61.5772631,90.0844456 60.7681194,89.1729964 59.9124604,88.1127232 C59.0568013,87.0524501 58.3964657,85.9735918 57.9314336,84.8761161 C57.4664015,83.7786403 57.0757804,82.5416735 56.7595586,81.1651786 C56.4433368,79.7886836 56.2852282,78.3378052 56.2852282,76.8125 C56.2852282,71.6785458 58.1081267,67.1771027 61.7539782,63.3080357 C65.3998298,59.4389688 70.1430859,56.9464342 75.9838889,55.8303571 L75.9838889,45.7857143 C75.9838889,45.3020809 76.1605985,44.8835583 76.5140229,44.5301339 C76.8674472,44.1767095 77.2859698,44 77.7696032,44 L85.3030854,44 C85.8239213,44 86.2517444,44.167409 86.5865675,44.5022321 C86.9213906,44.8370552 87.0887996,45.2648783 87.0887996,45.7857143 L87.0887996,55.6071429 C89.209346,55.8303583 91.264757,56.2581814 93.2550943,56.890625 C95.2454316,57.5230686 96.863719,58.1462023 98.110005,58.7600446 C99.356291,59.373887 100.537455,60.0714247 101.653532,60.8526786 C102.769609,61.6339325 103.495048,62.1733616 103.829871,62.4709821 C104.164694,62.7686027 104.443709,63.0290167 104.666925,63.2522321 C105.299368,63.9218783 105.392373,64.6287165 104.945943,65.3727679 L100.425853,73.5200893 C100.128233,74.0781278 99.7004096,74.3757439 99.1423711,74.4129464 C98.6215351,74.5245541 98.119308,74.3943471 97.6356746,74.0223214 C97.5240669,73.9107137 97.2543524,73.6875017 96.8265229,73.3526786 C96.3986933,73.0178555 95.6732542,72.5249289 94.6501836,71.8738839 C93.627113,71.222839 92.5389542,70.6276069 91.3856746,70.0881696 C90.2323951,69.5487324 88.8466202,69.0651063 87.2283086,68.6372768 C85.6099969,68.2094473 84.019611,67.9955357 82.4571032,67.9955357 C78.9228594,67.9955357 76.0397037,68.7953789 73.8075496,70.3950893 C71.5753956,71.9947997 70.4593354,74.0595112 70.4593354,76.5892857 C70.4593354,77.5565525 70.6174439,78.4494007 70.9336657,79.2678571 C71.2498875,80.0863136 71.7986172,80.8582553 72.5798711,81.5837054 C73.361125,82.3091554 74.0958647,82.9229886 74.7841121,83.4252232 C75.4723596,83.9274579 76.5140159,84.504089 77.9091121,85.1551339 C79.3042084,85.8061789 80.4295692,86.308406 81.2852282,86.6618304 C82.1408873,87.0152547 83.4429576,87.5267824 85.1914782,88.1964286 C87.1632143,88.9404799 88.6698956,89.5264116 89.7115675,89.9542411 C90.7532394,90.3820706 92.1669157,91.0331057 93.9526389,91.9073661 C95.7383621,92.7816264 97.142738,93.5721691 98.1658086,94.2790179 C99.1888792,94.9858666 100.342141,95.9159169 101.62563,97.0691964 C102.909119,98.222476 103.894972,99.4036398 104.583219,100.612723 C105.271467,101.821807 105.857398,103.244783 106.341032,104.881696 C106.824665,106.518609 107.066478,108.267104 107.066478,110.127232 Z" fill="#607D8B"></path>
                    </g>
                </g>
                <g id="django-mailer" transform="translate(713.000000, 0.000000)">
                    <g transform="translate(4.000000, 3.000000)">
                        <g id="Polygon-Copy">
                            <use fill="#E6E6E6" fill-rule="evenodd" xlink:href="#path-2"></use>
                            <path stroke="#9E9E9E" stroke-width="15" d="M82.75,7.68023595 C81.9764973,7.23365396 81.0235027,7.23365396 80.25,7.68023595 L8.75,48.9607802 C7.97649731,49.4073622 7.5,50.2326797 7.5,51.1258437 L7.5,133.686932 C7.5,134.580096 7.97649731,135.405414 8.75,135.851996 L80.25,177.13254 C81.0235027,177.579122 81.9764973,177.579122 82.75,177.13254 L154.25,135.851996 C155.023503,135.405414 155.5,134.580096 155.5,133.686932 L155.5,51.1258437 C155.5,50.2326797 155.023503,49.4073622 154.25,48.9607802 L82.75,7.68023595 Z"></path>
                        </g>
                        <path d="M118.363636,118.272727 L118.363636,81.1818182 C117.333328,82.3409149 116.222544,83.4034043 115.03125,84.3693182 C106.402419,91.0019271 99.544533,96.4431606 94.4573864,100.693182 C92.8153327,102.077658 91.4791718,103.156246 90.4488636,103.928977 C89.4185555,104.701708 88.0260504,105.482477 86.2713068,106.271307 C84.5165632,107.060137 82.866485,107.454545 81.3210227,107.454545 L81.2244318,107.454545 C79.6789695,107.454545 78.0288913,107.060137 76.2741477,106.271307 C74.5194041,105.482477 73.1268991,104.701708 72.0965909,103.928977 C71.0662827,103.156246 69.7301218,102.077658 68.0880682,100.693182 C63.0009215,96.4431606 56.1430356,91.0019271 47.5142045,84.3693182 C46.3229107,83.4034043 45.2121264,82.3409149 44.1818182,81.1818182 L44.1818182,118.272727 C44.1818182,118.69129 44.3347523,119.053502 44.640625,119.359375 C44.9464977,119.665248 45.30871,119.818182 45.7272727,119.818182 L116.818182,119.818182 C117.236745,119.818182 117.598957,119.665248 117.90483,119.359375 C118.210702,119.053502 118.363636,118.69129 118.363636,118.272727 Z M118.363636,67.5142045 L118.363636,66.3309659 C118.363636,66.1860788 118.355587,65.9768006 118.339489,65.703125 C118.32339,65.4294494 118.275095,65.2282203 118.194602,65.0994318 C118.114109,64.9706433 118.025569,64.8257584 117.928977,64.6647727 C117.832386,64.5037871 117.687501,64.3830496 117.494318,64.3025568 C117.301135,64.222064 117.075759,64.1818182 116.818182,64.1818182 L45.7272727,64.1818182 C45.30871,64.1818182 44.9464977,64.3347523 44.640625,64.640625 C44.3347523,64.9464977 44.1818182,65.30871 44.1818182,65.7272727 C44.1818182,71.1363907 46.5482718,75.7083147 51.28125,79.4431818 C57.4952962,84.3371457 63.9507241,89.4403143 70.6477273,94.7528409 C70.8409101,94.9138266 71.4043514,95.3887271 72.3380682,96.1775568 C73.271785,96.9663865 74.0123079,97.5700737 74.5596591,97.9886364 C75.1070103,98.4071991 75.8233857,98.9142963 76.7088068,99.5099432 C77.5942279,100.10559 78.4071933,100.548294 79.1477273,100.838068 C79.8882613,101.127842 80.5804892,101.272727 81.2244318,101.272727 L81.3210227,101.272727 C81.9649653,101.272727 82.6571933,101.127842 83.3977273,100.838068 C84.1382613,100.548294 84.9512266,100.10559 85.8366477,99.5099432 C86.7220688,98.9142963 87.4384442,98.4071991 87.9857955,97.9886364 C88.5331467,97.5700737 89.2736696,96.9663865 90.2073864,96.1775568 C91.1411032,95.3887271 91.7045445,94.9138266 91.8977273,94.7528409 C98.5947305,89.4403143 105.050158,84.3371457 111.264205,79.4431818 C113.00285,78.0587052 114.620731,76.1993488 116.117898,73.8650568 C117.615064,71.5307648 118.363636,69.4138353 118.363636,67.5142045 Z M124.545455,65.7272727 L124.545455,118.272727 C124.545455,120.397738 123.788833,122.216848 122.275568,123.730114 C120.762303,125.243379 118.943192,126 116.818182,126 L45.7272727,126 C43.6022621,126 41.7831515,125.243379 40.2698864,123.730114 C38.7566212,122.216848 38,120.397738 38,118.272727 L38,65.7272727 C38,63.6022621 38.7566212,61.7831515 40.2698864,60.2698864 C41.7831515,58.7566212 43.6022621,58 45.7272727,58 L116.818182,58 C118.943192,58 120.762303,58.7566212 122.275568,60.2698864 C123.788833,61.7831515 124.545455,63.6022621 124.545455,65.7272727 Z" fill="#9E9E9E"></path>
                    </g>
                </g>
                <g id="pinax-teams" transform="translate(534.000000, 305.000000)">
                    <g transform="translate(4.000000, 1.000000)">
                        <g id="Polygon-Copy-2">
                            <use fill="#DDD4D1" fill-rule="evenodd" xlink:href="#path-3"></use>
                            <path stroke="#795548" stroke-width="15" d="M82.75,9.38194187 C81.9764973,8.93535989 81.0235027,8.93535989 80.25,9.38194187 L8.75,50.6624861 C7.97649731,51.1090681 7.5,51.9343857 7.5,52.8275496 L7.5,135.388638 C7.5,136.281802 7.97649731,137.10712 8.75,137.553702 L80.25,178.834246 C81.0235027,179.280828 81.9764973,179.280828 82.75,178.834246 L154.25,137.553702 C155.023503,137.10712 155.5,136.281802 155.5,135.388638 L155.5,52.8275496 C155.5,51.9343857 155.023503,51.1090681 154.25,50.6624861 L82.75,9.38194187 Z"></path>
                        </g>
                        <path d="M65.8186384,94.5 C61.2985265,94.6395096 57.6015769,96.4252061 54.7276786,99.8571429 L49.1194196,99.8571429 C46.8314618,99.8571429 44.9062578,99.2921373 43.34375,98.1621094 C41.7812422,97.0320814 41,95.3789171 41,93.202567 C41,83.3531874 42.7298934,78.4285714 46.1897321,78.4285714 C46.3571437,78.4285714 46.9640015,78.7215372 48.0103237,79.3074777 C49.0566459,79.8934181 50.4168443,80.4863251 52.0909598,81.0862165 C53.7650753,81.6861079 55.425215,81.9860491 57.0714286,81.9860491 C58.9408576,81.9860491 60.7963078,81.6651818 62.6378348,81.0234375 C62.4983252,82.0558087 62.4285714,82.9765585 62.4285714,83.7857143 C62.4285714,87.6640819 63.5585824,91.2354747 65.8186384,94.5 Z M110.642857,121.160156 C110.642857,124.508387 109.624452,127.152055 107.587612,129.091239 C105.550771,131.030423 102.844325,132 99.468192,132 L62.8889509,132 C59.5128179,132 56.8063718,131.030423 54.7695313,129.091239 C52.7326907,127.152055 51.7142857,124.508387 51.7142857,121.160156 C51.7142857,119.681354 51.7631134,118.237451 51.8607701,116.828404 C51.9584268,115.419357 52.1537374,113.898725 52.4467076,112.266462 C52.7396778,110.634199 53.1093728,109.120543 53.5558036,107.725446 C54.0022344,106.33035 54.6021168,104.970152 55.3554688,103.64481 C56.1088207,102.319469 56.9737674,101.189458 57.9503348,100.254743 C58.9269022,99.3200288 60.1196916,98.5736635 61.5287388,98.015625 C62.9377861,97.4575865 64.4932951,97.1785714 66.1953125,97.1785714 C66.4743318,97.1785714 67.0742141,97.4785126 67.9949777,98.078404 C68.9157412,98.6782954 69.9341462,99.3479316 71.0502232,100.087333 C72.1663002,100.826734 73.6590308,101.49637 75.5284598,102.096261 C77.3978888,102.696153 79.2812405,102.996094 81.1785714,102.996094 C83.0759023,102.996094 84.959254,102.696153 86.828683,102.096261 C88.698112,101.49637 90.1908426,100.826734 91.3069196,100.087333 C92.4229967,99.3479316 93.4414016,98.6782954 94.3621652,98.078404 C95.2829287,97.4785126 95.8828111,97.1785714 96.1618304,97.1785714 C97.8638478,97.1785714 99.4193568,97.4575865 100.828404,98.015625 C102.237451,98.5736635 103.430241,99.3200288 104.406808,100.254743 C105.383375,101.189458 106.248322,102.319469 107.001674,103.64481 C107.755026,104.970152 108.354908,106.33035 108.801339,107.725446 C109.24777,109.120543 109.617465,110.634199 109.910435,112.266462 C110.203405,113.898725 110.398716,115.419357 110.496373,116.828404 C110.59403,118.237451 110.642857,119.681354 110.642857,121.160156 Z M67.7857143,67.7142857 C67.7857143,70.6718898 66.7394078,73.1969761 64.6467634,75.2896205 C62.554119,77.3822649 60.0290326,78.4285714 57.0714286,78.4285714 C54.1138245,78.4285714 51.5887381,77.3822649 49.4960938,75.2896205 C47.4034494,73.1969761 46.3571429,70.6718898 46.3571429,67.7142857 C46.3571429,64.7566816 47.4034494,62.2315953 49.4960938,60.1389509 C51.5887381,58.0463065 54.1138245,57 57.0714286,57 C60.0290326,57 62.554119,58.0463065 64.6467634,60.1389509 C66.7394078,62.2315953 67.7857143,64.7566816 67.7857143,67.7142857 Z M97.25,83.7857143 C97.25,88.2221204 95.6805402,92.0097499 92.5415737,95.1487165 C89.4026071,98.2876831 85.6149775,99.8571429 81.1785714,99.8571429 C76.7421653,99.8571429 72.9545358,98.2876831 69.8155692,95.1487165 C66.6766026,92.0097499 65.1071429,88.2221204 65.1071429,83.7857143 C65.1071429,79.3493082 66.6766026,75.5616786 69.8155692,72.4227121 C72.9545358,69.2837455 76.7421653,67.7142857 81.1785714,67.7142857 C85.6149775,67.7142857 89.4026071,69.2837455 92.5415737,72.4227121 C95.6805402,75.5616786 97.25,79.3493082 97.25,83.7857143 Z M121.357143,93.202567 C121.357143,95.3789171 120.575901,97.0320814 119.013393,98.1621094 C117.450885,99.2921373 115.525681,99.8571429 113.237723,99.8571429 L107.629464,99.8571429 C104.755566,96.4252061 101.058616,94.6395096 96.5385045,94.5 C98.7985604,91.2354747 99.9285714,87.6640819 99.9285714,83.7857143 C99.9285714,82.9765585 99.8588177,82.0558087 99.719308,81.0234375 C101.560835,81.6651818 103.416285,81.9860491 105.285714,81.9860491 C106.931928,81.9860491 108.592068,81.6861079 110.266183,81.0862165 C111.940299,80.4863251 113.300497,79.8934181 114.346819,79.3074777 C115.393141,78.7215372 115.999999,78.4285714 116.167411,78.4285714 C119.627249,78.4285714 121.357143,83.3531874 121.357143,93.202567 Z M116,67.7142857 C116,70.6718898 114.953693,73.1969761 112.861049,75.2896205 C110.768405,77.3822649 108.243318,78.4285714 105.285714,78.4285714 C102.32811,78.4285714 99.8030239,77.3822649 97.7103795,75.2896205 C95.6177351,73.1969761 94.5714286,70.6718898 94.5714286,67.7142857 C94.5714286,64.7566816 95.6177351,62.2315953 97.7103795,60.1389509 C99.8030239,58.0463065 102.32811,57 105.285714,57 C108.243318,57 110.768405,58.0463065 112.861049,60.1389509 C114.953693,62.2315953 116,64.7566816 116,67.7142857 Z" fill="#795548"></path>
                    </g>
                </g>
                <g id="django-user-accounts" transform="translate(713.000000, 305.000000)">
                    <g transform="translate(3.000000, 1.000000)">
                        <g id="Polygon-Copy-3">
                            <use fill="#FFD5C8" fill-rule="evenodd" xlink:href="#path-4"></use>
                            <path stroke="#FF5722" stroke-width="15" d="M82.75,9.38194187 C81.9764973,8.93535989 81.0235027,8.93535989 80.25,9.38194187 L8.75,50.6624861 C7.97649731,51.1090681 7.5,51.9343857 7.5,52.8275496 L7.5,135.388638 C7.5,136.281802 7.97649731,137.10712 8.75,137.553702 L80.25,178.834246 C81.0235027,179.280828 81.9764973,179.280828 82.75,178.834246 L154.25,137.553702 C155.023503,137.10712 155.5,136.281802 155.5,135.388638 L155.5,52.8275496 C155.5,51.9343857 155.023503,51.1090681 154.25,50.6624861 L82.75,9.38194187 Z"></path>
                        </g>
                        <path d="M112.5,119.060547 C112.5,122.608742 111.482758,125.652331 109.448242,128.191406 C107.413727,130.730481 104.964207,132 102.099609,132 L60.4003906,132 C57.535793,132 55.0862732,130.730481 53.0517578,128.191406 C51.0172424,125.652331 50,122.608742 50,119.060547 C50,116.293606 50.138345,113.681327 50.4150391,111.223633 C50.6917332,108.765938 51.2044233,106.292005 51.953125,103.801758 C52.7018267,101.311511 53.6539656,99.1793708 54.8095703,97.4052734 C55.965175,95.631176 57.4951077,94.1826228 59.3994141,93.0595703 C61.3037205,91.9365178 63.4928262,91.375 65.9667969,91.375 C70.2311411,95.5416875 75.3254912,97.625 81.25,97.625 C87.1745088,97.625 92.2688589,95.5416875 96.5332031,91.375 C99.0071738,91.375 101.19628,91.9365178 103.100586,93.0595703 C105.004892,94.1826228 106.534825,95.631176 107.69043,97.4052734 C108.846034,99.1793708 109.798173,101.311511 110.546875,103.801758 C111.295577,106.292005 111.808267,108.765938 112.084961,111.223633 C112.361655,113.681327 112.5,116.293606 112.5,119.060547 Z M100,75.75 C100,80.9258071 98.1689636,85.3447083 94.5068359,89.0068359 C90.8447083,92.6689636 86.4258071,94.5 81.25,94.5 C76.0741929,94.5 71.6552917,92.6689636 67.9931641,89.0068359 C64.3310364,85.3447083 62.5,80.9258071 62.5,75.75 C62.5,70.5741929 64.3310364,66.1552917 67.9931641,62.4931641 C71.6552917,58.8310364 76.0741929,57 81.25,57 C86.4258071,57 90.8447083,58.8310364 94.5068359,62.4931641 C98.1689636,66.1552917 100,70.5741929 100,75.75 Z" fill="#FF5722"></path>
                    </g>
                </g>
                <g id="pinax-announcements" transform="translate(356.000000, 305.000000)">
                    <g transform="translate(3.000000, 1.000000)">
                        <g id="Polygon-Copy-4">
                            <use fill="#607D8B" fill-rule="evenodd" xlink:href="#path-5"></use>
                            <path stroke="#FFC107" stroke-width="15" d="M82.75,9.38194187 C81.9764973,8.93535989 81.0235027,8.93535989 80.25,9.38194187 L8.75,50.6624861 C7.97649731,51.1090681 7.5,51.9343857 7.5,52.8275496 L7.5,135.388638 C7.5,136.281802 7.97649731,137.10712 8.75,137.553702 L80.25,178.834246 C81.0235027,179.280828 81.9764973,179.280828 82.75,178.834246 L154.25,137.553702 C155.023503,137.10712 155.5,136.281802 155.5,135.388638 L155.5,52.8275496 C155.5,51.9343857 155.023503,51.1090681 154.25,50.6624861 L82.75,9.38194187 Z"></path>
                        </g>
                        <path d="M119.184788,81.9799346 C120.908672,81.9799346 122.380457,82.5897902 123.600186,83.8095197 C124.819916,85.0292492 125.429771,86.501034 125.429771,88.2249183 C125.429771,89.9488026 124.819916,91.4205874 123.600186,92.6403169 C122.380457,93.8600464 120.908672,94.469902 119.184788,94.469902 L119.184788,113.204853 C119.184788,114.896211 118.566801,116.359865 117.330808,117.595857 C116.094816,118.83185 114.631162,119.449837 112.939804,119.449837 C99.3764122,108.163273 86.1710059,101.983403 73.3231888,100.910041 C71.4366739,101.528038 69.9567577,102.601383 68.8833958,104.130111 C67.8100338,105.658839 67.3058865,107.293252 67.3709388,109.033399 C67.435991,110.773546 68.0865036,112.277857 69.3224962,113.546375 C68.6719738,114.619737 68.297929,115.684952 68.2003507,116.742051 C68.1027723,117.79915 68.2003492,118.742393 68.4930843,119.571809 C68.7858193,120.401225 69.3306237,121.29568 70.1275136,122.2552 C70.9244035,123.214721 71.7050187,124.027862 72.4693825,124.694647 C73.2337463,125.361433 74.2339094,126.182705 75.469902,127.158488 C74.5266445,129.045003 72.7133406,130.394817 70.0299357,131.20797 C67.3465309,132.021123 64.6062465,132.208145 61.8090002,131.769043 C59.011754,131.32994 56.8650623,130.427354 55.3688608,129.061257 C55.141178,128.313156 54.6614249,126.89016 53.9295872,124.792225 C53.1977495,122.69429 52.6773394,121.157454 52.3683413,120.181671 C52.0593432,119.205887 51.6852984,117.758496 51.2461958,115.839455 C50.8070932,113.920414 50.563151,112.27787 50.5143618,110.911773 C50.4655726,109.545676 50.5224925,107.943789 50.6851231,106.106063 C50.8477537,104.268337 51.2055356,102.471296 51.7584796,100.714886 L45.8062296,100.714886 C43.6595057,100.714886 41.8218075,99.9505333 40.2930799,98.4218057 C38.7643523,96.8930781 38,95.0553799 38,92.908656 L38,83.5411806 C38,81.3944567 38.7643523,79.5567585 40.2930799,78.0280309 C41.8218075,76.4993033 43.6595057,75.734951 45.8062296,75.734951 L69.2249183,75.734951 C83.3737801,75.734951 97.945263,69.4900298 112.939804,57 C114.631162,57 116.094816,57.617987 117.330808,58.8539795 C118.566801,60.0899721 119.184788,61.5536255 119.184788,63.2449837 L119.184788,81.9799346 Z M112.939804,111.448451 L112.939804,64.9038074 C100.124513,74.7266954 87.6346705,80.3048412 75.469902,81.6384121 L75.469902,94.8114245 C87.7322489,96.1775215 100.222091,101.723142 112.939804,111.448451 Z" fill="#FFC107"></path>
                        <path d="M112.939804,111.448451 L112.939804,64.9038074 C100.124513,74.7266954 87.6346705,80.3048412 75.469902,81.6384121 L75.469902,94.8114245 C87.7322489,96.1775215 100.222091,101.723142 112.939804,111.448451 Z" id="Path" fill-opacity="0.52270154" fill="#FFC107"></path>
                    </g>
                </g>
                <g id="pinax-badges" transform="translate(90.000000, 457.000000)">
                    <g transform="translate(3.000000, 1.000000)">
                        <g id="Polygon-Copy-5">
                            <use fill="#FFEEC0" fill-rule="evenodd" xlink:href="#path-6"></use>
                            <path stroke="#FFC107" stroke-width="15" d="M82.75,9.38194187 C81.9764973,8.93535989 81.0235027,8.93535989 80.25,9.38194187 L8.75,50.6624861 C7.97649731,51.1090681 7.5,51.9343857 7.5,52.8275496 L7.5,135.388638 C7.5,136.281802 7.97649731,137.10712 8.75,137.553702 L80.25,178.834246 C81.0235027,179.280828 81.9764973,179.280828 82.75,178.834246 L154.25,137.553702 C155.023503,137.10712 155.5,136.281802 155.5,135.388638 L155.5,52.8275496 C155.5,51.9343857 155.023503,51.1090681 154.25,50.6624861 L82.75,9.38194187 Z"></path>
                        </g>
                        <path d="M99.5714286,111.670759 C99.5714286,113.694579 98.986427,115.38634 97.8164062,116.746094 C96.6463855,118.105848 95.2075978,118.785714 93.5,118.785714 L69.2142857,118.785714 C67.5066879,118.785714 66.0679002,118.105848 64.8978795,116.746094 C63.7278587,115.38634 63.1428571,113.694579 63.1428571,111.670759 C63.1428571,109.646939 63.2851548,107.781259 63.5697545,106.073661 C63.8543541,104.366063 64.3207743,102.721734 64.969029,101.140625 C65.6172837,99.5595159 66.5817458,98.3183639 67.8624442,97.4171317 C69.1431426,96.5158995 70.66889,96.0652902 72.4397321,96.0652902 C74.9695067,98.4369538 77.9419472,99.6227679 81.3571429,99.6227679 C84.7723385,99.6227679 87.744779,98.4369538 90.2745536,96.0652902 C92.0453958,96.0652902 93.5711432,96.5158995 94.8518415,97.4171317 C96.1325399,98.3183639 97.097002,99.5595159 97.7452567,101.140625 C98.3935114,102.721734 98.8599316,104.366063 99.1445312,106.073661 C99.4291309,107.781259 99.5714286,109.646939 99.5714286,111.670759 Z M92.2667411,87.0530134 C92.2667411,90.0254985 91.1995084,92.5631405 89.0650112,94.6660156 C86.9305139,96.7688907 84.3612501,97.8203125 81.3571429,97.8203125 C78.3530356,97.8203125 75.7837718,96.7688907 73.6492746,94.6660156 C71.5147773,92.5631405 70.4475446,90.0254985 70.4475446,87.0530134 C70.4475446,84.0805283 71.5147773,81.5428863 73.6492746,79.4400112 C75.7837718,77.3371361 78.3530356,76.2857143 81.3571429,76.2857143 C84.3612501,76.2857143 86.9305139,77.3371361 89.0650112,79.4400112 C91.1995084,81.5428863 92.2667411,84.0805283 92.2667411,87.0530134 Z M105.642857,129.410714 L105.642857,64.1428571 L57.0714286,64.1428571 L57.0714286,129.410714 C57.0714286,129.821803 57.2216317,130.177547 57.5220424,130.477958 C57.8224531,130.778368 58.1781973,130.928571 58.5892857,130.928571 L104.125,130.928571 C104.536088,130.928571 104.891833,130.778368 105.192243,130.477958 C105.492654,130.177547 105.642857,129.821803 105.642857,129.410714 Z M111.714286,59.5892857 L111.714286,129.410714 C111.714286,131.497778 110.971176,133.284405 109.484933,134.770647 C107.99869,136.25689 106.212064,137 104.125,137 L58.5892857,137 C56.5022217,137 54.7155952,136.25689 53.2293527,134.770647 C51.7431101,133.284405 51,131.497778 51,129.410714 L51,59.5892857 C51,57.5022217 51.7431101,55.7155952 53.2293527,54.2293527 C54.7155952,52.7431101 56.5022217,52 58.5892857,52 L75.2857143,52 L75.2857143,56.5535714 C75.2857143,56.996282 75.428012,57.3599316 75.7126116,57.6445312 C75.9972112,57.9291309 76.3608609,58.0714286 76.8035714,58.0714286 L85.9107143,58.0714286 C86.3534248,58.0714286 86.7170745,57.9291309 87.0016741,57.6445312 C87.2862737,57.3599316 87.4285714,56.996282 87.4285714,56.5535714 L87.4285714,52 L104.125,52 C106.212064,52 107.99869,52.7431101 109.484933,54.2293527 C110.971176,55.7155952 111.714286,57.5022217 111.714286,59.5892857 Z" fill="#FFC107"></path>
                    </g>
                </g>
                <g id="pinax-blog" transform="translate(267.000000, 152.000000)">
                    <g transform="translate(4.000000, 1.000000)">
                        <g id="Polygon-Copy-6">
                            <use fill="#FFE5BF" fill-rule="evenodd" xlink:href="#path-7"></use>
                            <path stroke="#FF9800" stroke-width="15" d="M82.75,9.38194187 C81.9764973,8.93535989 81.0235027,8.93535989 80.25,9.38194187 L8.75,50.6624861 C7.97649731,51.1090681 7.5,51.9343857 7.5,52.8275496 L7.5,135.388638 C7.5,136.281802 7.97649731,137.10712 8.75,137.553702 L80.25,178.834246 C81.0235027,179.280828 81.9764973,179.280828 82.75,178.834246 L154.25,137.553702 C155.023503,137.10712 155.5,136.281802 155.5,135.388638 L155.5,52.8275496 C155.5,51.9343857 155.023503,51.1090681 154.25,50.6624861 L82.75,9.38194187 Z"></path>
                        </g>
                        <path d="M65.5454545,118.727273 C65.5454545,121.303043 64.6439484,123.492415 62.8409091,125.295455 C61.0378698,127.098494 58.8484977,128 56.2727273,128 C53.6969568,128 51.5075848,127.098494 49.7045455,125.295455 C47.9015061,123.492415 47,121.303043 47,118.727273 C47,116.151502 47.9015061,113.96213 49.7045455,112.159091 C51.5075848,110.356052 53.6969568,109.454545 56.2727273,109.454545 C58.8484977,109.454545 61.0378698,110.356052 62.8409091,112.159091 C64.6439484,113.96213 65.5454545,116.151502 65.5454545,118.727273 Z M90.2727273,124.667614 C90.3371215,125.569133 90.06345,126.341853 89.4517045,126.985795 C88.8721562,127.661935 88.115535,128 87.1818182,128 L80.6619318,128 C79.8570036,128 79.1647756,127.734378 78.5852273,127.203125 C78.0056789,126.671872 77.6837124,126.003792 77.6193182,125.198864 C76.9109813,117.825721 73.9408406,111.523227 68.7088068,106.291193 C63.4767731,101.059159 57.1742793,98.0890187 49.8011364,97.3806818 C48.9962081,97.3162876 48.3281277,96.9943211 47.796875,96.4147727 C47.2656223,95.8352244 47,95.1429964 47,94.3380682 L47,87.8181818 C47,86.884465 47.3380648,86.1278438 48.0142045,85.5482955 C48.5615558,85.0009442 49.2537837,84.7272727 50.0909091,84.7272727 L50.3323864,84.7272727 C55.4839273,85.1458354 60.4100144,86.4417505 65.1107955,88.6150568 C69.8115765,90.7883631 73.9810424,93.7102089 77.6193182,97.3806818 C81.2897911,101.018958 84.2116369,105.188423 86.3849432,109.889205 C88.5582495,114.589986 89.8541646,119.516073 90.2727273,124.667614 Z M115,124.764205 C115.064394,125.633527 114.774624,126.390148 114.130682,127.034091 C113.551133,127.678034 112.810611,128 111.909091,128 L105.002841,128 C104.165716,128 103.44934,127.718279 102.853693,127.15483 C102.258046,126.59138 101.944129,125.907201 101.911932,125.102273 C101.525566,118.17989 99.8996355,111.603724 97.0340909,105.37358 C94.1685463,99.1434348 90.4417843,93.7343979 85.8536932,89.1463068 C81.2656021,84.5582157 75.8565652,80.8314537 69.6264205,77.9659091 C63.3962757,75.1003645 56.8201104,73.4583354 49.8977273,73.0397727 C49.092799,73.0075756 48.4086202,72.6936583 47.8451705,72.0980114 C47.2817207,71.5023644 47,70.8020874 47,69.9971591 L47,63.0909091 C47,62.1893894 47.3219665,61.4488665 47.9659091,60.8693182 C48.5454574,60.2897698 49.2537837,60 50.0909091,60 L50.2357955,60 C58.6714437,60.4185627 66.7447531,62.3503616 74.4559659,65.7954545 C82.1671787,69.2405475 89.0170155,73.9734547 95.0056818,79.9943182 C101.026545,85.9829845 105.759452,92.8328213 109.204545,100.544034 C112.649638,108.255247 114.581437,116.328556 115,124.764205 Z" id="pinax-blog-copy" fill="#FF9800"></path>
                    </g>
                </g>
                <g id="pinax-calendars" transform="translate(179.000000, 0.000000)">
                    <g transform="translate(4.000000, 1.000000)">
                        <g id="Polygon-Copy-7">
                            <use fill="#E1EFD1" fill-rule="evenodd" xlink:href="#path-8"></use>
                            <path stroke="#8BC34A" stroke-width="15" d="M82.75,9.38194187 C81.9764973,8.93535989 81.0235027,8.93535989 80.25,9.38194187 L8.75,50.6624861 C7.97649731,51.1090681 7.5,51.9343857 7.5,52.8275496 L7.5,135.388638 C7.5,136.281802 7.97649731,137.10712 8.75,137.553702 L80.25,178.834246 C81.0235027,179.280828 81.9764973,179.280828 82.75,178.834246 L154.25,137.553702 C155.023503,137.10712 155.5,136.281802 155.5,135.388638 L155.5,52.8275496 C155.5,51.9343857 155.023503,51.1090681 154.25,50.6624861 L82.75,9.38194187 Z"></path>
                        </g>
                        <path d="M52.3571429,126.642857 L64.4107143,126.642857 L64.4107143,114.589286 L52.3571429,114.589286 L52.3571429,126.642857 Z M67.0892857,126.642857 L80.4821429,126.642857 L80.4821429,114.589286 L67.0892857,114.589286 L67.0892857,126.642857 Z M52.3571429,111.910714 L64.4107143,111.910714 L64.4107143,98.5178571 L52.3571429,98.5178571 L52.3571429,111.910714 Z M67.0892857,111.910714 L80.4821429,111.910714 L80.4821429,98.5178571 L67.0892857,98.5178571 L67.0892857,111.910714 Z M52.3571429,95.8392857 L64.4107143,95.8392857 L64.4107143,83.7857143 L52.3571429,83.7857143 L52.3571429,95.8392857 Z M83.1607143,126.642857 L96.5535714,126.642857 L96.5535714,114.589286 L83.1607143,114.589286 L83.1607143,126.642857 Z M67.0892857,95.8392857 L80.4821429,95.8392857 L80.4821429,83.7857143 L67.0892857,83.7857143 L67.0892857,95.8392857 Z M99.2321429,126.642857 L111.285714,126.642857 L111.285714,114.589286 L99.2321429,114.589286 L99.2321429,126.642857 Z M83.1607143,111.910714 L96.5535714,111.910714 L96.5535714,98.5178571 L83.1607143,98.5178571 L83.1607143,111.910714 Z M68.4285714,75.75 L68.4285714,63.6964286 C68.4285714,63.3337035 68.2960393,63.0198116 68.030971,62.7547433 C67.7659027,62.489675 67.4520107,62.3571429 67.0892857,62.3571429 L64.4107143,62.3571429 C64.0479893,62.3571429 63.7340973,62.489675 63.469029,62.7547433 C63.2039607,63.0198116 63.0714286,63.3337035 63.0714286,63.6964286 L63.0714286,75.75 C63.0714286,76.112725 63.2039607,76.426617 63.469029,76.6916853 C63.7340973,76.9567536 64.0479893,77.0892857 64.4107143,77.0892857 L67.0892857,77.0892857 C67.4520107,77.0892857 67.7659027,76.9567536 68.030971,76.6916853 C68.2960393,76.426617 68.4285714,76.112725 68.4285714,75.75 Z M99.2321429,111.910714 L111.285714,111.910714 L111.285714,98.5178571 L99.2321429,98.5178571 L99.2321429,111.910714 Z M83.1607143,95.8392857 L96.5535714,95.8392857 L96.5535714,83.7857143 L83.1607143,83.7857143 L83.1607143,95.8392857 Z M99.2321429,95.8392857 L111.285714,95.8392857 L111.285714,83.7857143 L99.2321429,83.7857143 L99.2321429,95.8392857 Z M100.571429,75.75 L100.571429,63.6964286 C100.571429,63.3337035 100.438896,63.0198116 100.173828,62.7547433 C99.9087598,62.489675 99.5948679,62.3571429 99.2321429,62.3571429 L96.5535714,62.3571429 C96.1908464,62.3571429 95.8769545,62.489675 95.6118862,62.7547433 C95.3468179,63.0198116 95.2142857,63.3337035 95.2142857,63.6964286 L95.2142857,75.75 C95.2142857,76.112725 95.3468179,76.426617 95.6118862,76.6916853 C95.8769545,76.9567536 96.1908464,77.0892857 96.5535714,77.0892857 L99.2321429,77.0892857 C99.5948679,77.0892857 99.9087598,76.9567536 100.173828,76.6916853 C100.438896,76.426617 100.571429,76.112725 100.571429,75.75 Z M116.642857,73.0714286 L116.642857,126.642857 C116.642857,128.093757 116.112729,129.349325 115.052455,130.409598 C113.992182,131.469871 112.736614,132 111.285714,132 L52.3571429,132 C50.9062427,132 49.6506749,131.469871 48.5904018,130.409598 C47.5301286,129.349325 47,128.093757 47,126.642857 L47,73.0714286 C47,71.6205285 47.5301286,70.3649607 48.5904018,69.3046875 C49.6506749,68.2444143 50.9062427,67.7142857 52.3571429,67.7142857 L57.7142857,67.7142857 L57.7142857,63.6964286 C57.7142857,61.8549015 58.3699711,60.2784664 59.6813616,58.9670759 C60.9927521,57.6556854 62.5691872,57 64.4107143,57 L67.0892857,57 C68.9308128,57 70.5072479,57.6556854 71.8186384,58.9670759 C73.1300289,60.2784664 73.7857143,61.8549015 73.7857143,63.6964286 L73.7857143,67.7142857 L89.8571429,67.7142857 L89.8571429,63.6964286 C89.8571429,61.8549015 90.5128283,60.2784664 91.8242188,58.9670759 C93.1356092,57.6556854 94.7120444,57 96.5535714,57 L99.2321429,57 C101.07367,57 102.650105,57.6556854 103.961496,58.9670759 C105.272886,60.2784664 105.928571,61.8549015 105.928571,63.6964286 L105.928571,67.7142857 L111.285714,67.7142857 C112.736614,67.7142857 113.992182,68.2444143 115.052455,69.3046875 C116.112729,70.3649607 116.642857,71.6205285 116.642857,73.0714286 Z" fill="#8BC34A"></path>
                    </g>
                </g>
                <g id="pinax-comments" transform="translate(624.000000, 152.000000)">
                    <g transform="translate(4.000000, 1.000000)">
                        <g id="Polygon-Copy-8">
                            <use fill="#D2EAD3" fill-rule="evenodd" xlink:href="#path-9"></use>
                            <path stroke="#4CAF50" stroke-width="15" d="M82.75,9.38194187 C81.9764973,8.93535989 81.0235027,8.93535989 80.25,9.38194187 L8.75,50.6624861 C7.97649731,51.1090681 7.5,51.9343857 7.5,52.8275496 L7.5,135.388638 C7.5,136.281802 7.97649731,137.10712 8.75,137.553702 L80.25,178.834246 C81.0235027,179.280828 81.9764973,179.280828 82.75,178.834246 L154.25,137.553702 C155.023503,137.10712 155.5,136.281802 155.5,135.388638 L155.5,52.8275496 C155.5,51.9343857 155.023503,51.1090681 154.25,50.6624861 L82.75,9.38194187 Z"></path>
                        </g>
                        <path d="M105.994634,84.7253215 C105.994634,89.2003695 104.481511,93.3373123 101.45522,97.1362739 C98.4289282,100.935236 94.300034,103.937336 89.0684131,106.142665 C83.8367922,108.347995 78.1464838,109.450643 71.9973171,109.450643 C69.2285823,109.450643 66.3955009,109.19309 63.4979878,108.677977 C59.5058587,111.511101 55.0308778,113.571524 50.0729109,114.859307 C48.9139057,115.149058 47.5295591,115.406611 45.9198295,115.631973 L45.7749546,115.631973 C45.4208141,115.631973 45.0908245,115.503197 44.7849759,115.24564 C44.4791273,114.988084 44.2940112,114.650045 44.229622,114.231516 C44.1974274,114.134932 44.1813304,114.030301 44.1813304,113.91762 C44.1813304,113.804939 44.1893789,113.700308 44.2054762,113.603724 C44.2215735,113.507141 44.2537676,113.410558 44.3020595,113.313975 L44.4227886,113.072516 C44.4549832,113.008127 44.5113229,112.919593 44.5918094,112.806912 C44.6722958,112.694231 44.736684,112.613746 44.7849759,112.565454 C44.8332678,112.517162 44.9057046,112.436677 45.0022883,112.323996 C45.0988721,112.211315 45.1632603,112.138878 45.1954549,112.106683 C45.3564278,111.913516 45.7266601,111.51109 46.3061627,110.899392 C46.8856653,110.287695 47.3041887,109.812832 47.5617454,109.474789 C47.8193022,109.136746 48.1814859,108.669931 48.6483074,108.074331 C49.115129,107.478731 49.5175553,106.858995 49.8555985,106.215103 C50.1936417,105.571211 50.5236313,104.862941 50.8455772,104.090271 C46.853448,101.77226 43.7145226,98.9230816 41.4287067,95.5426497 C39.1428908,92.1622177 38,88.5564777 38,84.7253215 C38,80.2502735 39.513123,76.1133307 42.5394145,72.3143691 C45.565706,68.5154075 49.6946002,65.513307 54.9262211,63.3079776 C60.157842,61.1026482 65.8481504,60 71.9973171,60 C78.1464838,60 83.8367922,61.1026482 89.0684131,63.3079776 C94.300034,65.513307 98.4289282,68.5154075 101.45522,72.3143691 C104.481511,76.1133307 105.994634,80.2502735 105.994634,84.7253215 Z M124.538625,97.0879823 C124.538625,100.951333 123.395735,104.565122 121.109919,107.929456 C118.824103,111.293791 115.685177,114.134921 111.693048,116.452931 C112.014994,117.225602 112.344984,117.933872 112.683027,118.577764 C113.02107,119.221655 113.423496,119.841392 113.890318,120.436992 C114.357139,121.032592 114.719323,121.499406 114.97688,121.83745 C115.234437,122.175493 115.65296,122.650356 116.232463,123.262053 C116.811965,123.87375 117.182197,124.276177 117.34317,124.469344 C117.375365,124.501539 117.439753,124.573976 117.536337,124.686657 C117.632921,124.799338 117.705358,124.879823 117.753649,124.928115 C117.801941,124.976407 117.866329,125.056892 117.946816,125.169573 C118.027302,125.282254 118.083642,125.370788 118.115837,125.435177 L118.236566,125.676635 C118.284858,125.773219 118.317052,125.869801 118.333149,125.966385 C118.349246,126.062969 118.357295,126.1676 118.357295,126.280281 C118.357295,126.392962 118.341198,126.497593 118.309003,126.594177 C118.21242,127.044901 118.003158,127.399036 117.681212,127.656593 C117.359266,127.914149 117.005131,128.026829 116.618796,127.994634 C115.009066,127.769272 113.62472,127.511719 112.465714,127.221968 C107.507748,125.934184 103.032767,123.873761 99.0406375,121.040637 C96.1431244,121.555751 93.310043,121.813304 90.5413082,121.813304 C81.8165743,121.813304 74.218765,119.688493 67.7476525,115.438807 C69.6149387,115.567585 71.0314794,115.631973 71.9973171,115.631973 C77.1806461,115.631973 82.1546356,114.907606 86.919435,113.458849 C91.6842343,112.010093 95.9338564,109.933573 99.6684289,107.229227 C103.692753,104.267325 106.783387,100.85475 108.940424,96.991399 C111.097462,93.1280482 112.175965,89.0393966 112.175965,84.7253215 C112.175965,82.2463381 111.805732,79.7995859 111.065257,77.3849917 C115.218359,79.6708076 118.502158,82.5360831 120.916752,85.9809043 C123.331346,89.4257254 124.538625,93.1280477 124.538625,97.0879823 Z" fill="#4CAF50"></path>
                    </g>
                </g>
                <g id="pinax-documents" transform="translate(268.000000, 457.000000)">
                    <g transform="translate(3.000000, 1.000000)">
                        <g id="Polygon-Copy-9">
                            <use fill="#BEE4E1" fill-rule="evenodd" xlink:href="#path-10"></use>
                            <path stroke="#009688" stroke-width="15" d="M82.75,9.38194187 C81.9764973,8.93535989 81.0235027,8.93535989 80.25,9.38194187 L8.75,50.6624861 C7.97649731,51.1090681 7.5,51.9343857 7.5,52.8275496 L7.5,135.388638 C7.5,136.281802 7.97649731,137.10712 8.75,137.553702 L80.25,178.834246 C81.0235027,179.280828 81.9764973,179.280828 82.75,178.834246 L154.25,137.553702 C155.023503,137.10712 155.5,136.281802 155.5,135.388638 L155.5,52.8275496 C155.5,51.9343857 155.023503,51.1090681 154.25,50.6624861 L82.75,9.38194187 Z"></path>
                        </g>
                        <path d="M110.439732,72.9040179 C111.220986,73.6852718 111.890622,74.745529 112.448661,76.0848214 C113.006699,77.4241138 113.285714,78.6517801 113.285714,79.7678571 L113.285714,127.982143 C113.285714,129.09822 112.895093,130.046871 112.113839,130.828125 C111.332585,131.609379 110.383934,132 109.267857,132 L53.0178571,132 C51.9017801,132 50.9531289,131.609379 50.171875,130.828125 C49.3906211,130.046871 49,129.09822 49,127.982143 L49,61.0178571 C49,59.9017801 49.3906211,58.9531289 50.171875,58.171875 C50.9531289,57.3906211 51.9017801,57 53.0178571,57 L90.5178571,57 C91.6339342,57 92.8616004,57.2790151 94.2008929,57.8370536 C95.5401853,58.3950921 96.6004425,59.0647282 97.3816964,59.8459821 L110.439732,72.9040179 Z M91.8571429,62.6919643 L91.8571429,78.4285714 L107.59375,78.4285714 C107.314731,77.6194156 107.007814,77.0474347 106.672991,76.7126116 L93.5731027,63.6127232 C93.2382796,63.2779001 92.6662987,62.9709835 91.8571429,62.6919643 Z M107.928571,126.642857 L107.928571,83.7857143 L90.5178571,83.7857143 C89.4017801,83.7857143 88.4531289,83.3950932 87.671875,82.6138393 C86.8906211,81.8325854 86.5,80.8839342 86.5,79.7678571 L86.5,62.3571429 L54.3571429,62.3571429 L54.3571429,126.642857 L107.928571,126.642857 Z M65.0714286,90.4821429 C65.0714286,90.0915159 65.1969854,89.7706486 65.4481027,89.5195313 C65.69922,89.2684139 66.0200873,89.1428571 66.4107143,89.1428571 L95.875,89.1428571 C96.265627,89.1428571 96.5864943,89.2684139 96.8376116,89.5195313 C97.0887289,89.7706486 97.2142857,90.0915159 97.2142857,90.4821429 L97.2142857,93.1607143 C97.2142857,93.5513412 97.0887289,93.8722086 96.8376116,94.1233259 C96.5864943,94.3744432 96.265627,94.5 95.875,94.5 L66.4107143,94.5 C66.0200873,94.5 65.69922,94.3744432 65.4481027,94.1233259 C65.1969854,93.8722086 65.0714286,93.5513412 65.0714286,93.1607143 L65.0714286,90.4821429 Z M95.875,99.8571429 C96.265627,99.8571429 96.5864943,99.9826996 96.8376116,100.233817 C97.0887289,100.484934 97.2142857,100.805802 97.2142857,101.196429 L97.2142857,103.875 C97.2142857,104.265627 97.0887289,104.586494 96.8376116,104.837612 C96.5864943,105.088729 96.265627,105.214286 95.875,105.214286 L66.4107143,105.214286 C66.0200873,105.214286 65.69922,105.088729 65.4481027,104.837612 C65.1969854,104.586494 65.0714286,104.265627 65.0714286,103.875 L65.0714286,101.196429 C65.0714286,100.805802 65.1969854,100.484934 65.4481027,100.233817 C65.69922,99.9826996 66.0200873,99.8571429 66.4107143,99.8571429 L95.875,99.8571429 Z M95.875,110.571429 C96.265627,110.571429 96.5864943,110.696985 96.8376116,110.948103 C97.0887289,111.19922 97.2142857,111.520087 97.2142857,111.910714 L97.2142857,114.589286 C97.2142857,114.979913 97.0887289,115.30078 96.8376116,115.551897 C96.5864943,115.803015 96.265627,115.928571 95.875,115.928571 L66.4107143,115.928571 C66.0200873,115.928571 65.69922,115.803015 65.4481027,115.551897 C65.1969854,115.30078 65.0714286,114.979913 65.0714286,114.589286 L65.0714286,111.910714 C65.0714286,111.520087 65.1969854,111.19922 65.4481027,110.948103 C65.69922,110.696985 66.0200873,110.571429 66.4107143,110.571429 L95.875,110.571429 Z" fill="#009688"></path>
                    </g>
                </g>
                <g id="pinax-forums" transform="translate(446.000000, 457.000000)">
                    <g transform="translate(3.000000, 1.000000)">
                        <g id="Polygon-Copy-10">
                            <use fill="#BEEEF4" fill-rule="evenodd" xlink:href="#path-11"></use>
                            <path stroke="#00BCD4" stroke-width="15" d="M82.75,9.38194187 C81.9764973,8.93535989 81.0235027,8.93535989 80.25,9.38194187 L8.75,50.6624861 C7.97649731,51.1090681 7.5,51.9343857 7.5,52.8275496 L7.5,135.388638 C7.5,136.281802 7.97649731,137.10712 8.75,137.553702 L80.25,178.834246 C81.0235027,179.280828 81.9764973,179.280828 82.75,178.834246 L154.25,137.553702 C155.023503,137.10712 155.5,136.281802 155.5,135.388638 L155.5,52.8275496 C155.5,51.9343857 155.023503,51.1090681 154.25,50.6624861 L82.75,9.38194187 Z"></path>
                        </g>
                        <path d="M68.9122413,88.9122413 C68.9122413,87.1504108 68.2889616,85.6462291 67.0423834,84.3996509 C65.7958052,83.1530728 64.2916235,82.529793 62.529793,82.529793 C60.7679626,82.529793 59.2637808,83.1530728 58.0172027,84.3996509 C56.7706245,85.6462291 56.1473448,87.1504108 56.1473448,88.9122413 C56.1473448,90.6740718 56.7706245,92.1782535 58.0172027,93.4248317 C59.2637808,94.6714098 60.7679626,95.2946896 62.529793,95.2946896 C64.2916235,95.2946896 65.7958052,94.6714098 67.0423834,93.4248317 C68.2889616,92.1782535 68.9122413,90.6740718 68.9122413,88.9122413 Z M88.0595861,88.9122413 C88.0595861,87.1504108 87.4363063,85.6462291 86.1897282,84.3996509 C84.94315,83.1530728 83.4389683,82.529793 81.6771378,82.529793 C79.9153074,82.529793 78.4111256,83.1530728 77.1645474,84.3996509 C75.9179693,85.6462291 75.2946896,87.1504108 75.2946896,88.9122413 C75.2946896,90.6740718 75.9179693,92.1782535 77.1645474,93.4248317 C78.4111256,94.6714098 79.9153074,95.2946896 81.6771378,95.2946896 C83.4389683,95.2946896 84.94315,94.6714098 86.1897282,93.4248317 C87.4363063,92.1782535 88.0595861,90.6740718 88.0595861,88.9122413 Z M107.206931,88.9122413 C107.206931,87.1504108 106.583651,85.6462291 105.337073,84.3996509 C104.090495,83.1530728 102.586313,82.529793 100.824483,82.529793 C99.0626521,82.529793 97.5584704,83.1530728 96.3118922,84.3996509 C95.0653141,85.6462291 94.4420343,87.1504108 94.4420343,88.9122413 C94.4420343,90.6740718 95.0653141,92.1782535 96.3118922,93.4248317 C97.5584704,94.6714098 99.0626521,95.2946896 100.824483,95.2946896 C102.586313,95.2946896 104.090495,94.6714098 105.337073,93.4248317 C106.583651,92.1782535 107.206931,90.6740718 107.206931,88.9122413 Z M126.354276,88.9122413 C126.354276,94.696364 124.35978,100.039949 120.37073,104.943156 C116.38168,109.846364 110.963302,113.719008 104.115432,116.561207 C97.2675631,119.403405 89.7882064,120.824483 81.6771378,120.824483 C78.0205085,120.824483 74.5135213,120.525308 71.1560708,119.926951 C65.4051902,125.677831 58.1751453,129.483993 49.4657193,131.34555 C47.7371309,131.67797 46.3077427,131.894041 45.1775118,131.993767 C44.7786068,132.027009 44.4129494,131.927284 44.0805285,131.69459 C43.7481077,131.461895 43.5320374,131.162721 43.4323111,130.797058 C43.2993428,130.298427 43.6317587,129.683457 44.4295687,128.952132 C44.5957791,128.785921 44.9863677,128.428574 45.6013463,127.88008 C46.2163248,127.331585 46.6401551,126.940997 46.8728497,126.708302 C47.1055442,126.475607 47.4961329,126.051777 48.0446273,125.436799 C48.5931217,124.82182 48.9920207,124.298265 49.2413363,123.866118 C49.4906519,123.433971 49.8313782,122.819002 50.2635253,122.021192 C50.6956724,121.223382 51.0280882,120.425584 51.2607828,119.627774 C51.4934774,118.829964 51.7344789,117.874268 51.9837945,116.760658 C52.2331102,115.647048 52.4408701,114.442041 52.6070805,113.1456 C47.7537362,110.153812 43.9392643,106.55541 41.1635502,102.350287 C38.3878362,98.145163 37,93.6658593 37,88.9122413 C37,83.1281186 38.9944951,77.7845338 42.9835452,72.8813263 C46.9725954,67.9781189 52.3909738,64.1054742 59.2388432,61.263276 C66.0867125,58.4210778 73.5660693,57 81.6771378,57 C89.7882064,57 97.2675631,58.4210778 104.115432,61.263276 C110.963302,64.1054742 116.38168,67.9781189 120.37073,72.8813263 C124.35978,77.7845338 126.354276,83.1281186 126.354276,88.9122413 Z" fill="#00BCD4"></path>
                    </g>
                </g>
                <g id="pinax-images" transform="translate(624.000000, 457.000000)">
                    <g transform="translate(3.000000, 1.000000)">
                        <g id="Polygon-Copy-11">
                            <use fill="#BEE9FC" fill-rule="evenodd" xlink:href="#path-12"></use>
                            <path stroke="#03A9F4" stroke-width="15" d="M82.75,9.38194187 C81.9764973,8.93535989 81.0235027,8.93535989 80.25,9.38194187 L8.75,50.6624861 C7.97649731,51.1090681 7.5,51.9343857 7.5,52.8275496 L7.5,135.388638 C7.5,136.281802 7.97649731,137.10712 8.75,137.553702 L80.25,178.834246 C81.0235027,179.280828 81.9764973,179.280828 82.75,178.834246 L154.25,137.553702 C155.023503,137.10712 155.5,136.281802 155.5,135.388638 L155.5,52.8275496 C155.5,51.9343857 155.023503,51.1090681 154.25,50.6624861 L82.75,9.38194187 Z"></path>
                        </g>
                        <path d="M66.25,78.875 C66.25,81.4791797 65.3385508,83.6926992 63.515625,85.515625 C61.6926992,87.3385508 59.4791797,88.25 56.875,88.25 C54.2708203,88.25 52.0573008,87.3385508 50.234375,85.515625 C48.4114492,83.6926992 47.5,81.4791797 47.5,78.875 C47.5,76.2708203 48.4114492,74.0573008 50.234375,72.234375 C52.0573008,70.4114492 54.2708203,69.5 56.875,69.5 C59.4791797,69.5 61.6926992,70.4114492 63.515625,72.234375 C65.3385508,74.0573008 66.25,76.2708203 66.25,78.875 Z M116.25,97.625 L116.25,119.5 L47.5,119.5 L47.5,110.125 L63.125,94.5 L70.9375,102.3125 L95.9375,77.3125 L116.25,97.625 Z M120.9375,63.25 L42.8125,63.25 C42.3893208,63.25 42.0231135,63.4046208 41.7138672,63.7138672 C41.4046208,64.0231135 41.25,64.3893208 41.25,64.8125 L41.25,124.1875 C41.25,124.610679 41.4046208,124.976886 41.7138672,125.286133 C42.0231135,125.595379 42.3893208,125.75 42.8125,125.75 L120.9375,125.75 C121.360679,125.75 121.726886,125.595379 122.036133,125.286133 C122.345379,124.976886 122.5,124.610679 122.5,124.1875 L122.5,64.8125 C122.5,64.3893208 122.345379,64.0231135 122.036133,63.7138672 C121.726886,63.4046208 121.360679,63.25 120.9375,63.25 Z M128.75,64.8125 L128.75,124.1875 C128.75,126.335948 127.985034,128.175123 126.455078,129.705078 C124.925123,131.235034 123.085948,132 120.9375,132 L42.8125,132 C40.6640518,132 38.8248774,131.235034 37.2949219,129.705078 C35.7649663,128.175123 35,126.335948 35,124.1875 L35,64.8125 C35,62.6640518 35.7649663,60.8248774 37.2949219,59.2949219 C38.8248774,57.7649663 40.6640518,57 42.8125,57 L120.9375,57 C123.085948,57 124.925123,57.7649663 126.455078,59.2949219 C127.985034,60.8248774 128.75,62.6640518 128.75,64.8125 Z" fill="#03A9F4"></path>
                    </g>
                </g>
                <g id="pinax-likes" transform="translate(445.000000, 152.000000)">
                    <g transform="translate(4.000000, 1.000000)">
                        <g id="Polygon-Copy-17">
                            <use fill="#C6E4FB" fill-rule="evenodd" xlink:href="#path-13"></use>
                            <path stroke="#2196F3" stroke-width="15" d="M82.75,9.38194187 C81.9764973,8.93535989 81.0235027,8.93535989 80.25,9.38194187 L8.75,50.6624861 C7.97649731,51.1090681 7.5,51.9343857 7.5,52.8275496 L7.5,135.388638 C7.5,136.281802 7.97649731,137.10712 8.75,137.553702 L80.25,178.834246 C81.0235027,179.280828 81.9764973,179.280828 82.75,178.834246 L154.25,137.553702 C155.023503,137.10712 155.5,136.281802 155.5,135.388638 L155.5,52.8275496 C155.5,51.9343857 155.023503,51.1090681 154.25,50.6624861 L82.75,9.38194187 Z"></path>
                        </g>
                        <path d="M54.5,116.375 C54.5,115.528642 54.1907583,114.796227 53.5722656,114.177734 C52.9537729,113.559242 52.2213584,113.25 51.375,113.25 C50.4960894,113.25 49.7555369,113.559242 49.1533203,114.177734 C48.5511038,114.796227 48.25,115.528642 48.25,116.375 C48.25,117.253911 48.5511038,117.994463 49.1533203,118.59668 C49.7555369,119.198896 50.4960894,119.5 51.375,119.5 C52.2213584,119.5 52.9537729,119.198896 53.5722656,118.59668 C54.1907583,117.994463 54.5,117.253911 54.5,116.375 Z M62.3125,91.375 L62.3125,122.625 C62.3125,123.471358 62.0032583,124.203773 61.3847656,124.822266 C60.7662729,125.440758 60.0338584,125.75 59.1875,125.75 L45.125,125.75 C44.2786416,125.75 43.5462271,125.440758 42.9277344,124.822266 C42.3092417,124.203773 42,123.471358 42,122.625 L42,91.375 C42,90.5286416 42.3092417,89.7962271 42.9277344,89.1777344 C43.5462271,88.5592417 44.2786416,88.25 45.125,88.25 L59.1875,88.25 C60.0338584,88.25 60.7662729,88.5592417 61.3847656,89.1777344 C62.0032583,89.7962271 62.3125,90.5286416 62.3125,91.375 Z M120.125,91.375 C120.125,94.1744932 119.229827,96.5995991 117.439453,98.6503906 C117.927737,100.082689 118.171875,101.319656 118.171875,102.361328 C118.269532,104.835299 117.569669,107.065094 116.072266,109.050781 C116.625654,110.873707 116.625654,112.777985 116.072266,114.763672 C115.583982,116.61915 114.705084,118.149083 113.435547,119.353516 C113.728517,122.999367 112.930999,125.945301 111.042969,128.191406 C108.959625,130.665377 105.753277,131.934896 101.423828,132 L95.125,132 C92.9765518,132 90.6328252,131.747724 88.09375,131.243164 C85.5546748,130.738604 83.5771555,130.266604 82.1611328,129.827148 C80.7451101,129.387693 78.7838667,128.744796 76.2773437,127.898438 C72.2734175,126.498691 69.7018286,125.782552 68.5625,125.75 C67.7161416,125.717448 66.9837271,125.400068 66.3652344,124.797852 C65.7467417,124.195635 65.4375,123.471358 65.4375,122.625 L65.4375,91.3261719 C65.4375,90.5123657 65.7304658,89.804365 66.3164062,89.2021484 C66.9023467,88.5999319 67.6022095,88.2662764 68.4160156,88.2011719 C69.1972695,88.1360674 70.4342363,87.1757905 72.1269531,85.3203125 C73.8196699,83.4648345 75.4635337,81.4954531 77.0585937,79.4121094 C79.2721465,76.580064 80.9160103,74.6269585 81.9902344,73.5527344 C82.5761748,72.9667939 83.0807271,72.1855518 83.5039062,71.2089844 C83.9270854,70.232417 84.2119133,69.4430369 84.3583984,68.8408203 C84.5048835,68.2386038 84.7246079,67.2539131 85.0175781,65.8867188 C85.2454438,64.6171812 85.4488923,63.6243525 85.6279297,62.9082031 C85.806967,62.1920537 86.1243467,61.345708 86.5800781,60.3691406 C87.0358096,59.3925732 87.5891895,58.5787793 88.2402344,57.9277344 C88.8587271,57.3092417 89.5911416,57 90.4375,57 C91.9349033,57 93.2776633,57.1708967 94.4658203,57.5126953 C95.6539773,57.8544939 96.63053,58.2776667 97.3955078,58.7822266 C98.1604856,59.2867864 98.8115208,59.9459595 99.3486328,60.7597656 C99.8857449,61.5735718 100.276366,62.3059863 100.520508,62.9570313 C100.76465,63.6080762 100.95996,64.4218701 101.106445,65.3984375 C101.25293,66.3750049 101.33431,67.1074194 101.350586,67.5957031 C101.366862,68.0839868 101.375,68.7187461 101.375,69.5 C101.375,70.7369854 101.220379,71.9739521 100.911133,73.2109375 C100.601886,74.4479229 100.292645,75.4244756 99.9833984,76.140625 C99.6741521,76.8567744 99.2265654,77.7682236 98.640625,78.875 C98.5429683,79.0703135 98.3802095,79.3632793 98.1523437,79.7539062 C97.924478,80.1445332 97.7454434,80.5026025 97.6152344,80.828125 C97.4850254,81.1536475 97.3548184,81.5442686 97.2246094,82 L110.75,82 C113.289075,82 115.486319,82.9277251 117.341797,84.7832031 C119.197275,86.6386812 120.125,88.8359248 120.125,91.375 Z" fill="#2196F3"></path>
                    </g>
                </g>
                <g id="pinax-messages" transform="translate(802.000000, 152.000000)">
                    <g transform="translate(4.000000, 1.000000)">
                        <g id="Polygon-Copy-16">
                            <use fill="#CED3EC" fill-rule="evenodd" xlink:href="#path-14"></use>
                            <path stroke="#3F51B5" stroke-width="15" d="M82.75,9.38194187 C81.9764973,8.93535989 81.0235027,8.93535989 80.25,9.38194187 L8.75,50.6624861 C7.97649731,51.1090681 7.5,51.9343857 7.5,52.8275496 L7.5,135.388638 C7.5,136.281802 7.97649731,137.10712 8.75,137.553702 L80.25,178.834246 C81.0235027,179.280828 81.9764973,179.280828 82.75,178.834246 L154.25,137.553702 C155.023503,137.10712 155.5,136.281802 155.5,135.388638 L155.5,52.8275496 C155.5,51.9343857 155.023503,51.1090681 154.25,50.6624861 L82.75,9.38194187 Z"></path>
                        </g>
                        <path d="M125.482475,88.2437411 C125.482475,93.9066975 123.529761,99.1383446 119.624274,103.938839 C115.718787,108.739334 110.413913,112.530854 103.709493,115.313514 C97.0050735,118.096173 89.6823949,119.487482 81.7412376,119.487482 C79.4630368,119.487482 77.103507,119.357301 74.6625775,119.096936 C68.2185237,124.792438 60.7331189,128.730411 52.2061386,130.910975 C50.611398,131.366615 48.7563194,131.724613 46.6408472,131.984979 C46.0875698,132.05007 45.5912549,131.903617 45.1518876,131.545614 C44.7125203,131.187611 44.4277495,130.715705 44.2975666,130.129882 C44.1999294,129.95088 44.1917931,129.755609 44.2731574,129.495243 C44.3545217,129.234877 44.387067,129.072151 44.3707941,129.00706 C44.3545212,128.941968 44.427748,128.787378 44.5904766,128.543285 L44.8833867,128.10392 C44.9159324,128.055102 45.0298408,127.916784 45.2251151,127.688964 C45.4203895,127.461144 45.5505705,127.314691 45.6156619,127.249599 C45.843482,126.989233 46.3479332,126.427828 47.1290306,125.565366 C47.9101281,124.702905 48.4715334,124.084545 48.8132635,123.710269 C49.1549937,123.335993 49.6594449,122.693225 50.3266322,121.781945 C50.9938196,120.870664 51.5226798,120.040761 51.9132285,119.292209 C52.3037772,118.543657 52.7431379,117.583573 53.2313238,116.411927 C53.7195097,115.24028 54.1425978,114.003561 54.5006008,112.701732 C49.3909217,109.805163 45.3634485,106.225186 42.4180603,101.961696 C39.472672,97.6982061 38,93.1256001 38,88.2437411 C38,84.0127967 39.155356,79.9690509 41.4661025,76.1123823 C43.7768491,72.2557137 46.8849194,68.9279631 50.7904065,66.1290306 C54.6958937,63.3300981 59.3498628,61.1088856 64.7524534,59.4653264 C70.1550439,57.8217673 75.8179154,57 81.7412376,57 C89.6823949,57 97.0050735,58.3913089 103.709493,61.1739685 C110.413913,63.9566282 115.718787,67.7481484 119.624274,72.5486431 C123.529761,77.3491377 125.482475,82.5807848 125.482475,88.2437411 Z" fill="#3F51B5"></path>
                    </g>
                </g>
                <g id="pinax-news" transform="translate(89.000000, 152.000000)">
                    <g transform="translate(4.000000, 1.000000)">
                        <g id="Polygon-Copy-15">
                            <use fill="#D8CDEC" fill-rule="evenodd" xlink:href="#path-15"></use>
                            <path stroke="#673AB7" stroke-width="15" d="M82.75,9.38194187 C81.9764973,8.93535989 81.0235027,8.93535989 80.25,9.38194187 L8.75,50.6624861 C7.97649731,51.1090681 7.5,51.9343857 7.5,52.8275496 L7.5,135.388638 C7.5,136.281802 7.97649731,137.10712 8.75,137.553702 L80.25,178.834246 C81.0235027,179.280828 81.9764973,179.280828 82.75,178.834246 L154.25,137.553702 C155.023503,137.10712 155.5,136.281802 155.5,135.388638 L155.5,52.8275496 C155.5,51.9343857 155.023503,51.1090681 154.25,50.6624861 L82.75,9.38194187 Z"></path>
                        </g>
                        <path d="M81.4545455,78.5454545 L62.9090909,78.5454545 L62.9090909,97.0909091 L81.4545455,97.0909091 L81.4545455,78.5454545 Z M87.6363636,109.454545 L87.6363636,115.636364 L56.7272727,115.636364 L56.7272727,109.454545 L87.6363636,109.454545 Z M87.6363636,72.3636364 L87.6363636,103.272727 L56.7272727,103.272727 L56.7272727,72.3636364 L87.6363636,72.3636364 Z M118.545455,109.454545 L118.545455,115.636364 L93.8181818,115.636364 L93.8181818,109.454545 L118.545455,109.454545 Z M118.545455,97.0909091 L118.545455,103.272727 L93.8181818,103.272727 L93.8181818,97.0909091 L118.545455,97.0909091 Z M118.545455,84.7272727 L118.545455,90.9090909 L93.8181818,90.9090909 L93.8181818,84.7272727 L118.545455,84.7272727 Z M118.545455,72.3636364 L118.545455,78.5454545 L93.8181818,78.5454545 L93.8181818,72.3636364 L118.545455,72.3636364 Z M44.3636364,118.727273 L44.3636364,72.3636364 L38.1818182,72.3636364 L38.1818182,118.727273 C38.1818182,119.564398 38.4876863,120.288823 39.0994318,120.900568 C39.7111773,121.512314 40.4356019,121.818182 41.2727273,121.818182 C42.1098527,121.818182 42.8342772,121.512314 43.4460227,120.900568 C44.0577682,120.288823 44.3636364,119.564398 44.3636364,118.727273 Z M124.727273,118.727273 L124.727273,66.1818182 L50.5454545,66.1818182 L50.5454545,118.727273 C50.5454545,119.789778 50.368373,120.820071 50.0142045,121.818182 L121.636364,121.818182 C122.473489,121.818182 123.197914,121.512314 123.809659,120.900568 C124.421405,120.288823 124.727273,119.564398 124.727273,118.727273 Z M130.909091,60 L130.909091,118.727273 C130.909091,121.303043 130.007585,123.492415 128.204545,125.295455 C126.401506,127.098494 124.212134,128 121.636364,128 L41.2727273,128 C38.6969568,128 36.5075848,127.098494 34.7045455,125.295455 C32.9015061,123.492415 32,121.303043 32,118.727273 L32,66.1818182 L44.3636364,66.1818182 L44.3636364,60 L130.909091,60 Z" fill="#673AB7"></path>
                    </g>
                </g>
                <g id="pinax-notifications" transform="translate(357.000000, 0.000000)">
                    <g transform="translate(3.000000, 1.000000)">
                        <g id="Polygon-Copy-14">
                            <use fill="#E6C8EB" fill-rule="evenodd" xlink:href="#path-16"></use>
                            <path stroke="#9C27B0" stroke-width="15" d="M82.75,9.38194187 C81.9764973,8.93535989 81.0235027,8.93535989 80.25,9.38194187 L8.75,50.6624861 C7.97649731,51.1090681 7.5,51.9343857 7.5,52.8275496 L7.5,135.388638 C7.5,136.281802 7.97649731,137.10712 8.75,137.553702 L80.25,178.834246 C81.0235027,179.280828 81.9764973,179.280828 82.75,178.834246 L154.25,137.553702 C155.023503,137.10712 155.5,136.281802 155.5,135.388638 L155.5,52.8275496 C155.5,51.9343857 155.023503,51.1090681 154.25,50.6624861 L82.75,9.38194187 Z"></path>
                        </g>
                        <path d="M82.4910714,127.982143 C82.4910714,127.535712 82.2678594,127.3125 81.8214286,127.3125 C80.175215,127.3125 78.7592135,126.719593 77.5733817,125.533761 C76.3875499,124.347929 75.7946429,122.931928 75.7946429,121.285714 C75.7946429,120.839283 75.5714308,120.616071 75.125,120.616071 C74.6785692,120.616071 74.4553571,120.839283 74.4553571,121.285714 C74.4553571,123.322555 75.1738209,125.059424 76.6107701,126.496373 C78.0477192,127.933322 79.784588,128.651786 81.8214286,128.651786 C82.2678594,128.651786 82.4910714,128.428574 82.4910714,127.982143 Z M116.642857,115.928571 C116.642857,117.379472 116.112729,118.635039 115.052455,119.695312 C113.992182,120.755586 112.736614,121.285714 111.285714,121.285714 L92.5357143,121.285714 C92.5357143,124.243318 91.4894078,126.768405 89.3967634,128.861049 C87.304119,130.953693 84.7790326,132 81.8214286,132 C78.8638245,132 76.3387381,130.953693 74.2460938,128.861049 C72.1534494,126.768405 71.1071429,124.243318 71.1071429,121.285714 L52.3571429,121.285714 C50.9062427,121.285714 49.6506749,120.755586 48.5904018,119.695312 C47.5301286,118.635039 47,117.379472 47,115.928571 C48.3950963,114.756691 49.6646148,113.529024 50.8085938,112.245536 C51.9525727,110.962047 53.1383867,109.294932 54.3660714,107.244141 C55.5937561,105.193349 56.6330873,102.982155 57.484096,100.610491 C58.3351047,98.2388274 59.0326424,95.3649722 59.5767299,91.9888393 C60.1208175,88.6127063 60.3928571,84.9855105 60.3928571,81.1071429 C60.3928571,76.8660502 62.0250953,72.9249624 65.2896205,69.2837612 C68.5541458,65.6425599 72.8370271,63.4313655 78.1383929,62.6501116 C77.9151775,62.119975 77.8035714,61.5758956 77.8035714,61.0178571 C77.8035714,59.9017801 78.1941925,58.9531289 78.9754464,58.171875 C79.7567003,57.3906211 80.7053516,57 81.8214286,57 C82.9375056,57 83.8861568,57.3906211 84.6674107,58.171875 C85.4486646,58.9531289 85.8392857,59.9017801 85.8392857,61.0178571 C85.8392857,61.5758956 85.7276797,62.119975 85.5044643,62.6501116 C90.8058301,63.4313655 95.0887114,65.6425599 98.3532366,69.2837612 C101.617762,72.9249624 103.25,76.8660502 103.25,81.1071429 C103.25,84.9855105 103.52204,88.6127063 104.066127,91.9888393 C104.610215,95.3649722 105.307752,98.2388274 106.158761,100.610491 C107.00977,102.982155 108.049101,105.193349 109.276786,107.244141 C110.50447,109.294932 111.690284,110.962047 112.834263,112.245536 C113.978242,113.529024 115.247761,114.756691 116.642857,115.928571 Z" fill="#9C27B0"></path>
                    </g>
                </g>
                <g id="pinax-phone-confirmation" transform="translate(535.000000, 0.000000)">
                    <g transform="translate(3.000000, 1.000000)">
                        <g id="Polygon-Copy-13">
                            <use fill="#FAC6D7" fill-rule="evenodd" xlink:href="#path-17"></use>
                            <path stroke="#E91E63" stroke-width="15" d="M82.75,9.38194187 C81.9764973,8.93535989 81.0235027,8.93535989 80.25,9.38194187 L8.75,50.6624861 C7.97649731,51.1090681 7.5,51.9343857 7.5,52.8275496 L7.5,135.388638 C7.5,136.281802 7.97649731,137.10712 8.75,137.553702 L80.25,178.834246 C81.0235027,179.280828 81.9764973,179.280828 82.75,178.834246 L154.25,137.553702 C155.023503,137.10712 155.5,136.281802 155.5,135.388638 L155.5,52.8275496 C155.5,51.9343857 155.023503,51.1090681 154.25,50.6624861 L82.75,9.38194187 Z"></path>
                        </g>
                        <path d="M116,113.704545 C116,114.573868 115.839017,115.7088 115.517045,117.109375 C115.195074,118.50995 114.857009,119.612685 114.502841,120.417614 C113.826701,122.02747 111.862706,123.733892 108.610795,125.536932 C105.584265,127.178985 102.589977,128 99.6278409,128 C98.7585184,128 97.9053072,127.943656 97.0681818,127.830966 C96.2310564,127.718276 95.3054028,127.517047 94.2911932,127.227273 C93.2769836,126.937499 92.5203623,126.704073 92.0213068,126.526989 C91.5222513,126.349904 90.6287943,126.019889 89.3409091,125.536932 C88.0530239,125.053975 87.264206,124.764205 86.9744318,124.667614 C83.819113,123.540714 81.0019063,122.204553 78.5227273,120.659091 C74.4336917,118.115518 70.1837342,114.63828 65.7727273,110.227273 C61.3617204,105.816266 57.8844824,101.566308 55.3409091,97.4772727 C53.7954468,94.9980937 52.4592859,92.180887 51.3323864,89.0255682 C51.235795,88.735794 50.9460251,87.9469761 50.4630682,86.6590909 C49.9801112,85.3712057 49.6500956,84.4777487 49.4730114,83.9786932 C49.2959271,83.4796377 49.0625014,82.7230164 48.7727273,81.7088068 C48.4829531,80.6945972 48.281724,79.7689436 48.1690341,78.9318182 C48.0563441,78.0946928 48,77.2414816 48,76.3721591 C48,73.4100231 48.8210145,70.4157348 50.4630682,67.3892045 C52.2661075,64.1372943 53.9725298,62.1732988 55.5823864,61.4971591 C56.3873146,61.1429907 57.4900498,60.8049259 58.890625,60.4829545 C60.2912002,60.1609832 61.426132,60 62.2954545,60 C62.7462144,60 63.0842792,60.048295 63.3096591,60.1448864 C63.8892074,60.3380691 64.7424186,61.5615418 65.8693182,63.8153409 C66.2234866,64.4270864 66.7064363,65.2963959 67.3181818,66.4232955 C67.9299273,67.550195 68.4933686,68.5724386 69.0085227,69.4900568 C69.5236768,70.407675 70.0227249,71.2689354 70.5056818,72.0738636 C70.6022732,72.2026522 70.8839939,72.6051103 71.3508523,73.28125 C71.8177107,73.9573897 72.1638246,74.5288802 72.3892045,74.9957386 C72.6145845,75.462597 72.7272727,75.9213993 72.7272727,76.3721591 C72.7272727,77.0161017 72.2684705,77.8210179 71.3508523,78.7869318 C70.433234,79.7528457 69.435138,80.6382536 68.3565341,81.4431818 C67.2779302,82.2481101 66.2798341,83.1013212 65.3622159,84.0028409 C64.4445977,84.9043606 63.9857955,85.6448835 63.9857955,86.2244318 C63.9857955,86.514206 64.0662871,86.8764183 64.2272727,87.3110795 C64.3882584,87.7457408 64.5250941,88.0757564 64.6377841,88.3011364 C64.750474,88.5265163 64.9758506,88.9128761 65.3139205,89.4602273 C65.6519903,90.0075785 65.8371211,90.3134466 65.8693182,90.3778409 C68.3163001,94.7888478 71.1174085,98.5719539 74.2727273,101.727273 C77.4280461,104.882592 81.2111522,107.6837 85.6221591,110.130682 C85.6865534,110.162879 85.9924215,110.34801 86.5397727,110.68608 C87.0871239,111.024149 87.4734837,111.249526 87.6988636,111.362216 C87.9242436,111.474906 88.2542592,111.611742 88.6889205,111.772727 C89.1235817,111.933713 89.485794,112.014205 89.7755682,112.014205 C90.3551165,112.014205 91.0956394,111.555402 91.9971591,110.637784 C92.8986788,109.720166 93.7518899,108.72207 94.5568182,107.643466 C95.3617464,106.564862 96.2471543,105.566766 97.2130682,104.649148 C98.1789821,103.73153 98.9838983,103.272727 99.6278409,103.272727 C100.078601,103.272727 100.537403,103.385416 101.004261,103.610795 C101.47112,103.836175 102.04261,104.182289 102.71875,104.649148 C103.39489,105.116006 103.797348,105.397727 103.926136,105.494318 C104.731065,105.977275 105.592325,106.476323 106.509943,106.991477 C107.427561,107.506631 108.449805,108.070073 109.576705,108.681818 C110.703604,109.293564 111.572914,109.776513 112.184659,110.130682 C114.438458,111.257581 115.661931,112.110793 115.855114,112.690341 C115.951705,112.915721 116,113.253786 116,113.704545 Z" fill="#E91E63"></path>
                    </g>
                </g>
                <g id="pinax-points" transform="translate(179.000000, 305.000000)">
                    <g transform="translate(3.000000, 1.000000)">
                        <g id="Polygon-Copy-12">
                            <use fill="#FDCFCC" fill-rule="evenodd" xlink:href="#path-18"></use>
                            <path stroke="#F44336" stroke-width="15" d="M82.75,9.38194187 C81.9764973,8.93535989 81.0235027,8.93535989 80.25,9.38194187 L8.75,50.6624861 C7.97649731,51.1090681 7.5,51.9343857 7.5,52.8275496 L7.5,135.388638 C7.5,136.281802 7.97649731,137.10712 8.75,137.553702 L80.25,178.834246 C81.0235027,179.280828 81.9764973,179.280828 82.75,178.834246 L154.25,137.553702 C155.023503,137.10712 155.5,136.281802 155.5,135.388638 L155.5,52.8275496 C155.5,51.9343857 155.023503,51.1090681 154.25,50.6624861 L82.75,9.38194187 Z"></path>
                        </g>
                        <path d="M62.2578125,93.3398438 C59.7525916,87.8554413 58.5,81.5755562 58.5,74.5 L45.5,74.5 L45.5,79.375 C45.5,82.0156382 47.0995934,84.7577983 50.2988281,87.6015625 C53.4980629,90.4453267 57.4843511,92.358068 62.2578125,93.3398438 Z M117,79.375 L117,74.5 L104,74.5 C104,81.5755562 102.747408,87.8554413 100.242188,93.3398438 C105.015649,92.358068 109.001937,90.4453267 112.201172,87.6015625 C115.400407,84.7577983 117,82.0156382 117,79.375 Z M123.5,72.875 L123.5,79.375 C123.5,81.7786579 122.797533,84.1992066 121.392578,86.6367188 C119.987623,89.0742309 118.091809,91.2747298 115.705078,93.2382813 C113.318347,95.2018327 110.389991,96.8522069 106.919922,98.1894531 C103.449852,99.5266994 99.8021025,100.279947 95.9765625,100.449219 C94.5546804,102.277353 92.9466236,103.88541 91.1523438,105.273438 C89.865879,106.424485 88.977216,107.651686 88.4863281,108.955078 C87.9954403,110.25847 87.75,111.773429 87.75,113.5 C87.75,115.328134 88.2662709,116.868483 89.2988281,118.121094 C90.3313854,119.373704 91.9817595,120 94.25,120 C96.7890752,120 99.0488182,120.770175 101.029297,122.310547 C103.009776,123.850919 104,125.789051 104,128.125 L104,131.375 C104,131.848961 103.847658,132.23828 103.542969,132.542969 C103.23828,132.847658 102.848961,133 102.375,133 L60.125,133 C59.6510393,133 59.2617203,132.847658 58.9570313,132.542969 C58.6523422,132.23828 58.5,131.848961 58.5,131.375 L58.5,128.125 C58.5,125.789051 59.4902245,123.850919 61.4707031,122.310547 C63.4511818,120.770175 65.7109248,120 68.25,120 C70.5182405,120 72.1686146,119.373704 73.2011719,118.121094 C74.2337291,116.868483 74.75,115.328134 74.75,113.5 C74.75,111.773429 74.5045597,110.25847 74.0136719,108.955078 C73.522784,107.651686 72.634121,106.424485 71.3476563,105.273438 C69.5533764,103.88541 67.9453196,102.277353 66.5234375,100.449219 C62.6978975,100.279947 59.0501476,99.5266994 55.5800781,98.1894531 C52.1100087,96.8522069 49.1816526,95.2018327 46.7949219,93.2382813 C44.4081912,91.2747298 42.5123768,89.0742309 41.1074219,86.6367188 C39.7024669,84.1992066 39,81.7786579 39,79.375 L39,72.875 C39,71.5208266 39.4739536,70.3697964 40.421875,69.421875 C41.3697964,68.4739536 42.5208266,68 43.875,68 L58.5,68 L58.5,63.125 C58.5,60.8906138 59.295565,58.9778725 60.8867188,57.3867187 C62.4778725,55.795565 64.3906138,55 66.625,55 L95.875,55 C98.1093862,55 100.022127,55.795565 101.613281,57.3867187 C103.204435,58.9778725 104,60.8906138 104,63.125 L104,68 L118.625,68 C119.979173,68 121.130204,68.4739536 122.078125,69.421875 C123.026046,70.3697964 123.5,71.5208266 123.5,72.875 Z" fill="#F44336"></path>
                    </g>
                </g>
                <g id="pinax-ratings" transform="translate(0.000000, 305.000000)">
                    <g transform="translate(3.000000, 1.000000)">
                        <g id="Polygon-Copy-23">
                            <use fill="#607D8B" fill-rule="evenodd" xlink:href="#path-19"></use>
                            <path stroke="#FFEB3B" stroke-width="15" d="M82.75,9.38194187 C81.9764973,8.93535989 81.0235027,8.93535989 80.25,9.38194187 L8.75,50.6624861 C7.97649731,51.1090681 7.5,51.9343857 7.5,52.8275496 L7.5,135.388638 C7.5,136.281802 7.97649731,137.10712 8.75,137.553702 L80.25,178.834246 C81.0235027,179.280828 81.9764973,179.280828 82.75,178.834246 L154.25,137.553702 C155.023503,137.10712 155.5,136.281802 155.5,135.388638 L155.5,52.8275496 C155.5,51.9343857 155.023503,51.1090681 154.25,50.6624861 L82.75,9.38194187 Z"></path>
                        </g>
                        <path d="M122.784499,85.2268431 C122.784499,85.9477037 122.358542,86.7340852 121.506616,87.5860113 L103.665406,104.984877 L107.89225,129.559546 C107.925016,129.788911 107.941399,130.11657 107.941399,130.542533 C107.941399,131.230627 107.769378,131.812222 107.425331,132.287335 C107.081284,132.762447 106.581604,133 105.926276,133 C105.303715,133 104.648397,132.803405 103.960302,132.410208 L81.8922495,120.810964 L59.8241966,132.410208 C59.103336,132.803405 58.4480181,133 57.8582231,133 C57.1701289,133 56.654066,132.762447 56.3100189,132.287335 C55.9659718,131.812222 55.7939509,131.230627 55.7939509,130.542533 C55.7939509,130.345935 55.8267167,130.018276 55.8922495,129.559546 L60.1190926,104.984877 L42.2287335,87.5860113 C41.4095737,86.7013188 41,85.9149373 41,85.2268431 C41,84.0144867 41.9174451,83.260871 43.7523629,82.9659735 L68.4253308,79.3780718 L79.4839319,57.0151229 C80.1064933,55.6717009 80.9092578,55 81.8922495,55 C82.8752412,55 83.6780057,55.6717009 84.3005671,57.0151229 L95.3591682,79.3780718 L120.032136,82.9659735 C121.867054,83.260871 122.784499,84.0144867 122.784499,85.2268431 Z" fill="#FFEB3B"></path>
                    </g>
                </g>
                <g id="pinax-referrals">
                    <g transform="translate(4.000000, 1.000000)">
                        <g id="Polygon-Copy-22">
                            <use fill="#C6E4FB" fill-rule="evenodd" xlink:href="#path-20"></use>
                            <path stroke="#FF6977" stroke-width="15" d="M82.5325501,7.86802268 C81.7508506,7.40885292 80.7818273,7.40885292 80.0001277,7.86802268 L8.73378877,49.7298195 C7.9694351,50.1788003 7.5,50.9989771 7.5,51.8854421 L7.5,135.909853 C7.5,136.796318 7.9694351,137.616495 8.73378877,138.065476 L80.0001277,179.927273 C80.7818273,180.386442 81.7508506,180.386442 82.5325501,179.927273 L153.798889,138.065476 C154.563243,137.616495 155.032678,136.796318 155.032678,135.909853 L155.032678,51.8854421 C155.032678,50.9989771 154.563243,50.1788003 153.798889,49.7298195 L82.5325501,7.86802268 Z"></path>
                        </g>
                        <path d="M96.1111111,120.402928 C96.1111111,120.823905 95.9599263,121.188207 95.6575521,121.495844 C95.3551779,121.803481 94.9971086,121.957298 94.5833333,121.957298 L48.75,121.957298 C48.4953691,121.957298 48.2805275,121.924915 48.1054688,121.86015 C47.93041,121.795384 47.7871823,121.682046 47.6757812,121.520131 C47.5643802,121.358217 47.4768522,121.228687 47.4131944,121.131539 C47.3495367,121.03439 47.3017941,120.848192 47.2699653,120.572937 C47.2381364,120.297683 47.2222222,120.111485 47.2222222,120.014336 L47.2222222,90.8699101 L38.0555556,90.8699101 C37.2280051,90.8699101 36.5118664,90.5622775 35.9071181,89.9470033 C35.3023697,89.331729 35,88.6031256 35,87.7611713 C35,86.9839827 35.2387129,86.3201441 35.7161458,85.7696355 L50.9939236,67.117203 C51.598672,66.4047801 52.3784674,66.048574 53.3333333,66.048574 C54.2881992,66.048574 55.0679947,66.4047801 55.6727431,67.117203 L70.9505208,85.7696355 C71.4279538,86.3201441 71.6666667,86.9839827 71.6666667,87.7611713 C71.6666667,88.6031256 71.364297,89.331729 70.7595486,89.9470033 C70.1548002,90.5622775 69.4386615,90.8699101 68.6111111,90.8699101 L59.4444444,90.8699101 L59.4444444,109.522343 L86.9444444,109.522343 C87.4537063,109.522343 87.8515611,109.700446 88.1380208,110.056657 L95.7769097,119.382873 C95.9997118,119.706702 96.1111111,120.046717 96.1111111,120.402928 Z M126.666667,100.196126 C126.666667,100.973315 126.427954,101.637154 125.950521,102.187662 L110.672743,120.840095 C110.036166,121.5849 109.25637,121.957298 108.333333,121.957298 C107.410296,121.957298 106.630501,121.5849 105.993924,120.840095 L90.7161458,102.187662 C90.2387129,101.637154 90,100.973315 90,100.196126 C90,99.3541721 90.3023697,98.6255687 90.9071181,98.0102944 C91.5118664,97.3950201 92.2280051,97.0873876 93.0555556,97.0873876 L102.222222,97.0873876 L102.222222,78.434955 L74.7222222,78.434955 C74.2129604,78.434955 73.8151056,78.2406608 73.5286458,77.8520665 L65.8897569,68.5258502 C65.6669549,68.2344045 65.5555556,67.9105808 65.5555556,67.5543694 C65.5555556,67.1333922 65.7067404,66.7690906 66.0091146,66.4614534 C66.3114888,66.1538163 66.6695581,66 67.0833333,66 L112.916667,66 C113.171298,66 113.386139,66.0323824 113.561198,66.0971481 C113.736257,66.1619138 113.879484,66.2752521 113.990885,66.4371664 C114.102286,66.5990807 114.189814,66.7286102 114.253472,66.8257587 C114.31713,66.9229073 114.364873,67.1091059 114.396701,67.3843602 C114.42853,67.6596145 114.444444,67.8458132 114.444444,67.9429617 L114.444444,97.0873876 L123.611111,97.0873876 C124.438662,97.0873876 125.1548,97.3950201 125.759549,98.0102944 C126.364297,98.6255687 126.666667,99.3541721 126.666667,100.196126 Z" fill="#FF6977"></path>
                    </g>
                </g>
            </g>
        </g>
    </g>
</svg>